<?xml version="1.0" encoding="utf-8"?>
<!-- Generator: Adobe Illustrator 26.0.1, SVG Export Plug-In . SVG Version: 6.00 Build 0)  -->
<svg version="1.1" id="Layer_1" xmlns="http://www.w3.org/2000/svg" xmlns:xlink="http://www.w3.org/1999/xlink" x="0px" y="0px"
	 viewBox="0 0 1024 1024" style="enable-background:new 0 0 1024 1024;" xml:space="preserve">
<style type="text/css">
	.st0{fill:#DCE6FD;}
	.st1{fill:#3A56CB;}
	.st2{fill:#91B5F9;}
	.st3{fill:#FE6862;}
	.st4{fill:#7897F8;}
	.st5{fill:#080624;}
	.st6{fill:#6F7DFC;}
	.st7{fill:#1C1C7A;}
	.st8{fill:#2546B3;}
	.st9{fill:#F98A8D;}
	.st10{fill:#47547B;}
	.st11{fill:#A2596A;}
	.st12{fill:#808CCC;}
	.st13{fill:#8A6BB1;}
	.st14{fill:#FEFEFE;}
</style>
<g>
	<path class="st0" d="M516.6,649.9c-8.8,0-15.5,0.2-22.2,0c-5.4-0.2-10.9,0-16.3-0.2c-3.6-0.2-7.2,0-10.8-0.2
		c-5.8-0.3-11.6-0.3-17.3-0.5c-4.7-0.1-9.5-0.3-14.2-0.5c-3.9-0.1-7.7-0.3-11.6-0.5c-3.6-0.1-7.2-0.3-10.7-0.5
		c-4.4-0.2-8.7-0.5-13.1-0.7c-3.7-0.2-7.3-0.5-11-0.7c-4.4-0.3-8.9-0.6-13.3-1c-5.1-0.4-10.3-0.9-15.4-1.5
		c-4.8-0.5-9.5-1.3-14.3-1.8c-5.3-0.6-10.6-2.1-15.9-2.5c-3.4-0.2-5.9-1.8-8.8-2.9c-1.4-0.6-2.7-1.2-3.9-2.1c-0.6-0.5-1.1-1-1.5-1.7
		c-0.4-0.8-0.9-1.4-1.6-2c-1.8-1.6-3.3-3.5-4.8-5.5c-2.2-2.8-3.9-6-5.3-9.3c-1.3-2.8-2.1-5.8-2.8-8.9c-0.9-3.9-1.3-7.9-1.2-12
		c0.2-7.4,1.5-14.6,4.3-21.5c1.4-3.4,2.9-6.6,4.9-9.6c2.3-3.5,4.9-6.8,7.5-10c2.1-2.6,4.2-5.3,6.2-8c2.3-3,4.6-6,6.7-9.1
		c1.7-2.5,3.2-5.1,4.8-7.7c2.5-4.3,4.3-8.9,5.7-13.7c1.4-5,2.4-10,3-15.2c0.4-3.9,0.8-7.7,1-11.6c0.1-2.1,0-4.1,0.2-6.2
		c0.4-5.5,0-10.9,0.3-16.4c0.2-4.2,0.5-8.5,1.3-12.7c0.5-2.8,0.9-5.6,1.7-8.4c0.8-2.7,1.6-5.5,2.8-8.1c1.4-3.4,3-6.6,5.1-9.6
		c3.2-4.6,7.1-8.6,11.8-11.7c3.8-2.5,7.8-4.5,12.1-6.1c5-1.9,10.2-3.3,15.4-4.5c7.6-1.7,15.4-2.9,23-4.3c7.7-1.5,15.3-3.3,22.5-6.5
		c3.5-1.6,7-3.1,10.5-4.7c2.4-1.1,5-2,7.4-3.1c3.3-1.4,6.7-2.7,10.1-3.9c3.8-1.4,7.7-2.6,11.7-3.8c3.6-1,7.2-2.1,10.8-2.8
		c4.5-0.9,9-1.7,13.7-2c3.1-0.2,6.2-0.3,9.2-0.1c5,0.2,9.9,1.2,14.6,2.9c5.8,2.1,10.7,5.4,15.5,9.2c3.4,2.7,6.5,5.8,9.6,8.8
		s6.3,6,9.5,8.9c2.3,2,4.7,4,7.2,5.6c3,2,6,3.9,9.3,5.4c5.5,2.6,11.2,4.6,17.2,5.8c3.2,0.6,6.3,1,9.5,1.4c5,0.6,10,0.3,15.1,0.5
		c3.8,0.2,7.7,0.4,11.5,0.8c4,0.4,8,1.1,12,2c4.4,1,8.7,2.4,12.7,4.7c3.1,1.8,6.1,3.8,8.4,6.6c2.5,3,4.4,6.4,5.6,10.2
		c1.1,3.5,1.7,7.1,2.1,10.8c0.5,5.3,0.5,10.6,0.7,15.9c0.2,5.1,0.4,10.2,1.1,15.3c0.5,3.7,1.1,7.3,2.1,10.9s2.4,7,4.1,10.4
		c1.3,2.4,2.6,4.8,4.3,7c2.3,2.9,4.8,5.9,7.7,8.3c6.1,5.1,11.1,11.1,15,18c2.7,4.7,4.8,9.7,6.6,14.9c1.3,3.7,2.2,7.4,2.9,11.2
		c0.8,4.1,1.4,8.2,1.6,12.4c0.2,3,0.2,6,0.1,9c-0.1,4-0.6,8.1-1.3,12.1c-0.5,3.1-1.3,6.1-2.2,9c-1.2,4-3,7.9-5.3,11.5
		c-0.7,1.1-1.5,2.2-2.3,3.3c-0.4,0.5-0.6,1,0.1,1.5c0.6,0.4,1,0.9,1.5,1.4c1.3,1.3,1.2,3,0,4.4c-1.4,1.5-3.3,2.3-5.1,3
		c-6.1,2.3-12.5,3.5-18.9,4.5c-4.1,0.6-8.2,1.3-12.4,1.8c-2.8,0.4-5.5,0.5-8.3,0.8c-2.6,0.3-5.3,0.6-7.9,0.9
		c-2.2,0.2-4.4,0.4-6.7,0.5c-3.9,0.3-7.8,0.6-11.8,0.9c-1.4,0.1-2.8,0.1-4.2,0.2c-3.4,0.3-6.8,0.3-10.3,0.5
		c-4.9,0.3-9.8,0.6-14.7,0.7c-3.3,0.1-6.7,0.3-10,0.5c-4.4,0.2-8.8,0.3-13.3,0.5c-5.2,0.2-10.4,0.3-15.5,0.5c-2.7,0.1-5.4,0-8,0.2
		c-4.3,0.3-8.6,0-12.8,0.3s-8.3,0-12.5,0.2C530.7,650.2,522.6,649.8,516.6,649.9z M585.7,520.8c0,0.2,0.1,0.3,0.3,0.4
		c0,0.1,0.1,0.1,0.1,0.2c0,0.1,0,0.2,0.1,0.1c0.8,0,1.6,0,2.4,0c0.5,0.5,1.2,0.4,1.9,0.6c1.6,0.5,3.3,0.3,4.8,1.2
		c0.1,0.2,0.1,0.4,0.2,0.6c0,0.8,0.2,1.5,0.8,2c0.9,2.2,0.3,1.8,2.6,1.8c0.5,0,1,0,1.5-0.1c2.7-0.4,4.6,1.2,6.4,2.8
		c-0.2,0.4-0.4,0.9-0.5,1.3c-1.6,5.6-0.9,11.1,1.5,16.4c-0.3,4.6-0.7,9.2-0.9,13.8c-0.2,4.1-0.5,8.3-0.7,12.4c0,0.6,0.1,0.9,0.8,0.9
		c0.3,0,0.5,0.1,0.8,0.2c-0.9,12.7-1.8,25.4-2.8,38.1c0.6,0.1,1,0.1,1.4,0.1c-0.2,1.3-0.4,2.6-0.5,3.9c-2.2,0.8-4.3,1.8-6.3,2.9
		c-1.1,0.6-2.1,1.3-3,2.2c-0.5,0.5-1.1,1.1-0.8,1.9c0.3,0.7,1.1,0.6,1.7,0.6c4.5,0.1,9-0.3,13.5-0.4c0.8,0,1.1-0.5,1.1-1.2
		c0-1.7-0.1-3.4-0.4-5.1c0.3-1.6,0.6-3.1,0.9-4.7c0.5,0,1,0,1.6,0c0.2-0.7,0.3-1.3,0.5-2c0.9-4.9,1.8-9.9,2.8-14.8
		c2.4-12.1,4.5-24.4,7.5-36.4c0.5-0.1,0.9-0.1,1.3,0.2c4.3,17.4,7.2,35.1,10.7,52.9c1,0,2,0,3,0c0.3,1.3,0.6,2.6,0.8,4
		c-2.6,1.1-5.1,2.2-7.5,3.8c-0.8,0.5-1.5,1.1-2,1.9c-0.8,1.2-0.5,1.7,0.9,1.9s2.9,0,4.3,0c3.1-0.1,6.2-0.2,9.3-0.3
		c0.7,0,1.4-0.1,1.4-1.1c0.1-1.8,0-3.7-0.5-5.4c-0.2-1.6-0.4-3.1-0.5-4.7c0.5,0,0.9-0.1,1.4-0.1c1,3.6,0.2,3.8,4.6,3.6
		c0.3,0.3,0.6,0.3,1,0c0.7,0.6,1.5,0.3,2.3,0.4c4.1,0.5,8.2,0.9,12.3,1.2c2.5,0.3,5.1,0.6,7.6,1c0.1,0.1,0.3,0.2,0.4,0.2
		c4.1,0.3,8.2,1,12.3,1.7c3.6,0.6,3.6,0.5,5.9-2.4c3.7-4.7,6.3-10.1,8.5-15.6c1.3-3.2,2.5-6.5,3.2-9.9c0-0.1,0-0.2,0-0.2
		c-0.6-0.2-1.3,0.1-1.9,0.2c-4.6,0.8-9.1,1.7-13.5,3.2c-1.2,0.4-2.3,1-3.5,1.1c1.4-5.8,1.9-11.7,2-17.7c0.2-7.3-0.4-14.7-1.4-21.9
		c-0.2-1.5-0.2-3-0.9-4.4c0-0.4,0.4-0.7,0.1-1.3c-0.4,0.5-0.6,0.9-0.9,1.3c-0.4-0.2-0.7,0.1-1,0.3c-2.8,2-5.7,3.9-8.4,6
		c-3.3,2.5-6.5,5.2-9.5,8.1c-6.7,6.3-12.6,13.2-16.4,21.7c-1.5,3.4-2.8,6.8-3.2,10.6c0,0.3-0.1,0.4-0.4,0.3c-0.1-0.5-0.1-1-0.2-1.5
		c-0.6-8-1.2-15.9-1.8-23.9c1.7-0.1,1.8-0.1,1.7-1.8c-0.1-1.8,0.2-3.6,0.2-5.5c0-4.7,0-9.4,0-14.1c0-0.7,0.1-1.4-0.1-2
		c0-0.1,0-0.1,0.1-0.2c0.2,0,0.2-0.1,0.2-0.3c2.9-4.1,4.5-8.7,4.5-13.8c0.2-0.2,0.2-0.3,0-0.5c0-0.3,0-0.6,0-0.9
		c0.2-0.9,1.1-0.8,1.6-1.2c3.2-2.8,5.9-6.1,8-9.9c1-1.7,2-3.5,1.7-5.6c-0.3-1.7-0.7-3.4-1.4-5.1c-1.9-4.5-4.2-8.8-7.2-12.6
		c-2-2.5-3.9-5-6.6-6.7c-3.3-2-7.2-2.1-10.9-2.8c-0.5-0.1-0.6,0.4-0.6,0.8c0,1,0.1,1.9,0.2,2.9c0.2,6.7,0.4,13.5,0.5,20.2
		c-1.8-0.6-3.7-1-5.6-1.3c-0.1-5.6-0.1-11.1-0.2-16.7c0-0.9,0.2-1.7,0.7-2.5c0.9-1.4,0.8-1.6-0.6-2.5c-0.9-0.6-1.4,0.4-2.1,0.6
		c-0.6,0.2-0.5,0.7-0.3,1.1c0.6,1.3,0.3,2.6,0.1,3.9c-0.8,5.4-1.6,10.7-2.5,16.1c-1.6,0.4-3.3,0.7-4.9,1.1c-0.1-1.3,0.4-2.4,0.7-3.6
		c1.3-6,2.8-11.9,4.3-17.9c0.2-0.8,0.6-1.6,0.2-2.4c-2.7,0.2-5.4,0.7-8,1.3c-3.4,0.9-6.5,2.5-8.7,5.3c-3.2,4.1-5.7,8.6-8.3,13.1
		c-0.8-0.1-1.3-0.7-1.9-1.1c-7.2-4.6-14.4-9.2-21.6-13.9c-1.1-0.7-2.1-1.3-3.4-2.1c-0.1,1.5-0.2,2.7-0.4,3.9
		c-0.3,2.3-0.6,4.6-0.9,6.9c-0.1,0.7,0.1,1.2,0.6,1.7c0.8,1,1.8,1.8,2.2,3.1c-0.1,0.1-0.1,0.3-0.2,0.4c-0.5,0.6-1.3,1-1.5,1.8
		c-0.3,1,0.9,1.3,1.1,1.9c0.8,2.2,3.1,2.9,4.4,4.6c0.2,0.2,0.5,0.2,0.8,0.2c1.6,0,3.2,0,4.8,0c0,0.1,0.1,0.1,0.1,0.2
		C584.9,520.6,585.1,520.8,585.7,520.8L585.7,520.8z M404.2,476.4c0.2-1.2-0.4-1.4-1.4-1.2c-0.2-0.9,0-1.9-0.4-2.8
		c-0.1-0.6-0.3-1.2-0.3-1.7s-0.4-1.2-0.1-1.5c1.1-1,0.9-1.8-0.3-2.5c0.7-0.6,1.3-1.2,0.9-2.1c-0.4-1-1.2-0.9-2-0.8
		c-1.3,0.1-2.5,0.2-3.8,0.1c-2.9-0.2-5.8-0.1-8.3,1.8c-0.5-0.2-0.2-0.9-0.7-0.9c-0.5,0.1-0.8,0.5-0.9,1c-0.3,1-0.9,1.7-1.8,2.3
		c-1,0.6-0.9,1.1,0.1,1.8c-0.4,1-0.6,2.1-0.6,3.1c0,0.7-0.3,1.5,0.2,2c1,1.1,1.6,2.6,2.5,3.8c0.1,0.2,0.1,0.4,0.2,0.6
		c-0.7,0.2-0.7,0.6-0.6,1.2c0.3,1.1,1.1,1.6,2.1,1.6c0.6,0,0.9,0.2,1.2,0.7c1.1,1.5,1.6,3.3,1.9,5.1c0.1,0.4,0,1,0.5,1.3
		c1.8,1.1,4.6,0.8,6.3-0.5c0.3-0.3,0.5-0.5,0.4-0.9c-0.3-1.2,0.4-1.7,1.4-2.2c1.5-0.6,2.3-1.8,2.7-3.4c0.3-1.5,0-3.1,0.3-4.6
		c0.3-0.2,0.4-0.4,0.5-0.7C404.1,476.6,404.2,476.5,404.2,476.4z M436.1,593.1c0.2,0.3,0.4,0.6,0.3,1.1c-1.3-0.9-2.4-1.8-3.8-2.3
		c-1.1-0.4-2.1-0.2-2.8,0.7c-0.8,0.8-0.9,1.8-0.4,2.9c0.5,1.1,1.4,1.5,2.5,1.4s2.3-0.3,3.3-0.7c0.1,0.9-0.8,1.4-0.8,2.3
		c-0.2,0-0.4-0.1-0.6-0.1c-1.6-0.4-2.9,0-3.7,1.2c-0.7,1-0.7,2.5,0,3.5c0.8,1.2,2.1,1.7,3.7,1.3c0.8-0.2,1.5-0.5,2.3-0.7
		c1.3,0.5,2.6,0.8,4,0.5c0.4,0.4,0.6,1,0.6,1.6c-0.7,0-1.4-0.3-1.9,0.3c-0.7,0-1.2-0.4-1.8-0.6c-0.7-0.2-1.4-0.5-2.2-0.4
		c-1.5,0.3-2.6,1.5-2.6,3c-0.1,1.6,0.8,2.8,2.7,3.3c0.1,0.1,0.2,0.1,0.4,0c0.2,0,0.4,0,0.5,0c0.1,0.3,0.2,0.6,0.2,0.9
		c-0.1,0.1-0.2,0.3-0.3,0.4c-1.2,1.1-1.2,2.4-0.6,3.7c0.6,1.4,1.8,1.9,3.2,1.8c1.1-0.1,2.1-0.3,3.2-0.6s2.2-1,3.4-1.1
		c2.5-0.2,5-0.4,7.4-1.3c2.1,0.7,4.3,0.6,6.5,0.6c2.6,0,4.7-2.2,4.6-4.8s-2.2-4.7-4.8-4.6c-2.6,0.1-4.3,1.9-5.7,3.8
		c-1.1-0.4-2-1.3-3.3-0.8c-0.3-0.5-0.3-1-0.3-1.5c0-1.1-0.1-2.1-0.4-3.1c0.3-0.6,0.1-1.3,0.4-1.9c2.9-0.2,5.7-1.2,8.4-2.4
		c2.1-0.9,3.1-2.6,2.9-5c-0.1-1.7-1.6-3.4-3.3-3.9c-2.1-0.6-4,0.2-5.2,2s-2.1,3.7-2.9,5.7c-0.1,0.2-0.1,0.6-0.5,0.5
		c-0.2-2.1-0.4-4.3-0.6-6.4c-0.1-0.8,0.3-1,1-1.1c2.8-0.6,5.5-1.3,8.1-2.6c1.8-0.9,2.7-2.8,2.4-4.8c-0.2-1.8-1.7-3.4-3.5-3.8
		c-2-0.5-3.8,0.2-5,1.9c-1,1.5-1.9,3.1-2.5,4.7c-0.2,0.5-0.5,1.1-0.8,1.9c-0.3-2.4-0.6-4.5-0.8-6.6c-0.1-0.6,0.3-0.7,0.7-0.9
		c2.1-0.9,4.1-2.1,6-3.5c1.3-1,1.9-2.6,1.4-4.1c-0.5-1.6-1.7-2.6-3.3-2.8c-1.6-0.2-3.2,0.7-3.9,2.2c-0.7,1.4-0.9,3-1.3,4.8
		c-0.5-1.6-0.5-3-0.7-4.3c-0.3-2.1-0.2-2.4,1.8-3.2c1.5-0.6,2.9-1.5,4.1-2.7c1.1-1.2,1.2-3,0.2-4.2c-0.8-1-1.9-1.6-3.3-1.3
		c-1.4,0.2-2.3,1.1-2.6,2.5c-0.3,1.3-0.6,2.5-0.9,3.8c-0.5-1.7-0.7-3.4-1.1-5c-0.2-0.7,0.1-1,0.6-1.3c1.1-0.6,2.2-1.3,3.1-2.3
		c0.8-0.8,1-1.8,0.5-2.9c-0.4-0.9-1.2-1.3-2.1-1.3c-1.1,0.1-1.9,0.7-2.2,1.9c-0.2,0.5,0,1.2-0.6,1.7c-0.3-1.2-0.5-2.3-0.8-3.4
		c-0.1-0.4,0.1-0.6,0.5-0.9c1-0.7,2.1-1.4,2.9-2.3c0.8-0.8,1-1.7,0.5-2.7c-0.4-0.9-1.3-1.3-2.3-1.3c-1.1,0.1-1.7,0.7-2.1,1.7
		c-0.2,0.5-0.3,1.1-0.5,1.9c-0.5-1.8-1.3-3.2-1.1-4.9c0.1-1,0.1-2.1,0-3.1s-0.6-1.8-1.6-2s-1.9,0-2.5,0.9c-0.5,0.9-0.5,1.9,0.2,2.7
		c0.6,0.7,1.1,1.4,1.9,1.8c2.3,1.4,2.1,3.8,2.8,5.9c-1-0.6-1.8-1.4-2.8-2s-1.9-0.4-2.8,0.3c-0.8,0.7-0.9,1.6-0.6,2.5
		c0.4,1.1,1.2,1.4,2.2,1.5c1.2,0.1,2.4-0.2,3.6-0.4c0.3-0.1,0.8-0.3,0.9,0.2c0.5,1.5,0.9,2.9,0.9,4.5c-0.8,0-1.2-0.6-1.7-1
		c-0.8-0.6-1.5-1-2.5-0.8c-1.2,0.3-1.9,1.4-1.8,2.6c0.1,1.1,1.1,1.9,2.3,2c1.4,0.1,2.8-0.3,4.3-0.4c0.3,2.2,0.9,4.4,1,6.8
		c-0.5-0.5-0.8-0.8-1.1-1c-1.2-1-2.3-2-3.7-2.7c-1.2-0.5-2.3-0.3-3.3,0.5s-1.5,1.9-1.2,3.2c0.4,2,2.2,3,4.7,2.7
		c1.6-0.2,3.3-0.5,5-0.9c0.4,2.7,0.7,5.2,1.1,7.7c-0.6-0.3-0.9-0.6-1.2-1c-1-1.2-2.1-2.3-3.3-3.3c-1.5-1.3-3.7-1.2-5.1,0
		s-1.6,3.4-0.6,5c0.3,0.6,1,0.8,1.2,1.4c-3.1-0.1-2.6,2.4-2.9,4.3c-0.5-0.8-0.8-1.5-1.2-2.2c-0.3-0.6-0.3-1.1,0.2-1.6s1-1.1,1.4-1.7
		c0.4-0.6,0.4-1.4,0-2s-1.1-0.7-1.7-0.5c-0.7,0.2-1,0.8-1.1,1.6c0,0.3,0,0.6-0.1,1.3c-0.5-1.1-0.9-1.8-1.3-2.5
		c0.7-0.8,1.3-1.6,1.8-2.3c0.4-0.6,0.4-1.3-0.1-1.9c-0.4-0.5-1-0.7-1.6-0.5c-0.7,0.2-1.1,0.7-1.2,1.5c0,0.3,0.2,0.6-0.2,0.9
		c-0.7-0.9-1.3-1.7-1.4-2.8c-0.1-0.7-0.3-1.3-0.6-1.9c-0.2-0.6-0.8-0.9-1.4-0.9c-0.7,0-1.2,0.4-1.4,1.1c-0.2,0.7,0,1.2,0.5,1.6
		c0.6,0.5,1.2,0.9,2,1.1c1.4,0.6,1.8,1.9,2.5,3.3c-0.8-0.3-1.3-0.5-1.7-0.7c-0.8-0.4-1.6-0.4-2.2,0.4c-0.4,0.5-0.5,1.2-0.1,1.8
		c0.5,0.8,1.3,0.8,2.1,0.6c0.8-0.3,1.6-0.6,2.4-1c0.6,1,1.2,2,1.6,3.3c-0.8-0.3-1.3-0.6-1.8-0.8c-0.7-0.3-1.4-0.2-2,0.4
		c-0.5,0.6-0.5,1.3-0.1,1.9c0.5,0.7,1.2,0.8,1.9,0.6c0.8-0.3,1.6-0.6,2.6-0.9c0.5,1.3,1.3,2.4,1.5,4.1c-1.2-0.5-2.1-0.9-3.1-1.2
		s-1.8-0.1-2.4,0.8c-0.5,0.8-0.6,1.7-0.1,2.5c0.5,0.9,1.4,1.2,2.4,1c0.8-0.2,1.6-0.5,2.4-0.8c0.6,0,0.7,0.5,0.8,0.9
		C434.1,592,435,592.7,436.1,593.1z M441.3,497.8l-0.1-0.1c-0.1-0.4,0.4-0.8,0.1-1.2c-0.5-0.4-0.7,0.5-1.2,0.2
		c-0.1-0.5,0.5-1-0.2-1.5c-2,0.7-2.2,3.2-3.8,4.2c-0.5-0.7-0.4-1.8-1.8-1.8c0,2.4,0,4.7,0,7.1c-0.7-0.1-1.1,0.2-1.3,0.9
		c-1,2.7-2.1,5.3-3.7,7.8c-1.5,2.3-2.4,2.4-4.4,0.6c-0.2-0.2-0.4-0.4-0.5-0.6c-2.5-3.2-4-6.9-5.5-10.6c-1.4-3.5-3.7-6.2-7-8
		c-2.3-1.2-4.7-2.3-7.2-3.2c-1.5-0.6-3.1-1.1-4.8-1.8c0.4,5.3,0.8,10.3,1.2,15.4c-0.8,0-1.4,0-2,0c-0.3-0.4-0.3-0.8-0.3-1.2
		c-0.4-2.8-0.7-5.6-1.1-8.4c-0.1-0.8-0.2-1.6,0.1-2.5c0.5-1.3,0.3-1.8-1.1-2.2c-0.9-0.3-1.2,0.6-1.8,0.9c-0.5,0.3-0.2,0.7,0,1.1
		c0.3,0.6,0.8,1.1,0.7,1.9c-0.2,4.2-0.3,8.4-0.4,12.6c-0.2,5-0.3,10-0.5,15.1c-0.8,0.5-1.6,0.8-2.5,1c0-0.3,0-0.6-0.3-0.8
		c0-1.2,0-2.5,0.1-3.7c0-4.7,0-9.4-0.2-14.1c-0.2-4.3-0.1-8.5-0.1-12.8c0-0.5,0.2-1-0.4-1.5c-1.4,1-3.1,1.4-4.4,2.8
		c-0.4,0-0.7,0.1-1,0.3c-1.5,0.9-3,1.9-4.5,2.9c-2.9,1.9-5.1,4.4-6.5,7.6c-2.1,4.9-3.5,10.1-4.9,15.2c-0.7,2.7,1,6.2,3.3,7
		s4.6,1.5,7,2c0.1,0.1,0.2,0.3,0.2,0.4c-0.2,1.4-0.2,2.9-0.2,4.3c-0.2,4.2-0.3,8.4-0.5,12.7c-0.2,3.6-0.3,7.2-0.5,10.9
		c-0.2,4.5-0.3,9.1-0.5,13.6c-0.2,3.1-0.2,6.3-0.3,9.5c0,0.2,0.1,0.5-0.3,0.7c-0.7-1.4-1.3-2.9-2-4.3c-2.5-4.9-5.5-9.6-8.8-14
		c-5.3-7.1-11.3-13.5-17.6-19.7c-0.3-0.3-0.6-0.4-1-0.4c-0.4-0.4-0.2-1.1-1.1-1.5c0.1,0.6,0.2,1.1,0.2,1.5c-0.7,0.3-0.7,0.9-0.9,1.5
		c-2.1,6.2-3.9,12.5-5.3,19c-1.7,7.9-2.9,15.8-2.8,23.9c-0.9,0.1-1.4-0.7-2-1.1c-5.7-3.9-11.6-7.3-17.9-10.2
		c-1.3-0.6-2.4-1.4-3.8-1.6c-0.1,0-0.1,0-0.2,0c-0.1-0.1-0.2-0.2-0.3,0c0,3.2,0,6.5,0.2,9.7c0.3,4.1,0.7,8.3,1.4,12.3
		c1.1,6.5,2.6,12.9,5.2,19c1.3,3.1,3,6.1,4.9,8.9c0.5,0.7,1.1,1.3,2.1,1c5.9-1.8,12-2.3,18-3.5c2.4,0,4.8-0.6,7.2-0.9
		c1.6-0.2,3.2-0.1,4.8-0.6c0.4,0,0.7,0,1.1,0c4-0.5,8.1-0.9,12.1-1.2c0.3,0,0.7,0,0.8-0.4c0.2,0.1,0.5,0.1,0.7,0.2
		c1.7,0.1,3.4-0.4,5.2-0.2c0.1,0.4-0.1,1,0.5,1.2c0,0.4,0,0.8,0.1,1.1c-0.4,1.4-0.4,2.9-0.5,4.4c0,1,0.4,1.3,1.4,1.4
		c2.2,0,4.5,0.2,6.7,0.2c1.8,0,3.6,0.2,5.4,0.1c1.2-0.1,1.5-0.8,0.8-1.8c-0.7-0.9-1.6-1.5-2.6-2.1c-1.9-1.2-4-2-6-2.9
		c0.1-0.3,0.2-0.6,0.3-0.9c0.7-0.6,0.8-1.6,1-2.4c3.7-13.3,7.3-26.6,10.9-39.9c0.9-3.4,1.8-6.8,2.8-10.2c0.3,0.2,0.3,0.4,0.4,0.6
		c1,7.4,2.1,14.8,3.1,22.2c1.4,10,2.7,19.9,4.1,29.9c0,0.3,0.2,0.6,0.4,0.8c0,0.2,0.1,0.4,0.1,0.6c-0.3,1.5-0.4,3-0.4,4.5
		c0,0.9,0.4,1.2,1.2,1.2c1.9,0,3.8,0.2,5.6,0.2c2.2,0,4.5,0.3,6.7,0.1c1.1-0.1,1.4-0.7,0.7-1.6c-0.5-0.8-1.3-1.4-2.1-1.9
		c-2-1.3-4.2-2.2-6.4-3.2c0-0.1,0.1-0.3,0.1-0.4c0.8,0.1,0.9-0.4,0.9-1c0.2-4.5,0.3-9,0.5-13.5c0.3-8.1,0.6-16.3,0.9-24.4
		c1.4,0.1,2.8,0.3,4.2-0.3c0-0.4,0-0.8,0-1.3c0-3.8,0-7.5-0.2-11.3c-0.2-3.5,0-6.9-0.2-10.4c-0.2-3.6-0.1-7.3-0.3-10.9
		c-0.2-4.1-0.1-8.3-0.3-12.4c-0.2-2.4,0-4.8-0.3-7.2c-0.2-1.5,0-3,0-4.8c0.8,1.3,1.4,2.3,2.2,3.2c2.8,3.5,5.4,4.8,9.8,3
		c2.5-1,4-3.1,5.3-5.3c2.6-4.5,3.7-9.4,4.5-14.4c0.1-0.6,0.2-1.4-0.5-1.8c1.7-2,3.5-4,4.2-6.3c-0.2-0.8-0.7-0.3-0.8-0.6
		c-0.2-0.5,0.6-1.1-0.1-1.5C441.8,497.1,441.7,497.8,441.3,497.8z M552.8,608.6c-2.2-0.3-4.1,0.2-5.2,2.4c0.1-1.8,0.3-3.6,0.6-5.5
		c2.2,0.7,4.3,1.1,6.4,1.3c1.2,0.1,2.4,0.3,3.5-0.5c1.2,0.6,2.3,1.4,3.6,1.9c0.5,0.2,1.1,0.2,1.5,0.6c1.7,1.5,3.8,2.2,5.9,2.8
		c2.2,0.6,4.5-0.5,5.1-2.5c0.7-2.2-0.3-4.3-2.5-5.1c-1.4-0.5-2.7,0-4,0.4c-1.8,0.6-3.4,1.6-4.9,2.8c-1.2-1.2-0.9-2.7-1-3.9
		c-0.2-2.3-0.5-4.3-2.3-6c0.1-0.1,0.2-0.1,0.3-0.2c0.9,0,1.5,0.7,2.2,1.1c1.2,0.7,2.7,1.2,3.8,1.9c2.2,1.5,4.6,2.5,7.2,3.1
		c1.5,0.4,2.9-0.2,3.9-1.4c1-1.3,1.3-2.8,0.5-4.3c-0.7-1.4-1.8-2.2-3.5-2.2c-1.4,0-2.6,0.5-3.9,1.1c-1.3,0.6-2.5,1.2-4,1.9
		c0.9-2.2,1.7-4.1,2.5-6c0.2-0.5,0.5-0.7,1-0.3c1.2,0.7,2.5,1,3.8,1.4c0.9,0.3,1.8,0.6,2.7,0.5c1.3-0.2,2.5-0.9,2.8-2.3
		c0.2-1.2,0.3-2.5-0.9-3.4s-2.3-1.2-3.8-0.5c-1.5,0.6-2.8,1.5-4.5,2.4c0.9-2,1.6-3.6,2.3-5.2c0.3-0.7,0.7-0.8,1.4-0.4
		c1.2,0.8,2.5,1.4,3.9,1.7c1.5,0.4,2.7-0.1,3.5-1.4c0.5-0.9,0.4-2.2-0.3-3c-1-1.2-2-1.5-3.5-0.9c-1.2,0.5-2.3,0.9-3.5,1.4l0,0
		c0.5-1.8,1.5-3.5,2.4-5.1c1.2,0.6,2.3,1.2,3.4,1.4c1.2,0.2,2.2-0.5,2.5-1.7c0.2-0.9-0.6-2.1-1.7-2.3c-0.7-0.1-1.4,0.2-2.1,0.4
		c-0.4,0.2-0.8,0.6-1.4,0.3c0.9-1.3,1.3-2.8,2.3-3.9c1.4,0.7,2.6,1.6,4.1,1.6c1.2,0,2-1,1.9-2.3c-0.1-1-1.1-1.7-2.2-1.6
		c-1.1,0.1-1.9,0.7-3,0.8c1.1-1.4,1.5-3.4,3.6-4c0.7-0.2,1.3-0.7,1.9-1c0.8-0.4,1.2-1.1,1-2.1c-0.2-0.9-0.8-1.5-1.7-1.6
		c-1-0.1-1.7,0.5-2.1,1.3c-0.3,0.8-0.7,1.6-0.8,2.5c-0.1,1.5-1.2,2.3-2,3.7c0-0.8,0-1.2,0-1.6c0.1-1-0.3-1.7-1.3-2.1
		c-0.8-0.3-1.5-0.1-2.1,0.5c-0.7,0.8-0.7,1.7-0.2,2.6c0.5,0.8,1.1,1.5,1.7,2.3c0.2,0.3,0.5,0.5,0.3,0.8c-0.5,0.7-0.6,1.7-1.6,2.3
		c0-0.5,0-0.9,0-1.2c0-0.9-0.3-1.6-1.2-2c-0.9-0.3-1.6-0.1-2.3,0.6c-0.7,0.8-0.7,1.5-0.2,2.4c0.5,1,1.3,1.7,1.9,2.6
		c0.3,0.4,0.4,0.7,0.2,1.2c-0.6,1.2-1.2,2.5-1.9,3.7c0.1-1.1,0.1-2.2,0-3.2c0-1.3-0.9-2.5-1.9-2.8c-1.2-0.4-2.6,0-3.2,1
		c-0.8,1.1-0.8,2.5,0.1,3.6c1,1.3,1.9,2.6,3.2,3.5c0.3,0.2,0.5,0.6,0.4,0.9c-0.7,1.4-1.1,2.9-2.1,4.3c-0.2-1.4,0.1-2.5,0-3.7
		c-0.2-1.2-1.1-2.6-2.1-2.9c-1.6-0.5-3,0-4,1.4c-0.7,1-0.5,2.9,0.3,3.8c1.2,1.5,2.4,2.9,3.9,4c0.4,0.3,0.6,0.7,0.4,1.3
		c-0.6,1.8-1.4,3.4-2.3,5.1c0-1-0.2-1.8-0.3-2.7s-0.3-1.9-0.5-2.8c-0.4-1.6-1.3-2.9-3-3.4c-1.8-0.6-3.1,0.4-4.4,1.5
		c-1.3-0.1-2.3,0.6-3.3,1.3c-1.5,1-2.9,2.3-4.5,3.4c0.3-2.3,0.7-4.6,1-6.9c2.4,0.4,4.5,0.7,6.7,0.5c1.4-0.2,2.5-1.1,2.8-2.4
		c0.3-1.3-0.2-2.7-1.3-3.5s-2.5-0.8-3.7-0.1c-1,0.7-1.9,1.6-2.8,2.4c-0.3,0.3-0.5,0.8-1.3,0.7c0.1-2,0.6-3.9,0.9-5.8
		c0.6-0.2,1,0.1,1.4,0.1c1.5,0.3,3,0.7,4.5,0.6c1.2-0.1,2-0.8,2.4-1.9c0.4-1.1,0.1-2.2-0.8-3c-0.9-0.8-1.9-1-3-0.5
		c-0.9,0.4-1.6,1-2.4,1.6c-0.4,0.3-0.7,0.9-1.6,0.8c0.2-1.8,0.7-3.6,1.1-5.3c1.1,0.2,2,0.4,3,0.5c1.1,0.1,2,0,2.5-1.1
		c0.4-0.9,0.3-1.8-0.5-2.4c-0.9-0.7-1.9-0.5-2.8,0.1c-0.5,0.3-1,0.9-1.8,1.1c0.4-1.6,0.7-3,1.2-4.5c1.2,0.2,2.3,0.6,3.5,0.6
		c1,0,1.9-0.2,2.3-1.2c0.3-0.9,0.1-1.7-0.6-2.3c-0.8-0.7-1.7-0.5-2.6,0c-0.7,0.4-1.2,1.1-2.3,1.4c0.8-1.8,0.7-3.8,2.6-4.8
		c0.7-0.4,1.3-1.1,1.9-1.7c0.6-0.7,0.7-1.5,0.2-2.2c-0.4-0.7-1.1-1.1-1.9-0.9c-0.9,0.1-1.5,0.6-1.6,1.5s-0.2,1.9-0.1,2.9
		c0.2,1.4-0.7,2.5-1,3.8c-0.5-0.5-0.4-0.9-0.5-1.4c-0.2-0.9-0.8-1.5-1.7-1.6c-0.8-0.1-1.4,0.2-1.8,0.9c-0.5,0.8-0.4,1.6,0.2,2.3
		c0.5,0.6,1.1,1.1,1.8,1.5c0.5,0.3,1.2,0.6,1.1,1.2c-0.1,1-0.4,2-1,3.2c-0.1-0.7-0.2-1.1-0.3-1.5c-0.2-1-0.8-1.6-1.8-1.7
		c-0.9-0.1-1.6,0.3-2,1.1c-0.5,0.9-0.2,1.7,0.4,2.4c0.7,0.7,1.5,1.3,2.3,1.9c0.3,0.2,0.8,0.4,0.7,0.8c-0.2,1.4-0.6,2.8-0.9,4.2
		c-0.1,0-0.2,0-0.3-0.1c-0.2-1-0.4-2-0.7-3c-0.4-1.2-1.3-1.8-2.5-1.9c-1.2,0-2.1,0.5-2.6,1.6s-0.4,2.2,0.4,3.1
		c0.5,0.6,1.1,1,1.8,1.4c1.1,0.7,2.3,1.4,3.4,2.1c-0.3,1.6-0.6,3.1-0.9,4.7c-0.6-1.1-0.8-2.2-1.1-3.3c-0.5-1.4-1.6-2.3-3-2.3
		c-1.3-0.1-2.6,0.8-3.1,2c-0.5,1.3-0.2,2.7,0.9,3.7c0.9,0.8,1.8,1.7,2.9,2.1c2.8,0.9,3.2,2.7,2.4,5.2c-0.2,0.7-0.1,1.5-0.6,2.4
		c-0.2-0.5-0.4-0.9-0.5-1.3c-0.5-1.3-1-2.6-1.7-3.8c-1.1-1.9-2.5-2.7-4.5-2.4c-1.6,0.3-2.9,1.6-3.2,3.3c-0.3,1.9,0.6,3.4,2.6,4.4
		c1.5,0.8,3.1,1.3,4.7,1.8c0.8,0.2,1.6,0.4,2.5,0.6c-0.3,2.1-0.6,4.1-0.9,6.2c-0.6-0.3-0.6-0.8-0.8-1.1c-0.6-1.5-1.1-2.9-1.9-4.2
		c-1-1.6-2.5-2.3-4.3-2c-1.7,0.3-2.9,1.6-3.2,3.3s0.5,3.3,2.2,4.2c1.1,0.6,2.3,1.1,3.5,1.5c1.4,0.4,2.7,0.8,4.1,1.2
		c-0.3,2.8-0.7,5.5-1,8.6c-0.6-0.7-1-1-1.3-1.5c-1.1-1.3-2.3-2.5-3.7-3.6c-2.6-2-5.5-1.1-6.6,1.9c-0.1,0.1-0.2,0.2-0.1,0.3
		c0,0.5,0,1.1,0,1.6c-0.1,0.1-0.1,0.2,0,0.3c0.3,1,0.9,1.7,1.8,2.3c0.2,0.4,0.4,0.6,0.9,0.4c0.1,0,0.3,0.1,0.4,0.1
		c0.3,0.4,0.7,0.4,1,0.1c1,0,2.1,0,3.1,0c0.6,0.3,1.2,0.4,1.7-0.2c0.3,0,0.6-0.1,0.9-0.1c0.3,0.3,0.6,0.2,0.8-0.1
		c0.1,0,0.3,0,0.4-0.1c0.1,0.2,0.2,0.1,0.3,0c0.2,0,0.5,0,0.7-0.1c0.1,0.3,0.2,0.4,0.5,0.1c0.4,0.1,0.8,0.1,1.2,0.2
		c0.1,0.2,0.3,0.2,0.5,0.2c1.9,0.9,4.1,1,6.1,1.5c1.1,0.3,2.4-0.1,3.4,0.4c2.1,1.1,4.3,1.7,6.6,2.2c1.1,0.3,2.2,0.2,3.2-0.3
		c1.8-0.8,2.7-2.9,2-4.9c-0.6-1.9-2.7-3.2-4.5-2.7c-1.9,0.6-3.7,1.7-5.3,2.8c-0.8,0.6-1.6,1.1-2.7,1c-0.1-0.5-0.2-1-0.4-1.4
		c1.5-1.7,1.5-3.7,0.2-5.3C556.5,607.9,554.5,607.6,552.8,608.6z M633.3,466.2c-2.4-0.6-4.7-1.3-7.1-1.9c0,0.1-0.1,0.1-0.1,0.2
		c0.7,0.6,1.4,1.3,2.3,2.1c-2.3,0.2-4.3,0.1-6.5,0c0.3,1.6,0.9,2.8,1.6,4c0.2,0.4,0.5,0.7,0.3,1.2c-0.4,1.5-0.5,3.1-0.5,4.7
		c0,0.4,0,0.8,0,1.2c-0.6-0.1-1.2,0-1.3,0.7c-0.2,0.8,0.1,1.4,0.8,1.8c0.1,1.2,0.2,2.3,0.3,3.5c0.2,2,1.4,3.7,3.2,4.1
		c1.2,0.3,1.5,0.8,1.4,1.9c-0.1,1.8,1.9,3.3,3.6,2.9c0.7-0.2,1.5-0.4,2.2-0.6c0.9-0.2,1.2-0.6,1.1-1.5c-0.2-2.2,0.3-4.2,1.3-6.1
		c0.3-0.5,0.5-0.8,1.3-0.8s1.6-0.5,1.9-1.4c0.2-0.7,0-1.3-0.7-1.6c0.9-1.6,1.8-3.2,2.5-4.9c1.5-3.3-1-9-4.6-10.4
		c-1.4-0.6-2.9-0.9-4.3-1.6c0.3,1.1,1,1.7,1.5,2.5C633.5,466,633.4,466.1,633.3,466.2z M548.2,515.7c1.1-2.6,2.1-5.1,3.2-7.5
		c3.3-7.2,4.8-14.7,4.7-22.6c0-2.2-0.3-4.4-0.6-6.5c-1-6.8-3.4-13.1-7-18.9c-2.5-4.1-5.6-7.7-9.2-11c-3.1-2.8-6.4-5.2-10.1-7.2
		c-5.9-3.1-12.2-5.2-18.8-5.8c-4.6-0.4-9.2-0.4-13.7,0.4c-5.4,1-10.6,2.7-15.5,5.4c-6.1,3.3-11.3,7.7-15.7,13.1
		c-4.1,5-6.9,10.7-8.9,16.8c-1.5,4.8-2.2,9.8-2.3,14.8c0,2.2-0.2,4.5-0.3,6.7c-0.4,4.9-1,9.7-1.3,14.6c-0.4,5.4-0.6,10.8-0.5,16.2
		c0,1.2,0.2,2.4,0.2,3.6c0.1,4.6,0.7,9.2,1.7,13.7c1.2,5.2,2.9,10.2,6,14.6c4.9,7,11.8,10.7,20.3,11.5c2.3,0.2,3.9,1.8,3.9,4.2
		c0,7,0,14,0,21c0,0.8,0.2,1.4,0.8,1.9c4.9,4.7,11,6.5,17.6,7c2.9,0.2,5.7,0,8.6-0.4c7.1-1,13.6-3.7,20-6.7c0.4-0.2,0.6-0.5,0.5-1
		c-0.4-2.8-0.8-5.6-1.2-8.4c-0.8-5.7-1.6-11.4-1.2-17.2c0.3-4.1,0.8-8.1,1.6-12.2c1.3-6.2,3.6-12,6.6-17.6c0.3-0.6,0.7-0.8,1.4-0.8
		c1.5,0.1,3,0.1,4.4-0.3c5.7-1.7,9.7-5.3,11.2-11.2c0.6-2.2,0.4-4.6-1.2-6.6C552.1,517.5,550.3,516.6,548.2,515.7z M587.2,435.8
		c-1.6-1.5-3.2-3-4.7-4.5c-0.5-0.5-0.8-0.2-1.2,0.2c-0.7,0.8-1.5,1.6-2.3,2.5c-0.3,0.3-0.5,0.5-0.9,0.3c-0.7-0.3-1.3-0.6-2-0.8
		c-0.4-0.2-0.5-0.5-0.4-0.9c0.3-1.3,0-2.6,0.3-3.8c0.1-0.6-0.1-0.8-0.7-0.8c-1.8-0.1-3.6-0.2-5.4-0.3c-0.7,0-1,0.1-1.1,0.9
		s-0.1,1.6-0.1,2.4c-0.1,1.6-0.3,3-2.2,3.3c-0.4,0.1-0.9,0.4-1.3,0.6c-0.5,0.3-0.9,0.3-1.4-0.2c-0.8-0.8-1.7-1.6-2.5-2.5
		c-0.5-0.5-0.9-0.7-1.6,0c-1.3,1.2-2.3,2.6-3.6,3.8c-0.5,0.4-0.5,0.8,0,1.3c1,1,2,2,3.1,2.9s0.1,1.7,0,2.6c-0.1,0.7-0.5,0.9-1.2,1
		c-1.7,0.1-3.4,0.4-5.2,0.6c0.1,2.2,0.4,4.4,0.7,6.5c0.1,0.7,0.6,0.6,1.1,0.6c1.3-0.1,2.7-0.3,4-0.5c1.2-0.2,1.1,0.8,1.5,1.4
		s0.3,0.9-0.2,1.4c-1.1,1.1-2.2,2.4-3.4,3.7c1.7,1.4,3.2,2.9,4.7,4.4c0.5,0.5,0.9,0.3,1.2-0.2c0.7-1,1.8-1.8,2.5-2.7
		c0.7-0.9,1.4-0.4,2.2-0.2c0.9,0.3,1.1,0.8,1,1.7c-0.2,1.3-0.2,2.5-0.2,3.8c0,0.5,0.1,1,0.7,1c1.9,0.1,3.7,0.2,5.6,0.3
		c0.6,0,0.8-0.2,0.9-0.8c0-1.4,0.2-2.9,0.2-4.3c0-0.5-0.1-1.1,0.6-1.2c0.9-0.1,1.8-1.3,2.9-0.2c1,1,2,2,3,2.9
		c0.3,0.3,0.7,0.6,1.1,0.2c1.5-1.6,3-3.2,4.5-4.8c-1.1-1.1-2.1-2.1-3.2-3.1c-0.3-0.3-0.8-0.8-0.5-1.2c0.9-1.1,0.6-2.8,2-3.6
		c0.1,0,0.2,0,0.2,0c1.3-0.2,2.5-0.3,3.8-0.5c0.8-0.1,1.2-0.3,1.1-1.2c-0.2-1.8-0.4-3.6-0.5-5.3c-0.1-0.6-0.4-0.7-0.9-0.7
		c-1.2,0.1-2.5,0.2-3.7,0.4c-0.6,0.1-1,0-1.1-0.7c-0.1-0.4-0.3-0.8-0.5-1.2c-0.3-0.6-0.3-1,0.2-1.5
		C585.3,437.9,586.2,436.9,587.2,435.8z M472.9,414.7c-0.4-0.3-0.8-0.5-1.2-0.8c-0.5-0.4-0.9-1.1-1.4-1.2c-0.8-0.3-1.1,0.7-1.6,1.1
		s-0.9,0.3-1.3,0.1c-0.4-0.2-0.5-0.5-0.5-1c0.1-1.9,0.1-1.9-1.8-2c-0.1,0-0.2,0-0.4,0c-1.3-0.4-1.7,0.2-1.5,1.4
		c0.2,1.2-0.6,1.6-1.5,2.1c-0.9,0.4-1.2-0.4-1.7-0.7c-0.3-0.2-0.5-0.6-1-0.7c-0.3,0.2-0.5,0.5-0.8,0.8c-1.7,1.7-1.7,1.7,0,3.3
		c0.5,0.5,0.5,0.8,0.3,1.3c-0.2,0.6-0.6,0.7-1.1,0.7c-0.8,0-1.5,0.1-2.2,0.4c-0.2,0.6,0.1,1,0.1,1.6c0.1,2,0.1,2,2.1,1.8
		c0.5-0.1,1.1-0.3,1.4,0.4c0.3,0.7-0.2,1-0.6,1.4c-1.2,1.2-1.2,1.2,0,2.4c1.5,1.5,1.5,1.5,2.9,0c0.4-0.4,0.7-0.7,1.3-0.4
		c0.6,0.3,0.6,0.7,0.4,1.2c0,0.1-0.1,0.2-0.1,0.4c-0.2,1.6-0.1,1.8,1.5,1.8c2.1,0,2.1,0,2.2-2.1c0-0.5,0.1-1,0.6-1.2
		c0.6-0.2,1.1-0.2,1.5,0.3c0.3,0.4,0.7,0.7,1,1c0.2,0.2,0.4,0.4,0.6,0.2c0.8-0.6,1.6-1.2,2.1-2.1c0.4-0.7-0.5-1-0.9-1.5
		c-0.3-0.4-1-0.6-0.5-1.3c0.4-0.6,0.4-1.5,1.5-1.6c2-0.1,2-0.2,1.9-2.2c0-0.2,0-0.3,0-0.5c-0.1-0.8-0.4-1.3-1.3-1.1
		c-0.3,0.1-0.6,0-0.8,0c-1,0-1.5-0.8-0.9-1.7C471.8,415.9,472.2,415.5,472.9,414.7z M559.6,613.6c-0.2,0-0.3,0.2-0.3,0.4
		c0,0,0.2,0.1,0.3,0.1C559.8,613.9,559.8,613.7,559.6,613.6z M559.2,615.2c-0.1-0.1-0.1-0.2-0.1-0.2c-0.1,0.1-0.2,0.1-0.2,0.2
		l0.1,0.2C559.1,615.3,559.1,615.2,559.2,615.2z"/>
	<path class="st1" d="M606.8,530.7c-1.8-1.7-3.7-3.2-6.4-2.8c-0.5,0.1-1,0.1-1.5,0.1c-2.4,0-1.7,0.4-2.6-1.8c-0.1-0.7-0.3-1.4-0.8-2
		c-0.1-0.2-0.1-0.4-0.2-0.6c-0.5-2.1-0.5-2.2-2.6-2.1c-1.4,0.1-2.7,0.2-4,0.3c-0.8,0-1.6,0-2.4,0c0-0.1-0.1-0.1-0.1-0.1
		c0-0.1-0.1-0.1-0.1-0.2c0-0.2-0.1-0.3-0.3-0.4l0,0c0-0.4-0.2-0.6-0.6-0.8c0-0.1-0.1-0.1-0.1-0.2c0-0.6-0.5-0.9-0.7-1.4
		c-0.5-1.3-1.9-2.2-1.4-3.8c-1.1-0.2-1.5,0.9-2.4,1c0.4-0.9,0.7-1.6,1-2.4c0.1-0.3,0.1-0.6-0.2-0.9c-0.3-0.2-0.5,0-0.8,0.1
		c-0.4,0.1-0.7,0.7-1.2,0.6c-0.1-0.7,0.9-1.1,0.3-1.8c-0.6-0.1-1,0.3-1.4,0.5c0-0.3-0.1-0.6-0.1-0.9c0.1-0.3,0.2-0.6-0.1-0.9
		c-0.9-0.1-1.5,0.8-2.4,0.9c-0.4-1.3-1.4-2.1-2.2-3.1c-0.4-0.5-0.6-1.1-0.6-1.7c0.3-2.3,0.6-4.6,0.9-6.9c0.6-0.1,1,0.2,1.5,0.5
		c1.7,1,3.4,2.1,5,3.2c2.8,1.8,5.5,3.6,8.3,5.4c3.7,2.4,7.5,4.7,11.2,7.1c4.4,2.8,8.8,5.7,13.1,8.6c0.5,0.3,0.8,0.3,1.3,0
		c1.6-1.3,3.3-2.5,5.1-3.5c2.5-1.4,5.1-2,7.8-2.2c3.9-0.2,7.7,0.6,11.2,2.6c3.8,2.2,6.5,5.3,8.4,9.2c0.4,0.8,0.4,1.6,0.9,2.3
		c0,0.3,0,0.6-0.1,0.9c-0.6,0.5-0.6,1.2-0.9,1.8c-0.3,0.5-0.2,1.2-0.8,1.5c-2.1,1.1-4.1,2.4-6.3,3.1c-0.6-0.9-1.3-1.5-2.4-1.7
		c-1.7-0.3-3.3-0.5-4.8,0.6c-1.9,1.5-2.6,4.1-1.4,6.3c1.2,2.3,3.6,3.3,6.4,2.5c0.2,0.2,0.4,0.2,0.7,0.2s0.5-0.1,0.5-0.4l0,0
		c0.1-0.1,0.1-0.1,0.2-0.2c0.1-0.1,0.3-0.2,0.4-0.4c0.2,0,0.3,0.1,0.5,0.1c-0.1,0.1-0.1,0.3-0.2,0.4c-0.5,0.3-0.7,0.8-0.3,1.3
		c0.3,0.4,0.7,0.3,0.9-0.2c0.1-0.1,0.1-0.2,0.2-0.3c0.2,0,0.4,0,0.5,0.3s-0.5,0.7,0,1c0.4,0.3,0.7-0.1,0.9-0.3
		c0.5-0.3,0.9-0.7,1.4-1.1l0.1,0.1c0.1,0.3-0.3,0.7,0,1.1c1.3,0,1.8-1.3,2.8-2c0.2,1-0.8,1.4-1,2.1c-1,2.6-3.2,4.1-5.3,5.6
		c-2.8,2-6.1,2.9-9.6,3.3c-3,0.3-5.9-0.2-8.6-1.2c-4.4-1.7-7.9-4.6-10.2-8.7c-2.5-4.4-3.2-9.1-2.2-14
		C609.4,531.9,609,531,606.8,530.7z"/>
	<path class="st2" d="M378.3,617.5c-1.7-0.2-3.4,0.4-5.2,0.2c-0.1-0.4-0.1-0.9-0.3-1.3c-1.7-5.4-3.5-10.8-5.3-16.2
		c-0.3-0.9-0.3-1.7-0.1-2.6c1.3-6.7,2.6-13.4,3.9-20.1c0.1-0.3,0.4-0.8-0.4-1.2c-1.3,7-2.7,13.8-4,20.9c-0.6-0.5-0.6-1.1-0.8-1.5
		c-2.5-7.7-4.9-15.3-7.4-23c-2.7-8.4-5.5-16.8-8.2-25.2c-0.6-1.9-1.4-3.7-1.7-5.7c0.4-0.1,0.7,0.1,1,0.4
		c6.3,6.2,12.3,12.6,17.6,19.7c3.3,4.5,6.3,9.1,8.8,14c0.7,1.4,1.4,2.8,2,4.3c0.4-0.2,0.3-0.4,0.3-0.7c0.1-3.2,0.1-6.3,0.3-9.5
		c0.2-4.5,0.3-9.1,0.5-13.6c0.1-3.6,0.3-7.2,0.5-10.9c0.2-4.2,0.3-8.4,0.5-12.7c0.1-1.4,0.1-2.9,0.2-4.3c2.5,0.3,5,0.6,7.4,1
		c2.6,0.4,2.6,0.4,3.3-2c0-0.1,0.1-0.1,0.1-0.2c0.2,0.1,0.4,0.2,0.6,0.3c0.2,1.3,0.2,2.6,0.2,3.9c0,4.6,0.1,9.1,0.1,13.7
		c0,1.2,0.1,2.3,0.1,3.5c0.1,8.6,0.2,17.3,0.3,25.9c0,2,0.2,4-0.1,6l-0.1,0.1c-3.8,0.1-7.7,0.1-11.5,0c-0.8-0.1-1.6-0.2-2.5,0.1
		c0.2,1.2,0.7,2.3,1.2,3.4c0,0.6,0,1.3,0,1.9c-0.3,7.1-0.6,14.2-0.9,21.3C378.7,610.7,378.8,614.1,378.3,617.5z"/>
	<path class="st2" d="M548.2,515.7c2.1,0.9,3.9,1.8,5.2,3.5c1.6,2,1.7,4.3,1.2,6.6c-1.5,5.9-5.5,9.5-11.2,11.2
		c-1.4,0.4-2.9,0.4-4.4,0.3c-0.7,0-1.1,0.2-1.4,0.8c-3,5.6-5.3,11.4-6.6,17.6c-0.9,4-1.4,8.1-1.6,12.2c-0.4,5.8,0.4,11.5,1.2,17.2
		c0.4,2.8,0.8,5.6,1.2,8.4c0.1,0.5-0.1,0.8-0.5,1c-6.4,3-12.9,5.7-20,6.7c-2.9,0.4-5.7,0.6-8.6,0.4c-6.6-0.5-12.7-2.3-17.6-7
		c-0.6-0.5-0.8-1.1-0.8-1.9c0-7,0-14,0-21c0-2.3-1.6-4-3.9-4.2c-8.5-0.7-15.4-4.4-20.3-11.5c-3.1-4.4-4.9-9.4-6-14.6
		c-1-4.5-1.6-9.1-1.7-13.7c0-1.2-0.2-2.4-0.2-3.6c-0.1-5.4,0.2-10.8,0.5-16.2c0.3-4.9,1-9.7,1.3-14.6c0.2-2.2,0.3-4.5,0.3-6.7
		c0.1-5,0.7-10,2.3-14.8c2-6.1,4.8-11.8,8.9-16.8c4.4-5.4,9.6-9.8,15.7-13.1c4.9-2.7,10.1-4.4,15.5-5.4c4.5-0.8,9.1-0.8,13.7-0.4
		c6.7,0.6,13,2.6,18.8,5.8c3.7,2,7,4.4,10.1,7.2c3.6,3.2,6.6,6.9,9.2,11c3.6,5.8,6,12.1,7,18.9c0.3,2.2,0.6,4.3,0.6,6.5
		c0.1,7.9-1.4,15.4-4.7,22.6C550.3,510.7,549.3,513.1,548.2,515.7z M543.8,518.3c-0.2-0.4-0.1-0.6,0-0.9c1.6-3.7,3.2-7.4,4.8-11.1
		c2.5-5.5,3.8-11.3,4.1-17.3c0.2-4.5-0.2-9-1.3-13.4c-1.5-6.1-4.1-11.6-7.8-16.7c-3.8-5.2-8.4-9.4-13.9-12.8
		c-7.3-4.5-15.2-6.7-23.7-7c-4-0.1-7.9,0.4-11.8,1.3c-7.5,1.7-14.1,5.1-19.9,10c-8.7,7.4-14,16.9-16.2,28.2
		c-0.8,4.1-0.5,8.2-0.9,12.3c-0.3,3.1-0.4,6.2-0.8,9.3c-0.6,5.3-1,10.6-1.1,16c-0.1,4.4-0.2,8.8,0.2,13.2c0.3,3.7,0.7,7.4,1.5,11.1
		c1.1,4.9,2.7,9.5,5.5,13.7c3.8,5.6,9.1,8.8,15.7,9.9c1.3,0.2,2.6,0.3,3.9,0.6c3.2,0.8,5.3,3.8,5.3,7.3c0,6.6,0,13.1,0,19.7
		c0,0.7,0.2,1.2,0.8,1.7c5,4,11,5.2,17.2,5.2c3.1,0,6.2-0.5,9.3-1.3c4.4-1.1,8.6-2.7,12.7-4.6c0.5-0.2,0.7-0.5,0.6-1
		c-0.4-2.5-0.7-5-1.1-7.4c-0.5-3.2-1-6.4-1-9.6c-0.1-4.7,0-9.3,0.7-14c0.7-4.6,1.9-9,3.3-13.4c1.5-4.5,3.7-8.6,5.9-12.8
		c0.4-0.8,0.8-0.9,1.6-0.7c1.9,0.6,3.9,0.6,5.9-0.1c3.6-1.2,6.1-3.6,7.6-7c0.8-1.8,1.3-3.9-0.3-5.6c-1.3-1.4-2.9-2.3-4.8-2.4
		C545.1,518.6,544.5,518.4,543.8,518.3z"/>
	<path class="st3" d="M381.1,580.7c3.8,0.2,7.7,0.1,11.5,0h0.1v-0.1c0.3-2,0.1-4,0.1-6c-0.1-8.6-0.2-17.3-0.3-25.9
		c0-1.2-0.1-2.3-0.1-3.5c4,0.3,8,0.4,12-0.4c0.6,4.4,0.8,8.8,1.1,13.2c0.6,6.7,1.1,13.4,1.6,20.2c0.1,1.2,0.5,1.4,1.5,1.3
		c2.1,0,4.2,0,6.4,0c-0.3,8.1-0.6,16.3-0.9,24.4c-0.2,4.5-0.3,9-0.5,13.5c0,0.6-0.1,1.1-0.9,1c-1.9,0-3.7,0.2-5.6,0.5
		c-0.3-0.2-0.4-0.4-0.4-0.8c-1.4-10-2.7-19.9-4.1-29.9c-1-7.4-2.1-14.8-3.1-22.2c0-0.2,0-0.4-0.4-0.6c-0.9,3.4-1.8,6.8-2.8,10.2
		c-3.6,13.3-7.2,26.6-10.9,39.9c-0.2,0.8-0.3,1.7-1,2.4c-1.9,0.4-3.8,0-5.6,0.5c-0.6-0.2-0.4-0.8-0.5-1.2c0.5-3.4,0.4-6.8,0.6-10.2
		c0.3-7.1,0.6-14.2,0.9-21.3c0-0.6,0-1.3,0-1.9c0.3-0.7,0.2-1.5,0.2-2.2C379.9,581,380.3,580.7,381.1,580.7z"/>
	<path class="st2" d="M414.9,579.7c-2.1,0-4.2-0.1-6.4,0c-1,0-1.4-0.2-1.5-1.3c-0.5-6.7-1-13.4-1.6-20.2c-0.4-4.4-0.6-8.8-1.1-13.2
		c0-0.9,0-1.8-0.1-2.7c-0.4-3.7-0.7-7.4-0.9-11.1c4.2,0,8.4,0.6,12.6,0.5c0.1-0.2,0.1-0.4,0.1-0.5c0.4-8,0.9-16,1.3-24
		c0-0.7-0.3-0.9-0.9-0.9c-1.6-0.1-3.2-0.2-4.8-0.2c-0.1-0.4,0.1-0.8-0.3-1.2c-1-0.1-2.1,0-2.8-1.2c-0.4-0.6-1.3-0.4-1.7,0.3
		c-0.4,0.6-0.8,0.7-1.4,0.5c0.3-1.6,0.3-1.6-1.3-2.2c-0.5-0.2-1-0.4-0.8-1c0.3-1.2,0.4-2.3,0.6-3.5c0.3-2,1-4,0.8-6.1
		c2.5,0.9,4.8,2,7.2,3.2c3.4,1.8,5.6,4.5,7,8c1.5,3.7,3,7.4,5.5,10.6c0.2,0.2,0.3,0.4,0.5,0.6c2,1.8,2.9,1.7,4.4-0.6
		c1.6-2.4,2.7-5,3.7-7.8c0.2-0.7,0.6-1,1.3-0.9c1.5,0.6,3.1,1.1,4.7,1.2c0.7,0.4,0.6,1.2,0.5,1.8c-0.8,5-2,9.9-4.5,14.4
		c-1.3,2.2-2.9,4.3-5.3,5.3c-4.4,1.8-7,0.4-9.8-3c-0.7-0.9-1.3-2-2.2-3.2c0,1.8-0.2,3.3,0,4.8c0.3,2.4,0.2,4.8,0.3,7.2
		c0.3,4.1,0.2,8.3,0.3,12.4c0.2,3.6,0,7.3,0.3,10.9c0.2,3.5,0,7,0.2,10.4c0.2,3.8,0.2,7.5,0.2,11.3c0,0.4,0,0.9,0,1.3
		C417.7,580,416.3,579.8,414.9,579.7z"/>
	<path class="st4" d="M372.4,617.6c-0.1,0.4-0.5,0.4-0.8,0.4c-4.1,0.3-8.1,0.7-12.1,1.2c-0.4,0-0.7,0-1.1,0c0-1.1-0.1-2.2-0.2-3.3
		c-0.3-4-1.5-7.8-3.4-11.3c-3.6-6.9-8.9-12.4-15.1-17.1c-0.4-0.3-0.8-0.6-0.8-1.1c0-8.1,1.1-16,2.8-23.9c1.4-6.4,3.2-12.8,5.3-19
		c0.2-0.5,0.2-1.2,0.9-1.5c0.1,0.3,0.3,0.6,0.4,0.9c4,12.4,8,24.9,12,37.3c0.1,0.3,0.4,0.6,0,1c-6.4-3.6-12.7-7.4-19.4-11.1
		c0.1,0.9,0.5,1,0.8,1.1c5.9,3.4,11.8,6.9,17.8,10.2c1.1,0.6,1.8,1.4,2.1,2.6c3,9.4,6.1,18.8,9,28.2
		C371.4,614,372.2,615.7,372.4,617.6z"/>
	<path class="st4" d="M686.5,554.3c0.7,1.4,0.7,2.9,0.9,4.4c1,7.3,1.6,14.6,1.4,21.9c-0.2,5.9-0.6,11.9-2,17.7
		c-0.4,0.4-0.9,0.6-1.4,0.8c-3.6,1.5-7,3.4-10,6.1c-4.2,3.7-6.9,8.2-7.6,13.8c-4.1-0.3-8.2-0.6-12.3-1.2c-0.8-0.1-1.6,0.2-2.3-0.4
		c0.2-0.4,0.3-0.8,0.5-1.1c4.9-9.3,9.8-18.5,14.6-27.8c0.4-0.7,0.8-1.1,1.5-1.4c5.6-2,11.3-4.1,16.9-6.2c0.5-0.2,1.1-0.2,1.2-1
		c-6.1,2.2-12.2,4.5-18.6,6.8c0.4-0.8,0.6-1.2,0.8-1.7c3.8-7.1,7.5-14.3,11.3-21.4C683.1,560.5,684.8,557.4,686.5,554.3z"/>
	<path class="st4" d="M587.2,435.8c-1,1.1-1.8,2.1-2.8,3c-0.5,0.5-0.5,0.9-0.2,1.5c0.2,0.4,0.4,0.8,0.5,1.2c0.2,0.7,0.5,0.8,1.1,0.7
		c1.2-0.2,2.5-0.2,3.7-0.4c0.5,0,0.9,0.1,0.9,0.7c0.2,1.8,0.3,3.6,0.5,5.3c0.1,0.9-0.3,1.1-1.1,1.2c-1.3,0.1-2.5,0.3-3.8,0.5
		c-0.1,0-0.2,0-0.2,0c-1.4,0.7-1.1,2.5-2,3.6c-0.4,0.5,0.1,0.9,0.5,1.2c1,1,2,2,3.2,3.1c-1.5,1.6-3,3.2-4.5,4.8
		c-0.4,0.5-0.8,0.1-1.1-0.2c-1-1-2-1.9-3-2.9c-1-1.1-1.9,0.1-2.9,0.2c-0.8,0.1-0.6,0.7-0.6,1.2c-0.1,1.4-0.2,2.9-0.2,4.3
		c0,0.6-0.3,0.9-0.9,0.8c-1.9-0.1-3.7-0.2-5.6-0.3c-0.6,0-0.7-0.5-0.7-1c0-1.3,0-2.6,0.2-3.8c0.1-0.8-0.1-1.4-1-1.7
		c-0.8-0.3-1.5-0.7-2.2,0.2c-0.8,1-1.8,1.7-2.5,2.7c-0.3,0.4-0.7,0.6-1.2,0.2c-1.5-1.5-3-3-4.7-4.4c1.2-1.3,2.2-2.5,3.4-3.7
		c0.5-0.5,0.5-0.9,0.2-1.4c-0.4-0.6-0.3-1.6-1.5-1.4c-1.3,0.2-2.7,0.3-4,0.5c-0.5,0-1,0.2-1.1-0.6c-0.3-2.1-0.6-4.2-0.7-6.5
		c1.8-0.2,3.5-0.5,5.2-0.6c0.7-0.1,1.1-0.3,1.2-1c0.1-0.9,1.1-1.7,0-2.6s-2-1.9-3.1-2.9c-0.5-0.5-0.5-0.8,0-1.3
		c1.3-1.2,2.3-2.6,3.6-3.8c0.7-0.6,1.1-0.5,1.6,0c0.8,0.8,1.7,1.6,2.5,2.5c0.4,0.5,0.8,0.5,1.4,0.2c0.4-0.3,0.8-0.6,1.3-0.6
		c1.9-0.3,2.2-1.7,2.2-3.3c0-0.8,0-1.6,0.1-2.4c0.1-0.7,0.4-0.9,1.1-0.9c1.8,0.1,3.6,0.2,5.4,0.3c0.5,0,0.8,0.2,0.7,0.8
		c-0.2,1.3,0,2.6-0.3,3.8c-0.1,0.4,0,0.7,0.4,0.9c0.7,0.3,1.3,0.6,2,0.8c0.4,0.2,0.7-0.1,0.9-0.3c0.8-0.8,1.5-1.6,2.3-2.5
		c0.4-0.4,0.7-0.7,1.2-0.2C584,432.8,585.6,434.2,587.2,435.8z M572.1,439.4c-4,0-7,3.1-7,6.9c0,4.5,3.7,7,7,7c3.8,0,7.1-3.2,7.1-7
		C579.2,442.5,576,439.4,572.1,439.4z"/>
	<path class="st2" d="M652.2,617.5c-4.4,0.2-3.6,0-4.6-3.6c0-0.6-0.1-1.3-0.1-1.9c-0.3-3.6-0.5-7.2-0.8-10.8c0.3,0.1,0.4,0,0.4-0.3
		c0.4-3.7,1.7-7.2,3.2-10.6c3.8-8.5,9.7-15.4,16.4-21.7c3-2.9,6.2-5.6,9.5-8.1c2.8-2.1,5.6-4,8.4-6c0.3-0.2,0.6-0.4,1-0.3
		c-0.1,0.3-0.2,0.5-0.3,0.8c-7.2,13.7-14.5,27.4-21.7,41.1c-0.6,1.2-1.1,2.5-2,3.6c-0.1,0-0.3,0-0.4-0.1c0-6.2,0-12.4,0-18.8
		c-0.8,0.5-0.6,1-0.6,1.3c0.1,5.4,0.1,10.9,0.3,16.3c0.1,1.9-0.2,3.5-1.2,5.1c-1.3,2.2-2.4,4.5-3.6,6.8
		C654.8,612.8,653.7,615.2,652.2,617.5z"/>
	<path class="st2" d="M338.9,586.3c0,0.5,0.4,0.8,0.8,1.1c6.2,4.7,11.4,10.2,15.1,17.1c1.9,3.5,3.1,7.3,3.4,11.3
		c0.1,1.1,0.2,2.2,0.2,3.3c-1.6,0.5-3.2,0.4-4.8,0.6c-2.4,0.2-4.7,0.9-7.2,0.9c-0.2-0.4-0.3-0.8-0.5-1.1c-1.3-1.9-2.5-3.8-3.8-5.7
		c-2.9-4.4-5.8-8.8-8.8-13.2c-3.3-4.7-6.3-9.6-9.6-14.3c-2.7-3.8-5.2-7.8-7.8-11.7c-0.3-0.4-0.8-0.7-0.6-1.3c1.4,0.3,2.6,1,3.8,1.6
		c6.2,2.9,12.2,6.4,17.9,10.2C337.5,585.6,338,586.4,338.9,586.3z"/>
	<path class="st2" d="M647.5,533.2c0-0.3,0-0.6,0.1-0.9c0.6-1.5,1.1-2.9,1.2-4.5c1-1.7,1.1-3.6,1.6-5.4c0.7-2.7-0.6-5-2-7.2
		c-0.3,0.2-0.3,0.4-0.4,0.6c-0.1,1.9-0.2,3.7-0.3,5.6c-0.1,1.3-0.2,2.6-0.4,3.9c-0.2-0.1-0.4-0.2-0.5-0.3c-2.7-3.8-6.3-6.5-10.7-8.2
		c-0.2-6.7-0.3-13.5-0.5-20.2c0-0.9-0.2-1.9-0.2-2.9c0-0.4,0.1-0.9,0.6-0.8c3.7,0.6,7.6,0.8,10.9,2.8c2.7,1.6,4.7,4.2,6.6,6.7
		c3,3.9,5.3,8.1,7.2,12.6c0.7,1.6,1.2,3.3,1.4,5.1c0.3,2.1-0.7,3.9-1.7,5.6c-2.1,3.8-4.7,7.1-8,9.9c-0.5,0.4-1.4,0.4-1.6,1.2
		c-0.1-0.2-0.1-0.4-0.2-0.6c0.2-0.5-0.1-0.7-0.5-0.9C649.6,534.5,648.5,533.9,647.5,533.2z"/>
	<path class="st4" d="M315.2,573.3c-0.1,0.6,0.4,0.9,0.6,1.3c2.6,3.9,5.1,7.9,7.8,11.7c3.3,4.7,6.4,9.6,9.6,14.3
		c3,4.4,5.9,8.8,8.8,13.2c1.3,1.9,2.6,3.8,3.8,5.7c0.2,0.3,0.3,0.7,0.5,1.1c-6,1.2-12.1,1.8-18,3.5c-1,0.3-1.6-0.3-2.1-1
		c-1.9-2.8-3.6-5.7-4.9-8.9c-2.6-6.1-4.1-12.5-5.2-19c-0.7-4.1-1.1-8.2-1.4-12.3c-0.2-3.2-0.2-6.5-0.2-9.7c0.1,0,0.2,0,0.3,0
		C315.1,573.3,315.2,573.3,315.2,573.3z"/>
	<path class="st5" d="M646.7,601.2c0.3,3.6,0.5,7.2,0.8,10.8c0,0.6,0.1,1.3,0.1,1.9c-0.5,0-0.9,0.1-1.4,0.1c-2.1-0.1-4.2-0.1-6.2,0
		c-1,0-2,0-3,0c-3.5-17.8-6.4-35.5-10.7-52.9c2-0.1,4-0.1,6-0.4c1.9-0.3,3.6-1.1,5.5-1.5c0.2,5,0.4,10,0.5,15.1
		c0.1,1.5,0,1.5,1.6,1.5s3.2,0,4.8,0c0.6,8,1.2,15.9,1.8,23.9C646.6,600.2,646.6,600.7,646.7,601.2z"/>
	<path class="st6" d="M436.9,582c-0.2-0.6-0.9-0.9-1.2-1.4c-1-1.7-0.8-3.8,0.6-5s3.6-1.2,5.1,0c1.2,1,2.3,2.1,3.3,3.3
		c0.3,0.4,0.6,0.7,1.2,1c-0.3-2.5-0.7-5-1.1-7.7c-1.7,0.4-3.3,0.6-5,0.9c-2.5,0.3-4.2-0.6-4.7-2.7c-0.3-1.3,0.2-2.4,1.2-3.2
		s2.1-1,3.3-0.5c1.4,0.6,2.5,1.7,3.7,2.7c0.3,0.3,0.6,0.5,1.1,1c-0.1-2.5-0.7-4.6-1-6.8c-1.5,0.1-2.9,0.5-4.3,0.4
		c-1.3-0.1-2.2-0.9-2.3-2c-0.1-1.3,0.5-2.3,1.8-2.6c1-0.3,1.8,0.2,2.5,0.8c0.5,0.4,0.8,1,1.7,1c-0.1-1.6-0.4-3.1-0.9-4.5
		c-0.2-0.5-0.6-0.3-0.9-0.2c-1.2,0.2-2.3,0.5-3.6,0.4c-1,0-1.9-0.4-2.2-1.5c-0.3-0.9-0.2-1.8,0.6-2.5c0.8-0.7,1.7-0.9,2.8-0.3
		c1,0.6,1.8,1.4,2.8,2c-0.7-2.1-0.5-4.5-2.8-5.9c-0.7-0.4-1.3-1.2-1.9-1.8c-0.7-0.8-0.7-1.8-0.2-2.7c0.6-1,1.5-1.2,2.5-0.9
		c1,0.2,1.6,1,1.6,2c0.1,1,0.1,2.1,0,3.1c-0.2,1.7,0.6,3.1,1.1,4.9c0.2-0.9,0.3-1.4,0.5-1.9c0.3-1,1-1.7,2.1-1.7
		c1-0.1,1.8,0.3,2.3,1.3c0.4,1,0.3,1.9-0.5,2.7c-0.9,0.9-1.9,1.5-2.9,2.3c-0.3,0.2-0.6,0.4-0.5,0.9c0.3,1.1,0.5,2.2,0.8,3.4
		c0.6-0.5,0.4-1.2,0.6-1.7c0.3-1.2,1.1-1.8,2.2-1.9c0.9-0.1,1.7,0.4,2.1,1.3c0.5,1,0.3,2-0.5,2.9c-0.9,0.9-2,1.6-3.1,2.3
		c-0.6,0.3-0.8,0.6-0.6,1.3c0.4,1.7,0.6,3.3,1.1,5c0.3-1.3,0.5-2.5,0.9-3.8c0.3-1.4,1.2-2.2,2.6-2.5c1.4-0.2,2.4,0.3,3.3,1.3
		c1,1.2,0.9,3-0.2,4.2s-2.6,2-4.1,2.7c-2,0.8-2.1,1.1-1.8,3.2c0.2,1.4,0.2,2.7,0.7,4.3c0.5-1.8,0.6-3.4,1.3-4.8
		c0.7-1.5,2.3-2.4,3.9-2.2c1.5,0.1,2.8,1.2,3.3,2.8c0.5,1.5-0.1,3.1-1.4,4.1c-1.9,1.4-3.8,2.6-6,3.5c-0.5,0.2-0.8,0.4-0.7,0.9
		c0.3,2.1,0.5,4.2,0.8,6.6c0.4-0.8,0.6-1.4,0.8-1.9c0.7-1.7,1.5-3.3,2.5-4.7c1.2-1.7,3-2.4,5-1.9c1.8,0.4,3.3,2.1,3.5,3.8
		c0.3,2-0.6,3.9-2.4,4.8c-2.5,1.3-5.3,2-8.1,2.6c-0.7,0.1-1.1,0.3-1,1.1c0.2,2.1,0.4,4.3,0.6,6.4c0.4,0.1,0.4-0.3,0.5-0.5
		c0.8-2,1.7-3.9,2.9-5.7c1.2-1.8,3.2-2.5,5.2-2c1.8,0.5,3.2,2.1,3.3,3.9c0.2,2.4-0.8,4.1-2.9,5c-2.7,1.2-5.4,2.2-8.4,2.4
		c-0.2-1-0.7-1.7-1.4-2.4c0.4-0.7,0.1-1.4,0-2.1c-0.2-1.9-0.2-3.9-0.6-5.9c-1,0.1-1.9,0.3-2.7,0.7c-1-0.3-1.9-0.1-2.8,0.3
		c-0.5,0-0.9,0-1.4-0.1c0.1-0.6,0.7-0.9,1-1.3c0.9-1.1,1-2.3,0.4-3.3s-1.8-1.4-2.9-1.1c-1.1,0.3-1.9,1.3-2,2.7c0,0.7,0,1.5,0,2.3
		c-0.4-0.3-0.4-0.6-0.8-0.7c0.1-0.6-0.1-1.1-0.4-1.6c-0.5-0.9-0.3-1.6,0.5-2.2c1.2-1,2.4-2,2.8-3.6c0.7,0,1.3,0.4,1.9,0.8
		c1.9,1.2,3.5,2.7,5.2,4.3c0.3,0.3,0.5,0.8,1.1,0.7c-0.3-2.4-0.5-4.8-0.8-7.2c-0.1-0.5-0.4-0.7-0.9-0.6c-2.5,0.2-5,0.4-7.5,0
		C437.4,582.3,437.1,582.3,436.9,582z M442.8,561.4L442.8,561.4L442.8,561.4L442.8,561.4z"/>
	<path class="st5" d="M624.9,560.9c-3.1,12-5.1,24.2-7.5,36.4c-1,4.9-1.9,9.9-2.8,14.8c-0.1,0.7-0.3,1.3-0.5,2c-0.6,0-1.1,0-1.6,0
		c-2.1-0.3-4.1-0.1-6.2-0.1c-0.4,0-0.9-0.1-1.4-0.1c0.9-12.7,1.8-25.4,2.8-38.1c1.9-0.2,3.9,0.3,5.9,0.1c0.6-6.2,1.3-12.4,1.9-18.6
		c1.4,0.4,2.6,1.4,3.9,1.9C621.2,559.9,623.1,560.4,624.9,560.9z"/>
	<path class="st7" d="M535,611c1.1-3.1,4-3.9,6.6-1.9c1.4,1,2.6,2.3,3.7,3.6c0.4,0.4,0.7,0.8,1.3,1.5c0.4-3.1,0.7-5.8,1-8.6
		c-1.4-0.4-2.8-0.8-4.1-1.2c-1.2-0.4-2.4-0.9-3.5-1.5c-1.6-0.9-2.4-2.4-2.2-4.2c0.3-1.7,1.5-3,3.2-3.3s3.3,0.4,4.3,2
		c0.8,1.3,1.4,2.8,1.9,4.2c0.1,0.4,0.2,0.8,0.8,1.1c0.3-2.1,0.6-4.1,0.9-6.2c-0.9-0.2-1.7-0.4-2.5-0.6c-1.6-0.4-3.2-1-4.7-1.8
		c-2-1-2.9-2.5-2.6-4.4c0.3-1.7,1.6-3,3.2-3.3c2-0.3,3.5,0.4,4.5,2.4c0.7,1.2,1.2,2.5,1.7,3.8c0.1,0.4,0.3,0.7,0.5,1.3
		c0.5-0.9,0.4-1.7,0.6-2.4c0.9-2.5,0.4-4.3-2.4-5.2c-1.1-0.4-2.1-1.2-2.9-2.1c-1.1-1-1.4-2.4-0.9-3.7c0.5-1.2,1.8-2.1,3.1-2
		c1.4,0.1,2.6,0.9,3,2.3c0.3,1.1,0.6,2.1,1.1,3.3c0.3-1.5,0.6-3.1,0.9-4.7c-1.1-0.7-2.3-1.4-3.4-2.1c-0.6-0.4-1.2-0.9-1.8-1.4
		c-0.8-0.9-1-2-0.4-3.1c0.5-1.1,1.4-1.6,2.6-1.6c1.2,0.1,2.1,0.7,2.5,1.9c0.3,1,0.5,2,0.7,3c0.1,0,0.2,0,0.3,0.1
		c0.3-1.4,0.6-2.8,0.9-4.2c0.1-0.3-0.4-0.6-0.7-0.8c-0.8-0.5-1.6-1.2-2.3-1.9s-0.9-1.5-0.4-2.4c0.4-0.8,1.1-1.2,2-1.1
		c1,0.1,1.6,0.7,1.8,1.7c0.1,0.4,0.1,0.8,0.3,1.5c0.7-1.1,0.9-2.2,1-3.2c0.1-0.6-0.7-0.9-1.1-1.2c-0.7-0.4-1.3-0.9-1.8-1.5
		c-0.6-0.7-0.7-1.5-0.2-2.3c0.4-0.7,1.1-1,1.8-0.9c0.9,0.1,1.5,0.6,1.7,1.6c0.1,0.4,0,0.9,0.5,1.4c0.4-1.3,1.2-2.4,1-3.8
		c-0.1-0.9,0-1.9,0.1-2.9c0.1-0.9,0.7-1.4,1.6-1.5c0.8-0.1,1.5,0.2,1.9,0.9c0.4,0.8,0.4,1.6-0.2,2.2c-0.6,0.6-1.2,1.3-1.9,1.7
		c-1.9,1.1-1.8,3-2.6,4.8c1.1-0.3,1.6-1,2.3-1.4c0.9-0.5,1.7-0.7,2.6,0c0.7,0.6,0.9,1.4,0.6,2.3c-0.4,1-1.3,1.2-2.3,1.2
		c-1.2,0-2.3-0.4-3.5-0.6c-0.5,1.4-0.9,2.9-1.2,4.5c0.8-0.2,1.3-0.8,1.8-1.1c0.9-0.6,1.9-0.8,2.8-0.1c0.8,0.6,0.9,1.5,0.5,2.4
		c-0.5,1.1-1.5,1.3-2.5,1.1c-1-0.1-2-0.3-3-0.5c-0.4,1.8-0.9,3.5-1.1,5.3c0.9,0.1,1.2-0.5,1.6-0.8c0.8-0.6,1.5-1.2,2.4-1.6
		c1.1-0.4,2.1-0.3,3,0.5s1.1,1.8,0.8,3c-0.4,1.1-1.2,1.8-2.4,1.9c-1.5,0.1-3-0.2-4.5-0.6c-0.4-0.1-0.8-0.4-1.4-0.1
		c-0.4,1.9-0.9,3.8-0.9,5.8c0.8,0.1,1-0.4,1.3-0.7c0.9-0.9,1.7-1.8,2.8-2.4c1.2-0.8,2.6-0.7,3.7,0.1c1.1,0.8,1.6,2.2,1.3,3.5
		s-1.4,2.3-2.8,2.4c-2.2,0.2-4.4,0-6.7-0.5c-0.4,2.3-0.7,4.6-1,6.9c1.6-1.1,3-2.4,4.5-3.4c1-0.7,2-1.4,3.3-1.3
		c-1.1,3.2-0.8,4.1,1.8,6.3c0.3,0.2,0.7,0.4,0.6,0.9c-0.1,0.1-0.2,0.1-0.3,0.2c-1.7-0.8-3.4-0.4-5,0.3c-1.7,0-3.3-0.9-5.1-1.1
		c-0.4,2.4-0.7,4.7-0.9,7.4c1.8-1.3,3.1-2.9,4.9-3.8c-0.2,1.8,0.5,3.2,2,4.2c0.9,0.7,1.9,1.4,2.8,2c-1.1,0.8-2.3,0.6-3.5,0.5
		c-2.1-0.2-4.2-0.6-6.4-1.3c-0.3,1.9-0.5,3.7-0.6,5.5c-0.7,1.8-0.1,3.3,1.2,4.6c0,0.1,0,0.2-0.1,0.2c-0.4-0.1-0.8-0.1-1.2-0.2
		c-0.1-0.2-0.3-0.3-0.5-0.1c-0.2,0-0.5,0-0.7,0.1c-0.1,0-0.2,0-0.3,0s-0.3,0-0.4,0.1c-0.3-0.1-0.6-0.1-0.8,0.1
		c-0.3,0-0.6,0.1-0.9,0.1c-0.6-0.1-1.2-0.1-1.7,0.2c-1,0-2.1,0-3.1,0c-0.3-0.1-0.7-0.3-1-0.1c-0.1,0-0.3-0.1-0.4-0.1
		c-0.2-0.3-0.6-0.4-0.9-0.4c-0.8-0.6-1.4-1.3-1.8-2.3c0-0.1,0-0.2,0-0.3c0-0.5,0-1.1,0-1.6C535,611.2,535,611.1,535,611z
		 M552.6,577.3c0,0.1,0.1,0.1,0.1,0.2l0.1-0.1C552.7,577.3,552.7,577.3,552.6,577.3C552.7,577.2,552.6,577.3,552.6,577.3z
		 M551.2,585.4L551.2,585.4c-0.1,0.1,0,0.2,0,0.2l0.1-0.1C551.3,585.5,551.3,585.4,551.2,585.4z"/>
	<path class="st2" d="M380.3,528.2c-2.4-0.5-4.7-1.2-7-2c-2.3-0.9-4.1-4.3-3.3-7c1.4-5.1,2.8-10.3,4.9-15.2c1.4-3.2,3.6-5.7,6.5-7.6
		c1.5-1,3-1.9,4.5-2.9c0.3-0.2,0.6-0.3,1-0.3c1,3.2,2.1,6.3,3.1,9.4c-0.3,0.2-0.6,0.3-0.7,0.4c-1.6,1.1-1.6,1.1-1.1,3.1
		c1,3.5,1.8,7,2.8,10.5c0.2,0.8,0.1,1.7,0.9,2.3c0,1.2,0,2.5-0.1,3.7c-3.4-1.6-6.7-3.3-10.1-4.9c-0.7-0.3-0.7-0.8-0.5-1.4
		c0.7-1.8,1.3-3.7,1.9-5.5c0.1-0.3,0.4-0.7-0.2-1.2c-0.9,2.8-1.8,5.4-2.7,8c0.6,0.3,1.1,0.6,1.6,0.8c2.9,1.4,5.9,2.9,8.8,4.3
		c0.5,0.2,1,0.4,0.8,1.1c-0.4,1.8-0.9,3.6-1.3,5.5c-1.2-0.1-2.2-0.3-3.3-0.4C384.8,528.7,382.6,528.2,380.3,528.2z"/>
	<path class="st2" d="M601,512.3c2.6-4.5,5.1-9,8.3-13.1c2.3-2.8,5.3-4.4,8.7-5.3c2.6-0.7,5.3-1.1,8-1.3c0.4,0.8,0,1.7-0.2,2.4
		c-1.5,5.9-3,11.9-4.3,17.9c-0.3,1.2-0.7,2.4-0.7,3.6c-2.3,0.8-4.5,1.9-6.4,3.4c-0.6,0.5-1.1,0.6-1.8,0.1c-0.8-0.6-1.7-1.1-2.6-1.7
		C607.1,516.3,604,514.5,601,512.3z"/>
	<path class="st2" d="M559.8,597.1c0.1-0.5-0.3-0.7-0.6-0.9c-2.6-2.2-2.9-3.1-1.8-6.3c1.3-1.1,2.6-2,4.4-1.5c1.7,0.5,2.6,1.8,3,3.4
		c0.2,0.9,0.4,1.9,0.5,2.8c0.1,0.9,0.4,1.8,0.3,2.7c0.8-1.7,1.6-3.3,2.3-5.1c0.2-0.5,0-0.9-0.4-1.3c-1.5-1.1-2.8-2.5-3.9-4
		c-0.8-1-0.9-2.9-0.3-3.8c0.9-1.4,2.3-1.9,4-1.4c1.1,0.3,2,1.7,2.1,2.9c0.2,1.2-0.2,2.4,0,3.7c1-1.4,1.4-2.9,2.1-4.3
		c0.2-0.4,0-0.7-0.4-0.9c-1.3-0.9-2.2-2.3-3.2-3.5c-0.9-1.2-0.9-2.5-0.1-3.6c0.7-0.9,2-1.3,3.2-1c1,0.3,1.9,1.5,1.9,2.8
		c0,1.1,0,2.1,0,3.2c0.6-1.2,1.3-2.5,1.9-3.7c0.2-0.4,0.1-0.8-0.2-1.2c-0.7-0.8-1.4-1.6-1.9-2.6c-0.5-0.9-0.5-1.7,0.2-2.4
		c0.6-0.7,1.4-0.9,2.3-0.6c0.9,0.3,1.3,1,1.2,2c0,0.3,0,0.7,0,1.2c1-0.6,1.1-1.6,1.6-2.3c0.2-0.3-0.1-0.6-0.3-0.8
		c-0.6-0.8-1.2-1.5-1.7-2.3c-0.5-0.9-0.5-1.8,0.2-2.6c0.5-0.6,1.3-0.8,2.1-0.5c0.9,0.3,1.4,1,1.3,2.1c0,0.4,0,0.8,0,1.6
		c0.8-1.4,1.9-2.2,2-3.7c0.1-0.8,0.5-1.7,0.8-2.5c0.4-0.9,1-1.5,2.1-1.3c0.9,0.1,1.5,0.7,1.7,1.6c0.2,0.9-0.2,1.6-1,2.1
		c-0.6,0.3-1.2,0.8-1.9,1c-2.1,0.6-2.5,2.6-3.6,4c1.1-0.1,1.9-0.8,3-0.8c1.1-0.1,2.1,0.6,2.2,1.6c0.1,1.3-0.6,2.3-1.9,2.3
		c-1.5,0-2.8-0.9-4.1-1.6c-1,1.1-1.5,2.6-2.3,3.9c0.6,0.3,1-0.2,1.4-0.3c0.7-0.2,1.3-0.6,2.1-0.4c1,0.2,1.9,1.3,1.7,2.3
		c-0.3,1.2-1.3,1.9-2.5,1.7s-2.2-0.8-3.4-1.4c-1,1.6-1.9,3.2-2.4,5.1l-0.1,0.1l0.1-0.1c1.2-0.5,2.3-0.9,3.5-1.4
		c1.5-0.6,2.5-0.3,3.5,0.9c0.7,0.8,0.8,2.2,0.3,3c-0.8,1.3-1.9,1.7-3.5,1.4c-1.4-0.3-2.7-0.9-3.9-1.7c-0.7-0.4-1.1-0.3-1.4,0.4
		c-0.7,1.6-1.4,3.3-2.3,5.2c1.7-0.9,3.1-1.7,4.5-2.4c1.4-0.6,2.6-0.4,3.8,0.5s1.1,2.2,0.9,3.4c-0.3,1.4-1.4,2.1-2.8,2.3
		c-0.9,0.2-1.8-0.2-2.7-0.5c-1.3-0.4-2.6-0.7-3.8-1.4c-0.5-0.3-0.8-0.2-1,0.3c-0.8,1.9-1.6,3.8-2.5,6c1.5-0.7,2.7-1.3,4-1.9
		c1.2-0.5,2.5-1.1,3.9-1.1c1.7,0,2.8,0.8,3.5,2.2c0.8,1.5,0.5,3-0.5,4.3c-0.9,1.2-2.4,1.7-3.9,1.4c-2.6-0.6-4.9-1.7-7.2-3.1
		c-1.2-0.8-2.6-1.2-3.8-1.9C561.3,597.8,560.7,597.1,559.8,597.1z"/>
	<path class="st2" d="M667.8,619c0.7-5.6,3.4-10.1,7.6-13.8c3-2.6,6.4-4.6,10-6.1c0.5-0.2,1-0.4,1.4-0.8c1.3-0.1,2.4-0.7,3.5-1.1
		c4.4-1.5,8.9-2.4,13.5-3.2c0.6-0.1,1.2-0.4,1.9-0.2c0,0,0,0.1,0,0.2c-1.3,0.7-2.3,1.8-3.4,2.7c-4.3,3.6-8.7,7.2-13,10.9
		c-3.7,3.1-7.4,6.2-11.1,9.4c-1,0.9-2.4,1.5-2.9,2.9C672.8,619.6,670.3,619.3,667.8,619z"/>
	<path class="st6" d="M675.4,620c0.5-1.4,1.9-2,2.9-2.9c3.6-3.2,7.3-6.3,11.1-9.4c4.3-3.6,8.6-7.2,13-10.9c1.1-0.9,2.1-2.1,3.4-2.7
		c-0.7,3.4-1.9,6.7-3.2,9.9c-2.2,5.5-4.9,10.8-8.5,15.6c-2.3,2.9-2.3,3-5.9,2.4c-4.1-0.7-8.1-1.4-12.3-1.7
		C675.7,620.1,675.5,620,675.4,620z"/>
	<path class="st8" d="M601,512.3c2.9,2.2,6.1,4,9.1,6c0.9,0.6,1.8,1.1,2.6,1.7c0.7,0.5,1.2,0.4,1.8-0.1c1.9-1.5,4.1-2.6,6.4-3.4
		c1.6-0.4,3.3-0.7,4.9-1.1c1.6,0,3.3,0,4.9,0c1.9,0.4,3.8,0.7,5.6,1.3c4.4,1.7,8,4.4,10.7,8.2c0.1,0.2,0.3,0.2,0.5,0.3
		c0.1,1,0.9,1.7,1.3,2.5c-0.1,1.6-0.7,3.1-1.2,4.5c-0.6-0.7-0.6-1.5-0.9-2.3c-1.9-3.9-4.6-7-8.4-9.2c-3.5-2-7.2-2.8-11.2-2.6
		c-2.7,0.2-5.4,0.8-7.8,2.2c-1.8,1-3.5,2.2-5.1,3.5c-0.5,0.4-0.8,0.3-1.3,0c-4.4-2.9-8.7-5.7-13.1-8.6c-3.7-2.4-7.5-4.7-11.2-7.1
		c-2.8-1.8-5.5-3.6-8.3-5.4c-1.7-1.1-3.3-2.1-5-3.2c-0.4-0.3-0.9-0.5-1.5-0.5c0.1-1.2,0.2-2.5,0.4-3.9c1.2,0.8,2.3,1.4,3.4,2.1
		c7.2,4.6,14.4,9.2,21.6,13.9C599.7,511.6,600.2,512.2,601,512.3z"/>
	<path class="st8" d="M624.9,560.9c-1.8-0.6-3.7-1-5.5-1.7c-1.4-0.5-2.5-1.5-3.9-1.9c-0.1-0.2-0.2-0.4-0.4-0.5
		c-3.1-2.2-5.5-5.1-7.3-8.4c-2.4-5.3-3-10.7-1.5-16.4c0.1-0.5,0.3-0.9,0.5-1.3c2.2,0.4,2.6,1.2,2.1,3.5c-1,4.9-0.4,9.6,2.2,14
		c2.4,4.1,5.8,7,10.2,8.7c2.7,1,5.6,1.5,8.6,1.2c3.5-0.3,6.7-1.3,9.6-3.3c2.1-1.5,4.3-3,5.3-5.6c0.3-0.7,1.2-1.1,1-2.1l0,0
		c0.3-0.1,0.3-0.3,0.3-0.5c1.3-2.3,2.6-4.5,3.3-7.1c0.3-1.2,0.8-2.5,1.7-3.5c0.1,0.2,0.1,0.4,0.2,0.6c0,0.3,0,0.6,0,0.9
		c0,0.2,0,0.3,0,0.5c0,5.1-1.6,9.7-4.5,13.8c-0.1,0.1-0.1,0.2-0.2,0.3c0,0-0.1,0.1-0.1,0.2c-1,0.6-1.6,1.7-2.5,2.5
		c-1.9,1.7-4.1,3-6.3,4.3c-1.8,0.4-3.6,1.2-5.5,1.5c-2,0.3-4,0.3-6,0.4C625.8,560.8,625.4,560.8,624.9,560.9z"/>
	<path class="st9" d="M623.4,477.6c0-0.4,0-0.8,0-1.2c0.6-1.3,0.6-2.9,1.6-4.2c1.9,1.2,4,0.9,6.1,0.9c1.3,0,2.6,0.1,3.9,0.5
		c0.8,0.3,1.2,0.7,1.2,1.6c0,1.7,0.1,3.5,0.2,5.2c0.8,0,1.4,0,2.1,0c0.7,0.3,0.9,0.9,0.7,1.6c-0.3,0.9-1.1,1.4-1.9,1.4
		c-0.7,0-1,0.3-1.3,0.8c-1.1,1.9-1.5,3.9-1.3,6.1c0.1,0.9-0.2,1.3-1.1,1.5c-0.7,0.1-1.5,0.4-2.2,0.6c-1.8,0.4-3.7-1.1-3.6-2.9
		c0.1-1.1-0.2-1.6-1.4-1.9c-1.8-0.4-3-2.1-3.2-4.1c-0.1-1.2-0.2-2.3-0.3-3.5C623.2,479.3,623.3,478.4,623.4,477.6z M630.4,483.7
		c-1-0.1-1.7-0.2-2.5-0.4c-0.7-0.1-1.5-0.4-2.3-0.6c0.2,1.6,0.9,2.5,2,2.6C628.9,485.6,629.6,484.8,630.4,483.7z M632.4,477.8
		c0.6-0.1,1.1,0.1,1.5,0.5c0.2,0.3,0.5,0.5,0.8,0.2s0.1-0.6-0.1-0.8c-0.6-0.7-1.3-1-2.2-0.9c-0.4,0.1-1,0.1-0.9,0.7
		C631.6,478.1,632.1,477.8,632.4,477.8z M625.9,475c-0.1,0-0.3,0-0.5,0.1c-0.4,0.1-0.9,0.2-0.8,0.7c0.1,0.5,0.5,0.3,0.9,0.2
		c0.7-0.2,1.2,0.1,1.7,0.7c0.1,0.2,0.4,0.3,0.6,0.2c0.3-0.2,0.3-0.5,0.1-0.7C627.4,475.4,626.7,475,625.9,475z M626.6,477.7
		c-0.1-0.5-0.3-0.7-0.8-0.7s-0.7,0.3-0.7,0.8c0,0.4,0.3,0.7,0.8,0.7C626.4,478.5,626.6,478.2,626.6,477.7z M633.1,479.8
		c0-0.5-0.2-0.8-0.7-0.8s-0.7,0.3-0.8,0.7c0,0.4,0.2,0.7,0.6,0.7C632.7,480.5,633,480.2,633.1,479.8z"/>
	<path class="st4" d="M472.9,414.7c-0.7,0.8-1.1,1.2-1.4,1.7c-0.6,0.9-0.1,1.7,0.9,1.7c0.3,0,0.6,0,0.8,0c0.9-0.2,1.2,0.3,1.3,1.1
		c0,0.2,0,0.3,0,0.5c0.1,2,0.1,2.1-1.9,2.2c-1.1,0.1-1.1,1-1.5,1.6c-0.4,0.7,0.2,0.9,0.5,1.3c0.4,0.5,1.3,0.8,0.9,1.5
		c-0.5,0.9-1.2,1.6-2.1,2.1c-0.2,0.1-0.4-0.1-0.6-0.2c-0.3-0.3-0.7-0.7-1-1c-0.4-0.5-1-0.5-1.5-0.3s-0.6,0.7-0.6,1.2
		c-0.1,2.1-0.1,2.1-2.2,2.1c-1.6,0-1.8-0.2-1.5-1.8c0-0.1,0.1-0.2,0.1-0.4c0.1-0.5,0.1-0.9-0.4-1.2c-0.6-0.3-1,0-1.3,0.4
		c-1.4,1.5-1.4,1.5-2.9,0c-1.2-1.2-1.2-1.2,0-2.4c0.4-0.4,0.9-0.7,0.6-1.4c-0.3-0.8-0.9-0.5-1.4-0.4c-2,0.2-2,0.2-2.1-1.8
		c0-0.5-0.4-1-0.1-1.6c0.7-0.3,1.4-0.4,2.2-0.4c0.5,0,0.9-0.1,1.1-0.7s0.1-0.9-0.3-1.3c-1.7-1.6-1.6-1.7,0-3.3
		c0.3-0.3,0.6-0.5,0.8-0.8c0.5,0.1,0.7,0.5,1,0.7c0.5,0.4,0.8,1.2,1.7,0.7c0.9-0.4,1.7-0.9,1.5-2.1s0.2-1.8,1.5-1.4
		c0.1,0,0.2,0,0.4,0c1.9,0.1,1.9,0.1,1.8,2c0,0.4,0,0.8,0.5,1s0.9,0.3,1.3-0.1c0.5-0.4,0.8-1.3,1.6-1.1c0.6,0.2,0.9,0.8,1.4,1.2
		C472.1,414.2,472.4,414.4,472.9,414.7z M465.1,416.8c-2.1,0-3.5,1.4-3.5,3.5c0,2,1.5,3.5,3.5,3.5s3.5-1.5,3.5-3.6
		C468.6,418.3,467.1,416.8,465.1,416.8z"/>
	<path class="st7" d="M441.6,593.3c0.9-0.4,1.8-0.6,2.8-0.3c2.5,1.4,2.9,3.3,1.1,5.5c-1.2,0.8-2.2,1.6-3.5,2.2c-2.2,1-2.2,1-1.2,3.2
		c0,0,0,0.1,0.1,0.1c0.1,0.7,0.2,1.4,0.8,1.9c0.5-0.6,0.2-1.3,0.6-1.9c0.1-0.4,0.3-0.8,0.4-1.2c0.6-2.4,1.5-3.1,3.9-3.1
		c0.4,0.2,0.8,0.4,1.2,0.6c0.7,0.6,1.2,1.4,1.4,2.4c-0.4,0.6-0.2,1.3-0.4,1.9c-0.2,0.2-0.4,0.3-0.5,0.6c-1.2,0.8-2.4,1.7-3.6,2.5
		c-2.9,1.4-5.8,2.8-8.8,3.6c-0.2,0-0.4,0-0.5,0c-0.1-0.1-0.2-0.2-0.4,0c-1.8-0.6-2.7-1.7-2.7-3.3c0.1-1.5,1.1-2.7,2.6-3
		c0.8-0.2,1.5,0.1,2.2,0.4c0.6,0.2,1.1,0.6,1.8,0.6c0.7,0.6,1.4,1.2,2.5,1.3c0-0.7-0.3-1.2-0.6-1.7c0-0.6-0.1-1.1-0.6-1.6
		c-0.1-0.7-0.2-1.3-0.7-1.9c-1.1,0.5-2.2,0.9-3.3,1.4c-0.8,0.2-1.5,0.5-2.3,0.7c-1.6,0.4-2.9-0.1-3.7-1.3c-0.7-1-0.7-2.5,0-3.5
		c0.8-1.2,2.1-1.6,3.7-1.2c0.2,0,0.4,0.1,0.6,0.1c1.4,0.7,2.8,1.3,4.3,2.3c-0.1-1.7-1.2-2.9-1.2-4.5l0,0c0.8,1.1,0.8,2.6,1.8,3.9
		c0.1-1.9,0.6-3.4,0.8-5C440.7,594.5,440.9,593.7,441.6,593.3z"/>
	<path class="st2" d="M607.8,548.4c1.8,3.3,4.1,6.2,7.3,8.4c0.2,0.1,0.3,0.3,0.4,0.5c-0.6,6.2-1.2,12.3-1.9,18.6
		c-2,0.2-4-0.4-5.9-0.1c-0.3-0.1-0.5-0.2-0.8-0.2c-0.6,0-0.8-0.3-0.8-0.9c0.3-4.1,0.6-8.3,0.7-12.4C607,557.6,607.5,553,607.8,548.4
		z"/>
	<path class="st2" d="M637.7,559.2c2.2-1.3,4.4-2.6,6.3-4.3c0.9-0.8,1.5-1.9,2.5-2.5c0.2,0.7,0.1,1.3,0.1,2c0,4.7,0,9.4,0,14.1
		c0,1.8-0.3,3.6-0.2,5.5c0.1,1.8,0,1.8-1.7,1.8c-1.6,0-3.2,0-4.8,0s-1.6,0-1.6-1.5C638.1,569.2,637.9,564.2,637.7,559.2z"/>
	<path class="st7" d="M638.5,480.4c-0.7,0-1.3,0-2.1,0c-0.1-1.7-0.2-3.4-0.2-5.2c0-0.9-0.4-1.4-1.2-1.6c-1.3-0.4-2.6-0.5-3.9-0.5
		c-2.1,0-4.2,0.3-6.1-0.9c-1,1.3-1,2.8-1.6,4.2c0-1.6,0.1-3.2,0.5-4.7c0.1-0.5-0.1-0.8-0.3-1.2c-0.7-1.2-1.4-2.4-1.6-4
		c2.2,0.1,4.2,0.2,6.5,0c-0.9-0.8-1.6-1.4-2.3-2.1c0-0.1,0.1-0.1,0.1-0.2c2.4,0.6,4.7,1.3,7.1,1.9c0.1,0.1,0.2,0.2,0.4,0l-0.1-0.2
		c-0.4-0.8-1.2-1.4-1.5-2.5c1.4,0.8,2.9,1.1,4.3,1.6c3.6,1.4,6.1,7.1,4.6,10.4C640.3,477.2,639.3,478.8,638.5,480.4z"/>
	<path class="st5" d="M387.3,478.6c-0.9-1.2-1.5-2.6-2.5-3.8c-0.5-0.5-0.2-1.3-0.2-2c0-1.1,0.3-2.1,0.6-3.1c-1-0.7-1.1-1.3-0.1-1.8
		c0.9-0.6,1.5-1.3,1.8-2.3c0.1-0.5,0.4-0.9,0.9-1c0.6,0.1,0.2,0.7,0.7,0.9c2.4-1.9,5.3-1.9,8.3-1.8c1.3,0.1,2.6,0,3.8-0.1
		c0.8-0.1,1.7-0.1,2,0.8c0.4,0.9-0.2,1.5-0.9,2.1c1.2,0.7,1.4,1.5,0.3,2.5c-0.4,0.3,0,1,0.1,1.5c0,0.6,0.2,1.2,0.3,1.7
		c-0.1,0-0.3,0-0.4,0c-0.2-0.8-0.5-1.6-1-2.3c-0.2-0.3-0.4-0.7-0.8-0.6c-2,0.2-4,0.4-6,0.6c0.3,0.6,1.2,0.7,0.9,1.5
		c-0.2,0.7-0.8,0.8-1.4,0.9c-0.4,0-0.7,0-1.1,0c-0.8,0-1.5,0-2.3,0s-1,0.3-0.9,1c0.1,1.7,0.2,3.4,0.2,5.2c-0.2,0.2-0.4,0.3-0.5,0.5
		c-0.4,0-0.8,0-1.1-0.1C387.7,478.8,387.5,478.7,387.3,478.6z"/>
	<path class="st2" d="M548.8,615.6c-1.4-1.3-1.9-2.8-1.2-4.6c1.1-2.2,3-2.6,5.2-2.4c1.2,0.7,2.1,1.8,2.9,3c0.7,1.1,1.1,2.3,2,3.2
		c0.1,0.5,0.2,0.9,0.4,1.4c1.1,0.2,1.9-0.4,2.7-1c1.7-1.2,3.4-2.2,5.3-2.8c1.8-0.5,3.9,0.8,4.5,2.7c0.7,2-0.2,4.1-2,4.9
		c-1.1,0.5-2.1,0.6-3.2,0.3c-2.3-0.6-4.5-1.1-6.6-2.2c-1-0.6-2.3-0.2-3.4-0.4c-2-0.5-4.2-0.7-6.1-1.5
		C549.2,615.8,549.1,615.6,548.8,615.6z"/>
	<path class="st2" d="M558.1,606.4c-0.9-0.7-1.9-1.4-2.8-2c-1.4-1.1-2.1-2.4-2-4.2c0.4-0.8,0.8-1.6,1.2-2.4c1.6-0.7,3.3-1.1,5-0.3
		c1.7,1.6,2.1,3.7,2.3,6c0.1,1.3-0.1,2.7,1,3.9c1.5-1.2,3.1-2.1,4.9-2.8c1.3-0.4,2.6-1,4-0.4c2.2,0.8,3.1,2.9,2.5,5.1
		c-0.6,2-2.9,3.1-5.1,2.5c-2.1-0.6-4.2-1.3-5.9-2.8c-0.4-0.4-1-0.4-1.5-0.6C560.3,607.8,559.2,607,558.1,606.4z"/>
	<path class="st9" d="M388,478.9c0.4,0,0.8,0,1.1,0.1c0.1,0.1,0.3,0.2,0.4,0.2c1-0.1,1.8,0.3,2.7,0.9c1.6,1.2,4-0.1,4.1-2.2
		c0-0.5-0.1-1.1,0.5-1.3c0.6-0.2,1,0.1,1.4,0.5c1.6,1.5,3.7,1.1,4.6-1c0.5,0.3-0.1,1.2,0.8,1.2c-0.3,1.5,0.1,3.1-0.3,4.6
		c-0.4,1.6-1.2,2.8-2.7,3.4c-1.1,0.4-1.7,0.9-1.4,2.2c0.1,0.4-0.1,0.7-0.4,0.9c-1.6,1.3-4.4,1.6-6.3,0.5c-0.5-0.3-0.4-0.8-0.5-1.3
		c-0.3-1.8-0.8-3.6-1.9-5.1c-0.3-0.4-0.6-0.7-1.2-0.7c-1,0-1.8-0.4-2.1-1.6c-0.1-0.6-0.1-1,0.6-1.2
		C387.6,479.2,387.9,479.2,388,478.9z M401.1,480.6c-1.5,0.4-2.8,0.7-4.2,1.3c0.8,1.1,1.8,1.4,2.9,1.1
		C400.8,482.7,401,481.8,401.1,480.6z"/>
	<path class="st7" d="M436.9,582c0.2,0.3,0.5,0.3,0.8,0.2c0.4,0.7,1,1.3,1.1,2.1c-0.4,1.6-1.6,2.6-2.8,3.6c-0.8,0.7-1,1.3-0.5,2.2
		c0.3,0.5,0.5,1,0.4,1.6l0,0c-0.5-0.4-0.7-1-0.8-1.5c-0.2-1.1-0.8-1.4-1.7-0.7c-0.2,0.1-0.4,0.2-0.6,0.3c-0.8,0.3-1.6,0.6-2.4,0.8
		c-1,0.2-1.8-0.1-2.4-1c-0.5-0.8-0.5-1.7,0.1-2.5c0.6-0.9,1.5-1.1,2.4-0.8c1,0.3,1.9,0.8,3.1,1.2c-0.2-1.6-1-2.8-1.5-4.1
		c-0.9,0.3-1.7,0.7-2.6,0.9c-0.7,0.2-1.4,0.1-1.9-0.6c-0.4-0.6-0.4-1.3,0.1-1.9c0.5-0.6,1.2-0.7,2-0.4c0.5,0.2,1,0.4,1.8,0.8
		c-0.5-1.3-1-2.3-1.6-3.3c-0.8,0.3-1.6,0.7-2.4,1s-1.6,0.3-2.1-0.6c-0.4-0.6-0.4-1.2,0.1-1.8c0.6-0.7,1.3-0.7,2.2-0.4
		c0.5,0.2,0.9,0.4,1.7,0.7c-0.8-1.4-1.1-2.8-2.5-3.3c-0.7-0.3-1.4-0.6-2-1.1c-0.5-0.4-0.7-1-0.5-1.6c0.2-0.7,0.7-1.1,1.4-1.1
		c0.6,0,1.2,0.3,1.4,0.9c0.2,0.6,0.5,1.3,0.6,1.9c0.1,1.1,0.7,2,1.4,2.8c0.4-0.3,0.2-0.6,0.2-0.9c0.1-0.8,0.4-1.3,1.2-1.5
		c0.6-0.2,1.2,0,1.6,0.5c0.5,0.6,0.5,1.3,0.1,1.9c-0.5,0.8-1.2,1.5-1.8,2.3c0.3,0.7,0.7,1.4,1.3,2.5c0-0.7,0-1,0.1-1.3
		c0-0.7,0.3-1.4,1.1-1.6c0.6-0.2,1.3-0.1,1.7,0.5c0.5,0.6,0.5,1.4,0,2c-0.4,0.6-0.8,1.2-1.4,1.7s-0.6,0.9-0.2,1.6
		c0.4,0.7,0.7,1.4,1.2,2.2C434.3,584.4,433.8,582,436.9,582z"/>
	<path class="st3" d="M394.7,522.5c0.2-5,0.3-10,0.5-15.1c0.1-4.2,0.3-8.4,0.4-12.6c0-0.7-0.4-1.3-0.7-1.9c-0.2-0.4-0.5-0.8,0-1.1
		c0.6-0.4,0.9-1.2,1.8-0.9c1.3,0.4,1.6,0.9,1.1,2.2c-0.3,0.8-0.2,1.6-0.1,2.5c0.4,2.8,0.7,5.6,1.1,8.4c0.1,0.4,0,0.9,0.3,1.2
		c0,0.1,0,0.1,0,0.2c-0.4,1.1-0.3,2.3-0.4,3.4c-0.3,4.2-0.4,8.5-0.8,12.7C397,522.1,395.9,522.3,394.7,522.5z"/>
	<path class="st7" d="M372.4,617.6c-0.2-1.9-1-3.6-1.6-5.4c-3-9.4-6.1-18.8-9-28.2c-0.4-1.2-1-2-2.1-2.6c-6-3.4-11.9-6.8-17.8-10.2
		c-0.3-0.2-0.7-0.3-0.8-1.1c6.7,3.7,13,7.5,19.4,11.1c0.4-0.4,0.1-0.7,0-1c-4-12.4-8-24.9-12-37.3c-0.1-0.3-0.2-0.6-0.4-0.9
		c-0.1-0.4-0.1-0.9-0.2-1.5c0.8,0.4,0.7,1.1,1.1,1.5c0.4,2,1.1,3.8,1.7,5.7c2.7,8.4,5.5,16.8,8.2,25.2c2.5,7.7,4.9,15.3,7.4,23
		c0.1,0.5,0.2,1,0.8,1.5c1.4-7.1,2.7-13.9,4-20.9c0.7,0.4,0.4,0.8,0.4,1.2c-1.3,6.7-2.6,13.4-3.9,20.1c-0.2,0.9-0.1,1.7,0.1,2.6
		c1.8,5.4,3.5,10.8,5.3,16.2c0.1,0.4,0.2,0.9,0.3,1.3C372.9,617.7,372.6,617.7,372.4,617.6z"/>
	<path class="st7" d="M611.6,618.8c0.3,1.7,0.5,3.4,0.4,5.1c0,0.8-0.3,1.2-1.1,1.2c-4.5,0.1-9,0.5-13.5,0.4c-0.6,0-1.4,0.1-1.7-0.6
		c-0.3-0.8,0.3-1.4,0.8-1.9c0.9-0.9,1.9-1.6,3-2.2c2-1.1,4.1-2.1,6.3-2.9C607.6,619.2,609.6,619,611.6,618.8z"/>
	<path class="st7" d="M646.7,618.7c0.5,1.8,0.6,3.6,0.5,5.4c0,1-0.7,1-1.4,1.1c-3.1,0.1-6.2,0.2-9.3,0.3c-1.4,0-2.9,0.2-4.3,0
		c-1.4-0.2-1.7-0.7-0.9-1.9c0.5-0.8,1.2-1.3,2-1.9c2.3-1.6,4.9-2.6,7.5-3.8C642.7,618.9,644.6,619.3,646.7,618.7z"/>
	<path class="st7" d="M449.4,609.2c1.3-0.4,2.2,0.5,3.3,0.8c1,1.8,0.9,3.5-0.5,5c-2.4,0.9-4.9,1.1-7.4,1.3c-1.2,0.1-2.3,0.7-3.4,1.1
		c-1,0.3-2.1,0.6-3.2,0.6c-1.5,0.1-2.6-0.4-3.2-1.8c-0.6-1.3-0.6-2.6,0.6-3.7c0.1-0.1,0.2-0.2,0.3-0.4c1.5-0.8,3-0.5,4.4,0.4
		c1.1,0.7,2.1,1.4,3.1,2.2c0.3,0.2,0.5,0.4,0.6-0.1l0,0c0.7,0.2,0.9-0.4,1.2-0.8c0.7-1,1.3-2.1,1.9-3.1c0.5-0.5,1-0.9,1.5-1.4
		C448.9,609.4,449.2,609.4,449.4,609.2z"/>
	<path class="st6" d="M452.1,615c1.5-1.5,1.5-3.2,0.5-5c1.5-1.9,3.1-3.6,5.7-3.8c2.6-0.1,4.8,1.9,4.8,4.6c0.1,2.6-2,4.8-4.6,4.8
		C456.4,615.6,454.3,615.7,452.1,615z"/>
	<path class="st7" d="M652.2,617.5c1.5-2.3,2.6-4.7,3.9-7.1c1.2-2.2,2.3-4.6,3.6-6.8c1-1.6,1.2-3.3,1.2-5.1
		c-0.2-5.4-0.2-10.9-0.3-16.3c0-0.4-0.2-0.8,0.6-1.3c0,6.4,0,12.6,0,18.8c0.1,0,0.3,0,0.4,0.1c0.9-1.1,1.4-2.4,2-3.6
		c7.3-13.7,14.5-27.4,21.7-41.1c0.1-0.2,0.2-0.5,0.3-0.8c0.3-0.4,0.6-0.8,0.9-1.3c0.3,0.6-0.1,0.9-0.1,1.3c-1.7,3.1-3.4,6.2-5.1,9.4
		c-3.8,7.1-7.5,14.3-11.3,21.4c-0.2,0.5-0.4,0.9-0.8,1.7c6.4-2.3,12.5-4.6,18.6-6.8c-0.1,0.9-0.7,0.9-1.2,1
		c-5.6,2.1-11.3,4.1-16.9,6.2c-0.7,0.3-1.2,0.7-1.5,1.4c-4.9,9.3-9.8,18.5-14.6,27.8c-0.2,0.4-0.3,0.7-0.5,1.1
		C652.9,617.8,652.5,617.8,652.2,617.5z"/>
	<path class="st4" d="M392,518.9c-0.8-0.6-0.7-1.5-0.9-2.3c-1-3.5-1.9-7-2.8-10.5c-0.5-2-0.6-2,1.1-3.1c0.2-0.1,0.4-0.2,0.7-0.4
		c-1-3.1-2.1-6.3-3.1-9.4c1.2-1.4,3-1.7,4.4-2.8c0.6,0.6,0.4,1.1,0.4,1.5c0,4.3-0.1,8.5,0.1,12.8C392,509.5,391.9,514.2,392,518.9z"
		/>
	<path class="st5" d="M384,619.2c2.1,0.8,4.1,1.7,6,2.9c1,0.6,1.9,1.2,2.6,2.1c0.7,1,0.5,1.6-0.8,1.8c-1.8,0.2-3.6,0-5.4-0.1
		c-2.2-0.1-4.5-0.2-6.7-0.2c-1,0-1.4-0.4-1.4-1.4c0-1.5,0.1-3,0.5-4.4C380.7,620.3,382.4,620.2,384,619.2z"/>
	<path class="st5" d="M412.5,619.2c2.2,1,4.4,1.9,6.4,3.2c0.8,0.5,1.6,1.1,2.1,1.9c0.6,1,0.4,1.5-0.7,1.6c-2.2,0.2-4.5,0-6.7-0.1
		c-1.9,0-3.8-0.2-5.6-0.2c-0.9,0-1.2-0.4-1.2-1.2c0-1.5,0.1-3,0.4-4.5C409.1,620.4,410.8,620.2,412.5,619.2z"/>
	<path class="st3" d="M630.7,515.3c-1.6,0-3.3,0-4.9,0c0.8-5.4,1.6-10.7,2.5-16.1c0.2-1.3,0.5-2.6-0.1-3.9c-0.2-0.4-0.3-0.9,0.3-1.1
		c0.7-0.2,1.2-1.2,2.1-0.6c1.4,0.9,1.4,1.1,0.6,2.5c-0.5,0.8-0.7,1.6-0.7,2.5C630.6,504.2,630.7,509.8,630.7,515.3z"/>
	<path class="st9" d="M394.7,522.5c1.1-0.2,2.2-0.4,3.2-0.9c0.1,1.9,0.1,1.9,2,2.3c0.7,0.2,1.5,0.3,2.2,0.5c0.6,0.2,1.3,0.3,1.4,1.2
		c-0.5,0.5-1.3,0-1.9,0.4c0.4,0.5,1.1,0.4,1.2,1.1c-0.6,0.6-1.4,0-2.1,0.3c0.5,0.6,1.4,0.2,1.7,1.1c-0.8,0.6-1.7,0.2-2.6,0.4
		c0.2,0.5,1,0.3,1.1,1.1c-0.8,0.2-1.5,0.1-2.2,0c-0.4-0.1-0.9-0.3-1.2,0.2c-0.8-0.8-1.9-1.1-3.1-1.2c-0.8-0.4-1.6-0.8-2.4-1
		c-0.2-0.1-0.4-0.2-0.6-0.3c0-1.4,0.5-2.6,0.8-4C393.1,523.2,394,523,394.7,522.5z"/>
	<path class="st9" d="M439,505.9c-1.6-0.1-3.2-0.6-4.7-1.2c0-2.3,0-4.7,0-7.1c1.4-0.1,1.3,1.1,1.8,1.8c1.6-1.1,1.8-3.6,3.8-4.2
		c0.6,0.5,0,1.1,0.2,1.5c0.5,0.3,0.7-0.6,1.2-0.2c0.3,0.4-0.2,0.8-0.1,1.2c-0.1,0.1-0.2,0.1,0,0.2l0.1-0.1c0.4,0,0.5-0.7,1-0.4
		c0.7,0.4-0.1,1,0.1,1.5c0.1,0.4,0.7-0.1,0.8,0.6C442.5,501.9,440.7,503.9,439,505.9z M439.9,497.2L439.9,497.2L439.9,497.2
		L439.9,497.2z"/>
	<path class="st7" d="M435.9,591.8c0.3,0.1,0.4,0.4,0.8,0.7c0-0.8,0-1.6,0-2.3c0.1-1.4,0.8-2.4,2-2.7s2.3,0.1,2.9,1.1
		s0.5,2.2-0.4,3.3c-0.3,0.4-0.9,0.7-1,1.3c-0.7,0.3-1.3,0.9-1.8,1.5c-0.9,0.1-0.7,0.8-0.7,1.4l0,0c-0.7-1.2-1.5-0.5-2.3-0.2
		c-1.1,0.5-2.2,0.7-3.3,0.7c-1.1,0.1-2-0.4-2.5-1.4s-0.4-2,0.4-2.9c0.8-0.8,1.8-1.1,2.8-0.7c1.4,0.5,2.5,1.4,3.8,2.3
		c0-0.5-0.1-0.8-0.3-1.1C436.1,592.7,436,592.2,435.9,591.8L435.9,591.8z"/>
	<path class="st9" d="M578.2,511.8c0.5-0.2,0.9-0.6,1.4-0.5c0.5,0.7-0.5,1.1-0.3,1.8c0.5,0,0.8-0.5,1.2-0.6c0.3-0.1,0.5-0.3,0.8-0.1
		s0.3,0.6,0.2,0.9c-0.3,0.8-0.6,1.5-1,2.4c1-0.1,1.4-1.2,2.4-1c-0.5,1.6,0.9,2.5,1.4,3.8c0.2,0.5,0.6,0.8,0.7,1.4
		c-1.6,0-3.2,0-4.8,0c-0.3,0-0.6,0-0.8-0.2c-1.2-1.7-3.5-2.4-4.4-4.6c-0.3-0.7-1.4-0.9-1.1-1.9c0.2-0.8,1-1.2,1.5-1.8
		c0.1-0.1,0.1-0.3,0.2-0.4c0.9-0.1,1.4-1,2.4-0.9c0.3,0.3,0.2,0.6,0.1,0.9c-0.6,0.7-1.2,1.4-1.7,2
		C577.4,512.9,577.7,512.3,578.2,511.8z"/>
	<path class="st4" d="M399.1,505.4c0-0.1,0-0.1,0-0.2c0.6,0,1.2,0,2,0c-0.4-5.1-0.8-10.2-1.2-15.4c1.7,0.6,3.3,1.2,4.8,1.8
		c0.2,2.1-0.5,4.1-0.8,6.1c-0.2,1.2-0.2,2.4-0.6,3.5c-0.2,0.6,0.3,0.8,0.8,1c1.7,0.6,1.7,0.6,1.3,2.2c-0.9-0.1-1.5,0.1-1.5,1.2
		C402.4,505.5,400.8,505.4,399.1,505.4z"/>
	<path class="st6" d="M447.2,610.7c-0.6,1-1.3,2.1-1.9,3.1c-0.3,0.4-0.5,0.9-1.2,0.8c-0.1-0.5,0.2-1-0.5-1.4c0,0.6,0.1,1,0.4,1.4
		c-0.1,0.6-0.3,0.4-0.6,0.1c-1-0.8-2-1.5-3.1-2.2c-1.4-0.9-2.9-1.2-4.4-0.4c-0.1-0.3-0.2-0.6-0.2-0.9c3.1-0.9,6-2.3,8.8-3.6
		C445.4,608.7,446.3,609.7,447.2,610.7z M442.5,609.6c-0.1,0.3-0.2,0.4,0.1,0.5C442.7,610,442.7,609.9,442.5,609.6z"/>
	<path class="st9" d="M611.6,618.8c-2,0.3-4,0.5-5.8-0.8c0.2-1.3,0.4-2.6,0.5-3.9c2.1,0,4.1-0.2,6.2,0.1
		C612.2,615.6,611.9,617.2,611.6,618.8z"/>
	<path class="st9" d="M646.7,618.7c-2.1,0.7-4,0.2-5.9-0.7c-0.3-1.3-0.6-2.6-0.8-4c2.1-0.1,4.2-0.1,6.2,0
		C646.4,615.5,646.5,617.1,646.7,618.7z"/>
	<path class="st10" d="M392.2,523.4c-0.3,1.3-0.8,2.6-0.8,4c0,0.1-0.1,0.1-0.1,0.2c-0.8,2.4-0.8,2.4-3.3,2c-2.5-0.3-5-0.6-7.4-1
		c-0.1-0.1-0.2-0.3-0.2-0.4c2.2,0,4.4,0.5,6.6,0.7c1.1,0.1,2.1,0.2,3.3,0.4c0.4-1.9,0.9-3.7,1.3-5.5c0.2-0.7-0.3-0.9-0.8-1.1
		c-2.9-1.4-5.9-2.9-8.8-4.3c-0.5-0.2-1-0.5-1.6-0.8c0.9-2.6,1.8-5.3,2.7-8c0.5,0.5,0.3,0.9,0.2,1.2c-0.6,1.9-1.3,3.7-1.9,5.5
		c-0.2,0.7-0.2,1.1,0.5,1.4c3.4,1.6,6.8,3.2,10.1,4.9C392.2,522.8,392.3,523.1,392.2,523.4z"/>
	<path class="st11" d="M402.8,476.2c-0.9,2.1-3,2.6-4.6,1c-0.4-0.4-0.8-0.7-1.4-0.5c-0.7,0.2-0.5,0.8-0.5,1.3
		c-0.1,2-2.5,3.4-4.1,2.2c-0.9-0.6-1.6-1-2.7-0.9c-0.1,0-0.3-0.2-0.4-0.2c0.2-0.2,0.4-0.3,0.5-0.5c0.4,0,0.9,0.2,1.3-0.1
		c-0.4-1.2,0.5-2.1,1-3l0,0c1.1-0.1,2.2-0.7,3.1,0.3c0.8,0.8,1.5,0.6,2.4,0.3c0-0.7,0-1.3,0.4-1.9c0.3-0.5-0.2-0.5-0.4-0.7
		c0.9-0.6,1.8-1.4,3.1-1.1c0.2,0.7,0.9,0.6,1.4,1c0-0.4,0-0.7,0.1-1c0.1,0,0.3,0,0.4,0c0.4,0.9,0.2,1.9,0.4,2.8
		C402.8,475.5,402.8,475.8,402.8,476.2z M391.5,477.7c0,1.4,0.7,2.3,2,2.3c1.2,0,2.3-1,2.3-2.2c0-1-1-2-2.1-2.1
		C392.4,475.6,391.5,476.4,391.5,477.7z M402.3,475.4c0-1.3-0.8-2.1-2.1-2.1c-1.2,0-2.2,0.9-2.3,2c0,1.3,1,2.3,2.2,2.3
		C401.4,477.6,402.3,476.6,402.3,475.4z"/>
	<path class="st7" d="M557.6,614.8c-0.9-0.9-1.3-2.1-2-3.2c-0.8-1.2-1.6-2.2-2.9-3c1.7-1,3.8-0.7,5.1,0.8
		C559.1,611,559.1,613.1,557.6,614.8z"/>
	<path class="st6" d="M435.2,596c0.8-0.3,1.6-1.1,2.3,0.2c-0.1,1.5,1.1,2.7,1.2,4.5c-1.4-1-2.9-1.6-4.3-2.3
		C434.4,597.4,435.4,596.9,435.2,596z"/>
	<path class="st9" d="M384,619.2c-1.6,1.1-3.4,1.1-5.2,0.7c0-0.4,0-0.8-0.1-1.1c1.8-0.4,3.8-0.1,5.6-0.5
		C384.3,618.6,384.2,618.9,384,619.2z"/>
	<path class="st2" d="M588.5,521.6c1.3-0.1,2.7-0.2,4-0.3c2-0.1,2.1,0,2.6,2.1c-1.5-0.9-3.2-0.7-4.8-1.2
		C589.8,522,589.1,522.1,588.5,521.6z"/>
	<path class="st9" d="M412.5,619.2c-1.7,1-3.5,1.2-5.3,0.7c0-0.2-0.1-0.4-0.1-0.6c1.8-0.3,3.7-0.5,5.6-0.5
		C412.6,618.9,412.6,619,412.5,619.2z"/>
	<path class="st6" d="M435.9,591.8c0.1,0.4,0.1,0.8,0.2,1.2c-1.2-0.4-2.1-1.1-2.5-2.3c-0.1-0.4-0.2-0.9-0.8-0.9
		c0.2-0.1,0.4-0.2,0.6-0.3c0.9-0.6,1.5-0.4,1.7,0.7C435.3,590.9,435.4,591.4,435.9,591.8z"/>
	<path class="st6" d="M436.1,603.5c1.1-0.5,2.2-0.9,3.3-1.4c0.5,0.6,0.6,1.2,0.7,1.9C438.7,604.3,437.4,604,436.1,603.5z"/>
	<path class="st6" d="M449.4,609.2c-0.2,0.2-0.4,0.2-0.7,0.1c-0.1-0.6-0.1-1.2-0.2-1.8c-0.1-0.8,0.2-1.7-0.3-2.4
		c0.1-0.3,0.3-0.4,0.5-0.6c0.3,1,0.4,2.1,0.4,3.1C449.1,608.2,449,608.7,449.4,609.2z"/>
	<path class="st6" d="M440.7,605.5c0.3,0.5,0.5,1,0.6,1.7c-1.1-0.1-1.8-0.7-2.5-1.3C439.3,605.2,440,605.6,440.7,605.5z"/>
	<path class="st3" d="M623.4,477.6c-0.1,0.8-0.2,1.7-0.5,2.4c-0.7-0.4-1.1-1-0.8-1.8C622.2,477.6,622.8,477.5,623.4,477.6z"/>
	<path class="st3" d="M402.8,476.2c0-0.3,0-0.7,0-1c0.9-0.1,1.6,0.1,1.4,1.2c-0.1,0.1-0.1,0.2-0.2,0.3c-0.1,0.3-0.2,0.5-0.5,0.7
		C402.8,477.3,403.3,476.4,402.8,476.2z"/>
	<path class="st2" d="M595.4,524.1c0.5,0.6,0.7,1.3,0.8,2C595.6,525.5,595.4,524.9,595.4,524.1z"/>
	<path class="st12" d="M542.2,616.1c0.6-0.3,1.1-0.3,1.7-0.2C543.4,616.5,542.8,616.4,542.2,616.1z"/>
	<path class="st2" d="M585.1,520c0.3,0.2,0.6,0.4,0.6,0.8C585.1,520.8,584.9,520.6,585.1,520z"/>
	<path class="st11" d="M388,478.9c-0.1,0.3-0.3,0.3-0.6,0.3c0-0.2-0.1-0.4-0.1-0.6C387.5,478.7,387.7,478.8,388,478.9z"/>
	<path class="st12" d="M536.8,615.5c0.3,0,0.7,0.1,0.9,0.4C537.2,616.2,537,615.9,536.8,615.5z"/>
	<path class="st12" d="M544.9,615.9c0.2-0.2,0.5-0.3,0.8-0.1C545.5,616.1,545.2,616.2,544.9,615.9z"/>
	<path class="st12" d="M538.1,616c0.4-0.2,0.7,0,1,0.1C538.8,616.4,538.4,616.4,538.1,616z"/>
	<path class="st2" d="M559.6,613.6c0.2,0.2,0.2,0.3,0,0.5c0,0-0.3,0-0.3-0.1C559.3,613.8,559.4,613.6,559.6,613.6z"/>
	<path class="st2" d="M559.2,615.2c-0.1,0-0.2,0.1-0.3,0.1c0,0-0.1-0.1-0.1-0.2c0.1-0.1,0.1-0.1,0.2-0.2
		C559.2,615,559.2,615.1,559.2,615.2z"/>
	<path class="st12" d="M547,615.5c0.2-0.2,0.4-0.1,0.5,0.1C547.3,615.9,547.1,615.8,547,615.5z"/>
	<path class="st12" d="M548.8,615.6c0.3,0,0.4,0.2,0.4,0.5c-0.2,0-0.4,0-0.5-0.2C548.7,615.7,548.8,615.7,548.8,615.6z"/>
	<path class="st2" d="M585.7,520.8c0.2,0.1,0.3,0.2,0.3,0.4C585.7,521.2,585.7,521,585.7,520.8z"/>
	<path class="st2" d="M651.3,538.1c0-0.2,0-0.3,0-0.5C651.5,537.8,651.5,537.9,651.3,538.1z"/>
	<path class="st6" d="M434.8,611.2c0.1-0.1,0.2-0.1,0.4,0C435,611.3,434.9,611.3,434.8,611.2z"/>
	<path class="st2" d="M315,573.3c-0.1,0-0.2,0-0.3,0C314.8,573.1,314.9,573.2,315,573.3z"/>
	<path class="st2" d="M586,521.4C586.1,521.4,586.1,521.5,586,521.4C586,521.7,586,521.6,586,521.4z"/>
	<path class="st12" d="M546.1,615.6c0.1,0,0.2,0,0.3,0C546.3,615.8,546.2,615.8,546.1,615.6z"/>
	<path class="st2" d="M646.6,552.2c0.1-0.1,0.1-0.2,0.2-0.3C646.8,552.1,646.7,552.2,646.6,552.2z"/>
	<path class="st12" d="M535,611c0,0.1,0,0.2-0.1,0.3C534.8,611.2,534.9,611.1,535,611z"/>
	<path class="st9" d="M404.1,476.7c0.1-0.1,0.1-0.2,0.2-0.3C404.2,476.5,404.1,476.6,404.1,476.7z"/>
	<path class="st12" d="M535,612.9c0,0.1,0,0.2,0,0.3C534.9,613.1,534.8,613.1,535,612.9z"/>
	<path class="st9" d="M651.1,536.1c-0.8,1-1.3,2.3-1.7,3.5c-0.7,2.6-1.9,4.8-3.3,7.1c-0.2,0.1-0.3,0.3-0.3,0.5l0,0
		c-0.9,0.6-1.4,1.9-2.8,2c-0.3-0.5,0.1-0.8,0-1.1c0-0.1,0.1-0.2,0.1-0.2c-0.1,0-0.1,0.1-0.2,0.1c-0.5,0.4-0.9,0.8-1.4,1.1
		c-0.3,0.2-0.5,0.6-0.9,0.3c-0.5-0.3,0.1-0.7,0-1c0.3-0.6,1-1,1.1-1.7c0.1-0.1,0.3-0.1,0.1-0.3c0,0.1,0,0.2-0.1,0.3
		c-0.8,0.2-1.1,1-1.7,1.4c-0.1,0.1-0.1,0.2-0.2,0.3c-1,0.1-0.4-0.7-0.5-1c0.1-0.1,0.1-0.3,0.2-0.4c0.4-0.2,0.5-0.6,0.6-1
		c0.1-0.1,0.1-0.2,0,0c0-0.1,0-0.1,0,0c-0.6,0-0.9,0.4-1,0.9c-0.1,0.1-0.3,0.2-0.4,0.4c-0.1,0.1-0.1,0.1-0.2,0.2l0,0
		c-0.3,0-0.5,0.1-0.5,0.4c-0.3,0-0.5,0-0.7-0.2c0-0.3,0.1-0.7,0.1-1c0.9-1.7,2.3-3.1,3.1-4.9c-0.8-0.1-1.5-0.2-2.2-0.3
		c-0.3,0-0.6-0.1-0.6-0.5s0.3-0.5,0.6-0.7c0.4-0.2,0.9,0,1.2-0.5c2.2-0.8,4.3-2,6.3-3.1c0.6-0.3,0.5-1,0.8-1.5
		c0.3-0.6,0.3-1.3,0.9-1.8c1,0.6,2,1.3,3.1,1.9C650.9,535.4,651.3,535.6,651.1,536.1z"/>
	<path class="st0" d="M637.4,546.5c0,0.3-0.1,0.7-0.1,1c-2.8,0.8-5.2-0.1-6.4-2.5c-1.1-2.2-0.5-4.8,1.4-6.3c1.5-1.2,3.1-1,4.8-0.6
		C637.2,540.8,637.3,543.7,637.4,546.5z"/>
	<path class="st2" d="M637.4,546.5c-0.1-2.8-0.2-5.6-0.3-8.5c1,0.2,1.8,0.8,2.4,1.7c-0.3,0.4-0.8,0.3-1.2,0.5
		c-0.3,0.2-0.6,0.2-0.6,0.7c0,0.3,0.3,0.5,0.6,0.5c0.7,0.1,1.3,0.2,2.2,0.3C639.7,543.4,638.3,544.8,637.4,546.5z"/>
	<path class="st13" d="M578.2,511.8c-0.5,0.5-0.9,1.1-1.8,1.2c0.6-0.7,1.2-1.4,1.7-2C578.2,511.2,578.2,511.5,578.2,511.8z"/>
	<path class="st13" d="M640.2,547.9c0.6-0.5,0.9-1.3,1.7-1.4l0,0c-0.1,0.7-0.8,1.1-1.1,1.7C640.6,547.9,640.4,547.9,640.2,547.9z"/>
	<path class="st13" d="M639.4,547.2c0.2,0.3-0.5,1.1,0.5,1c-0.2,0.5-0.6,0.6-0.9,0.2C638.7,548,638.9,547.5,639.4,547.2z"/>
	<path class="st13" d="M640.2,545.8c-0.1,0.4-0.2,0.8-0.6,1c-0.2,0-0.3-0.1-0.5-0.1C639.3,546.2,639.6,545.8,640.2,545.8
		L640.2,545.8z"/>
	<path class="st13" d="M638,547.7c0.1-0.3,0.2-0.4,0.5-0.4C638.4,547.5,638.3,547.7,638,547.7z"/>
	<path class="st13" d="M638.5,547.2c0.1-0.1,0.1-0.1,0.2-0.2C638.7,547.1,638.6,547.2,638.5,547.2z"/>
	<path class="st0" d="M392.1,527.7c0.9,0.2,1.6,0.6,2.4,1c0,0.5,0,0.9,0,1.4c0,0.1,0,0.2,0,0.3c-0.2,1.4,0,2.7,1,3.8
		c0.4,0.6,0.8,1.2,1.1,1.8c0.9,1.4,1.8,2.8,2.8,4.4c0.8-2.1,1.4-3.8,2.1-5.6c0.4-1.2,1.2-2.4,1-3.8c0.3-0.1,0.6-0.1,0.9,0
		c0.2,3.7,0.5,7.4,0.9,11.1c0.1,0.9,0,1.8,0.1,2.7c-4,0.7-8,0.7-12,0.4c0-4.6-0.1-9.1-0.1-13.7C392.2,530.3,392.3,529,392.1,527.7z"
		/>
	<path class="st0" d="M381.1,580.7c-0.8,0-1.2,0.4-1.1,1.3c0,0.7,0.1,1.5-0.2,2.2c-0.5-1.1-1-2.1-1.2-3.4
		C379.4,580.5,380.2,580.6,381.1,580.7z"/>
	<polygon class="st0" points="392.6,580.6 392.6,580.7 392.6,580.7 	"/>
	<path class="st0" d="M543.8,518.3c0.6,0.1,1.3,0.2,2,0.3c1.9,0.1,3.5,1,4.8,2.4c1.6,1.7,1.2,3.8,0.3,5.6c-1.5,3.4-4.1,5.7-7.6,7
		c-2,0.7-3.9,0.7-5.9,0.1c-0.8-0.3-1.2-0.1-1.6,0.7c-2.2,4.2-4.4,8.3-5.9,12.8c-1.4,4.4-2.6,8.8-3.3,13.4c-0.7,4.6-0.8,9.3-0.7,14
		c0.1,3.2,0.5,6.4,1,9.6c0.4,2.5,0.7,5,1.1,7.4c0.1,0.5-0.1,0.8-0.6,1c-4.1,1.8-8.3,3.5-12.7,4.6c-3.1,0.8-6.2,1.3-9.3,1.3
		c-6.2,0.1-12.1-1.2-17.2-5.2c-0.6-0.5-0.8-1-0.8-1.7c0-6.6,0-13.1,0-19.7c0-3.5-2.1-6.5-5.3-7.3c-1.3-0.3-2.6-0.4-3.9-0.6
		c-6.6-1.1-11.9-4.3-15.7-9.9c-2.8-4.1-4.5-8.8-5.5-13.7c-0.8-3.7-1.2-7.4-1.5-11.1c-0.3-4.4-0.3-8.8-0.2-13.2
		c0.1-5.3,0.5-10.7,1.1-16c0.4-3.1,0.5-6.2,0.8-9.3c0.4-4.1,0.1-8.2,0.9-12.3c2.2-11.2,7.4-20.7,16.2-28.2c5.8-4.9,12.4-8.4,19.9-10
		c3.9-0.9,7.9-1.4,11.8-1.3c8.5,0.3,16.4,2.5,23.7,7c5.5,3.4,10.1,7.6,13.9,12.8c3.7,5,6.3,10.6,7.8,16.7c1.1,4.4,1.5,8.9,1.3,13.4
		c-0.3,6-1.7,11.8-4.1,17.3c-1.7,3.7-3.2,7.4-4.8,11.1C543.7,517.7,543.6,517.9,543.8,518.3z M547.9,487.3c0-2.1-0.2-4.2-0.4-6.3
		c-1.4-12.2-6.9-21.8-17.5-28.2c-9.4-5.7-19.7-8.1-30.7-7.6c-9.2,0.5-17.1,3.9-23.8,10.2c-3.8,3.6-6.9,7.7-8.1,12.9
		c-1.5,6.4,0.6,12,7.6,14.5c5.4,1.9,10.9,2.6,16.5,3.5c5.4,0.9,10.8,1.6,16,3.3c3.7,1.2,7,2.8,9.3,6.1c2.2,3.1,4.5,6,7,8.8
		c3.1,3.4,6.2,6.7,10.3,8.9c4.5,2.5,8.4,1.1,10-3.8C546.6,502.4,547.9,494.9,547.9,487.3z"/>
	<path class="st7" d="M403.3,531.1c-0.3-0.1-0.6-0.1-0.9,0c-1.2-0.3-2.4-0.1-3.6-0.3c-0.6-0.1-1.1-0.1-1.2-0.9
		c0.4-0.4,0.8-0.2,1.2-0.2c0.7,0.1,1.5,0.2,2.2,0c-0.1-0.7-0.9-0.6-1.1-1.1c0.9-0.1,1.8,0.2,2.6-0.4c-0.3-0.9-1.2-0.5-1.7-1.1
		c0.7-0.3,1.5,0.2,2.1-0.3c-0.2-0.6-0.9-0.6-1.2-1.1c0.6-0.4,1.4,0.1,1.9-0.4c-0.1-0.8-0.8-1-1.4-1.2c-0.7-0.2-1.5-0.3-2.2-0.5
		c-1.9-0.5-1.9-0.5-2-2.3c0.4-4.2,0.5-8.5,0.8-12.7c0.1-1.1,0-2.3,0.4-3.4c1.6,0,3.2,0.1,4.8,0.1c0.2,0.5,0.5,0.5,1,0.5
		c1.9,0.1,3.8,0.2,5.7,0.3c0.4,0,0.8,0,1-0.4c1.6,0.1,3.2,0.2,4.8,0.2c0.6,0,1,0.2,0.9,0.9c-0.5,8-0.9,16-1.3,24
		c0,0.1-0.1,0.2-0.1,0.5C411.7,531.7,407.5,531.1,403.3,531.1z"/>
	<path class="st3" d="M411.7,506c-0.2,0.4-0.6,0.4-1,0.4c-1.9-0.1-3.8-0.2-5.7-0.3c-0.4,0-0.8-0.1-1-0.5c0-1,0.6-1.3,1.5-1.2
		c0.6,0.2,1,0.1,1.4-0.5s1.3-0.9,1.7-0.3c0.8,1.1,1.8,1,2.8,1.2C411.8,505.2,411.5,505.6,411.7,506z"/>
	<path class="st0" d="M572.1,439.4c3.9,0,7,3.1,7.1,6.9c0,3.8-3.2,7-7.1,7c-3.3,0-7-2.6-7-7C565.2,442.5,568.1,439.4,572.1,439.4z"
		/>
	<path class="st0" d="M648.8,527.8c-0.4-0.9-1.2-1.5-1.3-2.5c0.1-1.3,0.3-2.6,0.4-3.9c0.1-1.9,0.2-3.7,0.3-5.6
		c0-0.2,0.1-0.4,0.4-0.6c1.4,2.2,2.7,4.4,2,7.2C649.9,524.2,649.8,526.1,648.8,527.8z"/>
	<path class="st0" d="M438.8,584.4c-0.1-0.9-0.7-1.4-1.1-2.1c2.5,0.3,5,0.2,7.5,0c0.5,0,0.9,0.1,0.9,0.6c0.3,2.4,0.5,4.8,0.8,7.2
		c-0.7,0.1-0.8-0.4-1.1-0.7c-1.6-1.5-3.3-3-5.2-4.3C440.1,584.8,439.5,584.4,438.8,584.4z"/>
	<path class="st0" d="M447.7,600.3c-0.4-0.2-0.8-0.4-1.2-0.6c-0.3-0.4-0.9-0.7-1-1.2c1.8-2.2,1.4-4.2-1.1-5.5
		c0.8-0.4,1.7-0.6,2.7-0.7c0.4,2,0.4,3.9,0.6,5.9C447.7,598.9,448,599.6,447.7,600.3z"/>
	<path class="st0" d="M438.3,594.7c0.5-0.6,1.1-1.1,1.8-1.5c0.5,0,0.9,0,1.4,0.1c-0.6,0.4-0.8,1.1-1.3,1.7
		C439.7,594.8,439,595.1,438.3,594.7z"/>
	<polygon class="st0" points="442.8,561.4 442.8,561.5 442.7,561.5 	"/>
	<path class="st0" d="M554.5,597.6c-0.4,0.8-0.8,1.6-1.2,2.4c-1.8,0.9-3.1,2.4-4.9,3.8c0.2-2.6,0.5-5,0.9-7.4
		C551.2,596.7,552.7,597.6,554.5,597.6z"/>
	<path class="st0" d="M552.6,577.3C552.6,577.3,552.7,577.2,552.6,577.3c0.1,0,0.1,0,0.2,0.1c0,0,0,0.1-0.1,0.1
		C552.7,577.4,552.6,577.3,552.6,577.3z"/>
	<path class="st0" d="M551.2,585.4c0,0.1,0.1,0.1,0.1,0.2c0,0,0,0.1-0.1,0.1C551.2,585.5,551.2,585.5,551.2,585.4L551.2,585.4z"/>
	<path class="st0" d="M573.2,582.3L573.2,582.3C573.1,582.3,573.2,582.3,573.2,582.3C573.2,582.2,573.2,582.3,573.2,582.3z"/>
	<path class="st1" d="M645.9,547.2c0-0.2,0.1-0.4,0.3-0.5C646.2,546.9,646.1,547.1,645.9,547.2z"/>
	<path class="st14" d="M630.4,483.7c-0.8,1.1-1.5,1.9-2.8,1.7c-1.1-0.2-1.8-1-2-2.6c0.8,0.2,1.5,0.4,2.3,0.6
		C628.6,483.5,629.4,483.6,630.4,483.7z"/>
	<path class="st5" d="M632.4,477.8c-0.3,0-0.9,0.3-0.9-0.3c-0.1-0.6,0.5-0.6,0.9-0.7c0.9-0.1,1.7,0.1,2.2,0.9
		c0.2,0.2,0.4,0.6,0.1,0.8c-0.3,0.3-0.6,0-0.8-0.2C633.5,477.9,633.1,477.7,632.4,477.8z"/>
	<path class="st5" d="M625.9,475c0.9,0,1.5,0.4,2,1.1c0.2,0.3,0.2,0.5-0.1,0.7c-0.2,0.2-0.5,0-0.6-0.2c-0.4-0.6-0.9-0.8-1.7-0.7
		c-0.3,0.1-0.8,0.3-0.9-0.2c-0.1-0.5,0.4-0.6,0.8-0.7C625.5,475,625.7,475,625.9,475z"/>
	<path class="st5" d="M626.6,477.7c0,0.4-0.2,0.7-0.7,0.8c-0.5,0-0.8-0.2-0.8-0.7s0.2-0.8,0.7-0.8S626.6,477.3,626.6,477.7z"/>
	<path class="st5" d="M633.1,479.8c-0.1,0.5-0.4,0.7-0.8,0.7c-0.4,0-0.7-0.3-0.6-0.7c0-0.5,0.3-0.8,0.8-0.7
		C632.9,479,633.1,479.3,633.1,479.8z"/>
	<path class="st0" d="M465.1,416.8c2,0,3.5,1.5,3.5,3.4c0,2-1.5,3.6-3.5,3.6c-1.9,0-3.5-1.5-3.5-3.5
		C461.6,418.2,463,416.8,465.1,416.8z"/>
	<path class="st0" d="M448.1,605.2c0.5,0.8,0.2,1.6,0.3,2.4c0.1,0.6,0.1,1.2,0.2,1.8c-0.5,0.5-1,0.9-1.5,1.4c-0.9-1-1.8-2.1-2.7-3.1
		C445.7,606.8,446.9,606,448.1,605.2z"/>
	<path class="st6" d="M445.4,598.5c0.2,0.6,0.7,0.8,1,1.2c-2.4,0-3.3,0.8-3.9,3.1c-0.1,0.4-0.2,0.8-0.4,1.2c-0.5-0.3-0.9,0-1.4,0
		l-0.1-0.1c-1-2.2-1-2.3,1.2-3.2C443.2,600.2,444.3,599.3,445.4,598.5z"/>
	<path class="st6" d="M438.3,594.7c0.6,0.4,1.3,0.1,1.9,0.3c-0.3,1.6-0.8,3.1-0.8,5c-1-1.3-1-2.8-1.8-3.9
		C437.6,595.6,437.5,594.9,438.3,594.7z"/>
	<path class="st0" d="M440.8,604.1c0.5,0,0.9-0.3,1.4,0c-0.3,0.6-0.1,1.3-0.6,1.9C441,605.4,440.9,604.8,440.8,604.1z"/>
	<path class="st0" d="M633.6,466c0,0.1,0.1,0.2,0.1,0.2c-0.1,0.1-0.2,0.1-0.4,0C633.4,466.1,633.5,466,633.6,466z"/>
	<path class="st9" d="M397.5,473.4c0.1,0.2,0.7,0.2,0.4,0.7c-0.4,0.6-0.3,1.2-0.4,1.9c-0.8,0.3-1.6,0.5-2.4-0.3
		c-0.9-0.9-2.1-0.4-3.1-0.3c0.3-0.6,0.3-0.6,1.2-0.6c0.3,0,0.6,0,0.7-0.3c0-0.1,0-0.4-0.1-0.4c-0.8-0.5-1.6-0.3-2.2,0.1
		s-1.2,1-0.7,1.9c0.7,0.1,0.5-1.1,1.3-0.7c-0.5,0.9-1.4,1.8-1,3c-0.4,0.3-0.9,0.2-1.3,0.1c-0.1-1.7-0.1-3.4-0.2-5.2
		c0-0.7,0.2-1.1,0.9-1c0.8,0,1.5,0,2.3,0c0.4,0,0.7,0.1,1.1,0c0.6-0.1,1.2-0.2,1.4-0.9c0.3-0.8-0.7-0.9-0.9-1.5c2-0.2,4-0.4,6-0.6
		c0.5,0,0.6,0.3,0.8,0.6c0.4,0.7,0.8,1.5,1,2.3c0,0.3,0,0.5-0.1,1c-0.5-0.4-1.2-0.3-1.4-1c0.1-0.3,0.1-0.6-0.3-0.8
		c-1-0.5-2.9,0.3-3.2,1.4C397,473.2,397.3,473.2,397.5,473.4z"/>
	<path class="st14" d="M401.1,480.6c0,1.2-0.3,2.1-1.2,2.4c-1.1,0.3-2.1,0-2.9-1.1C398.3,481.4,399.6,481,401.1,480.6z"/>
	<path class="st3" d="M397.5,530c0.1,0.7,0.6,0.8,1.2,0.9c1.2,0.1,2.4-0.1,3.6,0.3c0.2,1.4-0.6,2.5-1,3.8c-0.6,1.8-1.3,3.6-2.1,5.6
		c-1-1.6-1.9-3-2.8-4.4c-0.4-0.6-0.7-1.3-1.1-1.8c-0.9-1.1-1.2-2.4-1-3.8l0.1-0.1c0-0.1,0-0.1-0.1-0.2c0-0.5,0-0.9,0-1.4
		C395.6,528.9,396.7,529.1,397.5,530z"/>
	<path class="st0" d="M441.3,497.8c-0.1,0-0.1,0.1-0.1,0.1c-0.1-0.1,0-0.2,0-0.2C441.2,497.7,441.2,497.8,441.3,497.8z"/>
	<polygon class="st0" points="439.9,497.2 439.9,497.2 439.9,497.1 	"/>
	<path class="st7" d="M444.1,614.6c-0.4-0.4-0.5-0.8-0.4-1.4C444.3,613.6,444,614.2,444.1,614.6L444.1,614.6z"/>
	<path class="st7" d="M442.5,609.6c0.2,0.2,0.2,0.4,0.1,0.5C442.3,610.1,442.4,609.9,442.5,609.6z"/>
	<path class="st9" d="M391.5,477.7c0-1.3,0.9-2.1,2.3-2c1.1,0,2.1,1,2.1,2.1c0,1.2-1.1,2.3-2.3,2.2
		C392.2,479.9,391.5,479.1,391.5,477.7z M393.7,477.1c-0.5,0-0.7,0.3-0.7,0.7c0,0.5,0.3,0.7,0.7,0.7c0.5,0,0.7-0.3,0.7-0.7
		C394.4,477.3,394.1,477.1,393.7,477.1z"/>
	<path class="st9" d="M402.3,475.4c0,1.2-1,2.2-2.1,2.2c-1.2,0-2.2-1-2.2-2.3c0-1.1,1-2,2.3-2C401.5,473.2,402.3,474.1,402.3,475.4z
		 M401,475.4c-0.1-0.5-0.3-0.8-0.8-0.8c-0.4,0-0.8,0.3-0.7,0.8c0,0.5,0.3,0.8,0.8,0.7C400.7,476.1,400.9,475.8,401,475.4z"/>
	<path class="st5" d="M397.5,473.4c-0.2-0.1-0.5-0.1-0.4-0.5c0.3-1,2.2-1.9,3.2-1.4c0.4,0.2,0.4,0.4,0.3,0.8
		C399.3,471.9,398.4,472.7,397.5,473.4z"/>
	<path class="st13" d="M641.8,546.5c0-0.1,0-0.2,0.1-0.3C642.1,546.4,641.9,546.4,641.8,546.5L641.8,546.5z"/>
	<path class="st13" d="M640.2,545.8C640.2,545.7,640.2,545.6,640.2,545.8C640.3,545.6,640.2,545.7,640.2,545.8L640.2,545.8z"/>
	<path class="st1" d="M643,547.9c0.1,0,0.1-0.1,0.2-0.1c0,0.1-0.1,0.2-0.1,0.2C643.1,548,643,547.9,643,547.9z"/>
	<path class="st9" d="M394.5,530.2c0,0.1,0.1,0.1,0.1,0.2c0,0-0.1,0-0.1,0.1C394.4,530.3,394.4,530.2,394.5,530.2z"/>
	<path class="st3" d="M547.9,487.3c0,7.7-1.4,15.1-3.7,22.4c-1.5,4.8-5.5,6.2-10,3.8c-4.1-2.2-7.2-5.5-10.3-8.9
		c-2.5-2.8-4.8-5.7-7-8.8c-2.3-3.3-5.7-4.9-9.3-6.1c-5.2-1.7-10.6-2.4-16-3.3c-5.6-0.9-11.1-1.6-16.5-3.5c-7-2.5-9.1-8-7.6-14.5
		c1.2-5.2,4.3-9.3,8.1-12.9c6.7-6.3,14.6-9.8,23.8-10.2c11-0.5,21.3,1.8,30.7,7.6c10.6,6.4,16.1,16.1,17.5,28.2
		C547.8,483.1,548,485.2,547.9,487.3z M512.8,477.9L512.8,477.9c0,1.6,0,3.3,0,4.9c0,1.3,0.7,2.1,1.7,2.2c1.1,0,1.8-0.8,1.8-2.2
		c0-3.1,0-6.2,0-9.2c0-1,0.2-1.5,1.3-1.9c3.9-1.4,6-5.8,4.8-9.9c-1.1-3.9-5.3-6.5-9.4-5.7c-3.5,0.7-6.3,3.7-6.5,7.1
		c-0.3,4,1.7,7.2,5.3,8.6c0.8,0.3,1,0.7,1,1.5C512.7,474.8,512.8,476.4,512.8,477.9z"/>
	<path class="st5" d="M392,475.4c-0.8-0.4-0.6,0.8-1.3,0.7c-0.5-0.9,0.1-1.5,0.7-1.9c0.7-0.5,1.5-0.6,2.2-0.1
		c0.1,0.1,0.2,0.3,0.1,0.4c-0.1,0.3-0.4,0.3-0.7,0.3C392.2,474.8,392.2,474.8,392,475.4L392,475.4z"/>
	<path class="st5" d="M393.7,477.1c0.5,0,0.7,0.3,0.7,0.7c0,0.5-0.3,0.7-0.7,0.7c-0.5,0-0.7-0.3-0.7-0.7
		C392.9,477.3,393.2,477.1,393.7,477.1z"/>
	<path class="st5" d="M401,475.4c0,0.4-0.3,0.7-0.7,0.8c-0.5,0-0.7-0.3-0.8-0.7c0-0.5,0.3-0.8,0.7-0.8
		C400.6,474.6,400.9,474.9,401,475.4z"/>
	<path class="st14" d="M512.8,477.9c0-1.6,0-3.1,0-4.7c0-0.8-0.2-1.2-1-1.5c-3.6-1.3-5.6-4.6-5.3-8.6c0.3-3.4,3.1-6.4,6.5-7.1
		c4-0.8,8.2,1.7,9.4,5.7c1.2,4.1-0.9,8.4-4.8,9.9c-1.1,0.4-1.3,0.9-1.3,1.9c0.1,3.1,0,6.2,0,9.2c0,1.4-0.7,2.2-1.8,2.2
		c-1,0-1.7-0.9-1.7-2.2C512.8,481.2,512.8,479.6,512.8,477.9L512.8,477.9z"/>
</g>
</svg>
