<?xml version="1.0" encoding="utf-8"?>
<!-- Generator: Adobe Illustrator 26.0.1, SVG Export Plug-In . SVG Version: 6.00 Build 0)  -->
<svg version="1.1" id="Layer_1" xmlns="http://www.w3.org/2000/svg" xmlns:xlink="http://www.w3.org/1999/xlink" x="0px" y="0px"
	 viewBox="0 0 1024 1024" style="enable-background:new 0 0 1024 1024;" xml:space="preserve">
<style type="text/css">
	.st0{fill:#9BA9F2;}
	.st1{fill:#FCE5D5;}
	.st2{fill:#F8FAFB;}
	.st3{fill:#D9E2E8;}
	.st4{fill:#FDFDFD;}
	.st5{fill:#EBEFF2;}
	.st6{fill:#6268DD;}
	.st7{fill:#2F349F;}
	.st8{fill:#9A3709;}
	.st9{fill:#073634;}
	.st10{fill:#EE5A22;}
	.st11{fill:#A3A3A3;}
	.st12{fill:#CFAB6D;}
	.st13{fill:#B9CAD3;}
	.st14{fill:#494EBE;}
	.st15{fill:#FABDA6;}
	.st16{fill:#238C9D;}
	.st17{fill:#734B3B;}
	.st18{fill:#F3D3B0;}
	.st19{fill:#2AA2B3;}
</style>
<g>
	<path class="st0" d="M308.1,581.2c8.1-64.9,21.6-73.3,34.7-157.4c9-58.1,3.5-60.2,12.2-76.8c35.8-68.4,166-101.6,228.6-55.3
		c44.9,33.2,14.5,77.2,72.1,153.6c41.1,54.5,71.7,52.2,92.7,104c5.5,13.6,26.6,70.8-0.9,122.7c-20.7,39-58.1,54.7-81.5,64.6
		c-79.5,33.6-107.5-6.8-271.7-1.9c-29.7,0.9-50.1,2.9-67.5-11.2C293.8,696.7,301.3,635.9,308.1,581.2z"/>
	<g id="old_man_skin">
		<path class="st1" d="M671.1,542c0.1-2.9,0.1-3-2.8-2.9c-3.7,0.1-4.5-0.7-4.4-4.4c0.1-1.7,0-3.4,0-5.1c0-0.8-0.3-1.1-1.1-1
			c-0.2,0-0.4,0-0.6,0c-1,0.2-1-0.3-0.7-1c0.3-0.7,0.5-1.4,0.7-2.2c1,0,2-0.3,2.6-1.2c0.7-1.1,0.7-1.1,1.3-0.1
			c0.7,0.9,1.8,1.4,2.9,1.1c1-0.3,1.8-1.3,1.9-2.4c0.1-1.1-0.7-2.2-1.7-2.5c-1.3-0.5-2.6,0.1-3.3,1.5c-0.1,0.2-0.1,0.6-0.5,0.6
			c-0.4,0-0.4-0.3-0.5-0.6c-0.2-0.6-0.7-0.9-1.1-1.4c0.6-1.3,1.1-2.7,1.6-4c0.7-1.9,1.9-2.9,3.9-2.9c2.8,0,5.6,0,8.4,0
			c1.7,0,2.4,0.9,2.5,3c-1.9,0-3.7,0.1-5.6,0c-0.6,0-0.9,0.2-1.1,0.7c-1.1,3.1-2.2,6.3-3.4,9.4c-0.1,0.3-0.2,0.7,0.3,0.8
			c1,0.5,2.4-0.1,2.9-1.1c0.2-0.4,0.3-0.8,0.5-1.3c0.1-0.3,0.2-0.5,0.5-0.6c1.1-0.5,2.9,0.2,3.4,1.2c0.6,1.2,0.2,2.3-1.1,3
			c-0.6,0.3-0.7,0.7-0.7,1.2c0,1.5,0,2.9,0,4.4c0,0.7,0.3,0.9,0.9,0.9c1.8,0,3.6,0,5.4,0c0.2,2.4,0.4,4.9,0.7,7.3l0,0
			c0,0.2,0,0.4-0.1,0.6c0,0.5,0.1,0.8,0.1,1.3c-0.1,0.2-0.1,0.4-0.2,0.5c-1.3,0-2.5-0.2-3.8,0.2c-0.1,0-0.2,0-0.2,0
			c-2.6,0-5.2,0-7.9,0c0-0.7,0-1.4,0-2.1C671.2,542.7,671.2,542.3,671.1,542z"/>
		<path class="st1" d="M611.8,529.3c-1-0.8-2.2-1.6-3.1-2.5c-1.2-1-1.3-2.6-0.4-3.8c0.8-1.1,2.3-1.4,3.7-0.7
			c0.9,0.6,1.9,1.2,2.7,1.9c-0.7,0.2-0.7,0.9-1,1.5C613.1,526.9,612.8,528.3,611.8,529.3z"/>
		<path class="st1" d="M657.3,574.4c0.3,0,0.7,0,0.9,0c0.7,0.4,1.5,0.1,2.2,0.3c0,1.8-0.3,3.6-0.7,5.3c-0.4,0.1-1-0.5-1.1,0.4
			c-0.2-0.5-0.6-0.7-1-0.7c-0.7-0.1-1.6-0.2-2.3-0.4c-1.3-0.3-2.1-1.3-2-2.5c0.1-1.2,1-2.2,2.3-2.2
			C656.2,574.3,656.8,574.4,657.3,574.4z"/>
		<path class="st1" d="M670.4,522.8c0,1-0.8,1.9-1.9,1.9s-1.9-0.7-2-1.8c0-1,0.8-2,1.9-2C669.4,520.9,670.4,521.8,670.4,522.8z"/>
		<path class="st1" d="M662.7,524.6c0.4-1.1,0.7-2.2,1.1-3.3c0.9,0.4,0.9,1.2,0.7,2C664.3,524.2,663.6,524.7,662.7,524.6z"/>
	</g>
	<path class="st2" d="M703.6,555.3c-0.4-1.9-1-3.2-1.3-3.7c-0.5-0.8-0.9-1.4-1.1-1.7c-0.2-0.3-0.8-1-1.8-1.8c-1.2-1-2.4-1.5-3.2-1.9
		c-0.5-0.2-1.4-0.6-2.6-0.9c-1.6-0.4-2.9-0.5-3.7-0.5c-0.7,0-0.7,0-4.1,0c-0.4,0-0.7,0-0.8,0c-0.7-0.4-1.3-0.5-1.7-0.5
		c-0.3,0-0.6,0-1.1,0.1c-0.5,0.1-0.5,0.1-0.9,0.1c-0.6,0-1.2,0-2,0.3c-0.1,0.1-0.2,0.1-0.3,0.1c1.7,2.1,3.3,4,5,6.1
		c-0.1,0.4-0.2,0.7-0.4,1c-0.6,1.7-1.1,3.4-1.7,5.1c0.7,0.4,1.6,0.7,2.3,1.1c0.5,0.2,0.9,0.5,1.3,0.8c0.8,0.8,0.6,1.9-0.5,2.5
		c-1,1.8-1.7,3.3-2.2,4.3c-0.9,2.2-1.1,3.7-2.2,6.9c-0.4,1.1-0.7,2-0.9,2.5l0,0c-0.6,0.7-0.9-0.1-1.4-0.2c-0.6,0-1,0-1.6,0
		c-0.4,0-0.8,0-1.4,0c-0.4,0-0.9,0-2-0.1c-2.2-0.1-3.1-0.4-5.2-0.5c-1.5-0.1-1.8,0-5.4-0.2c-0.2,0-0.3,0-0.4,0c0,0.3,0,0.6,0,0.8
		c-0.2,1.5-0.5,3-0.5,4.5c-0.5,0.8-1.2,0.8-2.1,0c-0.4,0.1-1-0.5-1.1,0.4c0.2,0.8,0.3,1.7,0.5,2.5s-0.1,1.2-0.8,1.3
		c0,0.7,0,1.4,0,2.2c0,3.8,0,7.7,0,11.4c0,1.6,0,3.2,0,4.7c0,3,0,6.1,0,9.1c0,7.3,0,14.6,0,21.9c0.1,0.3-0.4,0.9,0.4,0.8
		c0.6,0,1.2,0.1,1.8,0.1c2.6,0,5.2-0.1,7.9-0.1c0.3,0.1,0.6,0.1,0.7,0c0.3-0.2,0.4-0.7,0.2-1c0-13.9,0-27.8,0-41.7
		c3.3,0.3,6.5,0.5,9.7,0.7c0,7.8,0,15.6,0,23.3c0,5.9,0,11.8,0,17.7c0,0.1,0,0.5,0.4,0.7c0.2,0.2,0.4,0.2,0.5,0.2
		c0.9,0,14.9,0,15.3,0c0.3,0,0.4-0.2,0.4-0.2c0-0.1,0.1-0.1,0.1-0.2c0-15.3,0-30.5,0-45.7c0-0.2-0.1-0.7,0.2-1.1
		c0.1-0.2,0.3-0.3,0.3-0.4c0.4-0.3,0.7-0.4,0.8-0.4c0.7-0.2,1.1-1,1.4-1.6c2-3.6,5.3-24.4,5.3-24.4
		C703.8,559.8,704.2,557.7,703.6,555.3z M663.6,600.9c0,0.1,0,0.3-0.1,0.4C663.6,601.2,663.6,601,663.6,600.9c-0.9,0-2,0-2.9,0
		c-0.6,0-1,0-1.6,0c-0.1-0.9,0.4-1.1,1.2-1.1c1.1,0,2.2,0,3.3,0C664.4,600.1,664.4,600.5,663.6,600.9z M679.1,585L679.1,585"/>
	<path class="st3" d="M685.5,554.1c0.2-0.2,0.4-0.4,0.6-0.5c0.1-0.1,0.2-0.1,0.2-0.3s-0.1-0.3-0.3-0.5c-0.1-0.2-0.4-0.4-0.6-0.7
		c-0.6-0.5-1.3-1.3-2.2-2.2c-0.3-0.3-0.7-0.7-1.9-2.2c-0.5-0.7-1.2-1.5-2.2-2.6c0,0,0,0-0.1,0c-0.1,0-0.1,0-0.2,0
		c0,9.7,0,19.5,0,29.1c0,0.6-0.1,0.9-0.7,1c0.5,0.1,0.8,0.8,1.4,0.2c0.3-0.8,0.7-1.7,0.9-2.5c0.7-2,1.9-3.8,2.3-5.9
		c0.7-1.5,1.4-3.1,2.2-4.6c0.3-0.5,0.7-1.2,0.8-2.1c0.1-0.5,0.2-0.9,0.2-1.3c0,0,0.1-0.1,0-0.2c0-0.1-0.2-0.2-0.3-0.1
		c-0.6-0.1-1.1-0.2-1.7-0.4c-0.1-0.1-0.2-0.1-0.3-0.2c-0.6-0.4-1.2-0.7-1.8-0.9c0.6-0.6,1.1-1.2,1.7-1.8
		C684.7,554.8,685.3,554.3,685.5,554.1z"/>
	<path class="st4" d="M559.8,549.5c3.5-1,6.9-2,10.4-3c3.2-0.9,6.4-1.1,9.6-1.1c3.1,0,6.3-0.1,9.4-0.1c0.4,0.3,0.8,0.2,1.3,0.2
		c3.1,0,6.2,0,9.3,0c0.5,0,0.9,0.1,1.3-0.2c1.9,0.2,3.7,0.1,5.5,0c8.2-0.3,14.9,5.6,16.7,13.3c0.9,3.9,1.2,8,1.9,12
		c1.5,10.2,2.9,20.5,4.4,30.7c0.3,2.2,0.6,4.3,0.9,6.5c0.1,0.5,0,0.7-0.6,0.7c-2.2,0-4.2,0-6.4,0c-0.7,0.1-0.9-0.5-1-1
		c-2.7-8.9-5.4-17.7-8.2-26.6c-0.2-0.5-0.3-0.9-0.7-1.4c0,0.3,0,0.6,0,0.9c0,17.6,0,35.2,0,52.8c0,0.5,0.4,1.2-0.5,1.4
		c-4.3-0.2-8.7-0.1-13,0c-3,0-6.1,0-9.1,0c-4.2,0-8.4,0-12.6,0c-0.2,0-0.4-0.1-0.6-0.1c-0.9,0.2-1.1-0.3-1.1-1.1
		c0-8.2,0-16.5,0-24.7c0-15,0-30.1,0-45.1c0-1.7,0-1.8-1.7-1.6c-5.2,0.6-10.6,1.2-15.8,1.9c-1.8,0.3-3.7,0.2-5.4,0.2
		c-0.3,0-0.6-0.1-0.8-0.1l0,0c-0.1-0.2-0.3-0.2-0.5-0.2c-0.2-0.1-0.5-0.1-0.7-0.2c-2.6-0.9-4.3-2.7-5.2-5.2
		c-0.7-1.9-1.4-3.7-2.1-5.7c-0.3-0.7-0.7-1-1.5-1c-5,0-9.9,0-14.8,0c-0.7,0-1.2-0.2-1.7-0.7c-1.8-1.9-3.7-3.7-5.5-5.4
		c-0.6-0.5-0.7-1-0.7-1.8c0-5.3,0-10.7,0-15.9c0-0.5,0-1-0.1-1.5c-1.5,9.5-2.8,18.8-4.3,28.2c-1.3,8.4-2.8,16.9-5.2,25.2
		c-1.7,6.2-3.7,12.2-7,17.7c-2.4,3.9-5.4,7.1-10.2,8.2c-1.1-3-1.5-6.1-0.9-9.3c1-0.5,1.6-1.4,2.1-2.4c1-2.4,1.8-5.1,2.4-7.6
		c2.5-9.8,3.7-20,4.4-30c0.5-5.6,0.7-11.3,0.8-17.1c0.2-9.2,0.1-18.4-0.4-27.5c-0.1-1.3-0.2-2.5-0.4-3.7c-0.4-3-0.6-5.9,0.3-8.9
		c1.1-4,2.5-8,3.9-11.9c2.6-7.2,5.3-14.4,7.1-21.9c1.2-5.1,2.2-10.2,2.4-15.4c0.4-7.8-0.6-15.5-3.3-22.9c-2.7-7.6-8-12.5-15.6-14.9
		c-4.8-1.5-9.6-1.2-14.4-0.5c-5.2,0.8-10.3,2.2-15.5,3.4c-3.7,0.8-7.2,1-10.9,0.2c-2.6-0.7-5.3-1.1-8-1.8c0-7.8,0-15.6,0-23.3
		c2.5,0.6,5.2,0.9,7.8,1.2c7.2,0.7,14.2-0.2,21.2-1.9c7.1-1.8,14.1-3.6,21.5-4.1c7.1-0.5,14,0.5,20.2,4c1.1,0.7,2.2,0.9,3.7,0.9
		c5.8-0.1,11.6-0.1,17.4,0c0.5,0,1.1-0.2,1.1,0.7s-0.7,0.6-1,0.6c-5.3,0-10.7,0-16.1,0c-0.4,0-0.7-0.1-1.1,0.1
		c0.5,0.7,1.1,0.8,2,0.8c5.1,0,10.2,0,15.3,0c0.5,0,1-0.2,1,0.7c0,0.8-0.6,0.7-1,0.7c-4.5,0-8.9,0-13.4,0c-0.3,0-0.7-0.2-1.1,0.4
		c0.2,0.1,0.5,0.2,0.6,0.3c5.2,4.8,9.3,10.5,12.2,17c5.9,12.7,7.5,26.2,6.3,40.2c-1.4,15.3-6.3,29.3-13.8,42.6
		c-1.5,2.6-3.3,5.2-4.7,7.9c-1.8,3.4-2.5,7.2-3.4,10.9c-0.2,0.9,0,1.2,0.9,1.2c7.5,0,14.9,0,22.4-0.1c0.9,0,1.2,0.3,1.2,1.2
		c0,5.8,0,11.7,0,17.5c0,0.8,0.2,1.7,0.7,2.4c1.4,2.4,2.7,4.9,4,7.3c0.5,0.7,0.9,1.6,1.3,2.3c0.2,0.7,0.5,1.2,0.9,1.7
		c0.5,0.9,1,1.9,1.4,2.9c0.3,0.7,0.7,0.8,1.4,0.7C557.8,550,558.8,549.7,559.8,549.5z M538.3,533.6c0.2,0.4,0.4,0.7,0.9,0.5
		c1.9-0.8,3.7-1.7,5.5-2.5c0.7-0.4,0.8,0.4,1.3,0.7c0-5.6,0-11.1,0-16.5c0-0.8-0.6-0.7-1-0.7c-6.2,0-12.5,0-18.6,0
		c-1.2,0-2.4,0-3.6,0c-0.4,0-0.7,0-0.8,0.6c-0.2,1.2-0.6,2.5-0.6,3.7c-0.1,8.1,0,16.2,0,24.3c0,0.7,0.3,0.9,0.9,0.9
		c1.3,0,2.7,0.1,4,0c0.9-0.1,1.3,0.2,1.3,1.2c-0.1,1.3,0,2.6,0,3.9c0,0.7,0.2,1,1,1c4.8,0,9.6,0,14.2,0c0.9,0,1-0.2,0.7-1
		c-1.2-3.4-2.4-6.7-3.7-10.1c-0.3-0.8-0.7-1-1.5-1c-4.3,0-8.5,0-12.8,0c-0.5,0-0.7,0-0.7-0.7c0-0.7,0.4-0.7,0.8-0.7
		c2.3,0,4.7,0,7.1,0c2.1,0,4.2,0,6.3,0c-0.6-2.3-0.6-2.3-2.7-2.3c-3.6,0-7,0-10.6,0c-0.8,0-1-0.4-0.8-1c0.2-0.5,0.7-0.3,0.9-0.3
		C530,533.7,534.1,533.7,538.3,533.6z M504.6,388.9c-1.8-0.7-3.6-1.1-5.4-1.1c-4.3,0-8.6,0.9-12.8,1.9c-4.6,1-9.1,2.2-13.8,3.1
		c-3.7,0.7-7.5,1.1-11.3,1c-2.3,0-4.1,1.5-4,3.5c0,1.4,1.3,3.4,3.9,3.3c1.3-0.1,2.7-0.1,4-0.4c5.7-1.1,11.1-3,16.7-4.9
		c3.7-1.3,7.5-2.6,11.3-3.8c2.2-0.7,4.5-1.5,6.9-1.9C501.6,389.3,503.1,389.2,504.6,388.9z"/>
	<path class="st5" d="M559.8,549.5c-1,0.3-2,0.6-3,0.8c-0.7,0.2-1.1,0-1.4-0.7c-0.5-0.9-0.9-1.9-1.4-2.9c0-0.8,0-1.7,0-2.6
		c0-60.8,0-121.6,0-182.4c0-0.3,0-0.6,0-0.9c-0.1-1.8-1.2-3-3.1-3c-33.3,0-66.5,0-99.8,0c-1.9,0-3,1.1-3,3c0,9.7,0,19.6,0,29.3
		c0,7.8,0,15.6,0,23.3c0,10.5,0,21,0,31.5c0,2.1,0,4.1,0,6.2c0,0.6,0,1.2,0,1.8c0,6.2,0,12.5,0,18.6c0,1,0,2.1,0,3.2
		c0,2.1,0,4.2,0,6.3c0,0.6,0,1,0,1.6c0,2.4,0,4.8,0,7.2c0,7,0,14.1,0,21.1c0,5.4,0,10.8,0,16.2c0,0.3,0,0.6,0.2,0.8
		c-0.1,0.5-0.2,0.8-0.2,1.3c0,31.9,0,63.7,0,95.6c0,2.1,1.1,3.2,3.2,3.2c0.4,0,0.7,0,1,0c32.6,0,65.3,0,97.9,0
		c2.8,0,3.7-0.9,3.7-3.7c0-19.3,0-38.5,0-57.8c0-0.8,0-1.7,0-2.4c1.8,0,3.7,0,5.4-0.2c0,28.6,0,57.1,0,85.6c0,1.5-0.3,2.8-1.5,3.8
		c-0.7,0.6-1.6,0.7-2.5,0.7c-9.5,0-18.9,0-28.4,0c-26.7,0-53.4,0-80.1,0c-0.7,0-1.4,0.3-2.1,0c-1.9-1-2.5-2.6-2.5-4.9
		c0-102.4,0-204.8,0-307.1c0-2.2,0.7-3.7,2.5-4.8c1,0,2.1-0.1,3.2-0.1c35.6,0,71.3,0,106.9,0c3.3,0,4.6,1.4,4.6,4.7
		c0,68.6,0,137.2,0,205.7C559.3,548.1,559,548.9,559.8,549.5z M504.6,644.1c6.8,0,13.7,0,20.4,0c1.7,0,2.3-0.7,2.4-2.3
		c0-0.6,0-1.1,0-1.7c0-2.2-0.6-2.7-2.7-2.7c-12.6,0-25,0-37.6,0c-1,0-2.1,0-3.2,0c-1.3,0-2,0.7-2.1,1.9c-0.1,0.7,0,1.3,0,2.1
		c0,2.3,0.6,2.9,2.9,2.9C491.4,644.1,498,644.1,504.6,644.1z M447.6,347.8c0,3.7,2.7,6.7,6,6.7c3.2,0,6.1-3.1,6.1-6.6
		c0-3.6-2.7-6.5-6-6.5S447.7,344.3,447.6,347.8z"/>
	<path class="st4" d="M444.7,337.2c-1.9,1-2.5,2.6-2.5,4.8c0,102.4,0,204.8,0,307.1c0,2.2,0.7,3.7,2.5,4.9c-3,0-6,0-9,0
		c-0.3,0-0.7,0-0.9,0c-1.9-0.3-3.1-1.6-3.3-3.6c-0.1-0.5,0-0.9,0-1.3c0-14.1,0-28.2,0-42.3c0-0.4,0-0.7-0.1-1c0-0.2,0-0.3,0.1-0.5
		h0.1c0-0.1,0-0.1-0.1-0.2c0-0.6,0-1,0-1.6c0.3-0.6,0.3-1.2,0-1.8c0-1.2,0-2.4,0-3.7c0,0,0.1,0,0.1-0.1c0-0.1,0-0.1-0.1-0.2
		c0-0.6,0-1,0-1.6l0.1-0.1c0-0.1,0-0.1-0.1-0.2c0-0.5,0-0.9,0-1.3l0.1-0.1c0-0.1,0-0.1-0.1-0.2c0-2.8-0.1-5.5-0.1-8.3
		c0-0.2,0-0.5,0.1-0.7l0.1-0.1c0-0.1,0-0.1-0.1-0.2c0-0.5,0-1,0-1.5l0.1-0.1c0-0.1,0-0.1-0.1-0.2c0-2.3,0-4.6,0-6.9
		c0.3-1.8,0.3-3.7,0-5.4c0-3,0-6,0-9c0.3-2.4,0.3-4.8,0-7.2c0-2.4,0-4.8,0-7.2c0.3-0.6,0.3-1.2,0-1.8c0-0.6,0-1.2-0.1-1.8
		c0-0.1,0-0.1,0.1-0.2c0.3-0.6,0.3-1,0-1.6c0-2.4,0-4.8,0-7.2c0.3-0.7,0.3-1.3,0-2c0-1.5-0.1-3-0.1-4.5c0-0.4,0.1-0.8,0.1-1.2
		c0-7.9,0-15.6,0-23.5c0.2-0.4,0.2-0.7,0-1.1c0-0.6,0-1,0-1.6c0.3-0.9,0.3-1.8,0-2.7c0-0.5,0-0.8,0-1.3c0.3-0.6,0.3-1,0-1.6
		c0-4.3,0-8.5-0.1-12.8c0-0.8,0.1-1.7,0.1-2.4c0.2-0.3,0.2-0.6,0-0.9c0-3.2,0-6.5,0-9.6l0.1-0.1c0-0.1-0.1-0.1-0.1-0.2
		c0-0.2-0.1-0.3-0.1-0.5h0.1l0.1-0.1c0-0.1-0.1-0.1-0.1-0.2c0-2.1,0-4.2,0-6.3c0.2-0.2,0.2-0.5,0-0.7c0-0.3,0-0.6,0-0.9l0.1-0.1
		c0-0.1-0.1-0.1-0.1-0.2h-0.1c0-2.8,0-5.7,0.1-8.5l0.1-0.1c0-0.1,0-0.1-0.1-0.2h-0.1c0-0.5,0.1-0.9,0.1-1.4c0.1-0.1,0.1-0.2,0-0.3
		h-0.1c0.1-2.7,0.1-5.3,0-8.1c0-7,0-14.1,0-21.1c0-3,0-6.1,0-9.1c0-0.5,0.2-0.9-0.7-0.9c-5.9,0.5-11.1,2.5-15.3,6.7
		c-2.9,2.8-4.8,6.2-6.1,10c-1.6,4.7-2.6,9.6-2.8,14.4c-0.2,5.1,0,10.1,0.8,15.2c1.1,7.1,3.2,14,5.4,20.7c2.2,6.2,4.6,12.3,6.6,18.5
		c0.8,2.7,1.6,5.4,1.2,8.2c-0.6,4.3-0.8,8.6-0.9,12.9c-0.2,9.6-0.3,19.4,0.2,29c0.1,1.6,0.1,3.2,0.2,4.7c0.4,5.5,0.8,11.1,1.5,16.5
		c0.6,4.5,1.3,9,2.2,13.5c0.7,3.5,1.6,7,2.8,10.4c0.7,2.1,1.4,4,3.7,4.9c0.1,0,0.2,0.2,0.2,0.3c0.3,2.9,0.1,5.8-0.9,8.5
		c-5.2-0.6-8.7-3.7-11.3-7.9c-3.3-5.2-5.2-10.8-6.9-16.6c-2.5-8.9-4.1-17.9-5.6-27c-1.9-11.7-3.2-23.4-5.2-35.1
		c-0.8-4.9-1.7-9.6-3.3-14.3c-0.7-2-1.7-3.7-2.8-5.4c-7.6-11.9-13-24.7-15.6-38.6c-2.9-15.6-2.3-30.9,3.6-45.8
		c3.6-9.1,8.9-17.1,16.9-23c7.3-5.4,15.6-7.4,24.5-6.6c2.2,0.2,4.5,0.4,6.7,0.8c1,0.2,1.1-0.1,1.1-1c0-14.4,0-28.9,0-43.3
		c0-1,0.1-2.1,0.7-2.9c0.7-1.1,1.7-1.8,3-1.8C438.3,337.2,441.5,337.2,444.7,337.2z M384.4,444.3c0,2,0.3,4.3,0.5,6.7
		c0.3,3.5,0.7,6.9,1.5,10.4c0.7,3.5,1.7,6.9,2.7,10.3c1.5,4.7,3.3,9.3,5.3,13.8c2.3,4.9,5.1,9.6,8.2,14c0.3,0.4,0.5,0.7,0.6,1.2
		c0.4,3.1,0.9,6.2,1.3,9.3c0.5,4.1,0.9,8.3,1.4,12.5c0.5,3.8,1,7.8,1.5,11.6c0.8,6.3,1.6,12.6,2.5,18.9c0.7,4.9,1.5,9.6,2.5,14.4
		c1.3,6.6,2.8,13,5.1,19.3c1.1,3.1,2.4,6,4.3,8.7c1.2,1.7,2.6,3,4.7,3.7c0.3,0.1,0.7,0.3,0.9,0c0.3-0.3-0.2-0.5-0.4-0.7
		c-0.2-0.4-0.6-0.7-0.7-1.1c-1.9-4.2-2.8-8.7-3.7-13.2c-0.9-4.9-1.8-9.6-2.4-14.5c-0.5-3.6-0.9-7.1-1.4-10.7
		c-0.4-2.9-0.6-5.9-0.9-8.8c-0.6-3.9-0.8-7.9-1.2-11.8c-0.3-3.4-0.5-6.7-0.8-10.1c-0.5-5.1-0.7-10-1-15.1c-0.2-3.8-0.5-7.7-0.3-11.5
		c0-0.6-0.1-1-0.4-1.5c-1-2-2.2-3.9-3.1-6c-3.3-8-5.9-16.1-7.6-24.5c-1.1-5.4-2-10.9-2.2-16.4c-0.3-6.5-0.3-12.9,1.2-19.3
		c1.3-5.7,3.6-10.9,7.4-15.6c3.7-4.4,0.9-9.4-3.7-10.7c-5-1.3-9,0.7-12.4,4.3c-3.6,3.8-5.5,8.5-7,13.4
		C385.3,431.2,384.4,437.5,384.4,444.3z M434.6,422.6c0,7.2,0,14.3,0,21.5c0,1,0.3,1.7,1.3,2c1.5,0.4,2.8-0.2,2.8-2.1
		c-0.1-11.2,0-22.5,0-33.7c0-3.2,0-6.3,0-9.5c0-0.9-0.4-1.6-1.3-1.9c-1.6-0.4-2.9,0.3-2.8,2.1C434.6,408.3,434.6,415.5,434.6,422.6z
		"/>
	<path class="st6" d="M698.4,697.1c1.4,0.5,2.8,0.3,4.2,0.4c2.3,0.2,4.8,0.3,7.1,0.5c0.4,0,0.7,0,1,0.5c-0.5,0.5-1.1,0.4-1.6,0.5
		c-2.4,0.2-4.9,0.4-7.4,0.5c-3.5,0.1-6.9,0-10.3,0.3c-3.2,0.3-6.5,0-9.6,0.2c-3.8,0.3-7.7,0-11.4,0.3c-3.5,0.3-6.9,0-10.4,0.2
		c-6.2,0.4-12.3,0-18.5,0.2c-8.8,0.4-17.5,0.1-26.3,0.2c-37.1,0.5-74.2,0.2-111.2,0.2c-11,0-21.9,0.1-32.9-0.2
		c-5.9-0.2-11.8,0.1-17.7-0.2c-3.9-0.2-7.8,0.1-11.7-0.2c-3.5-0.3-6.9,0-10.4-0.2c-5.6-0.3-11.2-0.4-16.8-0.5
		c-3.9-0.1-7.9-0.4-11.8-0.7c-0.5,0-0.9-0.2-1.4-0.2c-0.3,0-0.7,0.1-0.6-0.3c0-0.3,0.4-0.4,0.7-0.4c1.5-0.2,3-0.4,4.4-0.4
		c1.6,0,3.2-0.3,4.8-0.3c4.1,0.1,8.2-0.2,12.4-0.3c3.1-0.1,6.2,0.1,9.3-0.2c3.4-0.3,6.7,0,10.1-0.3c2.6-0.2,5.3-0.1,8-0.2
		c9.2-0.3,18.4-0.1,27.5-0.3c8.6-0.2,17.1,0,25.8-0.2c22.2-0.5,44.5-0.1,66.7-0.2c0.6,0,1.1-0.5,1.7,0.1c-1.1,0.7-2.3,1.6-3.7,2.5
		c0.6,0,0.9,0.1,1.3,0.1c3.6,0,7.2,0,10.8,0c2.7,0,2.7,0,2.8-2.6v-0.1c5.1,0,10,0,15.1,0c2.1,0,4.1,0.5,6.3,0
		c0.3-0.1,0.4,0.1,0.6,0.3c-0.8,0.9-2.2,1.2-3,2.2c0.5,0.3,0.8,0.1,1.2,0.1c3.6,0,7.1,0,10.8,0c2.6,0,2.6,0,2.7-2.6v-0.1
		c0.4,0.2,0.7,0.2,1.2,0.2c0.7,0,1.3,0,2.1,0c10-0.1,20,0.4,29.9,0.2c0.5,0,0.9,0,1.4,0.4c-0.4,0.3-0.7,0.6-1.1,0.9
		c0.5,0.3,0.8,0.2,1.2,0.2c3.9,0,7.9,0,11.9,0c0.9,0,1.5-0.2,1.6-1.2c6.7,0.2,13.2,0.3,19.9,0.5c-0.1,0.3-0.7,0.2-0.5,0.7
		c4.5,0,9.1,0,13.7,0C698,697.6,698.3,697.6,698.4,697.1z"/>
	<path id="right_arm_old_man" class="st4" d="M615.9,524.7c0.4-0.7,0.8-0.2,1.1,0c4.4,2.9,8.8,5.7,13.3,8.6c2.3,1.5,4.7,3,6.9,4.6
		c0.7,0.5,1.4,0.6,2.2,0.7c8.4,2,16.8,4.1,25.2,5.9c1,0.2,2.1,0.3,3.1,0.4c-0.7,1.2-1.2,2.4-1.5,3.8c-1.6,1.2-2.7,2.9-4,4.4
		c-0.3,0.3-0.1,0.6,0.2,0.7c1.2,0.7,2.3,1.7,3.7,2.2c0,0.2,0,0.3,0,0.5c-1.3,0.3-1.9,1.5-2.9,2.2c-1.3,0.9-1.3,1.1-0.7,2.6
		c0.7,1.8,1.7,3.6,2.2,5.4c-0.5,0.5-0.9,0.9-1.1,1.6c-0.7,1.9,0.7,4.5,3.8,4c0.8,2.4,0.8,2.4-1.7,2.1c-1.1-0.2-2.3-0.4-3.5,0.2
		c-0.6,0-1.1,0-1.8,0c-0.7-0.2-1.5,0.1-2.2-0.3c0-5.1,0-10.2,0-15.3c0-0.5,0.1-0.8-0.5-1.1c-1.4-0.5-2.8-1-4.2-1.6
		c-0.4-1.1-0.3-2.3-0.9-3.5c-0.1-0.1-0.2-0.1-0.2,0c-1.6,0-3.2,0-4.7,0c-0.2-0.5-0.6-0.4-0.9-0.4c-0.7,0-1.3,0-1.9,0
		c-0.4,0-0.7-0.1-1-0.6c-0.2-0.4-0.9-1.7-1.6-1.9c-0.2-0.1-0.7-0.2-1.9,0.9c-4.6-2.1-8.2-4.2-10.9-6c-1.8-1.1-8.4-5.7-15.4-13.6
		c-0.4-0.4-0.7-0.7-0.8-1C614.3,528.7,615.1,526.7,615.9,524.7z"/>
	<g id="Pants">
		<path class="st7" d="M664.5,696.4c0,1-0.7,1.2-1.6,1.2c-3.9,0-7.9,0-11.9,0c-0.4,0-0.8,0.1-1.2-0.2c0.4-0.3,0.7-0.6,1.1-0.9
			c2.2-1,4.3-2.5,6.5-3.7c0.1,0,0.1-0.1,0.2-0.1c1.5-0.6,1.8-1.6,1.8-3.1c0.1-8.2,0.3-16.5,0.4-24.6c0.2-7.9,0.3-15.7,0.5-23.5
			c0-2.2,0.1-4.6,0.2-6.8c2.6,0,5.2-0.1,7.9-0.1c1,0.3,0.8-0.5,0.8-1c0-13.9,0-27.8,0-41.7c0-0.5,0-0.9,0.1-1.3c1.2,0,2.3,0,3.6,0
			c0.6,0.7,1.1,1,1.6,0c1.5,0,3,0,4.4,0c0,0.7,0,1.4,0.1,2.1c0.2,7.9,0.2,15.6,0,23.3c-0.7-2.6-1-5.2-1.6-7.9
			c-0.1-0.4-0.1-0.7-0.4-1.1c-0.6,3.8-1.1,7.6-1.6,11.3c-1,7.6-2.2,15.1-3.2,22.7c-1.1,7.7-2.2,15.4-3.3,23
			c-1,7.2-2.1,14.3-3.1,21.5C665.2,688.9,664.6,692.7,664.5,696.4z"/>
		<path class="st7" d="M616.4,695.8L616.4,695.8c-0.1,2.7-0.1,2.7-2.7,2.7c-3.6,0-7.1,0-10.8,0c-0.4,0-0.8,0.1-1.2-0.1
			c0.9-0.9,2.2-1.2,3-2.2c1.9-0.8,3.5-2.2,5.2-3.1c0.7-0.4,0.9-0.9,0.7-1.7c-0.8-4.2-1.6-8.4-2.3-12.6c-1.6-8.9-3.3-17.7-4.9-26.6
			c-1.1-5.9-2.2-11.8-3.3-17.6c4.3-0.1,8.7-0.1,13,0c0,4,0.4,8,0.6,12c0.2,3.9,0.4,7.9,0.7,11.8c0.5,8.6,1,17.2,1.5,25.9
			C616.1,688,616.5,691.9,616.4,695.8z"/>
		<path class="st7" d="M582.9,695.8L582.9,695.8c-0.1,2.7-0.1,2.7-2.8,2.7c-3.6,0-7.2,0-10.8,0c-0.4,0-0.7,0-1.3-0.1
			c1.4-0.9,2.5-1.7,3.7-2.5c1.9-0.9,3.6-2.2,5.3-3.3c0.5-0.3,0.4-0.7,0.5-1.2c0.1-6.3,0.2-12.6,0.3-18.9c0.2-8.3,0.3-16.7,0.5-25
			c0.1-4.3,0.2-8.7,0.2-13c4.2,0,8.4,0,12.6,0c-0.6,3.8-1,7.6-1.6,11.4c-0.9,6.5-1.9,12.9-2.8,19.4c-0.9,6.7-1.9,13.2-2.8,19.9
			C583.5,688.7,582.7,692.1,582.9,695.8z"/>
		<path class="st7" d="M698.4,697.1c-0.1,0.5-0.4,0.5-0.7,0.5c-4.6,0-9.1,0-13.7,0c-0.2-0.5,0.4-0.5,0.5-0.7c2.6-1.7,5.2-3.3,8-4.9
			c0.6-0.3,0.6-0.7,0.5-1.2c-1.5-8-2.8-15.9-4.4-23.9c0,0-0.6-2.9-1.6-8.8c-0.4-2.2-1.6-8.8-1.7-9.2c-0.7-3.4-1.5-8.3-2.7-14.5
			c4.3,0,8.5,0,12.8,0c0.1,0.9,0.1,2.5,0.2,4.4c0.3,5.3,0.5,8.6,0.7,13.6c0.4,6.5,0.4,6.1,0.6,9.7c0.5,9,1,17.9,1.5,26.9
			C698.3,691.7,698.3,694.4,698.4,697.1z"/>
	</g>
	<path class="st4" d="M682.3,535.3c-1.8,0-3.6-0.1-5.4,0c-0.7,0-1-0.2-0.9-0.9c0-1.5,0-2.9,0-4.4c0-0.6,0.2-0.9,0.7-1.2
		c1.3-0.7,1.7-1.8,1.1-3c-0.5-1-2.2-1.7-3.4-1.2c-0.3,0.1-0.4,0.4-0.5,0.6c-0.2,0.4-0.3,0.8-0.5,1.3c-0.5,1-1.9,1.7-2.9,1.1
		c-0.5-0.2-0.4-0.6-0.3-0.8c1.1-3.1,2.2-6.3,3.4-9.4c0.2-0.6,0.6-0.7,1.1-0.7c1.9,0,3.7,0,5.6,0c2.2,0.3,3.4,1.4,3.3,3.7
		c0,0.6,0.1,0.7,0.7,0.8c1.8,0.4,2.8,1.6,2.7,3.5c0,0.6,0.1,0.8,0.7,0.9c1.5,0.3,2.4,1.3,2.6,2.8c0.1,0.5,0.3,0.7,0.6,0.8
		c1.5,0.9,2.1,2.2,1.6,3.8c-0.4,1.5-1.7,2.3-3.4,2.3C687,535.3,684.7,535.3,682.3,535.3z"/>
	<path class="st8" d="M431.5,594.8c0,0.5,0,0.9,0,1.3c0,0.1,0,0.2,0,0.2c0,0.6,0,1,0,1.6c-0.1,0.1-0.1,0.1,0,0.2c0,1.2,0,2.4,0,3.7
		c-0.1,0.6-0.1,1.2,0,1.8c0,0.6,0,1,0,1.6c-0.1,0.1-0.1,0.1,0,0.2c0,0.2,0,0.3-0.1,0.5c-0.3,0.8-0.7,1.7-0.9,2.5
		c-0.2,0.6-0.6,0.8-1.1,0.7c-0.7-0.2-0.6-0.7-0.5-1.2c0.2-0.7,0.4-1.3,0.6-2c1-2.8,1.3-5.6,0.9-8.5c0-0.3,0-0.6,0-0.9
		c0.2-2.4-0.2-4.9-0.5-7.2c-0.6-5.7-1-11.3-1.2-17.1c-0.2-5.9-0.1-11.7,0.2-17.6c0.1-1.5,0.1-3,0.2-4.5c0.4-4.8,0.8-9.6,1.3-14.3
		c0.2-2.2,0.6-4.6,0.8-6.8c0,1.5,0.1,3,0.1,4.5c-0.1,0.7-0.1,1.3,0,2c0,2.4,0,4.8,0,7.2c-0.1,0.6-0.1,1,0,1.6c0,0.1,0,0.1-0.1,0.2
		c-0.1,0.2-0.2,0.4-0.2,0.6c-0.3,5.7-0.7,11.3-0.8,17.1c-0.1,3.5,0,7,0.1,10.6c0.1,3.7,0.4,7.2,0.6,10.9c0.1,1,0,2.1,0.4,3.1
		c0,2.8,0.1,5.5,0.1,8.3C431.5,594.7,431.5,594.7,431.5,594.8z"/>
	<path class="st7" d="M671.1,542c0.1,0.4,0.1,0.7,0,1c-0.8,0.4-1.5,0.9-1.9,1.8c-1.5,1.3-2.1,3.1-2.1,4.9
		c-0.1,5.3-0.1,10.6-0.1,15.9c0,0.4,0,0.7,0.5,0.7c0.7,0.2,1.2,0.7,1.7,1.2c0.6,1.1,0.6,2.3,0,3.5c-0.6,0.5-1,0.9-1.8,1.2
		c-3.1,0.6-4.5-2.1-3.8-4c0.2-0.7,0.7-1.1,1.1-1.6c0.4-0.4,1.4-0.1,1.4-1c0-3.1,0-6.1-0.1-9.2c0-0.2,0-0.3,0-0.5
		c0.1-2.4,0.1-5,0.2-7.4c0.4-1.3,0.8-2.6,1.5-3.8C668.8,543.7,669.7,542.6,671.1,542z M664.5,569.4c0,1.3,0.8,2.1,2.2,2.1
		c1.1,0,2-0.9,2-2.2c0-1.2-0.8-2-2.1-2C665.3,567.3,664.5,568.2,664.5,569.4z"/>
	<path class="st9" d="M664.1,520.4c0.4,0.5,0.8,0.8,1.1,1.4c0.1,0.2,0.1,0.6,0.5,0.6c0.4,0,0.3-0.4,0.5-0.6c0.7-1.4,2-2,3.3-1.5
		c1,0.4,1.8,1.4,1.7,2.5c-0.1,1.1-0.8,2.2-1.9,2.4c-1.1,0.3-2.3-0.2-2.9-1.1c-0.7-1-0.7-1-1.3,0.1c-0.7,0.9-1.6,1.2-2.6,1.2
		c-1.7-0.6-2.5-2-2.1-3.4C660.7,520.4,662.1,519.9,664.1,520.4z M663.8,521.3c-0.7-0.7-1.3-0.6-2-0.1s-0.9,1.1-0.8,2
		c0.2,0.9,0.7,1.4,1.7,1.5s1.6-0.5,1.9-1.3C664.7,522.6,664.6,521.8,663.8,521.3z M670.4,522.8c0-0.9-0.9-1.9-1.9-1.9
		c-1,0-1.9,0.9-1.9,2c0,1,0.9,1.8,2,1.8C669.5,524.6,670.4,523.8,670.4,522.8z"/>
	<path class="st10" d="M630.2,610.3c-2,0-3.9,0-5.9,0c-0.3-0.6-0.5-1.2-0.6-1.9c2.2,0,4.2,0,6.4,0
		C630.1,608.9,630.1,609.6,630.2,610.3z"/>
	<g id="hardboard_00000086689706814216437650000007808307668475012745_">
		<path id="hardboard" class="st7" d="M652.7,552.9c0.7,1,0.6,2.3,0.9,3.5c0,0.2,0,0.4,0,0.6c1.2,5.8,2.4,11.6,3.7,17.4
			c-0.6,0-1.1,0-1.7,0c-1.3,0.1-2.2,1-2.3,2.2c-0.1,1.2,0.7,2.3,2,2.5c0.7,0.2,1.5,0.3,2.3,0.4c0.5,0.1,0.8,0.2,1,0.7
			c0.2,0.8,0.3,1.7,0.5,2.5s-0.1,1.2-0.8,1.3c-6.4,0-12.7-0.1-19.1-0.1c-0.9,0-1.3-0.3-1.5-1.2c-2-9.6-3.9-19-6-28.5
			c-0.2-1,0.1-1.3,1.1-1.3c1.5,0,2.9,0,4.4-0.1c3.6,0,7,0,10.6,0c1.6,0,3.2,0,4.7,0C652.5,552.9,652.6,552.9,652.7,552.9z"/>
		<path id="hardboard_clip" class="st11" d="M647.7,552.9c-3.6,0-7,0-10.6,0c0-0.4,0.2-0.5,0.6-0.5c0.5,0,0.8,0,1.3,0
			c0.7,0,1,0,1.3-0.2c0.3-0.4-0.1-0.7,0.1-1.3c0.3-0.6,1.1-0.9,1.9-0.8c0.8,0.2,1.3,1.1,1.4,1.2c0.2,0.4,0.2,0.7,0.5,1
			c0.2,0.1,0.4,0.2,0.7,0.2c0.7,0,1.3,0,1.9,0C647.1,552.5,647.5,552.5,647.7,552.9z M641.4,551.9c0.1,0.3,0.4,0.4,0.7,0.4
			c0.3,0,0.6-0.1,0.7-0.4c0.1-0.3-0.2-0.6-0.5-0.7c-0.3-0.1-0.6,0-0.7,0.2C641.3,551.7,641.4,551.9,641.4,551.9z"/>
	</g>
	<path class="st12" d="M611.8,529.3c1-1,1.3-2.4,2-3.7c0.3-0.6,0.2-1.3,1-1.5c0.4,0.2,0.7,0.4,1.1,0.6c-0.8,2-1.6,3.9-2.6,5.8
		C612.7,530.2,612.3,529.8,611.8,529.3z"/>
	<path class="st7" d="M685.4,545.9c0.3,0.7,0.7,1.5,0.9,2.8c0.1,0.5,0.2,1,0.2,1.8c-0.3,0-0.6,0-0.8,0c-0.1-1.4-0.4-3.6-1.9-5.4
		c-0.2-0.3-0.5-0.5-0.7-0.7c0-0.5-0.1-0.8-0.1-1.3c0.2,0.2,0.5,0.4,0.7,0.7c0.3,0.2,0.7,0.6,1,1.1
		C685,545.1,685.2,545.3,685.4,545.9z"/>
	<path class="st13" d="M434.8,654c0.3,0,0.7,0,0.9,0C435.4,654.2,435.1,654.2,434.8,654z"/>
	<path class="st2" d="M699.9,548.7c-0.1-0.1-0.2-0.2-0.3-0.2C699.7,548.5,699.8,548.6,699.9,548.7z"/>
	<path class="st9" d="M683.1,542.5L683.1,542.5L683.1,542.5z"/>
	<path class="st14" d="M553.9,564.1c0,0.8,0,1.7,0,2.4c0,19.3,0,38.5,0,57.8c0,2.8-0.9,3.7-3.7,3.7c-32.6,0-65.3,0-97.9,0
		c-0.4,0-0.7,0-1,0c-2.1,0-3.2-1.1-3.2-3.2c0-31.9,0-63.7,0-95.6c0-0.5,0.1-0.8,0.2-1.3c1.2-3.6,2.6-7.1,5.2-9.9
		c2.9-3.2,6.5-4.3,10.6-2.9c3.4,1.1,5.3,3.7,6.9,6.7c2.8,5.2,4,10.9,5.2,16.7c0.1,0.6-0.1,0.9-0.5,1.3c-2.8,3.4-5.6,6.7-8.4,10.1
		c-0.3,0.3-1,0.7-0.3,1.2c0.7,0.7,0.9-0.2,1.2-0.5c1.7-2,3.3-3.9,4.9-5.8c1-1.3,2.2-2.5,3.2-3.8c0.4,0.3,0.3,0.7,0.4,0.9
		c1,6.5,1.7,13,2.3,19.6c0.8,8.3,1.4,16.7,2.7,24.9c0.7,4.6,1.4,9.2,3.3,13.4c0.7,1.6,1.4,3.1,2.6,4.3c1.2,1.2,2.6,1.9,4.3,1.8
		c0.3,0.8,0.7,1.7,0.9,2.5c0.2,0.6,0.5,0.8,1,0.7c0.7-0.2,0.6-0.7,0.5-1.2c-0.2-0.7-0.5-1.4-0.7-2.2c4.7-1.1,7.8-4.3,10.2-8.2
		c3.4-5.4,5.3-11.5,7-17.7c2.2-8.2,3.8-16.7,5.2-25.2c1.4-9.4,2.8-18.8,4.3-28.2c0,0.5,0.1,1,0.1,1.5c0,5.3,0,10.7,0,15.9
		c0,0.7,0.2,1.2,0.7,1.8c1.9,1.8,3.7,3.7,5.5,5.4c0.5,0.5,1,0.7,1.7,0.7c5,0,9.9,0,14.8,0c0.7,0,1.2,0.2,1.5,1
		c0.7,1.9,1.3,3.8,2.1,5.7c0.9,2.5,2.6,4.4,5.2,5.2c0,0.6-0.1,1-0.1,1.6c0,19,0,38.1,0,57.1c0,0.6-0.5,1.5,0.6,1.5
		c1,0,0.6-0.9,0.6-1.5c0-18.9,0-37.8,0-56.7c0-0.6,0-1.2,0-1.8C553.3,564,553.6,564,553.9,564.1z M521.8,604.4c0,3.7,0,7.6,0,11.3
		c0,2.8,3,4.4,5.4,3c1.3-0.7,1.7-2,1.7-3.5c0-7.3,0-14.7,0-22c0-0.5-0.1-1,0.5-1.4c0.5-0.2,0.6-0.7,0.4-1.2
		c-0.2-0.6-0.6-0.7-1.1-0.7c-0.8,0-1.7,0-2.4,0c-0.5,0-0.7-0.2-0.7-0.7c0-1.4,0-2.8,0-4.1c0-1,0.7-1.6,1.6-1.6c2.4,0,4.9,0,7.3,0
		c1,0,1.6,0.7,1.6,1.6c0,1.3,0,2.7,0,4c0,0.5-0.2,0.7-0.7,0.7c-0.8,0-1.7,0-2.6,0c-0.5,0-0.7,0.3-0.9,0.7c-0.2,0.5-0.1,0.9,0.3,1.1
		c0.7,0.4,0.7,1,0.7,1.7c0,7.1,0,14.2,0,21.4c0,0.5,0,0.9,0,1.3c0.2,1.8,1.7,3.1,3.5,3.1c1.8,0.1,3.3-1.2,3.6-2.9
		c0.1-0.5,0.1-1,0.1-1.6c0-7.2,0-14.4,0-21.7c0-0.5,0-0.8,0.5-1.1c0.5-0.3,0.7-0.7,0.4-1.3c-0.2-0.6-0.7-0.7-1.2-0.7
		c-0.7,0-1.5-0.1-2.2,0c-0.7,0-0.9-0.3-0.8-0.9c0-1.3,0-2.5,0-3.8c0-1.4-0.7-2.1-2-2.1c-2.4,0-4.9,0-7.3,0c-1.4,0-2,0.7-2.1,2.2
		c0,1.2-0.1,2.4,0,3.7c0,0.7-0.3,0.9-0.9,0.9c-0.7,0-1.6,0-2.3,0c-0.5,0-0.7,0.2-0.9,0.7c-0.2,0.5-0.2,0.9,0.3,1.2
		c0.7,0.4,0.7,0.8,0.7,1.4C521.8,597,521.8,600.7,521.8,604.4z M461.2,553.9c-1.7,0-3.5,0-5.2,0c-2,0-2,0-2,2c0,0.8,0.3,1,1.1,1
		c3.7,0,7.5,0,11.2,0c2.1,0,2,0,2.1-2c0-0.8-0.3-1-1-0.9C465.3,553.9,463.2,553.9,461.2,553.9z M458.2,612.6c-2.4,0-2.4,0-2.4,2.4
		v0.1c0,2.4,0,2.4,2.4,2.4c2.5,0,2.5,0,2.5-2.5C460.6,612.6,460.6,612.6,458.2,612.6z M458.1,599.1c2.5,0,2.5,0,2.5-2.5
		c0-2.4,0-2.4-2.5-2.4c-2.5,0-2.5,0-2.5,2.5C455.6,599.1,455.6,599.1,458.1,599.1z M460.6,605.9c0-2.5,0-2.5-2.4-2.5
		c-2.5,0-2.5,0-2.5,2.5c0,2.4,0,2.4,2.4,2.4C460.6,608.3,460.6,608.3,460.6,605.9z M473.4,596.5c-0.1-0.9-0.6-1.4-1.5-1.4
		c-0.7,0-1.5,0.7-1.4,1.5c0.1,0.8,0.6,1.4,1.5,1.3C473,597.9,473.4,597.3,473.4,596.5z M472.1,616.4c0.8-0.1,1.3-0.6,1.3-1.4
		c0-0.8-0.6-1.4-1.4-1.4c-0.9,0-1.4,0.6-1.4,1.4C470.6,615.9,471.2,616.4,472.1,616.4z M465.4,607.2c0.9,0,1.5-0.5,1.5-1.3
		c0-0.8-0.5-1.4-1.3-1.4c-0.9-0.1-1.4,0.5-1.5,1.3C464.1,606.6,464.5,607.1,465.4,607.2z M465.4,598c0.9,0,1.4-0.6,1.5-1.4
		c0-0.8-0.6-1.4-1.4-1.4c-0.7-0.1-1.5,0.6-1.4,1.4C464.1,597.3,464.5,597.9,465.4,598z M480,596.6c0-0.8-0.7-1.5-1.4-1.4
		c-0.8,0.1-1.4,0.6-1.3,1.5c0,0.8,0.6,1.4,1.4,1.3C479.5,597.9,480,597.3,480,596.6z M472.1,604.4c-0.9,0-1.4,0.6-1.4,1.4
		s0.5,1.4,1.4,1.4c0.8,0,1.4-0.5,1.4-1.4C473.4,604.9,472.9,604.4,472.1,604.4z M465.7,616.4c0.7-0.1,1.2-0.7,1.2-1.4
		c0-0.8-0.6-1.3-1.5-1.3c-0.7,0-1.4,0.7-1.3,1.4C464.2,616,464.6,616.4,465.7,616.4z M480,615.1c0-0.9-0.6-1.4-1.4-1.4
		s-1.4,0.6-1.4,1.4c0,0.8,0.5,1.3,1.3,1.3C479.4,616.4,479.9,616,480,615.1z"/>
	<path class="st14" d="M448,390.2c0-9.7,0-19.6,0-29.3c0-1.9,1.1-3,3-3c33.3,0,66.5,0,99.8,0c1.8,0,3,1.2,3.1,3c0,0.3,0,0.6,0,0.9
		c0,60.8,0,121.6,0,182.4c0,0.8,0,1.7,0,2.6c-0.5-0.5-0.7-1-0.9-1.7c0-0.6,0.1-1.2,0.1-1.8c0-60.3,0-120.7,0-181c0-0.4,0-0.7,0-1.1
		c-0.1-1.2-0.7-2.2-1.9-2.6c-0.7-0.3-1.2,0-1.9,0c-31.9,0-63.8,0-95.7,0c-0.4,0-0.7,0-1,0c-0.3,0-0.7,0.1-0.7,0.5s0.3,0.6,0.7,0.7
		c0.4,0,0.8,0,1.2,0c32,0,64.1,0,96.1,0c1.6,0,2,0.4,2.1,2c0,0.4,0,0.7,0,1c0,57.8,0,115.6,0,173.4c0,1.7,0.1,3.4,0.1,5.1
		c0,0.6,0.1,1.1-0.4,1.6c-1.3-2.4-2.6-4.9-4-7.3c-0.5-0.7-0.7-1.6-0.7-2.4c0-5.8,0-11.7,0-17.5c0-0.9-0.2-1.2-1.2-1.2
		c-7.5,0-14.9,0-22.4,0.1c-1,0-1.2-0.3-0.9-1.2c0.8-3.7,1.5-7.5,3.4-10.9c1.4-2.7,3.2-5.2,4.7-7.9c7.6-13.2,12.5-27.4,13.8-42.6
		c1.2-13.9-0.4-27.4-6.3-40.2c-3-6.5-6.9-12.2-12.2-17c-0.2-0.2-0.4-0.2-0.6-0.3c0.5-0.6,0.7-0.4,1.1-0.4c4.5,0,8.9,0,13.4,0
		c0.5,0,1,0.2,1-0.7c0-0.8-0.6-0.7-1-0.7c-5.1,0-10.2,0-15.3,0c-0.8,0-1.4-0.2-2-0.8c0.4-0.3,0.7-0.1,1.1-0.1c5.3,0,10.7,0,16.1,0
		c0.5,0,1,0.3,1-0.6c0-0.8-0.6-0.7-1.1-0.7c-5.8,0-11.6-0.1-17.4,0c-1.4,0-2.4-0.3-3.7-0.9c-6.3-3.6-13.1-4.6-20.2-4
		c-7.3,0.6-14.4,2.3-21.5,4.1c-6.9,1.7-14,2.6-21.2,1.9C453.2,391.1,450.6,390.8,448,390.2z M524.7,364.1c-1,0-2.1,0-3,0
		c-0.7,0-0.8,0.2-0.8,0.8c0,2,0,3.9,0,5.9c0,0.6,0.1,0.8,0.8,0.8c2.1,0,4,0,6.1,0c0.6,0,0.7-0.2,0.7-0.7c0-2.1,0-4,0-6.1
		c0-0.7-0.3-0.8-0.8-0.8C526.6,364.1,525.7,364.1,524.7,364.1z M537.4,368.1c0-1,0-2.1,0-3.1c0-0.6-0.2-0.7-0.7-0.7
		c-2.1,0-4,0-6.1,0c-0.6,0-0.7,0.2-0.7,0.7c0,2.1,0,4.1,0,6.2c0,0.6,0.2,0.7,0.7,0.7c2,0,3.9,0,5.9,0c0.7,0,0.8-0.3,0.8-0.9
		C537.3,370,537.4,369,537.4,368.1z M542.6,371.7L542.6,371.7c0.9,0,2,0,2.9,0c0.7,0,0.9-0.2,0.9-0.8c0-2,0-3.8,0-5.8
		c0-0.7-0.2-0.9-0.8-0.9c-2,0-3.8,0-5.8,0c-0.7,0-0.9,0.2-0.9,0.9c0,2,0,3.8,0,5.8c0,0.7,0.3,0.9,1,0.9
		C540.7,371.7,541.6,371.7,542.6,371.7z M531,385.1L531,385.1c-3,0-6,0-9,0c-0.5,0-1-0.2-1.1,0.7c0,0.8,0.6,0.7,1,0.7c6,0,12,0,18,0
		c0.6,0,1,0.1,1-0.7c0-0.7-0.6-0.7-1-0.7C536.9,385.1,533.9,385.1,531,385.1z M531,375.5c-3.1,0-6.2,0-9.2,0c-0.6,0-0.9,0-0.9,0.7
		s0.5,0.7,0.9,0.7c6,0,12.1,0,18.1,0c0.5,0,0.9,0.1,0.9-0.7c0-0.7-0.5-0.7-0.9-0.7C537,375.5,534,375.5,531,375.5z M530.9,384.2
		L530.9,384.2c3,0,6.1,0,9.1,0c0.5,0,0.9,0.1,0.9-0.6c0-0.7-0.5-0.7-0.9-0.7c-6,0-12.1,0-18.1,0c-0.5,0-0.9-0.1-0.9,0.7
		c0,0.7,0.5,0.7,0.9,0.7C524.9,384.2,527.9,384.2,530.9,384.2z M531,377.7c-3,0-6.1,0-9.1,0c-0.5,0-1-0.2-1,0.7s0.6,0.7,1,0.7
		c6,0,12,0,18,0c0.5,0,1,0.1,0.9-0.7c0-0.7-0.6-0.6-0.9-0.6C537,377.7,534,377.7,531,377.7z"/>
	<path class="st15" d="M448,445c0-10.5,0-21,0-31.5c2.6,0.6,5.3,1.1,8,1.8c3.7,0.8,7.3,0.7,10.9-0.2c5.2-1.2,10.2-2.6,15.5-3.4
		c4.9-0.7,9.6-1,14.4,0.5c7.6,2.4,12.8,7.3,15.6,14.9c2.7,7.4,3.7,15,3.3,22.9c-0.3,5.2-1.2,10.3-2.4,15.4
		c-1.9,7.5-4.5,14.7-7.1,21.9c-1.4,3.9-2.9,7.9-3.9,11.9c-0.8,3-0.7,5.9-0.3,8.9c0.2,1.2,0.3,2.5,0.4,3.7c0.6,9.2,0.7,18.4,0.4,27.5
		c-0.1,5.7-0.4,11.3-0.8,17.1c-0.8,10.1-2,20.1-4.4,30c-0.7,2.5-1.4,5.2-2.4,7.6c-0.4,1-0.9,2-2.1,2.4c-0.1-0.7,0.2-1.2,0.2-1.9
		c0.5-2,0.9-4,1.3-6c1-5.2,1.4-10.4,1.7-15.7c0.4-7.2,0.5-14.5,0.3-21.7c-0.2-9.3-0.6-18.6-1.2-27.9c-0.4-4.4-0.7-8.9-1.2-13.3
		c-0.4-2.7-1.1-5.3-1.2-8.1c-0.2-3.9,0.5-7.8,1.2-11.6c1.8-8.7,4.2-17.2,5.3-26c0.6-4.5,0.8-8.9-0.1-13.4c-1.2-5.9-4.6-8.7-10.7-8.6
		c-3.1,0-6,0.8-8.9,1.6c-2.1,0.5-3.9,1.3-6.1,1.6c1.3-2.1,2.6-4,3.9-6.1c1.5-2.2,3-4.5,4.6-6.8c0.4-0.5,0.4-0.9-0.2-1.2
		c-0.6-0.4-0.7,0.1-1,0.5c-1.2,1.9-2.4,3.7-3.7,5.5c-2,3-4,5.9-6,8.9c-5.2,1.4-10.4,2.1-15.7,0.8C453,446.2,450.5,445.7,448,445z
		 M496.9,429.2c3.8,0,7.7,0,11.5,0c1.8,0,1.7,0,1.8-1.8c0-0.8-0.2-1.2-1.1-1.2c-8.1,0-16.2,0.1-24.3,0c-1.3,0-1.2,0.7-1.2,1.6
		c0,0.9,0.1,1.4,1.2,1.4C488.8,429.1,492.8,429.2,496.9,429.2z M490.8,433.8c2.1,0,4,0,6.1,0c0.9,0,1.2-0.3,1.1-1.1
		c0-0.2,0-0.5,0-0.7c0.1-0.9-0.3-1.1-1.1-1.1c-4,0-8.1,0.1-12.2,0c-1,0-1.1,0.5-1.1,1.3c0.1,0.7-0.3,1.7,1.1,1.7
		C486.7,433.8,488.7,433.8,490.8,433.8z"/>
	<path class="st14" d="M538.3,533.6c-4.1,0-8.2,0-12.4,0c-0.4,0-0.8-0.2-0.9,0.3c-0.2,0.7,0,1,0.8,1c3.6,0,7,0,10.6,0
		c2.2,0,2.2,0,2.7,2.3c-2.2,0-4.2,0-6.3,0c-2.3,0-4.7,0-7.1,0c-0.5,0-0.7,0-0.8,0.7c0,0.7,0.4,0.7,0.7,0.7c4.3,0,8.5,0,12.8,0
		c0.8,0,1.2,0.2,1.5,1c1.1,3.4,2.3,6.7,3.7,10.1c0.3,0.8,0.2,1.1-0.7,1c-4.8,0-9.6,0-14.2,0c-0.7,0-1-0.3-1-1c0.1-1.3-0.1-2.6,0-3.9
		c0.1-1-0.3-1.3-1.3-1.2c-1.3,0.1-2.7,0-4,0c-0.7,0-0.9-0.2-0.9-0.9c0-8.1,0-16.2,0-24.3c0-1.2,0.4-2.5,0.6-3.7
		c0.1-0.6,0.5-0.6,0.8-0.6c1.2,0,2.4,0,3.6,0c6.2,0,12.5,0,18.6,0c0.5,0,1-0.2,1,0.7c0,5.4,0,10.9,0,16.5c-0.5-0.4-0.7-1.1-1.3-0.7
		c-0.3-0.5-0.6-0.9-0.8-1.4c-0.7-1.3-1.2-2.7-2.1-3.9c-1.7-2.4-4.1-2.3-5.5,0.2c-3.6,0-7,0-10.6,0c-0.4,0-0.9-0.2-0.9,0.6
		c0,0.8,0.5,0.7,0.9,0.7c3.5,0,6.9,0,10.3,0c0.3,0.7,0.6,1.5,0.7,2.3c-3.7,0-7.5,0-11.3,0c-0.5,0-0.7,0-0.7,0.7
		c0,0.6,0.3,0.7,0.7,0.7c3.9,0,7.9,0,11.7,0c0.3,0.6,0.6,1,0.8,1.6C538.3,533.2,538.3,533.4,538.3,533.6z M533.9,522.8
		c-2.7,0-5.3,0-8.1,0c-0.5,0-0.9-0.1-0.9,0.7c0,0.7,0.4,0.7,0.8,0.7c5.3,0,10.7,0,16,0c0.5,0,1,0.1,0.9-0.7c0-0.7-0.5-0.6-0.9-0.6
		C539.1,522.8,536.5,522.8,533.9,522.8z M533.7,520.5c2.7,0,5.3,0,8.1,0c0.4,0,0.9,0.2,0.9-0.6s-0.5-0.7-0.9-0.7c-5.3,0-10.7,0-16,0
		c-0.5,0-0.9-0.1-0.8,0.7c0,0.7,0.5,0.6,0.8,0.6C528.4,520.5,531,520.5,533.7,520.5z M530.8,542.2c1.8,0,3.6,0,5.2,0
		c0.4,0,0.8,0.1,0.8-0.6c0-0.7-0.4-0.7-0.8-0.7c-3.5,0-6.9,0-10.4,0c-0.5,0-0.7,0.1-0.7,0.7c0,0.7,0.3,0.7,0.7,0.7
		C527.3,542.1,529.1,542.2,530.8,542.2z"/>
	<path class="st8" d="M493,594.6c0,0.7-0.3,1.2-0.2,1.9c-0.5,3.2-0.1,6.3,0.9,9.3c0.2,0.7,0.5,1.4,0.7,2.2c0.1,0.5,0.2,1-0.5,1.2
		c-0.6,0.2-0.9-0.1-1-0.7c-0.3-0.8-0.7-1.7-0.9-2.5c-0.2-1.3-0.8-2.6-0.8-3.9c0.1-0.4,0.1-0.7-0.2-0.9c0-0.1,0-0.1,0-0.2
		c0.2-0.3,0.3-0.5-0.1-0.7l0,0c0.1-1.8,0.2-3.5,0.4-5.2c0.4-3.8,0.7-7.7,1-11.5c0.3-2.9,0.4-5.8,0.6-8.7c0.3-5.4,0.3-10.8,0.1-16.2
		c-0.2-5.2-0.6-10.5-1-15.7c-0.4-3.8-0.7-7.8-1.2-11.6c-0.5-4.3-1-8.5-1.6-12.7c-0.8-5.6-1.7-11.3-2.6-17
		c-0.8-5.2-2.3-10.3-4.3-15.2c-0.6-1.5-1.6-2.2-3.1-2.7c-0.6-0.2-1.1-0.3-1.6-0.4c-1.8-0.4-3.7-0.5-5.3-1.1
		c-1.8-0.6-3.1-1.7-3.2-3.7c-0.1-1.3,0-2.6,0-3.9c0-0.6,0.3-1,0.9-1c0.7,0,0.7,0.6,0.7,1.1c0,1.3,0,2.6,0.2,3.9
		c0.1,1,0.7,1.7,1.6,2.1c2.2,0.8,4.4,0.8,6.6,1.4c0.3,0.1,0.7,0.5,1,0c0.2-0.3-0.1-0.7-0.3-0.9c-2.2-3.7-4.7-6.9-8.2-9.4
		c-5.2-3.6-10.8-4.1-16.6-1.5c-2.5,1.1-4.7,2.9-6.7,4.9c0-1,0-2.1,0-3.2c0.5,0.3,0.9,0.2,1.3-0.2c1.3-1.3,3-2.2,4.5-3.2
		c1.9-1.4,3-3.2,3-5.6c-0.1-2.1,0-4.2,0-6.3c0-0.5,0.1-0.9,0.7-0.9c0.6,0,0.8,0.3,0.8,0.8c-0.2,3.7,0.7,7.3-0.9,11
		c2.2-0.5,4.5-0.6,6.7-0.3c1.7,0.2,1.7,0.1,1.2-1.5c-0.8-2.9-0.3-5.8-0.4-8.7c0-0.6-0.1-1.2,0.7-1.2c0.8,0,0.7,0.7,0.7,1.2
		c0,2.1,0,4.2,0,6.3c0.1,1.9,0.7,3.6,2.3,4.8c1.8,1.3,3.7,2.4,5.3,3.8c0.4,0.4,0.7,0.3,1.2,0c1.4-0.8,1.9-2.2,1.9-3.7
		c0-3.7,0.3-7.3-0.2-11c-0.5-3.4-1.8-4.8-4.7-4.5c-1.2,0.1-2.4,0-3.6,0c-0.6,0-1-0.2-1-0.7c0-0.6,0.5-0.8,0.9-0.8
		c0.1,0,0.2,0,0.4-0.1c0.2,0,0.4,0,0.6,0c1.1,0,2.2,0,3.3,0c2.9,0,4.2,0.8,5.2,3.5c0.3,0.7,0.5,0.7,0.9,0.1c1.8-2.2,4.1-3.6,6.9-3.8
		c3-0.4,5.9-0.1,8.9-0.2c0.6,0,1.1,0.1,1.1,0.8c0,0.7-0.7,0.7-1.1,0.7c-2.2,0-4.5-0.1-6.7,0c-3.1,0.1-5.7,1-7.8,3.6
		c-1.6,2-1.5,4.2-1.4,6.6c0,0.7,0.5,0.3,0.7,0.1c1.5-1,3.1-1.5,5-1.5c2.2,0.1,4.5,0,6.7,0c1.4,0,2.8,0,4.3,0c0.6,0,0.8,0.2,0.8,0.7
		c0,0.6-0.4,0.7-0.8,0.7c-0.3,0-0.6,0-0.7,0c-3.5,0-6.9,0-10.5,0c-1.3,0-2.5,0.4-3.6,1.1c-1.5,1-1.9,2.6-1.9,4.3
		c0,1.8-0.3,3.6-1.9,4.7c-0.9,0.7-0.7,1-0.1,1.8c1.7,1.9,3.1,3.9,4.3,6.1c1.4,2.5,2.6,5.2,3.6,7.9c0.1,0.2,0.1,0.6,0.5,0.6
		c0.1,0,0.3-0.2,0.4-0.4c0.6-1.4,1.6-2.4,2.6-3.5c0.9-0.9,2.1-1.8,2.6-3.1c1.3-2.9,1.2-4.1-1.6-5c-0.2-0.1-0.5-0.2-0.7-0.2
		c-3.7-1.4-6.2-5.2-5.7-9.1c0.1-0.5,0.1-1,0.7-1.1c0.7,0,0.7,0.5,0.8,0.9c0,0.4,0.1,0.7,0.1,1c0.2,3.3,1.6,5.6,4.8,6.7
		c2.2,0.7,2.2,0.8,2.2-1.6c0-1.1,0-2.3,0-3.5c0-0.5,0.2-1,0.8-1s0.7,0.5,0.8,1c0,0.3,0,0.6,0,0.7c0,1.6-0.1,3.2,0,4.7
		c0.5,4.4-0.9,8.1-4.5,10.9c-2.2,1.8-2.7,4.5-2.2,7.2c1,4.8,2,9.6,2.6,14.4c0.6,4.4,1.3,8.8,1.9,13.2c0.7,6.3,1.6,12.6,2.2,18.8
		c0.6,5.8,1,11.6,1.2,17.4c0.2,7,0.2,14-0.2,21c-0.1,2.1-0.4,4.1-0.6,6.2C493.5,588.1,493.3,591.3,493,594.6z"/>
	<path class="st6" d="M551.7,542.7c0.5-0.5,0.4-1,0.4-1.6c0-1.7-0.1-3.4-0.1-5.1c0-57.8,0-115.6,0-173.4c0-0.4,0-0.7,0-1
		c-0.1-1.6-0.5-2-2.1-2c-32,0-64.1,0-96.1,0c-0.4,0-0.8,0-1.2,0s-0.7-0.2-0.7-0.7c0-0.4,0.3-0.5,0.7-0.5c0.4,0,0.7,0,1,0
		c31.9,0,63.8,0,95.7,0c0.7,0,1.2-0.2,1.9,0c1.2,0.5,1.8,1.3,1.9,2.6c0,0.4,0,0.7,0,1.1c0,60.3,0,120.7,0,181c0,0.6,0,1.2-0.1,1.8
		C552.5,544.2,552.1,543.5,551.7,542.7z"/>
	<path class="st5" d="M504.6,388.9c-1.5,0.3-3,0.5-4.5,0.7c-2.3,0.4-4.6,1.2-6.9,1.9c-3.8,1.1-7.6,2.5-11.3,3.8
		c-5.4,1.9-11,3.7-16.7,4.9c-1.3,0.3-2.6,0.4-4,0.4c-2.6,0.1-3.9-1.9-3.9-3.3c-0.1-2,1.7-3.5,4-3.5c3.8,0,7.6-0.4,11.3-1
		c4.6-0.8,9.2-2.1,13.8-3.1c4.2-0.9,8.4-1.9,12.8-1.9C501.1,387.8,502.9,388.1,504.6,388.9z"/>
	<path class="st6" d="M553.1,564c0,0.6,0,1.2,0,1.8c0,18.9,0,37.8,0,56.7c0,0.6,0.5,1.5-0.6,1.5c-0.9,0-0.6-1-0.6-1.5
		c0-19,0-38.1,0-57.1c0-0.6,0-1,0.1-1.6c0.2,0.1,0.5,0.1,0.7,0.2C552.8,563.9,552.9,564,553.1,564L553.1,564z"/>
	<path class="st10" d="M543.9,530.2c0.3,0.5,0.6,0.9,0.8,1.4c-1.9,0.8-3.7,1.6-5.5,2.5c-0.6,0.3-0.7-0.1-0.9-0.5
		c0-0.3-0.1-0.6-0.1-0.7C540.1,532,542,531.1,543.9,530.2z"/>
	<path class="st16" d="M553.1,564c-0.2-0.1-0.3-0.1-0.5-0.2C552.8,563.8,553,563.8,553.1,564z"/>
	<path class="st15" d="M448,511c0-7,0-14.1,0-21.1c1.2-1.8,2.3-3.7,3.8-5.2c2.6-2.9,5.7-5,9.8-4.9c3.5,0,6.2,1.6,8.5,3.9
		c3.7,3.6,5.9,8.1,7.9,12.7c3.7,8.8,5.8,18.1,7.5,27.4c1.6,9,2.8,18,3.7,27c0.7,7.4,1.1,14.8,1.5,22.2c0.4,8,0.1,15.8-0.3,23.8
		c-2-0.6-2.6-2.2-3.1-3.9c-0.7-2.4-0.6-4.9-0.7-7.3c-0.2-2.9-0.3-5.7-0.5-8.6c-0.4-5.1-0.7-10.1-1.1-15.2c-0.3-3.5-0.7-6.9-1-10.4
		c-0.4-2.9-0.7-5.8-1.2-8.8c-0.5-3.7-1.2-7.5-2-11.1c-1-4.6-2.2-9.1-3.8-13.5c-1.7-4.4-3.7-8.7-6.8-12.3c-5.2-5.8-12.5-6-18-0.6
		C450.6,506.9,449.4,509,448,511z"/>
	<path class="st4" d="M448,511c1.3-2,2.5-4,4.2-5.7c5.5-5.4,12.7-5.2,18,0.6c3.2,3.6,5.2,7.9,6.8,12.3c1.7,4.4,2.8,8.9,3.8,13.5
		c0.8,3.7,1.5,7.4,2,11.1c0.4,2.9,0.8,5.8,1.2,8.8c0.4,3.5,0.7,6.9,1,10.4c0.4,5.1,0.7,10.1,1.1,15.2c0.2,2.9,0.3,5.7,0.5,8.6
		c0.1,2.4,0.1,5,0.7,7.3c0.5,1.8,1.2,3.3,3.1,3.9c0,1.1-0.1,2.2,0.4,3.2l0,0c-0.1,0.3,0,0.5,0.1,0.7c0,0.1,0,0.1,0,0.2
		c0,0.4,0,0.7,0.2,0.9c0,1.4,0.7,2.6,0.8,3.9c-1.7,0.1-3.1-0.6-4.3-1.8c-1.2-1.2-2-2.7-2.6-4.3c-1.9-4.3-2.5-8.9-3.3-13.4
		c-1.3-8.2-2-16.6-2.7-24.9c-0.7-6.6-1.3-13.1-2.3-19.6c0-0.3,0-0.6-0.4-0.9c-1.1,1.3-2.2,2.5-3.2,3.8c-1.6,2-3.3,3.9-4.9,5.8
		c-0.3,0.4-0.5,1.2-1.2,0.5c-0.7-0.7,0-0.9,0.3-1.2c2.8-3.4,5.6-6.7,8.4-10.1c0.3-0.4,0.6-0.7,0.5-1.3c-1.1-5.7-2.3-11.4-5.2-16.7
		c-1.6-3-3.7-5.6-6.9-6.7c-4.1-1.4-7.7-0.2-10.6,2.9c-2.6,2.8-4,6.4-5.2,9.9c-0.2-0.3-0.2-0.6-0.2-0.8C448,521.7,448,516.4,448,511z
		"/>
	<path class="st10" d="M491,600c-0.5-1-0.4-2.1-0.4-3.2c0.4-8,0.7-15.8,0.3-23.8c-0.4-7.4-0.8-14.8-1.5-22.2c-0.8-9.1-2-18.1-3.7-27
		c-1.7-9.4-3.8-18.6-7.5-27.4c-1.9-4.7-4.2-9.1-7.9-12.7c-2.3-2.3-5.2-3.9-8.5-3.9c-4.1,0-7.2,2-9.8,4.9c-1.5,1.6-2.6,3.5-3.8,5.2
		c0-2.4,0-4.8,0-7.2c1.4-0.1,2.8-0.5,4.1-1c1-0.5,2-1.3,2.2-2.4c0.2-1.7,0.1-3.4,0.1-5.1c0-0.5-0.3-0.8-0.7-0.8s-0.7,0.4-0.7,0.8
		c0,0.6,0,1,0,1.6c0.1,3.9,0.3,4.4-4.6,5.4h-0.1c0-2.1,0-4.2,0-6.3c2-2,4.1-3.7,6.7-4.9c5.8-2.6,11.3-2,16.6,1.5
		c3.6,2.3,6.1,5.7,8.2,9.4c0.2,0.3,0.5,0.6,0.3,0.9c-0.3,0.5-0.7,0.1-1,0c-2.2-0.6-4.5-0.6-6.6-1.4c-0.9-0.4-1.5-0.9-1.6-2.1
		c-0.2-1.3-0.1-2.6-0.2-3.9c0-0.5,0-1-0.7-1.1c-0.7,0-0.9,0.5-0.9,1c0,1.3,0,2.6,0,3.9c0.1,2.1,1.4,3.2,3.2,3.7
		c1.8,0.6,3.6,0.7,5.3,1.1c0.6,0.1,1.1,0.2,1.6,0.4c1.4,0.4,2.4,1.1,3.1,2.7c2,5,3.5,9.9,4.3,15.2c0.9,5.6,1.8,11.2,2.6,17
		c0.7,4.2,1.1,8.5,1.6,12.7c0.5,3.8,0.8,7.7,1.2,11.6c0.5,5.2,0.8,10.5,1,15.7c0.2,5.3,0.2,10.8-0.1,16.2c-0.2,2.9-0.3,5.8-0.6,8.7
		c-0.4,3.8-0.7,7.7-1,11.5C491.1,596.5,491,598.3,491,600z"/>
	<path class="st10" d="M469,450.9c-0.1,0-0.2,0.1-0.4,0.1c-0.6,0-1,0.2-0.9,0.8c0,0.6,0.6,0.7,1,0.7c1.2,0,2.4,0.1,3.6,0
		c2.9-0.3,4.2,1.1,4.7,4.5c0.5,3.7,0.2,7.3,0.2,11c0,1.5-0.5,2.8-1.9,3.7c-0.5,0.3-0.8,0.4-1.2,0c-1.7-1.4-3.7-2.5-5.3-3.8
		c-1.6-1.2-2.2-2.9-2.3-4.8c-0.1-2.1,0-4.2,0-6.3c0-0.6,0-1.2-0.7-1.2c-0.8,0-0.8,0.7-0.7,1.2c0.2,2.9-0.4,5.8,0.4,8.7
		c0.5,1.6,0.5,1.7-1.2,1.5c-2.2-0.3-4.4-0.1-6.7,0.3c1.7-3.7,0.7-7.3,0.9-11c0-0.6-0.3-0.8-0.8-0.8s-0.7,0.5-0.7,0.9
		c0,2.1-0.1,4.2,0,6.3c0.1,2.4-1,4.2-3,5.6c-1.5,1-3.1,2-4.5,3.2c-0.4,0.4-0.8,0.5-1.3,0.2c0-6.2,0-12.5,0-18.6
		c0.9-0.5,1.9-0.5,2.8-0.5c1.3,0,2.6,0,3.9,0c0.6,0,0.8-0.2,0.8-0.8c0-0.5-0.3-0.7-0.7-0.7c-2.2,0.1-4.6-0.3-6.8,0.3
		c0-2.1,0-4.1,0-6.2c2.4,0.6,5,1.2,7.4,1.8c5.3,1.3,10.5,0.6,15.7-0.8c-0.7,1.3-1.5,2.4-2.3,3.6C468.5,450.1,468.6,450.5,469,450.9z
		"/>
	<path class="st7" d="M504.6,644.1c-6.6,0-13.2,0-19.8,0c-2.3,0-2.9-0.6-2.9-2.9c0-0.7,0-1.3,0-2.1c0.2-1.2,0.8-1.9,2.1-1.9
		c1,0,2.1,0,3.2,0c12.6,0,25,0,37.6,0c2.2,0,2.7,0.6,2.7,2.7c0,0.6,0,1.1,0,1.7c0,1.7-0.7,2.3-2.4,2.3
		C518.2,644.1,511.4,644.1,504.6,644.1z"/>
	<path class="st2" d="M447.6,347.8c0-3.5,2.8-6.4,6.1-6.4s6,2.9,6,6.5c0,3.5-2.8,6.6-6.1,6.6S447.6,351.5,447.6,347.8z M449.2,347.8
		c0,2.8,2,5.1,4.5,5.1c2.5,0.1,4.7-2.2,4.7-5c0-2.8-2-5-4.6-5C451.1,343,449.2,345,449.2,347.8z"/>
	<path class="st8" d="M448,481.1L448,481.1c5-0.9,4.8-1.5,4.7-5.4c0-0.6,0-1,0-1.6c0-0.5,0.3-0.8,0.7-0.8s0.7,0.4,0.7,0.8
		c0,1.7,0.1,3.4-0.1,5.1c-0.1,1.2-1,2-2.2,2.4c-1.3,0.7-2.7,0.9-4.1,1C448,482.1,448,481.5,448,481.1z"/>
	<path class="st8" d="M448,451.2c2.2-0.5,4.6-0.2,6.8-0.3c0.5,0,0.7,0.3,0.7,0.7c0,0.6-0.3,0.8-0.8,0.8c-1.3,0-2.6,0-3.9,0
		c-1,0-2,0-2.8,0.5C448,452.4,448,451.7,448,451.2z"/>
	<path class="st5" d="M384.4,444.3c0-6.8,0.8-13.1,2.7-19.3c1.5-4.9,3.5-9.6,7-13.4c3.4-3.6,7.4-5.6,12.4-4.3
		c4.6,1.2,7.3,6.2,3.7,10.7c-3.7,4.6-6,9.7-7.4,15.6c-1.5,6.4-1.5,12.8-1.2,19.3c0.2,5.5,1.1,11,2.2,16.4c1.7,8.4,4.2,16.7,7.6,24.5
		c0.8,2.1,2,4,3.1,6c0.3,0.5,0.4,0.9,0.4,1.5c-0.2,3.8,0.1,7.7,0.3,11.5c0.3,5.1,0.6,10,1,15.1c0.3,3.4,0.5,6.7,0.8,10.1
		c0.4,3.9,0.7,7.9,1.2,11.8c0.4,2.9,0.7,5.9,0.9,8.8c0.5,3.6,0.9,7.1,1.4,10.7c0.7,4.9,1.5,9.7,2.4,14.5c0.9,4.5,1.9,9,3.7,13.2
		c0.2,0.4,0.5,0.7,0.7,1.1c0.2,0.3,0.6,0.5,0.4,0.7c-0.2,0.3-0.7,0.1-0.9,0c-2.1-0.7-3.5-2.1-4.7-3.7c-1.9-2.6-3.2-5.6-4.3-8.7
		c-2.2-6.3-3.7-12.7-5.1-19.3c-0.9-4.8-1.8-9.6-2.5-14.4c-0.9-6.3-1.7-12.6-2.5-18.9c-0.5-3.8-1-7.8-1.5-11.6
		c-0.5-4.1-0.9-8.3-1.4-12.5c-0.4-3.1-0.8-6.2-1.3-9.3c-0.1-0.5-0.3-0.8-0.6-1.2c-3.3-4.4-6-9-8.2-14c-2.1-4.5-3.8-9.1-5.3-13.8
		c-1.1-3.4-2-6.8-2.7-10.3c-0.7-3.5-1.2-6.9-1.5-10.4C384.7,448.7,384.4,446.3,384.4,444.3z"/>
	<path class="st15" d="M430.4,596.4c0,0.3,0,0.6,0,0.9c-0.1-0.1-0.1-0.2-0.2-0.3c-2.3-0.7-3-2.8-3.7-4.9c-1.2-3.4-2.2-6.8-2.8-10.4
		c-0.9-4.5-1.6-9-2.2-13.5c-0.7-5.5-1.1-11-1.5-16.5c-0.1-1.6-0.1-3.1-0.2-4.7c-0.5-9.6-0.5-19.4-0.2-29c0.1-4.3,0.4-8.6,0.9-12.9
		c0.4-2.8-0.4-5.5-1.2-8.2c-2-6.3-4.5-12.3-6.6-18.5c-2.3-6.7-4.3-13.6-5.4-20.7c-0.8-5.1-1-10.1-0.8-15.2c0.2-5,1.2-9.7,2.8-14.4
		c1.3-3.8,3.2-7.2,6.1-10c4.2-4.2,9.4-6.3,15.3-6.7c0.8-0.1,0.7,0.5,0.7,0.9c0,3,0,6.1,0,9.1c0,7,0,14.1,0,21.1
		c-3.3,0.7-5.3,2.7-6.5,5.7c-1.1,2.8-1.4,5.7-1.5,8.7c-0.1,4.8,0.7,9.5,1.7,14.1c1.4,7.3,3.5,14.5,4.7,21.8
		c0.7,3.6,1.2,7.1,0.6,10.7c-1.1,6.3-1.8,12.6-2.2,18.8c-0.7,10.4-1.2,20.8-1.3,31.2c-0.1,8.5,0.1,17.1,0.7,25.6
		C428,585,429.2,590.7,430.4,596.4z"/>
	<path class="st10" d="M430.4,596.4c-1.2-5.7-2.5-11.4-2.9-17.2c-0.7-8.5-0.8-17.1-0.7-25.6c0.2-10.4,0.6-20.8,1.3-31.2
		c0.5-6.3,1.1-12.6,2.2-18.8c0.7-3.6,0.1-7.1-0.6-10.7c-1.3-7.3-3.3-14.5-4.7-21.8c-0.9-4.7-1.7-9.4-1.7-14.1c0-3,0.4-5.9,1.5-8.7
		c1.2-3,3.3-5.1,6.5-5.7c0.1,2.7,0.1,5.3,0,8.1c-1,0-2,0-3,0c-0.6,0-0.9,0.3-0.9,0.8c0,0.6,0.5,0.7,0.9,0.7c1,0,2,0,3,0h0.1
		c0,0.1,0,0.2,0,0.3c0,2.8,0,5.7-0.1,8.5c-1.1,0-2.2,0-3.4,0c-0.5,0-1,0-1.1,0.7c0,0.7,0.5,0.9,1.1,0.9c1.1,0,2.2,0,3.3,0
		c0,0.1,0.1,0.2,0.1,0.3c0,2.1,0,4.2,0,6.3c0,0.1,0,0.2,0,0.3h-0.1c-0.9-0.1-1.1,0.5-1.1,1.2c0,3,0,6,0,8.9c0,1.3,0.4,2.5,1.1,3.6
		c0,4.3,0,8.5,0.1,12.8c-0.1,0.6-0.1,1,0,1.6c0,0.5,0,0.8,0,1.3c-0.1,0.9-0.1,1.8,0,2.7c0,0.6,0,1,0,1.6c-0.1,0.4-0.1,0.7,0,1.1
		c0,7.9,0,15.6,0,23.5c0,0.4,0,0.8-0.1,1.2c-0.3,2.2-0.7,4.6-0.8,6.8c-0.5,4.8-0.8,9.6-1.3,14.3c-0.1,1.5-0.2,3-0.2,4.5
		c-0.4,5.9-0.4,11.7-0.2,17.6c0.2,5.7,0.7,11.4,1.2,17.1C430.2,591.5,430.7,594,430.4,596.4z"/>
	<path class="st11" d="M434.6,422.6c0-7.1,0.1-14.3,0-21.5c0-1.9,1.3-2.4,2.8-2.1c0.9,0.2,1.3,0.8,1.3,1.9c0,3.2,0,6.3,0,9.5
		c0,11.2,0,22.5,0,33.7c0,1.9-1.3,2.4-2.8,2.1c-0.9-0.2-1.3-0.9-1.3-2C434.6,436.9,434.6,429.8,434.6,422.6z"/>
	<path class="st10" d="M431.4,586.3c-0.4-1-0.3-2.1-0.4-3.1c-0.2-3.7-0.5-7.2-0.6-10.9c-0.1-3.6-0.2-7-0.1-10.6
		c0.2-5.7,0.6-11.3,0.8-17.1c0-0.2,0.1-0.4,0.2-0.6c0,0.6,0,1.2,0.1,1.8c-0.1,0.6-0.1,1.2,0,1.8c0,2.4,0,4.8,0,7.2
		c-0.1,2.4-0.1,4.8,0,7.2c0,3,0,6,0,9c-0.1,1.8-0.1,3.7,0,5.4c0,2.3,0,4.6,0,6.9c0,0.1,0,0.2,0,0.3c0,0.5,0,1,0,1.5
		c0,0.1,0,0.2,0,0.3C431.5,585.8,431.4,586.1,431.4,586.3z"/>
	<path class="st8" d="M431.4,482.8c-0.7-1-1-2.2-1.1-3.6c0-3,0-6,0-8.9c0-0.8,0.2-1.3,1.1-1.2c0,0.2,0.1,0.3,0.1,0.5
		c0,0.1,0,0.2,0,0.2c0,3.2,0,6.5,0,9.6c-0.1,0.3-0.1,0.6,0,0.9C431.5,481.2,431.4,482,431.4,482.8z"/>
	<path class="st8" d="M431.4,462.3c-1.1,0-2.2,0-3.3,0c-0.7,0-1.1-0.2-1.1-0.9c0-0.7,0.6-0.7,1.1-0.7c1.1,0,2.2,0,3.4,0h0.1
		c0,0.1,0,0.2,0,0.3c0,0.3,0,0.6,0,0.9C431.5,462,431.4,462.2,431.4,462.3z"/>
	<path class="st8" d="M431.4,452c-1,0-2,0-3,0c-0.5,0-0.9-0.2-0.9-0.7c0-0.7,0.4-0.8,0.9-0.8c1,0,2,0,3,0h0.1c0,0.1,0,0.2,0,0.3
		C431.5,451.2,431.5,451.6,431.4,452z"/>
	<path class="st15" d="M431.5,562.2c-0.1-2.4-0.1-4.8,0-7.2C431.7,557.4,431.7,559.9,431.5,562.2z"/>
	<path class="st15" d="M431.5,576.6c-0.1-1.8-0.1-3.7,0-5.4C431.7,573,431.7,574.8,431.5,576.6z"/>
	<path class="st15" d="M431.5,501.3c-0.1-0.9-0.1-1.8,0-2.7C431.7,499.5,431.7,500.4,431.5,501.3z"/>
	<path class="st15" d="M431.5,535.2c-0.1-0.7-0.1-1.3,0-2C431.7,533.9,431.7,534.6,431.5,535.2z"/>
	<path class="st15" d="M431.5,603.6c-0.1-0.6-0.1-1.2,0-1.8C431.7,602.4,431.7,602.9,431.5,603.6z"/>
	<path class="st15" d="M431.5,547.9c-0.1-0.6-0.1-1.2,0-1.8C431.7,546.6,431.7,547.2,431.5,547.9z"/>
	<path class="st15" d="M431.5,544c-0.1-0.6-0.1-1,0-1.6C431.7,543,431.7,543.5,431.5,544z"/>
	<path class="st15" d="M431.5,497.3c-0.1-0.6-0.1-1,0-1.6C431.7,496.1,431.7,496.7,431.5,497.3z"/>
	<path class="st15" d="M431.5,504c-0.1-0.4-0.1-0.7,0-1.1C431.7,503.3,431.7,503.6,431.5,504z"/>
	<path class="st15" d="M431.5,480.4c-0.1-0.3-0.1-0.6,0-0.9C431.7,479.8,431.7,480,431.5,480.4z"/>
	<path class="st15" d="M431.4,462.3c0-0.1,0.1-0.3,0.1-0.4c0.2,0.2,0.2,0.5,0,0.7C431.5,462.5,431.4,462.4,431.4,462.3z"/>
	<path class="st15" d="M431.5,596.4c0-0.1,0-0.2,0-0.2S431.6,596.3,431.5,596.4C431.6,596.3,431.5,596.4,431.5,596.4z"/>
	<path class="st15" d="M431.5,605.4c0-0.1,0-0.1,0-0.2C431.5,605.2,431.5,605.3,431.5,605.4C431.5,605.3,431.5,605.3,431.5,605.4z"
		/>
	<path class="st15" d="M431.5,594.8c0-0.1,0-0.2,0-0.2S431.6,594.7,431.5,594.8C431.6,594.8,431.5,594.8,431.5,594.8z"/>
	<path class="st15" d="M431.5,450.7c0-0.1,0-0.2,0-0.3C431.6,450.5,431.7,450.6,431.5,450.7z"/>
	<path class="st15" d="M431.5,452.3c0-0.1,0-0.2,0-0.3C431.5,452.1,431.6,452.1,431.5,452.3C431.6,452.2,431.5,452.3,431.5,452.3z"
		/>
	<path class="st15" d="M431.5,461c0-0.1,0-0.2,0-0.3C431.5,460.8,431.6,460.9,431.5,461C431.6,461,431.5,461,431.5,461z"/>
	<path class="st15" d="M431.5,583.8c0-0.1,0-0.2,0-0.3C431.5,583.6,431.6,583.6,431.5,583.8C431.6,583.7,431.5,583.7,431.5,583.8z"
		/>
	<path class="st15" d="M431.5,469.8c0-0.1,0-0.2,0-0.2S431.6,469.7,431.5,469.8C431.6,469.7,431.5,469.8,431.5,469.8z"/>
	<path class="st15" d="M431.5,598.2c-0.1-0.1-0.1-0.1,0-0.2C431.5,598,431.6,598.1,431.5,598.2C431.6,598.2,431.5,598.2,431.5,598.2
		z"/>
	<path class="st15" d="M431.5,469.2c0-0.1,0-0.2,0-0.3C431.5,469,431.5,469,431.5,469.2C431.6,469.1,431.5,469.1,431.5,469.2z"/>
	<path class="st15" d="M431.5,585.6c0-0.1,0-0.2,0-0.3C431.5,585.4,431.5,585.4,431.5,585.6C431.6,585.5,431.5,585.6,431.5,585.6z"
		/>
	<path class="st10" d="M669.7,582.7c2.7,0.7,5.3,1.2,8.1,1.9c0.4,1-0.1,1.9-0.7,2.6c-0.8,1-1.7,2.2-2.5,3.2c-0.6,1-1.1,0.7-1.6,0
		c-0.4-0.5-0.7-0.9-1-1.3c-1.5-1.8-3.1-3.5-2.2-6.1C669.7,582.8,669.7,582.8,669.7,582.7z"/>
	<path class="st7" d="M683,567.1c-0.2,0-0.7,0.1-0.8-0.2c-0.2-0.2-0.1-0.5-0.1-0.5c0-0.3,0.1-0.5,0.2-0.5c0.2-0.1,0.4-0.1,0.8-0.1
		c0.6,0,0.4,0,1,0c0.4,0,0.8,0.1,1.4,0.2c-0.7-3-1.4-5.3-1.9-6.9c-0.3-0.8-0.5-1.5-0.5-2.4c0-2.4,1.7-4.4,2-4.9
		c0.2-0.3,0.4-0.5,0.5-0.6c0,0.3,0,0.6,0,0.9c-0.1,0.1-0.2,0.2-0.3,0.3c-0.2,0.2-0.4,0.5-0.7,0.9c-0.1,0.2-0.4,0.7-0.7,1.5
		c-0.2,0.7-0.4,0.9-0.4,1.4c-0.1,0.7,0.1,1.3,0.2,1.7c0.1,0.4,0.1,0.3,0.4,1c0.1,0.3,0.3,0.9,0.5,1.7c0.1,0.3,0.2,0.7,0.3,1.1
		c0.1,0.4,0.2,0.8,0.3,1.2c0.1,0.2,0.1,0.4,0.1,0.5c0.3,0.8,0.7,2,0.7,2.4c0.1-0.1,0.1-0.3,0.2-0.5c0.3-0.7,0.4-1.1,0.5-1.5
		c0.2-1,0.3-1.4,0.4-2c0.2-0.7,0.2-0.7,0.4-1.8c0.1-0.6,0.3-1.3,0.5-2.2c0.2,0,0.4,0,0.6,0.1c-0.9,4-1.6,6.9-1.7,7.5
		c0,0.1-0.1,0.5,0,0.6c0.1,0.1,0.4,0,0.5,0c0.7-0.2,2-0.7,2.5-0.3c0.3,0.2,0.4,0.6,0.3,0.9c0,0.1-0.1,0.4-0.4,0.5
		c-0.1,0.1-0.3,0-0.3,0c-1.4-0.6-2.5-0.6-3.3-0.5C684.7,567,684.1,567,683,567.1z"/>
	<path class="st12" d="M661.8,580c-0.5,0.8-1.2,0.8-2.1,0c0.4-1.8,0.7-3.6,0.7-5.3c0.6,0,1.1,0,1.8,0l0,0c0,0.3,0,0.6,0,0.8
		C662.1,577,661.8,578.5,661.8,580z"/>
	<path class="st3" d="M694.4,599.9c0,0.4,0,0.7,0,1c-3.1,0-6.3,0-9.4,0c-0.4,0-0.7-0.3-0.7-0.7c0-0.3,0.3-0.6,0.7-0.5
		C688.2,599.8,691.3,599.9,694.4,599.9z"/>
	<path class="st3" d="M659.1,600.9c-0.1-0.9,0.4-1.1,1.2-1.1c1.1,0,2.2,0,3.3,0c0.7,0.4,0.7,0.7,0,1.1c-0.9,0-2,0-2.9,0
		C660.2,600.9,659.7,600.9,659.1,600.9z"/>
	<path class="st7" d="M688.9,555.5c0.1,0.4,0.1,0.7,0.1,1.3c-0.1,0-0.2,0-0.3,0c-0.1,0-0.2,0-0.3,0c0-0.3-0.1-0.6-0.1-0.9
		c-0.1-0.5-0.2-0.9-0.4-1.6c-0.2-0.5-0.2-0.7-0.5-1.1c-0.3-0.5-0.7-0.8-0.9-1c0-0.3,0-0.6,0-0.8c0.1,0.1,0.2,0.1,0.3,0.2
		c0.2,0.2,0.3,0.3,0.4,0.4c0.5,0.6,0.7,0.8,0.8,1.1c0.2,0.3,0.3,0.6,0.4,1C688.5,554,688.7,554.6,688.9,555.5z"/>
	<path class="st3" d="M689.6,567.1c-0.1,1.4-0.2,2.8-0.2,4.3c-0.1,1.6-0.1,3.1-0.1,4.5c-0.2,0-0.5,0-0.7,0c-0.8-0.1-1.1-0.1-2-0.2
		c-0.2,0-0.5,0-0.8,0c-0.7,0-1,0-1.5-0.1c-0.5,0-1-0.1-2.2-0.2c-0.4,0-1-0.1-1.8-0.2c-0.2,0.1-0.4,0.3-0.5,0.4
		c0.4,0,0.9,0.1,1.6,0.1c1.3,0.1,2.1,0.1,2.7,0.2c0.3,0,0.7,0,2.6,0.1c0.7,0,1.7,0.1,2.8,0.1C689.6,573.1,689.7,570,689.6,567.1
		C689.7,567.1,689.6,567.1,689.6,567.1z"/>
	<path class="st12" d="M679.1,585c0,1.8-0.1,3.6-0.1,5.3c-1.5,0-3,0-4.4,0c0.8-1,1.7-2.2,2.5-3.2c0.7-0.7,1.1-1.6,0.7-2.6
		C678.2,584.7,678.6,584.8,679.1,585z"/>
	<path class="st12" d="M669.7,582.7c0,0.1,0,0.2,0,0.2c-0.9,2.6,0.7,4.3,2.2,6.1c0.4,0.4,0.7,0.8,1,1.3c-1.2,0-2.3,0-3.6,0
		c0-2.3,0-4.7,0-7C669.2,583,669,582.5,669.7,582.7z"/>
	<path class="st3" d="M666.1,556.6c0,3.1,0.1,6.1,0.1,9.2c0,0.9-0.9,0.6-1.4,1c-0.6-1.9-1.5-3.7-2.2-5.4c-0.7-1.5-0.7-1.7,0.7-2.6
		C664.3,558.1,664.8,556.9,666.1,556.6z"/>
	<path class="st3" d="M666.3,548.7c-0.1,2.4-0.1,5-0.2,7.4c-1.3-0.7-2.4-1.6-3.7-2.2c-0.3-0.2-0.5-0.5-0.2-0.7
		C663.6,551.6,664.7,549.9,666.3,548.7z"/>
	<path class="st3" d="M652.7,552.9c-0.1,0-0.2,0-0.2,0C652.5,552.8,652.6,552.8,652.7,552.9z"/>
	<path class="st12" d="M678.2,575.3c-0.6,0-1,0-1.6,0c0-0.1,0-0.1,0-0.2c0.5-0.7,0.2-1.3,0.2-2c-0.3-3.4-0.7-6.8-1-10.2
		c-0.3-3.1-0.7-6.2-0.8-9.3c-0.1-1.4-0.7-2.8,0.1-4.1c0.4-0.7,0.7-1.4,1.1-2.1c0.5-0.8,0.4-1.1-0.7-1.1c-1.1,0-2.2,0.1-3.4,0.1
		c-1.4,0-1.5,0.1-0.7,1.3c0.8,1.5,1.5,3,1.2,4.8c-0.3,2.2-0.5,4.3-0.7,6.5c-0.3,3-0.7,6-0.8,9c-0.2,2.2-0.7,4.5-0.5,6.8
		c-1.2,0.2-1.5-0.3-1.4-1.4c0.1-0.7,0-1.5,0-2.2c0.6-1.1,0.6-2.3,0-3.5c0-2.2,0-4.6,0-6.8c0-5.2,0-10.5,0-15.7c0.6,0,1.2,0,1.8,0
		c2.6,0,5.2,0,7.9,0c0,9.7,0,19.5,0,29.1C679,574.8,678.9,575.3,678.2,575.3z"/>
	<g id="young_man_hair">
		<path class="st17" d="M600.4,535.8c-1.8,0-3.6-0.1-5.4,0c-0.7,0-1-0.2-0.9-0.9c0-0.5,0-0.9,0-1.5c-0.1-0.9,0-1.7,1.1-2.1
			c0.7-0.3,1.2-1,1.1-2c-0.1-0.8-0.4-1.6-1.2-1.9c-0.8-0.3-1-0.7-0.9-1.6c0.1-1,0-2.1,0-3c0-0.4,0-0.8-0.6-0.8
			c-2.2,0-4.5-0.7-6.8-0.2c-1.1,0.3-2.3,0.7-3.6,0.7c-0.5,0-0.9-0.1-1.4-0.2c-1.5-1.7-1.8-5.2-0.7-7.1c0.8-1.5,2.3-1.9,3.8-1.9
			c2.4,0,4.8,0.6,7.2,0.7c1,0.1,2,0.3,3,0.4c2.2,0.2,3.3,1.3,3.6,3.5c0.2,2,0.5,3.8,0.6,5.8C599.6,527.6,600,531.7,600.4,535.8z"/>
		<path class="st17" d="M584.2,525.4c-0.3,0-0.4-0.1-0.5-0.3c-0.1-0.2,0-0.4,0.2-0.5c1-0.5,2.1-0.9,3.1-1.5c0.2-0.1,0.4-0.1,0.5,0.2
			c0,0.1,0,0.4,0,0.4C586.3,524.3,585.2,524.8,584.2,525.4z"/>
	</g>
	<path class="st3" d="M669.2,544.9c0,0.1,0.1,0.2,0.1,0.3c0,5.2,0,10.5,0,15.7c0,2.2,0,4.6,0,6.8c-0.6-0.5-1-1-1.7-1.2
		c-0.5-0.1-0.5-0.4-0.5-0.7c0-5.3-0.1-10.6,0.1-15.9C667.2,547.9,667.7,546.2,669.2,544.9z"/>
	<path class="st6" d="M664.5,569.4c0-1.2,0.7-2.1,2.1-2.1c1.2,0,2.1,0.7,2.1,2c0,1.2-0.8,2.1-2,2.2
		C665.4,571.5,664.5,570.6,664.5,569.4z M666.5,570.5c0.7,0,1.2-0.4,1.3-1.1c0-0.7-0.5-1.2-1.1-1.3c-0.7,0-1.2,0.4-1.2,1.1
		C665.4,570.1,665.8,570.5,666.5,570.5z"/>
	<path class="st6" d="M685.6,551.1c0-0.2,0-0.5,0-0.7c0.3,0,0.5,0,0.7,0c0.1,0,0.1,0,0.2,0c0,0.3,0,0.5,0,0.7c0,0.3,0,0.6,0,0.8
		c-0.3,0.1-0.7,0.1-0.9,0C685.6,551.8,685.6,551.5,685.6,551.1z"/>
	<path class="st3" d="M521.8,604.4c0-3.7,0-7.4,0-11.1c0-0.6,0-1-0.7-1.4c-0.5-0.2-0.5-0.7-0.3-1.2c0.2-0.5,0.5-0.7,0.9-0.7
		c0.7,0,1.6,0,2.3,0c0.7,0,1-0.2,0.9-0.9c-0.1-1.2,0-2.4,0-3.7c0-1.4,0.7-2.1,2.1-2.2c2.4,0,4.9,0,7.3,0c1.3,0,2,0.7,2,2.1
		c0,1.3,0,2.5,0,3.8c0,0.7,0.2,0.9,0.8,0.9c0.7,0,1.5,0,2.2,0c0.6,0,0.9,0.1,1.2,0.7c0.2,0.6,0.1,1-0.4,1.3
		c-0.5,0.3-0.5,0.7-0.5,1.1c0,7.2,0,14.4,0,21.7c0,0.6,0,1-0.1,1.6c-0.3,1.8-1.9,3-3.6,2.9c-1.8-0.1-3.2-1.4-3.5-3.1
		c-0.1-0.5,0-0.9,0-1.3c0-7.1,0-14.2,0-21.4c0-0.7,0.1-1.2-0.7-1.7c-0.4-0.2-0.5-0.7-0.3-1.1c0.2-0.5,0.5-0.7,0.9-0.7
		c0.8,0,1.7,0,2.6,0c0.6,0,0.7-0.2,0.7-0.7c0-1.3,0-2.7,0-4c0-1-0.6-1.6-1.6-1.6c-2.4,0-4.9,0-7.3,0c-1,0-1.6,0.6-1.6,1.6
		c0,1.4,0,2.8,0,4.1c0,0.5,0.2,0.7,0.7,0.7c0.8,0,1.7,0,2.4,0c0.6,0,0.9,0.2,1.1,0.7c0.2,0.5,0,0.9-0.4,1.2
		c-0.7,0.4-0.5,0.8-0.5,1.4c0,7.3,0,14.7,0,22c0,1.4-0.5,2.6-1.7,3.5c-2.4,1.4-5.3-0.2-5.4-3C521.8,611.9,521.8,608.2,521.8,604.4z
		 M522.5,616.2c0.4,1.5,1.2,2.2,2.5,2.4c1.2,0.1,2.3-0.7,2.9-2c0.2-0.6,0.1-1.1,0.1-1.7c0-7.5,0-14.9,0-22.4c0-0.4-0.3-1,0.5-1.1
		c0.3,0,0.5-0.2,0.4-0.5c-0.1-0.3-0.4-0.2-0.6-0.3c-0.6,0-1.2,0-1.8,0c-0.8-0.1-1.2,0.2-1.1,1.1c0.1,0.8,0,1.7,0,2.5
		c-0.1,0-0.2,0-0.4,0c0-0.4,0-0.7,0-1c0-2.7,0-2.7-2.7-2.6c-0.1,0-0.2,0-0.2,0c-0.2,0-0.5-0.1-0.6,0.2c-0.1,0.4,0.2,0.4,0.5,0.5
		c0.6,0.1,0.4,0.6,0.4,0.9c0,1.7,0,3.5,0,5.2C522.5,603.7,522.5,610,522.5,616.2z M536.1,597.4L536.1,597.4c0-2,0-3.9,0-5.8
		c0-0.4,0.1-0.8-0.5-0.8c-0.9,0-1.8,0-2.7,0c-0.2,0-0.4,0.1-0.4,0.3c0,0.1,0.2,0.3,0.3,0.3c0.8,0.1,0.7,0.7,0.7,1.2
		c0,4.6,0,9.2,0,13.9c0,3.2,0,6.3,0,9.5c0,1.6,1.3,2.7,2.8,2.7s2.7-1.2,2.8-2.7c0-0.7,0-1.4,0-2.2c0-7,0-14.1,0-21.2
		c0-0.5-0.3-1.2,0.7-1.2c0.2,0,0.3-0.2,0.2-0.4c0-0.2-0.2-0.3-0.4-0.3c-0.7,0-1.5,0-2.2,0c-0.7-0.1-0.9,0.2-0.9,0.9
		c0,2.8,0,5.5,0,8.3c0,1.4-0.3,2.8,0.2,4.2c0.1,0.2-0.1,0.5-0.2,0.6c-0.1,0.1-0.2,0.1-0.3,0c-0.2-0.2-0.5-0.5-0.3-0.7
		c0.4-0.6,0.2-1.1,0.3-1.8C536.1,600.8,536.1,599.1,536.1,597.4z"/>
	<path class="st2" d="M461.2,553.9c2.1,0,4.1,0,6.2,0c0.7,0,1,0.2,1,0.9c0,2,0,2-2.1,2c-3.7,0-7.5,0-11.2,0c-0.8,0-1.1-0.2-1.1-1
		c0-2,0-2,2-2C457.7,553.9,459.4,553.9,461.2,553.9z"/>
	<path class="st2" d="M458.2,612.6c2.5,0,2.5,0,2.5,2.5s0,2.5-2.5,2.5c-2.4,0-2.4,0-2.4-2.4v-0.1
		C455.6,612.6,455.6,612.6,458.2,612.6z"/>
	<path class="st2" d="M458.1,599.1c-2.4,0-2.4,0-2.4-2.4c0-2.5,0-2.5,2.5-2.5c2.5,0,2.5,0,2.5,2.4
		C460.6,599.1,460.6,599.1,458.1,599.1z"/>
	<path class="st2" d="M460.6,605.9c0,2.4,0,2.4-2.5,2.4c-2.4,0-2.4,0-2.4-2.4c0-2.5,0-2.5,2.5-2.5
		C460.6,603.3,460.6,603.3,460.6,605.9z"/>
	<path class="st2" d="M473.4,596.5c-0.1,0.8-0.5,1.4-1.4,1.4s-1.4-0.6-1.5-1.3c-0.1-0.7,0.7-1.5,1.4-1.5
		C472.9,595.2,473.3,595.6,473.4,596.5z"/>
	<path class="st2" d="M472.1,616.4c-0.9,0-1.5-0.6-1.5-1.4c0-0.8,0.5-1.4,1.4-1.4c0.8,0,1.4,0.5,1.4,1.4
		C473.4,615.9,473,616.4,472.1,616.4z"/>
	<path class="st2" d="M465.4,607.2c-0.8-0.1-1.3-0.6-1.3-1.5c0-0.8,0.6-1.4,1.5-1.3c0.8,0.1,1.4,0.6,1.3,1.4
		C466.9,606.7,466.3,607.2,465.4,607.2z"/>
	<path class="st2" d="M465.4,598c-0.8-0.1-1.3-0.6-1.3-1.4c0-0.7,0.7-1.4,1.4-1.4c0.8,0.1,1.4,0.6,1.4,1.4
		C466.9,597.4,466.3,597.9,465.4,598z"/>
	<path class="st2" d="M480,596.6c0,0.7-0.5,1.3-1.3,1.4c-0.8,0-1.4-0.5-1.4-1.3c0-0.8,0.5-1.4,1.3-1.5
		C479.3,595.1,480,595.7,480,596.6z"/>
	<path class="st2" d="M472.1,604.4c0.8,0.1,1.3,0.6,1.3,1.4s-0.5,1.4-1.4,1.4s-1.4-0.6-1.4-1.4S471.1,604.4,472.1,604.4z"/>
	<path class="st2" d="M465.7,616.4c-1,0-1.5-0.5-1.6-1.3c-0.1-0.7,0.6-1.5,1.3-1.4c0.8,0,1.4,0.5,1.5,1.3
		C466.9,615.8,466.4,616.3,465.7,616.4z"/>
	<path class="st2" d="M480,615.1c-0.1,0.9-0.6,1.4-1.5,1.3c-0.8,0-1.3-0.5-1.3-1.3c0-0.8,0.6-1.5,1.4-1.4
		C479.5,613.7,480,614.2,480,615.1z"/>
	<path class="st2" d="M524.7,364.1c0.9,0,2,0,2.9,0c0.7,0,0.8,0.2,0.8,0.8c0,2.1,0,4,0,6.1c0,0.6-0.2,0.7-0.7,0.7c-2.1,0-4,0-6.1,0
		c-0.7,0-0.8-0.3-0.8-0.8c0-2,0-3.9,0-5.9c0-0.7,0.2-0.8,0.8-0.8C522.7,364.2,523.7,364.1,524.7,364.1z"/>
	<path class="st4" d="M537.4,368.1c0,0.9,0,1.9,0,2.8c0,0.7-0.1,0.9-0.8,0.9c-2-0.1-3.9,0-5.9,0c-0.6,0-0.7-0.2-0.7-0.7
		c0-2.1,0-4.1,0-6.2c0-0.6,0.2-0.7,0.7-0.7c2.1,0,4,0,6.1,0c0.6,0,0.8,0.2,0.7,0.7C537.3,366,537.4,367.1,537.4,368.1z"/>
	<path class="st4" d="M542.6,371.7c-0.9,0-1.9,0-2.8,0c-0.7,0-1-0.1-1-0.9c0.1-2,0-3.8,0-5.8c0-0.7,0.2-0.9,0.9-0.9c2,0,3.8,0,5.8,0
		c0.7,0,0.8,0.3,0.8,0.9c0,2,0,3.8,0,5.8c0,0.7-0.2,0.9-0.9,0.8C544.5,371.7,543.5,371.8,542.6,371.7L542.6,371.7z"/>
	<path class="st3" d="M531,385.1c3,0,6,0,9,0c0.5,0,0.9-0.1,1,0.7c0,0.8-0.5,0.7-1,0.7c-6,0-12,0-18,0c-0.6,0-1,0.1-1-0.7
		s0.6-0.7,1.1-0.7C525,385.1,528,385.1,531,385.1L531,385.1z"/>
	<path class="st2" d="M531,375.5c3,0,5.9,0,8.9,0c0.5,0,0.9-0.1,0.9,0.7c0,0.8-0.5,0.7-0.9,0.7c-6,0-12.1,0-18.1,0
		c-0.5,0-0.8,0.1-0.9-0.7c0-0.7,0.4-0.7,0.9-0.7C524.9,375.5,528,375.5,531,375.5z"/>
	<path class="st2" d="M530.9,384.2c-3,0-6,0-9,0c-0.5,0-0.9,0.1-0.9-0.7s0.5-0.7,0.9-0.7c6,0,12.1,0,18.1,0c0.5,0,0.9-0.1,0.9,0.7
		c0,0.7-0.5,0.6-0.9,0.6C536.9,384.2,533.9,384.2,530.9,384.2L530.9,384.2z"/>
	<path class="st4" d="M531,377.7c3,0,5.9,0,8.9,0c0.5,0,0.9-0.1,0.9,0.6c0,0.7-0.5,0.7-0.9,0.7c-6,0-12,0-18,0c-0.5,0-1,0.2-1-0.7
		c0-0.8,0.6-0.7,1-0.7C525,377.7,528,377.7,531,377.7z"/>
	<path class="st3" d="M541.5,377.4c0-1.3,1-2.3,2.3-2.3c1.3,0,2.3,1,2.3,2.3s-1,2.4-2.4,2.3C542.6,379.8,541.5,378.7,541.5,377.4z
		 M542.2,377.3c0,0.9,0.7,1.8,1.6,1.8c1,0.1,1.8-0.7,1.9-1.7c0-0.9-0.7-1.8-1.7-1.8C543,375.7,542.2,376.4,542.2,377.3z"/>
	<path class="st3" d="M543.9,389.8c1.3,0,2.3,1,2.3,2.3s-1,2.4-2.4,2.4c-1.3,0-2.3-1-2.3-2.3C541.5,390.9,542.6,389.8,543.9,389.8z
		 M543.9,390.5c-0.9,0-1.7,0.7-1.7,1.7s0.7,1.8,1.8,1.8c0.8,0,1.7-0.8,1.7-1.8C545.6,391.3,544.8,390.5,543.9,390.5z"/>
	<path class="st3" d="M544,387.2c-1.3,0-2.3-0.9-2.4-2.2c0-1.4,1-2.4,2.3-2.4c1.3,0,2.3,1,2.3,2.3
		C546.3,386.1,545.3,387.1,544,387.2z M543.8,386.5c0.8,0.1,1.8-0.7,1.9-1.6c0.1-0.9-0.6-1.8-1.5-1.9c-0.8-0.1-1.8,0.6-1.9,1.5
		C542.1,385.6,542.8,386.4,543.8,386.5z"/>
	<path class="st10" d="M493,594.6c0.3-3.3,0.5-6.6,0.7-9.8c0.2-2.1,0.4-4.1,0.6-6.2c0.4-7,0.5-14,0.2-21c-0.2-5.8-0.7-11.6-1.2-17.4
		c-0.6-6.3-1.4-12.6-2.2-18.8c-0.6-4.4-1.3-8.8-1.9-13.2c-0.7-4.9-1.6-9.6-2.6-14.4c-0.6-2.7-0.1-5.3,2.2-7.2
		c3.5-2.9,4.9-6.5,4.5-10.9c-0.2-1.6,0-3.2,0-4.7c0-0.3,0-0.6,0-0.7c-0.1-0.5-0.2-1-0.8-1s-0.8,0.6-0.8,1c-0.1,1.1,0,2.3,0,3.5
		c0,2.4,0,2.3-2.2,1.6c-3.2-1.1-4.7-3.5-4.8-6.7c0-0.4-0.1-0.7-0.1-1c-0.1-0.6-0.2-1-0.8-0.9c-0.7,0-0.7,0.7-0.7,1.1
		c-0.4,3.8,2.1,7.7,5.7,9.1c0.2,0.1,0.4,0.2,0.7,0.2c2.8,0.8,2.9,2.1,1.6,5c-0.6,1.2-1.7,2.2-2.6,3.1c-1,1-2.1,2.1-2.6,3.5
		c-0.1,0.2-0.2,0.4-0.4,0.4c-0.4,0-0.4-0.4-0.5-0.6c-0.9-2.7-2.2-5.3-3.6-7.9c-1.2-2.2-2.6-4.2-4.3-6.1c-0.6-0.7-0.8-1.1,0.1-1.8
		c1.6-1.1,2-2.9,1.9-4.7c0-1.8,0.3-3.3,1.9-4.3c1-0.7,2.2-1.1,3.6-1.1c3.5,0,6.9,0,10.5,0c0.3,0,0.6,0,0.7,0c0.6,0,0.8-0.2,0.8-0.7
		c0-0.6-0.4-0.7-0.8-0.7c-1.4,0-2.8,0-4.3,0c-2.2,0-4.5,0-6.7,0c-1.9,0-3.5,0.4-5,1.5c-0.3,0.2-0.7,0.6-0.7-0.1
		c-0.1-2.2-0.2-4.5,1.4-6.6c2.1-2.5,4.7-3.5,7.8-3.6c2.2-0.1,4.5,0,6.7,0c0.6,0,1.1,0,1.1-0.7c0-0.7-0.6-0.8-1.1-0.8
		c-3,0.1-5.9-0.2-8.9,0.2c-2.9,0.4-5.2,1.7-6.9,3.8c-0.6,0.7-0.7,0.7-0.9-0.1c-1-2.6-2.3-3.5-5.2-3.5c-1.1,0-2.2,0-3.3,0
		c1.2-1.9,2.3-3.9,3.8-5.6c2.1-0.3,4-1,6.1-1.6c2.9-0.7,5.9-1.5,8.9-1.6c6-0.1,9.4,2.7,10.7,8.6c0.9,4.5,0.7,8.9,0.1,13.4
		c-1.1,8.8-3.7,17.3-5.3,26c-0.7,3.8-1.4,7.7-1.2,11.6c0.1,2.7,0.8,5.3,1.2,8.1c0.6,4.4,0.9,8.8,1.2,13.3c0.7,9.3,1,18.6,1.2,27.9
		c0.2,7.3,0.1,14.5-0.3,21.7c-0.3,5.2-0.7,10.5-1.7,15.7C494,590.6,493.5,592.5,493,594.6z"/>
	<path class="st4" d="M496.9,429.2c-4,0-8,0-12,0c-1.1,0-1.3-0.5-1.2-1.4c0-0.8-0.1-1.6,1.2-1.6c8.1,0.1,16.1,0,24.3,0
		c0.9,0,1.1,0.4,1.1,1.2c0,1.8,0,1.8-1.8,1.8C504.5,429.2,500.7,429.2,496.9,429.2z"/>
	<path class="st4" d="M490.8,433.8c-2.1,0-4-0.1-6.1,0c-1.4,0.1-1-0.9-1.1-1.7c-0.1-0.8,0-1.3,1.1-1.3c4,0.1,8.1,0,12.2,0
		c0.8,0,1.3,0.2,1.1,1.1c0,0.2,0,0.5,0,0.7c0.1,0.8-0.2,1.2-1.1,1.1C494.8,433.8,492.8,433.8,490.8,433.8z"/>
	<path class="st2" d="M473.4,445.3c-1.5,1.7-2.6,3.7-3.8,5.6c-0.2,0-0.4,0-0.6,0c-0.5-0.4-0.6-0.7-0.2-1.3c0.8-1.1,1.7-2.2,2.3-3.6
		c2-3,4-5.9,6-8.9c1.2-1.9,2.4-3.7,3.7-5.5c0.3-0.4,0.5-0.8,1-0.5c0.5,0.4,0.5,0.7,0.2,1.2c-1.5,2.2-3,4.5-4.6,6.8
		C476.1,441.2,474.7,443.2,473.4,445.3z"/>
	<g id="young_man_skin">
		<path class="st18" d="M601.2,545.1c-0.4,0.3-0.8,0.2-1.3,0.2c-3.1,0-6.2,0-9.3,0c-0.5,0-0.9,0.1-1.3-0.2c0-1.5,0-3,0-4.5
			c0-0.7-0.2-1-0.9-0.9c-1.1,0.1-2.3,0-3.5,0c-1.9,0-2.9-0.9-2.9-2.9c0-2.1,0-4.2,0-6.3c0-0.9-0.2-1.4-1.3-1.3
			c-1.5,0.1-1.5,0-0.9-1.4c0.7-1.9,1.3-3.7,2-5.6c0.5,0.1,0.9,0.2,1.4,0.2c1.2,0.1,2.3-0.3,3.6-0.7c2.2-0.6,4.5,0.2,6.8,0.2
			c0.6,0,0.6,0.4,0.6,0.8c0,1,0.1,2.1,0,3c-0.1,0.8,0.1,1.3,0.9,1.6c0.8,0.3,1.2,1,1.2,1.9c0.1,0.8-0.4,1.7-1.1,2
			c-1.1,0.4-1.2,1.1-1.1,2.1c0,0.5,0,0.9,0,1.5c-0.1,0.7,0.3,0.9,0.9,0.9c1.8,0,3.6,0,5.4,0C600.7,538.9,600.9,542.1,601.2,545.1z
			 M584.2,525.4c1-0.5,2.2-1,3.3-1.6c0.1,0,0.1-0.3,0-0.4c-0.1-0.2-0.3-0.2-0.5-0.2c-1,0.5-2.1,0.9-3.1,1.5
			c-0.2,0.1-0.3,0.3-0.2,0.5C583.8,525.3,583.9,525.4,584.2,525.4z"/>
		<path class="st18" d="M630.2,610.3c0.2,1,0.4,2,0.5,3c0.2,1.6-0.7,2.7-2.2,3c-1.4,0.3-2.7-0.4-3.2-1.9c-0.5-1.3-0.7-2.7-1-4.1
			C626.2,610.3,628.2,610.3,630.2,610.3z"/>
		<path class="st18" d="M543.9,530.2c-1.9,0.8-3.8,1.8-5.7,2.6c-0.3-0.6-0.6-1-0.8-1.6c-0.1-0.5-0.2-0.8-0.5-1.2
			c-0.3-0.7-0.6-1.5-0.7-2.3c0.1-0.4,0.1-0.8,0.2-1.2c1.4-2.5,3.9-2.6,5.5-0.2C542.8,527.5,543.1,528.9,543.9,530.2z"/>
	</g>
	<path class="st2" d="M533.9,522.8c2.6,0,5.3,0,8,0c0.4,0,0.9-0.2,0.9,0.6c0,0.8-0.5,0.7-0.9,0.7c-5.3,0-10.7,0-16,0
		c-0.5,0-0.8,0-0.8-0.7c0-0.7,0.5-0.7,0.9-0.7C528.4,522.8,531.1,522.8,533.9,522.8z"/>
	<path class="st2" d="M533.7,520.5c-2.6,0-5.3,0-8,0c-0.4,0-0.8,0.1-0.8-0.6c0-0.7,0.4-0.7,0.8-0.7c5.3,0,10.7,0,16,0
		c0.5,0,0.9-0.1,0.9,0.7s-0.6,0.6-0.9,0.6C539.1,520.5,536.4,520.5,533.7,520.5z"/>
	<path class="st2" d="M537,530.1c0.3,0.4,0.4,0.8,0.5,1.2c-3.9,0-7.9,0-11.7,0c-0.5,0-0.7,0-0.7-0.7c0-0.7,0.3-0.7,0.7-0.7
		C529.4,530.1,533.2,530.1,537,530.1z"/>
	<path class="st2" d="M530.8,542.2c-1.7,0-3.5,0-5.2,0c-0.5,0-0.7,0-0.7-0.7c0-0.6,0.3-0.7,0.7-0.7c3.5,0,6.9,0,10.4,0
		c0.5,0,0.8,0,0.8,0.7c0,0.7-0.5,0.6-0.8,0.6C534.3,542.2,532.5,542.2,530.8,542.2z"/>
	<path class="st2" d="M536.4,526.5c-0.1,0.4-0.1,0.8-0.2,1.2c-3.5,0-6.9,0-10.3,0c-0.5,0-0.9,0.1-0.9-0.7s0.6-0.6,0.9-0.6
		C529.3,526.5,532.8,526.5,536.4,526.5z"/>
	<path class="st10" d="M491.2,601.8c-0.2-0.3-0.2-0.7-0.2-0.9C491.2,601.2,491.2,601.4,491.2,601.8z"/>
	<path class="st10" d="M491,600.7c-0.1-0.2-0.2-0.5-0.1-0.7C491.2,600.2,491.2,600.4,491,600.7z"/>
	<path class="st6" d="M449.2,347.8c0-2.7,2-4.8,4.6-4.8c2.6,0,4.6,2.2,4.6,5c0,2.7-2.2,5-4.7,5C451.1,352.8,449.1,350.6,449.2,347.8
		z"/>
	<path class="st10" d="M670.6,574.7c-0.1-2.2,0.3-4.5,0.5-6.8c0.3-3,0.6-6,0.8-9c0.2-2.2,0.4-4.3,0.7-6.5c0.3-1.8-0.3-3.3-1.2-4.8
		c-0.7-1.2-0.7-1.3,0.7-1.3c1.1,0,2.2-0.1,3.4-0.1c1,0,1.1,0.2,0.7,1.1c-0.4,0.7-0.7,1.4-1.1,2.1c-0.7,1.4-0.2,2.8-0.1,4.1
		c0.2,3.1,0.6,6.2,0.8,9.3c0.4,3.4,0.7,6.8,1,10.2c0.1,0.7,0.3,1.3-0.2,2c-0.2,0-0.5,0-0.7,0c-0.4,0-0.7,0-1.1-0.1
		C673.4,574.9,672,574.8,670.6,574.7z"/>
	<path class="st3" d="M662.3,574.6L662.3,574.6L662.3,574.6L662.3,574.6z"/>
	<path class="st3" d="M676.6,575.1c-0.2,0-0.5,0-0.7,0c-0.3,0-0.7,0-1.4-0.1c-0.7,0-1.1-0.1-1.7-0.1s-1.3-0.1-2.2-0.2
		c-1.2,0.2-1.5-0.3-1.4-1.4c0.1-0.7,0-1.5,0-2.2c-0.6,0.5-1,0.9-1.8,1.2c0.8,2.4,0.8,2.4-1.7,2.1c-1.1-0.2-2.3-0.4-3.5,0.1
		c0.1,0,0.2,0,0.4,0c3.5,0.2,4.1,0.4,5.3,0.4c1,0,1.3,0,1.9,0.1c0.3,0,0.5,0,1.3,0.1c2.3,0.2,2.7,0.2,3.4,0.2c0.3,0,0.8,0,1.4,0l0,0
		c0.1,0,0.2,0,0.3,0C676.4,575.2,676.5,575.2,676.6,575.1L676.6,575.1z"/>
	<path class="st7" d="M666.5,570.5c-0.7-0.1-1.1-0.5-1.1-1.2s0.6-1.2,1.2-1.1c0.7,0,1.2,0.6,1.1,1.3
		C667.8,570.2,667.3,570.5,666.5,570.5z"/>
	<path class="st14" d="M536.1,597.4c0,1.7,0,3.3,0,5c0,0.6,0.2,1.2-0.3,1.8c-0.2,0.2,0.1,0.5,0.3,0.7c0.1,0.1,0.2,0.1,0.3,0
		c0.2-0.2,0.3-0.4,0.2-0.6c-0.5-1.4-0.2-2.8-0.2-4.2c-0.1-2.8,0-5.5,0-8.3c0-0.7,0.3-1,0.9-0.9c0.7,0.1,1.5,0,2.2,0
		c0.2,0,0.4,0.1,0.4,0.3s-0.1,0.4-0.2,0.4c-0.9,0-0.7,0.7-0.7,1.2c0,7,0,14.1,0,21.2c0,0.7,0,1.4,0,2.2c-0.1,1.5-1.3,2.7-2.8,2.7
		s-2.8-1.1-2.8-2.7c-0.1-3.2,0-6.3,0-9.5c0-4.6,0-9.2,0-13.9c0-0.5,0.2-1.1-0.7-1.2c-0.1,0-0.2-0.2-0.3-0.3c0-0.2,0.2-0.3,0.4-0.3
		c0.9,0,1.8,0,2.7,0c0.6,0,0.5,0.5,0.5,0.8C536.1,593.6,536.1,595.5,536.1,597.4L536.1,597.4z M538.7,612.3L538.7,612.3
		c0-1.1,0-2.3,0-3.5c0-0.7-0.3-0.9-0.9-0.8c-1,0-2.1,0-3,0c-0.7,0-0.9,0.1-0.9,0.8c0,2.2,0,4.6,0,6.8c0,1.4,1,2.4,2.3,2.4
		c1.3,0,2.3-1,2.4-2.4C538.7,614.6,538.7,613.4,538.7,612.3z M537,605.7c-0.6,0.1-0.8,0.4-0.8,0.8c0,0.6,0.4,0.8,0.8,0.8
		c0.6,0,0.8-0.4,0.8-0.8C537.9,605.9,537.5,605.8,537,605.7z M538.3,604.1c0-0.2-0.1-0.5-0.5-0.5c-0.3,0-0.5,0.2-0.5,0.5
		c0,0.3,0.1,0.4,0.4,0.5C538,604.5,538.3,604.4,538.3,604.1z"/>
	<path class="st14" d="M522.5,616.2c0-6.2,0-12.5-0.1-18.6c0-1.7,0-3.5,0-5.2c0-0.4,0.1-0.7-0.4-0.9c-0.3-0.1-0.6-0.1-0.5-0.5
		c0.1-0.3,0.4-0.2,0.6-0.2c0.1,0,0.2,0,0.2,0c2.7-0.1,2.7-0.1,2.7,2.6c0,0.4,0,0.7,0,1c0.1,0,0.2,0,0.4,0c0-0.8,0.1-1.7,0-2.5
		c-0.1-0.9,0.3-1.2,1.1-1.1c0.6,0.1,1.2,0,1.8,0c0.2,0,0.5,0,0.6,0.3c0.1,0.3-0.1,0.4-0.4,0.5c-0.7,0.1-0.5,0.7-0.5,1.1
		c0,7.5,0,14.9,0,22.4c0,0.6,0.1,1.1-0.1,1.7c-0.1-0.2-0.2-0.3-0.3-0.5c0-1.9,0-3.8,0-5.7c0-4,0-8.2,0.1-12.2c0-0.2,0-0.5,0-0.7
		c-0.1-0.3-0.2-0.6-0.3-0.8c-0.1-0.1-0.1-0.2-0.2-0.4c-0.4-0.3-0.8-0.4-1.3-0.2c-0.3,0-0.5,0.2-0.4,0.5c0,0.1,0,0.1-0.1,0.2
		c-0.1,0.1-0.1,0.1-0.2,0.2c-0.6,0-1,0-1.6,0c-0.2-0.2-0.5-0.2-0.7,0c-0.1,0-0.1,0.1-0.2,0.1l0,0c0,0.1,0,0.1-0.1,0.2
		c0,0-0.1,0-0.1,0.1c0,0.1,0,0.1,0.1,0.2c0,0.2,0,0.3,0,0.5c-0.2,0.1-0.2,0.3,0,0.4c0,5.8,0,11.5,0,17.3
		C522.8,615.9,522.6,616,522.5,616.2z M526.3,595.7c0.2,0,0.5-0.2,0.5-0.5c0-0.3-0.1-0.4-0.4-0.5c-0.3,0-0.5,0.1-0.5,0.5
		C525.8,595.5,526,595.6,526.3,595.7z"/>
	<path class="st19" d="M527.8,616.2c0.1,0.2,0.2,0.3,0.3,0.5c-0.7,1.4-1.7,2.2-2.9,2c-1.4-0.2-2.2-0.9-2.5-2.4
		c0.1-0.2,0.3-0.3,0.4-0.5c0.4,1.6,1.1,2.2,2.3,2.3C526.4,618.2,527.1,617.6,527.8,616.2z"/>
	<path class="st2" d="M538.7,612.3c0,1.1,0,2.2,0,3.4c0,1.4-1.1,2.4-2.4,2.4c-1.3,0-2.3-1-2.3-2.4c0-2.2,0-4.6,0-6.8
		c0-0.7,0.3-0.8,0.9-0.8c1,0,2.1,0,3,0c0.7,0,0.9,0.2,0.9,0.8C538.7,610.1,538.7,611.2,538.7,612.3L538.7,612.3z M536.7,609.8
		c-0.1-0.4-0.3-0.7-0.7-0.6c-0.4,0-0.6,0.3-0.6,0.7s0.3,0.7,0.7,0.6C536.4,610.4,536.6,610.2,536.7,609.8z"/>
	<path class="st3" d="M537,605.7c0.5,0,0.8,0.3,0.8,0.8c0,0.6-0.3,0.8-0.8,0.8c-0.6,0-0.8-0.3-0.8-0.8
		C536.2,606,536.5,605.8,537,605.7z"/>
	<path class="st3" d="M538.3,604.1c0,0.4-0.3,0.5-0.6,0.5c-0.3,0-0.4-0.2-0.4-0.5c0-0.3,0.2-0.5,0.5-0.5
		C538.2,603.6,538.3,603.9,538.3,604.1z"/>
	<path class="st4" d="M527.8,616.2c-0.7,1.4-1.4,2-2.5,1.9c-1.2-0.1-1.9-0.8-2.3-2.3c0-5.8,0-11.5,0-17.3c0-0.1,0-0.3,0-0.4
		c0-0.2,0-0.3,0-0.5c0-0.1,0-0.1,0-0.2s0.1-0.1,0.1-0.2l0,0c0.1,0,0.1,0,0.2-0.1c0.2,0,0.5,0,0.7,0c0.6,0,1,0,1.6,0
		c0.1,0,0.2,0,0.2-0.2c0.1,0,0.1-0.1,0.1-0.2c0.1-0.2,0.3-0.4,0.4-0.5c0.5-0.1,0.9-0.1,1.3,0.2c0.1,0.1,0.1,0.2,0.2,0.4
		c0.1,0.3,0.2,0.6,0.3,0.8c-0.1,0.2-0.1,0.5,0,0.7c0,4,0,8.2-0.1,12.2C527.8,612.3,527.8,614.3,527.8,616.2z"/>
	<path class="st3" d="M526.3,595.7c-0.3-0.1-0.5-0.2-0.5-0.5c0-0.3,0.2-0.5,0.5-0.5c0.3,0,0.4,0.2,0.4,0.5
		C526.7,595.5,526.5,595.6,526.3,595.7z"/>
	<path class="st19" d="M526.1,596.2c-0.1,0.2-0.3,0.4-0.4,0.5C525.6,596.4,525.8,596.2,526.1,596.2z"/>
	<path class="st19" d="M527.9,598.3c-0.1-0.2-0.1-0.5,0-0.7C527.9,597.8,527.9,598.1,527.9,598.3z"/>
	<path class="st19" d="M523.8,597c-0.2,0-0.5,0-0.7,0C523.4,596.9,523.6,596.8,523.8,597z"/>
	<path class="st19" d="M522.9,598c0,0.1,0,0.3,0,0.4C522.7,598.3,522.7,598.1,522.9,598z"/>
	<path class="st19" d="M523,597C523,597,522.9,597,523,597C522.9,597,523,597,523,597z"/>
	<path class="st19" d="M527.6,596.8c-0.1-0.1-0.1-0.2-0.2-0.4C527.5,596.5,527.5,596.6,527.6,596.8z"/>
	<path class="st19" d="M525.6,596.9c0,0.2-0.1,0.2-0.2,0.2C525.4,597,525.5,596.9,525.6,596.9z"/>
	<path class="st19" d="M522.9,597.3c0,0.1,0,0.1,0,0.2C522.8,597.4,522.8,597.4,522.9,597.3C522.8,597.3,522.8,597.3,522.9,597.3z"
		/>
	<path class="st14" d="M536.7,609.8c0,0.4-0.2,0.7-0.6,0.7c-0.4,0-0.7-0.2-0.7-0.6c0-0.4,0.2-0.7,0.6-0.7
		C536.4,609.2,536.6,609.4,536.7,609.8z"/>
	<circle class="st6" cx="688.5" cy="557.4" r="0.7"/>
	<path class="st3" d="M682.7,575.7"/>
	<path class="st7" d="M684.3,557.8"/>
</g>
</svg>
