<?xml version="1.0" encoding="utf-8"?>
<!-- Generator: Adobe Illustrator 26.0.1, SVG Export Plug-In . SVG Version: 6.00 Build 0)  -->
<svg version="1.1" id="Layer_1" xmlns="http://www.w3.org/2000/svg" xmlns:xlink="http://www.w3.org/1999/xlink" x="0px" y="0px"
	 viewBox="0 0 1024 1024" style="enable-background:new 0 0 1024 1024;" xml:space="preserve">
<style type="text/css">
	.st0{fill:#9BA9F2;}
	.st1{fill:#6268DD;}
	.st2{fill:#E5E6E6;}
	.st3{fill:#F8FAFA;}
	.st4{fill:#494EBE;}
	.st5{fill:#FDFDFE;}
	.st6{fill:#CFD8DE;}
	.st7{fill:#2F349F;}
	.st8{fill:#093635;}
	.st9{fill:#FABDA6;}
	.st10{fill:#986E9B;}
	.st11{fill:#EE5922;}
	.st12{fill:#CDD5FF;}
	.st13{fill:#D8E2E7;}
	.st14{fill:#2F3497;}
	.st15{fill:#A7BDC7;}
	.st16{fill:#9A3709;}
	.st17{fill:#1E7C8B;}
	.st18{fill:#FCE5D5;}
	.st19{fill:#F8FAFB;}
	.st20{fill:#D9E2E8;}
	.st21{fill:#FDFDFD;}
	.st22{fill:#073634;}
	.st23{fill:#A3A3A3;}
	.st24{fill:#CFAB6D;}
	.st25{fill:#EE5A22;}
</style>
<g>
	<path class="st0" d="M263.1,562.6c10-130.5,16.2-157.2,30.4-187.6c16.7-36,35.1-75.5,69.3-82.5c39.3-8,52.4,36.5,123,58.4
		c67.6,21,92.4-8.4,137.8,20.2c33.7,21.3,49.6,56.2,62.3,84.1c24.2,53.2,10.2,69.1,33.5,109c30.6,52.5,70,50.9,70.8,76.3
		c1.7,53.5-172.9,97.4-231.2,112.1c-98,24.6-143,20.4-173.6,14c-33.3-7-89.7-18.8-117.6-64.1C256.5,684.1,254.9,668.5,263.1,562.6z"
		/>
	<path class="st1" d="M527,417.7c0-0.8,0-24.6,0-25.4c0-0.1,0-0.1,0-0.2c0-0.1,0-0.2,0-0.3c0-0.1,0-0.1-0.1-0.2
		c-0.1-0.1-0.1-0.2-0.2-0.2c-0.1,0-0.2-0.1-0.3-0.2c-52-16.7-103.9-33.4-155.9-50.1c-0.1,0-0.2,0-0.3-0.1c-0.1,0-0.2,0-0.3,0
		c0,0-0.1,0-0.2,0.1c-0.1,0.1-0.2,0.2-0.2,0.3c-0.1,0.1-0.1,0.2-0.1,0.4c0,0.1,0,0.2,0,0.4c0,103.8,0,207.6,0.1,311.4
		c0,0.3-0.1,0.7,0,1.2c0,0.6,0.1,1,0.3,1.2c0.1,0.1,0.3,0.2,1.2,0.1c0.4-0.1,1-0.2,1.7-0.4c50.6-10.7,101.3-21.4,151.9-32.1
		c0.2,0,0.5-0.1,0.8-0.2c0.6-0.2,1-0.3,1.2-0.6c0.2-0.3,0.3-0.7,0.3-1.4c0-0.4,0-0.7,0-0.9C527,577.3,527,460.9,527,417.7z
		 M378.8,615.5c0,0,0.1,0,0.1,0c3-0.6,3-0.6,3,2.4c0,3,0,3-2.9,3.6c-3.1,0.6-3.1,0.6-3.1-2.5C376,616.1,376,616.1,378.8,615.5z
		 M376,631c0.1-1.2-0.6-3,0.3-3.6c1.4-1,3.4-0.9,5.2-1.2c0.6-0.1,0.5,0.3,0.5,0.7c0,0.8,0,1.5,0,2.3c0,2.8,0,2.8-2.7,3.4
		c-0.7,0.2-1.4,0.2-2.1,0.4c-1.1,0.3-1.3-0.1-1.2-1C376,631.7,376,631.3,376,631z M379.1,643.7c-3.1,0.6-3.1,0.6-3.1-2.5
		c0-2.9,0-2.9,2.9-3.5c0,0,0.1,0,0.1,0c3-0.6,3-0.6,3,2.4C382,643.2,382,643.2,379.1,643.7z M387.4,640.7c-0.9-0.1-1.4-0.6-1.4-1.5
		c0-1,1-2,2.2-1.9c0.8,0.1,1.2,0.6,1.2,1.5C389.5,639.8,388.4,640.8,387.4,640.7z M387.5,629.6c-0.9,0-1.4-0.5-1.5-1.4
		c0-1,1-2,2.2-2c0.7,0,1.2,0.5,1.3,1.4C389.5,628.5,388.5,629.7,387.5,629.6z M387.5,618.5c-0.9,0-1.4-0.5-1.4-1.5c0-1,1-2,2.2-2
		c0.8,0,1.2,0.6,1.2,1.4C389.5,617.4,388.5,618.5,387.5,618.5z M395.5,639.2c-0.9,0-1.4-0.4-1.5-1.3c0-1.1,0.9-2.2,1.9-2.2
		c0.9,0,1.4,0.4,1.5,1.4C397.5,638.1,396.5,639.1,395.5,639.2z M394,626.6c0-1,1-2,2-2c0.9,0,1.4,0.6,1.4,1.4c0,1-1,2-2.1,2
		C394.5,628,394,627.5,394,626.6z M395.3,616.9c-0.9-0.1-1.3-0.7-1.3-1.6c0-1,1.2-2,2.1-1.9c0.9,0.1,1.3,0.7,1.3,1.4
		C397.3,616.1,396.3,617,395.3,616.9z M403.2,637.6c-1,0-1.3-0.6-1.4-1.5c0-1,1-2,2-1.9c0.9,0.1,1.4,0.6,1.4,1.5
		C405.2,636.8,404.3,637.6,403.2,637.6z M403.3,615.4c-0.9,0-1.4-0.6-1.4-1.5c0-1,1-2,2-2c1,0,1.4,0.6,1.4,1.5
		C405.3,614.4,404.3,615.4,403.3,615.4z M411.2,613.9c-0.8,0-1.4-0.6-1.5-1.4c0-1,1-2,1.9-2c0.9,0,1.4,0.5,1.5,1.4
		C413.2,612.8,412.2,613.8,411.2,613.9z"/>
	<path class="st2" d="M615.2,679.4c-87.9,0-175.8,0-263.7,0c61.7-13.9,123.4-27.8,185.1-41.8c0.4,0,0.8,0,1.2-0.1
		c79.5,0,159,0,238.5-0.1C722.6,651.5,668.9,665.4,615.2,679.4z"/>
	<path class="st3" d="M551.7,640.1c-0.1,0-1.4,0-2.4,0.2c-0.7,0.1-1.4,0.3-1.4,0.3c0,0,0,0,0,0c-51.2,11.3-102.5,22.6-153.7,34
		c-0.2,0-0.4,0.1-0.4,0.2c-0.1,0-0.1,0.1-0.1,0.2c0,0.1,0.1,0.1,0.2,0.1c57.2,0.1,99.2,0.1,100.4,0.1c1.6,0,3-0.2,3-0.2c0,0,0,0,0,0
		c1.4-0.1,2.5-0.2,3.1-0.3c0.9-0.1,1.5-0.2,2.5-0.4c0.9-0.1,1.4-0.2,2.1-0.4c0.7-0.1,1.7-0.4,2.9-0.7c49.1-11,98.3-22,147.4-32.9
		c0.2-0.1,0.4-0.2,0.3-0.3c0-0.1-0.3-0.1-0.8-0.1C620.5,640,586.1,640,551.7,640.1z M544.7,646.9c-8.8,3.3-17.9,1.7-27.1,2.2
		C521.6,647.1,534.9,646,544.7,646.9z M506.6,660.5c-1.1,0.2-2.2,0.4-3.4,0.4c-5.5,0-11,0-16.6-0.2c1.9-0.4,3.8-0.9,5.6-1.3
		c5.2-1.2,10.5-2.3,15.7-3.5c1.1-0.2,2.1-0.4,3.2-0.4c5.5,0,10.9,0,16.4,0c0,0.1,0,0.2,0,0.3c-2.6,0.6-5.2,1.2-7.7,1.8
		C515.5,658.6,511.1,659.5,506.6,660.5z M523.2,658.5c4.7,0.1,9.3,0,14.1,0c-9.1,3.4-18.4,2.1-27.7,2.1c1.8-0.4,3.6-0.8,5.4-1.3
		C517.7,658.6,520.4,658.5,523.2,658.5z M483.7,665.3c-8.7,3.3-17.8,1.8-27.1,2.2C465.7,664.1,474.8,665.6,483.7,665.3z
		 M470.1,664.5c9.2-3.4,18.4-1.9,27.7-2.3C488.7,665.6,479.5,664.1,470.1,664.5z M506.8,665.2c-9.1,3.4-18.2,1.9-27.2,2.2
		C488.4,664.1,497.5,665.6,506.8,665.2z M513.8,654.8c5.1-2.1,16.2-2.9,27.6-2.2C532.3,656,523,654.6,513.8,654.8z M532.4,649.5
		c-4.3,2-17.3,3.1-28,2.4C513.3,648.5,522.7,649.8,532.4,649.5z M519,652.5c-9.2,3.6-18.7,2.1-28.2,2.5
		C500,651.4,509.4,652.9,519,652.5z M482.2,656.6c2.7-0.7,5.3-1.2,8.1-1.1c5,0.1,10,0,15.4,0c-5.6,2.1-16.5,2.9-28.6,2.3
		C478.9,657.2,480.6,657,482.2,656.6z M492.1,658.5c-9.2,3.5-18.5,2.2-27.7,2.4C473.3,657.3,482.6,658.9,492.1,658.5z M475,662.2
		c-9.1,3.4-18.4,1.9-27.6,2.3C456.4,661.2,465.7,662.6,475,662.2z M461.2,665.3c-8.7,3.3-17.8,1.8-26.7,2.1
		C443.2,664.1,452.2,665.6,461.2,665.3z M403.4,674.3c9-3.4,18.3-1.9,27.5-2.3C421.9,675.4,412.6,673.9,403.4,674.3z M426,674.3
		c9.2-3.4,18.3-1.9,27.6-2.3C444.5,675.5,435.3,673.8,426,674.3z M448.7,674.3c9.1-3.4,18.3-1.9,27.6-2.3
		C467.2,675.4,458,673.9,448.7,674.3z M471.2,674.3c9.1-3.4,18.3-1.9,27.7-2.3C489.8,675.4,480.5,673.9,471.2,674.3z M488.5,670.5
		c9.1-3.4,18.3-1.9,27.5-2.3C507,671.6,497.8,670.1,488.5,670.5z M502.4,667.4c8.8-3.3,17.9-1.8,27.2-2.2
		C520.5,668.6,511.4,667.2,502.4,667.4z M515.4,664.5c9-3.4,18.2-1.9,27.6-2.3C533.8,665.6,524.7,664.1,515.4,664.5z M522.6,658
		c9.2-3.5,18.6-2.1,28.2-2.5C541.5,659.1,532,657.6,522.6,658z M622.7,640.8c0.5,0,0.9,0,1.4,0c-3.4,0.6-6.4,0.9-8.9,2.1
		c-0.8,0-1.6,0-2.4,0C616,642.2,619.3,641,622.7,640.8z M624.3,645.4C624.3,645.4,624.3,645.4,624.3,645.4
		C624.3,645.4,624.3,645.4,624.3,645.4z"/>
	<path class="st4" d="M257.9,654.2c26,0,52.1,0,78.1,0c6.6,13.8,13.2,27.5,19.9,41.3c86.5,0,173.1,0,259.6,0c0,0,0.1,0,0.1,0
		c0,0.1,0,0.1,0.1,0.2c-5.4,1.1-10.6,2.8-16,4.2c-2.9,0.7-5.8,1.7-8.7,2.5c0,0-0.8,0.1-1.6,0.1c-2.2,0.1-47.3,0.2-321.7,0
		c-2.1-3.3-4.8-8.4-6.7-15c-1.4-4.8-1.9-8.5-2.4-12.8C258.1,669.7,257.6,662.7,257.9,654.2z"/>
	<path class="st5" d="M579.4,502.5c1.9,0,3.8,0.1,5.7,0c8.2-0.6,15.5,5.4,17.8,13c1,3.4,1.3,6.9,1.8,10.4
		c1.7,11.8,3.4,23.6,5.1,35.4c0.4,2.7,0.8,5.4,1.2,8c0.1,0.5,0.3,1.1-0.5,1.4c-2.3-0.2-4.5-0.2-6.8,0c-0.9,0-1.1-0.7-1.3-1.3
		c-2.9-9.5-5.8-19-8.7-28.5c-0.1-0.4-0.1-0.8-0.5-1.2c-0.3,0.5-0.2,1.1-0.2,1.6c0,18.6,0,37.3,0,55.9c0,0.6,0.4,1.4-0.7,1.6
		c-4.6,0-9.3,0-13.9,0c-3.3,0-6.6,0-9.9,0c-4.5,0-9.1,0-13.6,0c-1.4,0.2-1.8-0.5-1.7-1.8c0.1-14.2,0-28.3,0-42.5
		c0-10.9,0-21.9,0-32.8c0-1.1-0.2-1.4-1.3-1.2c-4.1,0.5-8.2,1-12.3,1.4c-0.2,0-0.9,0-1.3,0.5c-0.4,0.4-0.4,1-0.3,1.4
		c0,37.9,0.1,75.7,0.1,113.6c0,0.1,0,0.2,0,0.3c-0.4,0-0.7,0-1.1,0.1c-61.7,13.9-123.4,27.8-185.1,41.8c-0.2,0.1-0.7,0.1-1-0.1
		c-0.3-0.2-0.4-0.6-0.4-1.2c0-1.9,0.3-3.8,0.3-5.7c-0.1-14-0.2-28-0.2-41.9c0-55.7-0.4-111.5,0.2-167.2c0.1-6.4-0.2-12.8-0.2-19.3
		c0-26.9-0.2-53.7,0.2-80.6c0.2-15.9,0-31.9,0-47.8c0-1.3,0.1-2.5-0.2-3.8c-0.2-0.7,0-1.4,0.6-1.9c9.7,3.5,19.4,7.1,29,10.6
		c27,9.9,54.1,19.8,81.1,29.8c23.5,8.6,46.9,17.3,70.4,25.9c1.7,0.6,3.5,1.3,5.2,1.9c1,0.3,1.3,0.8,1.3,1.9c0,15.8,0,31.7,0,47.5
		c0,25.7,0,51.3,0,77c0,1.7,0,1.6,1.6,1.2c4.1-1.1,8.2-2.8,12.5-2.9c4.3-0.1,8.7-0.1,13-0.1c0.5,0,0.9,0,1.4,0
		C570.7,502.6,575.1,502.6,579.4,502.5z M457.3,360.3c0,0.1,0,0.2,0,0.3c0,0.1,0.1,0.1,0.1,0.2c0.1,0.1,0.2,0.1,0.3,0.1
		c3.2,1.1,6.3,2.2,9.5,3.3c0.3,0.1,0.6,0.1,0.8-0.1c0.2-0.2,0.3-0.4,0.3-0.5c0-2,0-4.1,0-6.1c0-0.1,0.1-0.4-0.2-0.8
		c-0.2-0.3-0.5-0.4-0.6-0.4c-4.5-1.7-7.8-2.9-8.8-3.3c-0.2-0.1-0.7-0.3-1.1-0.1c-0.3,0.2-0.3,0.8-0.3,1
		C457.4,356.1,457.4,358.2,457.3,360.3z M511.8,493.1c0-0.4-0.1-0.7-0.3-1.1c0-1-0.7-0.8-1.4-0.8c-4.8-0.1-9.5-0.2-14.3-0.3
		c-0.5,0-1.3,0.3-1.3-0.7c0-1,0.8-0.7,1.3-0.7c5.1,0.1,10.2,0.2,15.3,0.3c0.3,0.5,0.6,0.8,1.3,0.5c1.9-0.9,3.9-1.8,5.9-2.6
		c0.5-0.2,0.8,0,1.1,0.5c0.5,1,1.1,2,1.6,3c2,3.5,3.7,7.1,5.9,10.5c0.5,1.8,1.9,3.2,2.6,4.9c0.2,0.5,0.4,1.5,1.1,1.3
		c0.8-0.2,0.4-1.1,0.4-1.7c0-38.6,0-77.1,0-115.7c0-2.2,0-2.2-2.1-2.9c-6.4-2.1-12.8-4.3-19.3-6.4c-8.2-2.8-16.5-5.6-24.7-8.3
		c-6-2-12.1-3.9-18.1-5.9c-8-2.7-15.9-5.3-23.9-7.9c-4.5-1.5-9.1-3.1-13.6-4.6c-7.6-2.5-15.1-5.1-22.7-7.6
		c-8.3-2.8-16.6-5.5-24.9-8.2c-4.8-1.6-9.7-3.3-14.5-4.9c-1.6-0.5-1.8-0.4-1.8,1.2c0,0.5,0,0.9,0,1.4c0,107.4,0,214.7,0,322.1
		c0,0.6,0,1.2,0,1.8c-0.1,1.1,0.2,1.5,1.5,1.2c6.7-1.5,13.5-2.8,20.3-4.3c8.7-1.8,17.4-3.6,26.1-5.5c4.2-0.9,8.4-1.8,12.6-2.7
		c6.3-1.3,12.5-2.6,18.8-3.9c8.3-1.8,16.7-3.4,25-5.2c5.8-1.2,11.5-2.5,17.3-3.7c8.1-1.7,16.3-3.4,24.4-5.1c6-1.3,12-2.6,18-3.8
		c1.4-0.3,1.8-0.8,1.8-2.2c0-25.4,0-50.9,0-76.3c0-8.1,0-16.3,0-24.4c0-1-0.3-1.5-1.4-1.4c-0.9,0.1-1.8,0-2.7,0
		c-3.9-1-6-3.7-7.1-7.4c-1-3.1-2.2-6.1-3.2-9.2c-0.3-0.8-0.7-1.1-1.5-1c-5.6,0.2-11.2,0.4-16.8,0.6c-0.5,0-1.2,0.3-1.6-0.4
		c0.5-0.2,1.1,0.1,1.5-0.5c0.3,0,0.5,0,0.8-0.1c0.1,0,0.2,0,0.3,0c1,0,2,0,3-0.1c0.5,0.3,0.9,0.3,1.3,0c3.6-0.1,7.2-0.3,10.8-0.3
		c1,0,1.4-0.3,1-1.4c-0.8-2.1-1.5-4.1-2.3-6.2c0-0.1,0-0.2-0.1-0.3C512.7,495.2,512.4,494.1,511.8,493.1L511.8,493.1z"/>
	<path class="st6" d="M350.8,309.9c-0.6,0.5-0.7,1.2-0.6,1.9c0.3,1.3,0.2,2.5,0.2,3.8c0,15.9,0.2,31.9,0,47.8
		c-0.4,26.9-0.1,53.7-0.2,80.6c0,6.4,0.2,12.8,0.2,19.3c-0.5,55.7-0.2,111.5-0.2,167.2c0,14,0.1,28,0.2,41.9c0,1.9-0.3,3.8-0.3,5.7
		c0,1,0.3,1.6,1.4,1.4c0.4,0.4,0.9,0.3,1.4,0.3c1.8-0.1,3.5-0.2,5.3-0.2c85.7,0,171.3,0,257,0c0.1,5.3,0.2,10.7,0.3,16
		c-87.4,0-174.8,0-262.2,0c-3,0-3,0-3.1-2.9c0-0.2-0.1-0.4-0.1-0.5c0.1-0.1,0.2-0.1,0.2-0.2c-0.2-3.6-0.1-7.3-0.1-10.9
		c0-0.9-0.4-1.1-1.2-1.1c-3.5,0-7,0-10.5,0c-2.4-0.2-2.3-0.2-2.4-2.6c0-7.7,0-15.3-0.1-23c0-3.8,0-7.6,0.1-11.4c0-9.4,0-18.9,0-28.3
		c0-0.8,0-1.6-0.3-2.4c0.4-0.4,0.3-0.9,0.2-1.4c-0.1-7.7,0.4-15.3-0.3-23c0.5-0.5,0.3-1.2,0.3-1.8c0-27.1,0-54.2,0-81.3
		c0-7.3,0-14.7,0-22c0-21.8,0-43.6,0-65.5c0-0.8,0.3-1.7,0-2.5c0-14.2,0-28.5,0-42.7c0-18.8,0-37.5,0-56.3c0-0.4,0-0.8,0-1.2
		c-0.1-0.7,0.2-1,0.9-1.1c4.2-1.1,8.3-2.2,12.4-3.3C349.9,309.7,350.4,309.6,350.8,309.9z M379.6,689.7c2.8,0,5.6,0,8.4,0
		c3.1,0,2.6,0.5,2.7-2.7c0.1-1.4-0.4-1.7-1.7-1.6c-5.8,0.1-11.6,0-17.3,0c-2.9,0-3-0.6-3,3c0,1.1,0.4,1.4,1.4,1.4
		C373.2,689.7,376.4,689.7,379.6,689.7z M407.6,685.4c-2.7,0-5.4,0-8.1,0c-2.9,0-2.8,0-2.9,2.9c0,1.3,0.4,1.5,1.6,1.5
		c5.7,0,11.5,0,17.2,0c3,0,3,0,3-3c0-1.1-0.4-1.4-1.4-1.3C413.8,685.4,410.7,685.4,407.6,685.4z"/>
	<path class="st5" d="M335.8,587.6c0.7,7.7,0.1,15.3,0.3,23c0,0.5,0.1,1-0.2,1.4c-2.6-7.7-4.4-15.7-5.9-23.7
		c-2.5-12.9-4.2-26-6.1-39c-1.5-10.2-2.8-20.5-5.4-30.6c-1-3.9-2.7-7.5-4.9-11c-9.2-14.4-15.6-30-18.7-46.8
		c-3.1-17.4-2.6-34.7,3.4-51.5c4.2-12,10.7-22.4,21.1-30.1c5-3.7,10.5-6.3,16.7-7.5c0,14.2,0,28.5,0,42.7c-1.2,1-1.8,2.3-2.4,3.7
		c-2.7,6.4-4.4,13.1-5,20c-0.4,5.1-0.4,10.1,0.2,15.2c0.6,5.5,1.7,11,3.2,16.3c1.2,4.3,2.4,8.6,4.1,12.8c0,7.3,0,14.7,0,22
		c-0.6-0.1-0.7-0.7-0.9-1.1c-2.4-5.1-4.3-10.4-6-15.8c-2.4-7.5-4.1-15.3-5.3-23.1c-1.1-7-1.6-14.1-1.5-21.2c0.1-5.1,0.6-10.1,1.8-15
		c1.6-6.6,4.2-12.8,8.8-18c1.4-1.5,2-3.5,1.8-5.5c-0.2-3.1-2.2-5-4.7-6.5c-4.2-2.4-10.1-0.8-13.7,2c-3.7,2.9-6.3,6.7-8.3,10.9
		c-3.7,8-5.5,16.6-6,25.4c-0.3,5.6,0,11.2,0.7,16.8c1,8,2.9,15.9,5.5,23.5c2,6,4.3,11.8,7.2,17.4c2.5,4.8,5.1,9.6,8.5,13.8
		c0.4,0.5,0.8,1,0.9,1.7c0.3,2.3,0.6,4.6,0.8,6.8c0.7,5.4,1.3,10.8,1.9,16.2c0.8,6.2,1.6,12.3,2.4,18.5c0.7,5.2,1.3,10.4,2,15.5
		c0.7,5.1,1.5,10.2,2.4,15.2C334.8,584,334.9,585.9,335.8,587.6z"/>
	<path class="st5" d="M615.2,679.4c53.7-14,107.4-27.9,161.1-41.9c0,5.2,0.1,10.3,0.1,15.5c-53.6,14.1-107.3,28.3-160.9,42.4
		C615.4,690.1,615.3,684.7,615.2,679.4z"/>
	<path class="st7" d="M595.8,666.7c0.1,1-0.4,1.3-1.4,1.3c-4.5-0.1-9.1,0-13.6,0c-0.3,0-0.6,0-1.1,0c0.4-0.4,0.7-0.6,0.9-0.8
		c1.2-0.7,2.4-1.4,3.5-2.2c1.7-1.2,3.7-2,5.2-3.5c0.5,0,0.5-0.4,0.4-0.8c-0.4-1.8-0.7-3.5-1.1-5.3c0-0.2,0-0.4-0.1-0.5
		c0-0.1-0.1-0.3-0.1-0.4c-0.1-0.7-0.1-1.4-0.4-2c-0.1-1.4-0.4-2.8-0.8-4.1c0-0.3,0-0.5-0.1-0.8c-0.1-0.3-0.2-0.6-0.2-0.9
		c0-0.2,0-0.3,0-0.5c0.1-0.1,0-0.3-0.1-0.4l0,0c0-0.7-0.1-1.4-0.4-2.1c0.1-0.3,0.1-0.6-0.1-0.9c-0.1-0.7-0.1-1.4-0.4-2.1
		c0-0.3,0-0.6-0.1-0.8c-0.1-0.9-0.2-1.9-0.6-2.7c0-0.4,0-0.9-0.1-1.3c-1.4-7.5-2.8-15.1-4.2-22.6c-0.9-4.8-1.7-9.7-2.6-14.5
		c4.6,0,9.3,0,13.9,0c0.4,7,0.7,14.1,1.1,21.1c0.3,5.8,0.7,11.6,1.1,17.4c-0.1,0.9-0.1,1.8,0.1,2.7c0,0.5,0.1,1.1,0.1,1.6
		c0,0.5,0,0.9,0,1.4c0,0.1,0,0.2,0,0.2c0.1,0.9,0.1,1.8,0.2,2.7c0,0.2,0,0.4,0,0.5c0,1.5,0,2.9,0.3,4.3c0,0.9,0.1,1.8,0.1,2.7
		c0.1,2.1,0.2,4.2,0.4,6.3C595.7,662.1,595.7,664.4,595.8,666.7z"/>
	<path class="st8" d="M659.2,577.1c4.6,0,9.2,0,13.7-0.1c0.5,2.7,0.4,5.4,0.6,8.1c0.5,7.3,0.8,14.7,1.2,22.1
		c0.6,10.1,1.1,20.1,1.7,30.2c0,2.3,0,4.6,0,6.9c0,0.6,0,1.1-0.8,1.1c-4.8,0-9.7,0-14.5,0c-0.1,0-0.2-0.1-0.5-0.2
		c3-1.9,5.8-3.8,8.8-5.5c1-0.6,1.3-1.2,0.8-2.2c-2.2-12-4.4-24-6.6-36C662.2,593.3,660.7,585.2,659.2,577.1z"/>
	<path class="st9" d="M579.4,502.5c-4.4,0.1-8.7,0.1-13.1,0c0-1.6,0-3.2,0-4.9c0-0.8-0.2-1.1-1-1.1c-1.3,0.1-2.5,0-3.8,0
		c-2,0-3.1-1.1-3.1-3.1c0-2.2-0.1-4.4,0-6.6c0.1-1.3-0.4-1.8-1.7-1.6c-1.2,0.2-1.3-0.3-0.9-1.3c0.8-1.9,1.4-3.9,2.1-5.8
		c0.3-0.3,0.5-0.4,1-0.2c0.7,0.2,1.5,0.2,2.1,0c3-1,6-0.7,9.1-0.4c0.9,0.1,1.3,0.4,1.3,1.3c-0.1,1,0,2,0,3c-0.1,0.8,0.2,1.2,1,1.6
		c1.8,0.8,2,3.2,0.2,4c-1.3,0.6-1.2,1.4-1.2,2.4c0,0.5,0,1,0,1.5c-0.1,0.8,0.3,1.1,1.1,1.1c1.9,0,3.8,0,5.7,0
		C578.7,495.7,579,499.1,579.4,502.5z M561,481c1-0.5,2.2-1,3.4-1.6c0.2-0.1,0.2-0.3,0.1-0.5c-0.1-0.3-0.4-0.2-0.6-0.1
		c-1.1,0.5-2.2,1-3.3,1.5c-0.2,0.1-0.3,0.3-0.3,0.5C560.4,481,560.5,481.1,561,481z"/>
	<path class="st10" d="M578.3,492.3c-1.9,0-3.8,0-5.7,0c-0.8,0-1.2-0.3-1.1-1.1c0-0.5,0-1,0-1.5c0-1-0.1-1.8,1.2-2.4
		c1.8-0.8,1.6-3.1-0.2-4c-0.8-0.4-1.1-0.8-1-1.6c0.1-1,0-2,0-3c0.1-1-0.4-1.2-1.3-1.3c-3.1-0.3-6.1-0.6-9.1,0.4
		c-0.7,0.2-1.4,0.2-2.1,0c-0.4-0.1-0.7,0-1,0.2c-0.7-1.5-1.3-3-1.3-4.7c0-4.4,2.2-5.7,6.4-5.4c3.2,0.3,6.4,0.8,9.7,1.2
		c2.3,0.3,3.5,1.3,3.7,3.6c0.6,6.3,1.2,12.6,1.7,18.9C578.3,491.8,578.3,492.1,578.3,492.3z"/>
	<path class="st3" d="M606.6,396.2c0,0.4,0,0.6,0,0.7c0.1,1.1-0.1,1.4-1.3,1c-8.1-2.5-16.1-4.9-24.2-7.4c-1.6-0.5-3.1-1-4.7-1.4
		c-1-0.2-1.3-0.6-1.3-1.6c0.1-2.3,0-2.4,2.3-1.7c9.4,2.8,18.7,5.7,28.1,8.5C607,394.7,606.6,395.6,606.6,396.2z"/>
	<path class="st3" d="M592.2,397.5c0,2.2,0.1,2-1.8,1.4c-4.7-1.4-9.3-2.8-14-4.2c-1-0.3-1.8-2.9-1.1-3.7c0.2-0.3,0.5-0.1,0.7-0.1
		c5.1,1.6,10.3,3.1,15.4,4.7C592.6,396,592,396.9,592.2,397.5z"/>
	<path class="st3" d="M560.1,427c-0.4,0-0.7-0.3-0.9-0.6c-0.3-0.4,0.2-0.6,0.4-0.9c3.4-4.3,6.7-8.5,10.1-12.8
		c3.5-4.4,7-8.8,10.5-13.2c0.3-0.4,0.4-1.2,1.3-0.6c0.9,0.6,0.3,1-0.1,1.5c-6.8,8.6-13.6,17.2-20.4,25.7
		C560.7,426.5,560.5,426.9,560.1,427z"/>
	<path class="st9" d="M610.6,572.7c0.2,1.1,0.4,2.1,0.5,3.2c0.2,1.5-0.7,2.8-2.1,3.2c-1.5,0.4-2.9-0.2-3.6-1.6
		c-0.6-1.5-0.9-3.1-1.3-4.7C606.3,572.6,608.4,572.7,610.6,572.7z"/>
	<path class="st11" d="M610.6,572.7c-2.1,0-4.3-0.1-6.4,0.1c-0.4-0.7-0.5-1.4-0.6-2.1c2.3-0.1,4.5-0.2,6.8,0
		C610.4,571.4,610.5,572.1,610.6,572.7z"/>
	<path class="st12" d="M338.4,679.7c3.5,0,7,0,10.5,0c0.8,0,1.2,0.2,1.2,1.1c0,3.6-0.1,7.3,0.1,10.9c0,0.1-0.1,0.1-0.2,0.2
		c-2.5,0.3-5.1,0.4-7.4-0.8C338.4,689,336.7,684.2,338.4,679.7z"/>
	<path class="st13" d="M370,603.6c-1,17-0.2,34.1-0.4,51.2c0,1.2,0.3,1.5,1.5,1.2c18.5-4,37.1-7.9,55.6-11.8
		c20.8-4.4,41.6-8.8,62.4-13.2c12.2-2.6,24.3-5.2,36.5-7.7c1.2-0.3,1.5-0.7,1.5-1.9c0-28.3,0-56.7,0-85c0-4.6,0-9.1,0-13.7
		c0.9,0,1.8,0.1,2.7,0c1.1-0.1,1.4,0.4,1.4,1.4c0,8.1,0,16.3,0,24.4c0,25.4,0,50.9,0,76.3c0,1.4-0.4,1.9-1.8,2.2
		c-6,1.2-12,2.6-18,3.8c-8.1,1.7-16.3,3.4-24.4,5.1c-5.8,1.2-11.5,2.5-17.3,3.7c-8.3,1.8-16.7,3.4-25,5.2
		c-6.3,1.3-12.5,2.6-18.8,3.9c-4.2,0.9-8.4,1.8-12.6,2.7c-8.7,1.9-17.4,3.7-26.1,5.5c-6.8,1.4-13.5,2.8-20.3,4.3
		c-1.2,0.3-1.6-0.1-1.5-1.2c0-0.6,0-1.2,0-1.8c0-107.4,0-214.7,0-322.1c0-0.5,0-0.9,0-1.4c0-1.6,0.2-1.7,1.8-1.2
		c4.8,1.6,9.7,3.3,14.5,4.9c8.3,2.8,16.6,5.5,24.9,8.2c7.6,2.5,15.1,5.1,22.7,7.6c4.5,1.5,9.1,3.1,13.6,4.6c8,2.6,15.9,5.3,23.9,7.9
		c6,2,12.1,3.9,18.1,5.9c8.3,2.7,16.5,5.6,24.7,8.3c6.4,2.1,12.8,4.3,19.3,6.4c2.1,0.7,2.1,0.7,2.1,2.9c0,38.6,0,77.1,0,115.7
		c0,0.6,0.4,1.5-0.4,1.7c-0.8,0.2-0.9-0.8-1.1-1.3c-0.7-1.7-2.1-3.1-2.6-4.9c0-36.3,0-72.6,0-109c0-0.2,0-0.4,0-0.5
		c0-0.3,0-0.5-0.1-0.6c-0.1-0.3-0.5-0.4-0.7-0.4c-51.9-16.7-103.7-33.3-155.6-50c-0.1,0-0.1-0.1-0.2-0.1c-0.1,0-0.1,0-0.2,0
		c-0.2,0-0.2,0-0.3,0c-0.1,0-0.2,0.1-0.3,0.2c0,0-0.1,0.1-0.2,0.3c0,0.1-0.1,0.3-0.1,0.6c0.1,18.1,0.1,31,0,31.7
		c0,0.1-0.1,0.6,0.2,1c0.1,0.1,0.2,0.2,0.4,0.3c-0.5,0.5-0.3,1.1-0.3,1.7c0,8.8,0,17.6,0,26.4c-0.3,0.5-0.3,1.1-0.3,1.7
		c0,11.4,0,22.7,0,34.1c0,0.5,0.1,1.1,0.1,1.6c0,3.5,0,7-0.1,10.5c0,0.2,0,0.4,0,0.6c-0.1,0-0.1,0.1,0,0.1c0,0.5,0,0.9,0.1,1.4
		c0,3,0,6,0,9c0,0.2,0,0.4,0,0.6c0,0.2,0,0.5,0,0.7c0,0.2,0,0.4,0.1,0.6c0,8.3,0,16.7,0,25c0,1.5,0,2.9,0,4.4c0,8.8,0,17.5,0,26.3
		c0,9.3,0,18.7,0,28c0,0.3,0,0.6,0.3,0.9c0,17.9,0,35.8,0,53.8C369.8,602.7,369.7,603.2,370,603.6z"/>
	<path class="st7" d="M554.1,637.3c0.1-7,0.3-14,0.4-21c0.1-5.8,0.2-11.7,0.3-17.5c4.5,0,9.1,0,13.6,0c-1.2,9-2.5,18-3.7,27
		c-0.5,3.8-1.3,7.7-1.5,11.5c-0.4,0.9-0.4,1.8-0.5,2.7c0,0.3,0,0.5-0.1,0.8c-0.3,0.7-0.3,1.4-0.3,2.2c-0.2,0.2-0.2,0.5-0.2,0.8
		c-0.1,0.7-0.2,1.5-0.3,2.2c0,0.3,0,0.5,0,0.8c-0.3,0.4-0.3,0.9-0.2,1.4c-0.5,0.5-0.2,1-0.3,1.6c-0.2,0.7-0.4,1.4-0.3,2.2
		c-0.1,0.7-0.2,1.4-0.3,2.2c-0.2,0.3-0.2,0.5-0.2,0.8c0,0.2,0,0.3,0,0.5c-0.2,0.8-0.4,1.6-0.3,2.4c-0.3,1.2-0.5,2.3-0.5,3.5
		c0,1.8-0.1,3.6-0.1,5.4c0,0.8-0.2,1.1-1.1,1.1c-4.9,0-9.8,0-15.1,0c1.9-1.3,3.5-2.4,5.1-3.4c1.4-0.8,2.8-1.7,4.3-2.5
		c0.8-0.4,1.1-1,0.8-1.9c0.1-0.5,0.2-1.1,0.1-1.6c0-0.2,0-0.4,0-0.6c0.2-0.7,0.2-1.5,0.1-2.2c0-0.2,0-0.5,0.1-0.7
		c0-1.4,0-2.8,0.1-4.1c0-0.3,0-0.5,0-0.8c0-0.2,0-0.4,0-0.6c0-0.2,0-0.3,0-0.5c0-0.7,0-1.5,0-2.2c0-0.5,0-1.1,0-1.6
		c0.1-0.5,0.2-1.1,0-1.6c0-0.2,0-0.4,0-0.5C554.2,641.1,554.2,639.2,554.1,637.3z"/>
	<path class="st14" d="M457.4,354c5.1,1.8,8.8,3.2,9.3,3.4c0.1,0,0.3,0.1,0.4,0.3c0.1,0.1,0.1,0.3,0.1,0.4c0,1.8,0,3.7,0,5.5
		c0,0.3-0.2,0.4-0.4,0.4c-3-1-6-2.1-9-3.1c0,0-0.2,0-0.3-0.1c0,0-0.1-0.1-0.1-0.2c-0.1-0.1,0-0.2,0-0.3
		C457.4,358.2,457.4,356.1,457.4,354z"/>
	<path class="st13" d="M466.7,364c0.1,0,0.2-0.1,0.2-0.1c0,0,0.1-0.1,0.1-0.1c0-0.1,0.1-0.1,0.1-0.1c0,0,0-0.1,0-0.1
		c0-0.1,0-2.4,0-5.5c0-0.1,0-0.2-0.1-0.4c-0.1-0.2-0.3-0.3-0.4-0.3c-3.1-1.1-6.2-2.3-9.3-3.4c0-0.3,0-0.8,0.3-1
		c0.3-0.2,0.9,0,1.1,0.1c1.1,0.4,4.3,1.6,8.8,3.3c0.1,0,0.4,0.1,0.6,0.4c0.2,0.3,0.2,0.7,0.2,0.8c0,2,0,4.1,0,6.1
		c0,0-0.1,0.4-0.4,0.5c-0.3,0.2-0.7,0-0.7,0C467.1,364.2,466.9,364.1,466.7,364z"/>
	<path class="st11" d="M511.2,489.9c0-0.3,0-0.5,0-0.8c2.1-0.9,4.2-1.7,6.1-3c0.2,0.2,0.4,0.5,0.6,0.7c0.1,0.3,0.3,0.6,0.4,0.9
		c-2,0.9-4,1.7-5.9,2.6C511.8,490.7,511.5,490.4,511.2,489.9z"/>
	<path class="st13" d="M335.8,587.6c-0.9-1.7-0.9-3.6-1.3-5.5c-0.9-5.1-1.7-10.1-2.4-15.2c-0.7-5.2-1.3-10.4-2-15.5
		c-0.8-6.2-1.6-12.3-2.4-18.5c-0.7-5.4-1.3-10.8-1.9-16.2c-0.3-2.3-0.6-4.6-0.8-6.8c-0.1-0.7-0.5-1.2-0.9-1.7c-3.4-4.3-6-9-8.5-13.8
		c-2.9-5.6-5.2-11.4-7.2-17.4c-2.6-7.7-4.4-15.5-5.5-23.5c-0.7-5.6-1-11.2-0.7-16.8c0.5-8.8,2.3-17.4,6-25.4c2-4.2,4.5-8,8.3-10.9
		c3.6-2.8,9.5-4.4,13.7-2c2.5,1.4,4.5,3.4,4.7,6.5c0.1,2-0.5,4-1.8,5.5c-4.6,5.2-7.3,11.4-8.8,18c-1.1,4.9-1.7,9.9-1.8,15
		c-0.2,7.1,0.4,14.2,1.5,21.2c1.2,7.8,2.9,15.5,5.3,23.1c1.7,5.4,3.6,10.7,6,15.8c0.2,0.4,0.2,1,0.9,1.1c0,27.1,0,54.2,0,81.3
		C336.1,586.4,336.3,587.1,335.8,587.6z"/>
	<path class="st9" d="M336.1,482.5c-1.7-4.1-2.9-8.4-4.1-12.8c-1.5-5.4-2.6-10.8-3.2-16.3c-0.5-5-0.5-10.1-0.2-15.2
		c0.5-7,2.2-13.6,5-20c0.6-1.4,1.2-2.8,2.4-3.7c0.3,0.8,0,1.7,0,2.5C336.1,438.9,336.1,460.7,336.1,482.5z"/>
	<path class="st12" d="M379.6,689.7c-3.2,0-6.3,0-9.5,0c-1,0-1.4-0.2-1.4-1.4c0-3.7,0.1-3,3-3c5.8,0,11.6,0,17.3,0
		c1.3,0,1.8,0.3,1.7,1.6c-0.1,3.2,0.4,2.7-2.7,2.7C385.2,689.7,382.4,689.7,379.6,689.7z"/>
	<path class="st12" d="M407.6,685.4c3.1,0,6.2,0,9.4,0c1,0,1.4,0.2,1.4,1.3c0,3,0,3-3,3c-5.7,0-11.5,0-17.2,0
		c-1.1,0-1.6-0.2-1.6-1.5c0.1-2.9,0-2.9,2.9-2.9C402.2,685.4,404.9,685.4,407.6,685.4z"/>
	<path class="st12" d="M595.8,666.7c0-2.3-0.1-4.5-0.1-6.8c3.9-0.5,7.8-1.6,11.7-2.5c8.1-1.8,16.1-3.5,24.2-5.3
		c4.9-1.1,9.8-2.2,14.7-3.3c0.4-0.1,0.9-0.2,1.3-0.2c17.6,0,35.1,0,52.7,0c0.3,0,0.5,0,0.8,0c0,0.1,0,0.1,0,0.2
		c-2.3,0.5-4.7,1-7,1.6c-8.5,1.9-17,3.7-25.5,5.6c-10.7,2.4-21.4,4.7-32.1,7.1c-4.8,1.1-9.6,2.2-14.4,3.2c-0.6,0.1-1.2,0.2-1.7,0.2
		C612,666.7,603.9,666.7,595.8,666.7z"/>
	<path class="st12" d="M589.2,661.5c-1.5,1.5-3.5,2.3-5.2,3.5c-1.1,0.8-2.3,1.5-3.5,2.2c-0.4-0.5-0.9-0.3-1.4-0.3c-3.7,0-7.3,0-11,0
		c-0.5,0-1,0-1.7,0c0.5-0.7,1.1-0.6,1.5-0.7c5.8-1.3,11.6-2.6,17.4-3.9C586.7,662,587.9,661.8,589.2,661.5z"/>
	<path class="st13" d="M634.8,540.9c-0.7-0.1-0.5-0.7-0.5-1.1c1.7,0,3.4,0,5.2,0c0,0.4,0,0.7,0,1.1
		C637.9,540.9,636.4,540.9,634.8,540.9z"/>
	<path class="st2" d="M656.5,513.2c1.5,0.2,3,0.1,4.4,0.5c-0.3,0-0.6,0-0.8,0c-0.4,0-0.7,0-1.1,0c-0.8,0-1.6,0-2.5,0
		C656.5,513.5,656.5,513.4,656.5,513.2z"/>
	<path class="st2" d="M661.4,514c0.1-0.1,0.2-0.4,0.3-0.4c1.3,0.4,2.8-0.2,4.1,0.4c-0.4,0-0.7,0-1.1,0c-0.3,0-0.5,0-0.8,0
		C663.1,514,662.2,514,661.4,514z"/>
	<path class="st2" d="M666.3,514.3c0-0.3,0.2-0.5,0.5-0.5C666.8,514.1,666.6,514.2,666.3,514.3z"/>
	<path class="st6" d="M667.7,503.4c0.2,0.2,0.2,0.5,0.2,0.8c0,0-0.1,0-0.1,0s-0.1,0-0.1,0C667.7,504,667.7,503.7,667.7,503.4z"/>
	<path class="st3" d="M654.6,513.5c0.2,0.1,0.4,0.2,0.5,0.2C655,513.6,654.8,513.6,654.6,513.5z"/>
	<path class="st3" d="M652.2,522.6c-0.1-0.1-0.3-0.1-0.4-0.2C651.9,522.5,652,522.6,652.2,522.6z"/>
	<path class="st3" d="M634,522.7c0-0.2,0.1-0.3,0.3-0.3C634.2,522.5,634.1,522.6,634,522.7z"/>
	<path class="st3" d="M645.1,576.7c0.1,0.2,0,0.3-0.2,0.2C644.9,576.9,645,576.8,645.1,576.7z"/>
	<path class="st2" d="M640.3,640.6c0.2,0,0.3,0.1,0.3,0.3c0,0.2-0.2,0.2-0.4,0.3C640.3,640.9,640.3,640.7,640.3,640.6z"/>
	<path class="st15" d="M587,646.3c0-0.1-0.1-0.2-0.1-0.4C587,646,587,646.1,587,646.3z"/>
	<path class="st2" d="M588.5,655c0-0.1-0.1-0.3-0.1-0.4C588.5,654.7,588.5,654.8,588.5,655z"/>
	<path class="st3" d="M586.3,461.8c0.1-0.1,0.1-0.2,0.2-0.3C586.4,461.7,586.3,461.8,586.3,461.8z"/>
	<path class="st0" d="M645.1,480.6c-0.1-0.1-0.2-0.1-0.2-0.2c0.6-0.9,1.5-1.5,2.2-2.3c0,0.1,0.1,0.2,0.1,0.3
		C647.3,480.6,647.3,480.6,645.1,480.6z"/>
	<path class="st8" d="M561,481c-0.5,0.1-0.6,0-0.6-0.2c-0.1-0.3,0-0.4,0.3-0.5c1.1-0.5,2.2-1,3.3-1.5c0.2-0.1,0.4-0.1,0.6,0.1
		c0.1,0.2,0.1,0.4-0.1,0.5C563.2,479.9,562,480.5,561,481z"/>
	<path class="st0" d="M638,458.5c-1,0-1.6-0.6-1.8-1.5c-0.2-0.7,0-1.5,0.7-1.9c0.7-0.5,1.5-0.8,2.3-0.1
		C638.8,456.2,638.4,457.4,638,458.5z"/>
	<path class="st5" d="M370,603.6c-0.3-0.4-0.2-0.9-0.2-1.3c0-17.9,0-35.8,0-53.8c0.1-0.3,0.2-0.5,0.3-0.8c1.6-7.7,3.7-15.4,7-22.6
		c1.8-3.9,4.1-7.6,7.3-10.7c4.8-4.5,11.2-5.3,16.8-1.9c4,2.4,6.6,6.1,8.8,10.1c3,5.6,4.9,11.6,6.5,17.6c1.6,6.1,2.8,12.3,3.8,18.6
		c0.7,4.9,1.4,9.7,1.9,14.6c0.5,4.5,0.8,9.1,1.2,13.6c0.5,6.1,0.9,12.2,1.2,18.4c0.2,3.9,0.4,7.9,0.6,11.8c0.1,2,0.4,4.1,1.6,5.8
		c0.7,1,1.4,2.2,2.8,2.2c0.3,1.2-0.1,2.4,0.4,3.5l0,0c0,0.2,0,0.4,0.1,0.6c0,0.2,0,0.3,0,0.5c-0.1,0.4,0,0.8,0.2,1.2
		c0.1,1.7,0.8,3.4,1.1,5c-1.7,0.1-3.2-0.7-4.9-1c-0.8-0.2-1.5-0.8-1.7-1.6c-0.6-2.7-2.2-5.1-2.9-7.7c-1.9-6.4-3-13-3.7-19.7
		c-1.4-12.5-2.5-25.1-3.9-37.6c-1.1-9.3-2.5-18.6-5.6-27.6c-1.2-3.4-2.7-6.6-5-9.4c-5.3-6.6-13.6-6.7-19.1-0.4
		c-3.2,3.8-5,8.4-6.4,13.1c-2.4,8.1-3.7,16.5-4.6,24.9C372.3,580.6,371.2,592.1,370,603.6z"/>
	<path class="st16" d="M430.1,630c0-0.2,0-0.3,0-0.5c0.2-0.2,0.2-0.4-0.1-0.6c0,0,0,0,0,0c0.4-4.9,0.7-9.9,1.2-14.8
		c0.6-5.7,1.1-11.3,1.2-17c0.2-8.5,0.2-17.1-0.4-25.6c-0.3-4.4-0.6-8.8-1-13.2c-0.6-6.8-1.4-13.6-2.3-20.4
		c-1.1-8.3-2.3-16.5-3.6-24.8c-1.1-7.3-3-14.5-5.9-21.3c-0.4-1-1.1-1.7-2.1-2.1c-0.9-0.3-1.9-0.6-2.9-0.8c-2.6-0.5-5.4-0.6-7.9-1.8
		c-1.4-0.7-2.5-1.7-2.7-3.3c-0.1-1.8,0-3.7,0-5.6c0-0.6,0.2-1.1,0.9-1.1c0.7,0,1,0.5,1,1.2c0,1.3,0,2.6,0,3.9c0,2.1,0.7,2.9,2.6,3.6
		c2.4,0.8,5,0.9,7.4,1.5c0.3,0.1,0.8,0.3,1,0c0.3-0.4-0.1-0.8-0.3-1.1c-2.3-3.9-4.9-7.5-8.5-10.3c-5.6-4.4-11.9-5.9-18.9-3.8
		c-5.7,1.7-9.8,5.5-13.1,10.2c-1.1,1.6-2.3,3.2-3.2,5.2c2.6-0.6,5-1,7.4-1.4c0.5-0.1,1-0.3,1.6-0.5c1.8-0.6,2.5-1.5,2.5-3.4
		c0-1.4,0-2.8,0-4.2c0-0.6,0.3-1,1-1.1c0.5,0,0.9,0.3,0.9,0.8c0,2.1,0.1,4.2-0.1,6.2c-0.1,1.1-0.8,2-1.8,2.6c-0.9,0.6-2,0.9-3,1.2
		c-2.6,0.8-5.3,0.7-7.8,1.6c-1.2,0.4-2.2,1-2.7,2.2c-0.3,0.6-0.4,1.4-1,1.9c0-1.5,0-2.9,0-4.4c0.5-0.9,0.9-1.8,1.4-2.8
		c1.7-3.2,3.8-6.1,6.1-8.8c0.3-0.3,0.7-0.7,0.1-1.1c-2.3-1.5-2.8-3.7-2.9-6.2c0-3.5-1.4-5.3-4.7-6.2c0-0.2,0-0.4-0.1-0.6
		c0.2-0.2,0.2-0.5,0-0.7c0-0.2,0-0.4,0-0.6c0.9-0.1,1.7,0.4,2.5,0.6c0.8,0.3,1.4,1.5,2.2,0.9c0.6-0.4,0.1-1.6,0.2-2.5
		c0.1-3.7-1.6-6.3-4.7-8.2c0-0.5,0-0.9-0.1-1.4c0,0,0.1-0.1,0.1-0.1l-0.1-0.1c0-0.2,0-0.4,0-0.6c2,0.4,3.1,1.9,4.3,3.3
		c0.8,0.9,1,0.7,1.4-0.2c0.5-1.5,1.4-2.9,3-3.5c2.8-1.1,5.7-0.5,8.6-0.5c0.5,0,0.9,0.5,0.8,1.1c-0.1,0.6-0.5,0.7-1,0.7
		c-1.8,0.3-3.5,0.3-5.3,0.2c-2.5-0.1-3.4,0.6-4.4,3c-0.5,1.2-0.7,2.4-0.7,3.7c0,4.1,0,8.2,0,12.4c0,1.3,0.5,2.4,1.4,3.3
		c0.7,0.7,1.4,1.1,2.4,0.3c1.8-1.4,3.7-2.6,5.5-3.9c2.3-1.7,3.6-3.8,3.5-6.8c-0.1-2.4,0-4.8,0-7.2c0-0.7,0-1.5,1-1.4
		c1,0,0.9,0.8,0.9,1.5c0,2.5,0,5.1,0,7.6c0,1.4-0.2,2.8-0.9,4.1c-0.1,0.2-0.3,0.5-0.1,0.7c0.2,0.3,0.5,0.1,0.8,0.1
		c2.7-0.4,5.5-0.6,8.2,0c0.8,0.2,1.1-0.1,0.7-0.9c-0.5-1-0.9-2.1-0.9-3.2c0-2.8,0-5.6,0-8.4c0-0.7,0-1.5,1-1.4c1,0,0.9,0.8,0.9,1.5
		c0,2.3,0.1,4.5,0,6.8c-0.2,3.6,1.6,6,4.5,7.8c1.4,0.8,2.8,1.7,4,2.8c1.3,1.2,2,1.1,3.2-0.2c0.8-0.8,1.2-1.8,1.2-2.9
		c0-4.2,0-8.3,0-12.5c0-1.6-0.4-3.1-1.1-4.6c-0.6-1.2-1.6-2-3.1-2c-1.6,0-3.2,0.1-4.7,0c-0.8-0.1-2.3,0.3-2.3-1c0-1.5,1.4-1,2.3-1.1
		c0.6,0.5,1.3,0.9,1.9,0c0.5,0,1,0.1,1.5,0c3.4-0.2,5.7,1.2,6.8,4.4c0.3,0.8,0.6,0.7,1.1,0.1c2.4-2.9,5.5-4.6,9.3-4.9
		c3.2-0.3,6.4-0.1,9.6-0.1c0.3,0,0.5,0.1,0.8,0.2c0.4,0.1,0.6,0.4,0.6,0.8c0,0.5-0.1,0.8-0.6,0.9c-0.5,0.1-1,0.2-1.5,0.2
		c-2.9,0-5.7,0-8.6,0c-2.1,0-4,0.6-5.7,1.8c-3.5,2.3-4.6,5.6-4.3,9.6c0,0.3-0.1,0.7,0.2,0.9c0.4,0.2,0.7-0.1,1-0.3
		c1.1-0.8,2.4-1.4,3.7-1.5c5.1-0.4,10.3-0.1,15.5-0.1c0.5,0,0.8,0.3,0.8,0.9c0,0.6-0.2,1-0.9,1c-0.4,0-0.7,0-1.1,0
		c-4.3,0-8.5,0-12.8,0c-3.5,0-5.7,2-6.3,5.4c-0.1,0.9-0.1,1.7-0.2,2.6c-0.2,1.8-0.8,3.4-2.3,4.4c-0.8,0.5-0.9,0.8-0.2,1.6
		c3.6,4.1,6.4,8.6,8.4,13.7c0.6,1.4,1.2,2.9,1.9,4.6c0.9-2.9,3-4.5,4.8-6.4c0.8-0.8,1.6-1.7,2.1-2.8c1.6-4.1,0.8-4.5-2.4-5.6
		c-5.3-1.9-7.2-5.6-7.3-11c0-0.7,0.1-1.4,0.9-1.4c0.9,0,1,0.7,1,1.4c0,6.1,2.9,8.1,7.4,9.7c1,0.4,1.3,0,1.3-0.9c0-1.8,0-3.5,0-5.3
		c0-0.7-0.2-1.8,0.9-1.7c1.1,0,0.9,1,0.9,1.8c0,2-0.2,4,0,6c0.5,5.4-1.2,9.8-5.4,13.3c-2.5,2-2.9,4.9-2.6,8c0.2,1.9,0.8,3.7,1.2,5.6
		c1.3,6.5,2.2,13.1,3.2,19.6c1.3,9.2,2.5,18.5,3.4,27.8c0.8,7.9,1.5,15.8,1.7,23.7c0.3,8.8,0.2,17.6-0.2,26.4
		c-0.1,2.6-0.5,5.1-0.7,7.7c-0.2,3.2-0.8,6.3-0.6,9.5l0,0c-0.3,0.3-0.3,0.7-0.2,1.1c-0.1,1-0.2,2-0.3,2.9c-0.4,3.6,0,7.2,1.2,10.6
		c0.2,0.7,0.4,1.5,0.6,2.2c0.2,0.7,0.6,1.5-0.3,1.8c-1,0.4-1.2-0.6-1.5-1.3c-0.3-0.8-0.6-1.7-0.9-2.5c-0.3-1.7-1-3.3-1.1-5
		C430.4,630.7,430.4,630.3,430.1,630z"/>
	<path class="st3" d="M499.6,552.2c0,0.1,0,0.1-0.1,0.2c-0.1,0.2-0.3,0.3-0.3,0.3c-0.2,0.1-0.3,0.1-0.4,0.1c-5.1,1-10.2,2-15.3,3
		c-0.1,0-0.3,0-0.4,0c-0.3,0-0.6,0-0.7-0.2c-0.1-0.1-0.1-0.4-0.1-0.4c0,0,0,0,0,0c0-0.1,0-0.1,0-0.2c0-0.5,0-1-0.1-1.6
		c0-0.1,0-0.1,0-0.2c0-0.3,0.1-0.5,0.1-0.6c0.2-0.4,0.9-0.5,1-0.5c0.9-0.1,6.8-1.2,15.1-2.8c0.1,0,0.3-0.1,0.5,0
		c0.1,0.1,0.2,0.1,0.3,0.2c0.1,0.2,0.2,0.3,0.2,0.4C499.5,550.8,499.5,551.5,499.6,552.2z"/>
	<path class="st3" d="M382,640.2c0,3,0,3-2.9,3.6c-3.1,0.6-3.1,0.6-3.1-2.5c0-2.9,0-2.9,2.9-3.5c0,0,0.1,0,0.1,0
		C382,637.2,382,637.2,382,640.2z"/>
	<path class="st3" d="M382,629.2c0,2.8,0,2.8-2.7,3.4c-0.7,0.2-1.4,0.2-2.1,0.4c-1.1,0.3-1.3-0.1-1.2-1c0-0.3,0-0.6,0-0.9
		c0.1-1.2-0.6-3,0.3-3.6c1.4-1,3.4-0.9,5.2-1.2c0.6-0.1,0.5,0.3,0.5,0.7C382,627.6,382,628.4,382,629.2z"/>
	<path class="st3" d="M382,617.9c0,3,0,3-2.9,3.6c-3.1,0.6-3.1,0.6-3.1-2.5c0-2.9,0-2.9,2.9-3.5c0,0,0.1,0,0.1,0
		C382,614.9,382,614.9,382,617.9z"/>
	<path class="st3" d="M403.3,615.4c-0.9,0-1.4-0.6-1.4-1.5c0-1,1-2,2-2c1,0,1.4,0.6,1.4,1.5C405.3,614.4,404.3,615.4,403.3,615.4z"
		/>
	<path class="st3" d="M394,637.9c0-1.1,0.9-2.2,1.9-2.2c0.9,0,1.4,0.4,1.5,1.4c0.1,1-0.9,2-1.9,2.1
		C394.6,639.2,394.1,638.7,394,637.9z"/>
	<path class="st3" d="M397.4,614.9c-0.1,1.2-1.1,2.1-2.1,2c-0.9-0.1-1.3-0.7-1.3-1.6c0-1,1.2-2,2.1-1.9
		C397,613.6,397.4,614.1,397.4,614.9z"/>
	<path class="st3" d="M395.3,628.1c-0.8-0.1-1.3-0.5-1.4-1.4c0-1,1-2,2-2c0.9,0,1.4,0.6,1.4,1.4C397.4,627,396.4,628.1,395.3,628.1z
		"/>
	<path class="st3" d="M409.8,612.4c0-1,1-2,1.9-2c0.9,0,1.4,0.5,1.5,1.4c0.1,1-1,2-1.9,2.1C410.4,613.9,409.8,613.3,409.8,612.4z"/>
	<path class="st3" d="M403.2,637.6c-1,0-1.3-0.6-1.4-1.5c0-1,1-2,2-1.9c0.9,0.1,1.4,0.6,1.4,1.5
		C405.2,636.8,404.3,637.6,403.2,637.6z"/>
	<path class="st3" d="M388.2,626.2c0.7,0,1.2,0.5,1.3,1.4c0,1-1,2.1-2,2.1c-0.9,0-1.4-0.5-1.5-1.4C386,627.2,387,626.2,388.2,626.2z
		"/>
	<path class="st3" d="M388.3,615c0.8,0,1.2,0.6,1.2,1.4c0,1-1,2-2,2c-0.9,0-1.4-0.5-1.4-1.5C386.1,616,387.1,615,388.3,615z"/>
	<path class="st3" d="M388.3,637.3c0.8,0.1,1.2,0.6,1.2,1.5c0,1-1,2-2,2c-0.9-0.1-1.4-0.6-1.4-1.5
		C386.1,638.2,387.1,637.3,388.3,637.3z"/>
	<path class="st9" d="M432.2,625.4c0.1-1,0.2-2,0.3-2.9c0.3-0.3,0.3-0.7,0.2-1.1c0,0,0,0,0,0c0.1-0.2,0.2-0.4,0.3-0.6
		c1.7-7.2,2.6-14.6,3-22c0.5-9.4,0.7-18.8,0.5-28.2c-0.2-11.5-0.7-23-1.6-34.5c-0.4-5.1-0.9-10.3-1.5-15.4
		c-0.4-3.4-1.4-6.7-1.4-10.2c0-5.2,0.9-10.3,2-15.4c2.2-10.4,5.1-20.7,6.3-31.3c0.6-5,0.6-9.9-0.7-14.8c-1.3-4.9-4-8.4-9.3-9.2
		c-2.7-0.4-5.4-0.1-8.1,0.4c-3.2,0.5-6.3,1.7-9.5,2.2c1.6-2.6,3.6-4.8,5.5-7.2c2.9-3.7,5.8-7.3,8.7-10.9c0.4-0.5,0.9-1,0.1-1.6
		c-0.8-0.6-1.1,0.1-1.5,0.5c-1.6,2-3.2,4-4.7,6.1c-3.8,4.8-7.8,9.6-11.4,14.6c-0.6-0.5-1.2,0-1.8,0.1c-4.1,1-8.1,2-12.4,2.1
		c-4.9,0.1-9.6-1.2-14.2-2.4c-3.8-1-7.4-2.3-11.2-3c0-0.5-0.1-1.1-0.1-1.6c0-11.4,0-22.7,0-34.1c0-0.6,0-1.2,0.3-1.7
		c5.1,0.8,10.2,2,15.2,3.4c6.6,1.8,13.1,1.4,19.6-0.3c8-2.1,16.1-4.1,24.5-3.9c9.5,0.3,17.1,4.1,22.9,11.7c3.4,4.6,4.8,10,6.2,15.3
		c1.2,5.1,1.7,10.2,1.7,15.4c-0.1,7.9-1.3,15.7-3.3,23.4c-2.2,8.6-5.2,16.9-8.2,25.2c-1.4,3.9-2.9,7.9-4.2,11.9
		c-1.4,4.5-1.8,9-1,13.6c0.4,2.9,0.6,5.8,0.7,8.8c0.4,8.8,0.4,17.6,0.3,26.5c-0.1,5.1-0.2,10.1-0.6,15.2c-0.6,9.4-1.4,18.8-2.8,28.1
		c-1.1,6.9-2.4,13.8-4.5,20.5c-0.6,1.8-1.2,3.7-2.2,5.4C433.6,624.2,432.7,624.6,432.2,625.4z M452,419.7c0.3-1.1-0.3-1.6-1.5-1.9
		c-7.4-2.2-14.8-4.5-22.2-6.7c-2.2-0.7-4.4-1.3-6.6-2c-0.4-0.1-0.9-0.4-1.1,0.3c-0.6,1.6,0.1,3,1.7,3.5c9.2,2.8,18.5,5.6,27.7,8.4
		C452,421.9,452,421.9,452,419.7z M437.6,421c0.3-1.2-0.3-1.7-1.6-2.1c-4.5-1.3-8.9-2.7-13.4-4c-2.1-0.6-2.1-0.6-2.1,1.7
		c0,0.7-0.1,1.4,0.9,1.7c4.8,1.4,9.6,2.9,14.4,4.3C437.6,423,437.6,422.9,437.6,421z"/>
	<path class="st9" d="M429.6,625.4c-1.5-0.1-2.1-1.2-2.8-2.2c-1.2-1.8-1.4-3.8-1.6-5.8c-0.3-3.9-0.4-7.9-0.6-11.8
		c-0.4-6.1-0.7-12.3-1.2-18.4c-0.4-4.5-0.7-9.1-1.2-13.6c-0.5-4.9-1.2-9.8-1.9-14.6c-1-6.2-2.1-12.5-3.8-18.6
		c-1.6-6.1-3.5-12.1-6.5-17.6c-2.2-4-4.7-7.7-8.8-10.1c-5.7-3.4-12.1-2.6-16.8,1.9c-3.2,3-5.4,6.7-7.3,10.7
		c-3.4,7.2-5.4,14.8-7,22.6c-0.1,0.3-0.2,0.5-0.3,0.8c-0.2-0.3-0.3-0.6-0.3-0.9c0-9.3,0-18.7,0-28c0.4-0.2,0.4-0.7,0.5-1
		c1.5-5.2,3.1-10.4,5.3-15.4c2.3-5.3,5.1-10.3,9.3-14.3c5.7-5.4,12.9-5.7,19-0.8c3.3,2.6,5.6,6,7.6,9.6c4.7,8.6,7.4,17.9,9.7,27.3
		c2.9,12.1,4.8,24.5,6.1,36.9c1.3,12.2,2.2,24.5,2.7,36.8C430.2,607.6,429.8,616.5,429.6,625.4z"/>
	<path class="st11" d="M429.6,625.4c0.2-8.9,0.6-17.8,0.2-26.7c-0.5-12.3-1.4-24.5-2.7-36.8c-1.4-12.4-3.2-24.7-6.1-36.9
		c-2.3-9.4-5-18.7-9.7-27.3c-2-3.6-4.3-7-7.6-9.6c-6.1-4.9-13.3-4.6-19,0.8c-4.3,4-7,9.1-9.3,14.3c-2.2,5-3.8,10.1-5.3,15.4
		c-0.1,0.4-0.1,0.8-0.5,1c0-8.8,0-17.5,0-26.3c0.6-0.5,0.8-1.2,1-1.9c0.5-1.3,1.5-1.8,2.7-2.2c2.5-0.9,5.3-0.8,7.8-1.6
		c1-0.3,2.1-0.6,3-1.2c1-0.6,1.7-1.5,1.8-2.6c0.2-2.1,0.1-4.2,0.1-6.2c0-0.5-0.3-0.9-0.9-0.8c-0.6,0.1-1,0.5-1,1.1
		c0,1.4,0,2.8,0,4.2c0,1.8-0.7,2.8-2.5,3.4c-0.5,0.2-1,0.4-1.6,0.5c-2.4,0.4-4.8,0.7-7.4,1.4c0.9-2.1,2.1-3.6,3.2-5.2
		c3.4-4.7,7.5-8.5,13.1-10.2c6.9-2.1,13.2-0.6,18.9,3.8c3.6,2.8,6.2,6.4,8.5,10.3c0.2,0.3,0.6,0.7,0.3,1.1c-0.2,0.3-0.7,0.1-1,0
		c-2.5-0.6-5-0.7-7.4-1.5c-2-0.6-2.6-1.5-2.6-3.6c0-1.3,0-2.6,0-3.9c0-0.7-0.3-1.2-1-1.2c-0.7,0-0.9,0.5-0.9,1.1
		c0,1.9-0.1,3.7,0,5.6c0.1,1.6,1.3,2.6,2.7,3.3c2.5,1.2,5.2,1.3,7.9,1.8c1,0.2,1.9,0.5,2.9,0.8c1.1,0.4,1.7,1.1,2.1,2.1
		c3,6.8,4.8,14,5.9,21.3c1.3,8.2,2.5,16.5,3.6,24.8c0.9,6.8,1.7,13.6,2.3,20.4c0.4,4.4,0.7,8.8,1,13.2c0.6,8.5,0.6,17.1,0.4,25.6
		c-0.1,5.7-0.5,11.4-1.2,17c-0.6,4.9-0.8,9.9-1.2,14.8C429.5,627.8,429.9,626.5,429.6,625.4z"/>
	<path class="st11" d="M369.6,440.5c3.8,0.7,7.5,2,11.2,3c4.7,1.2,9.3,2.5,14.2,2.4c4.2-0.1,8.3-1.1,12.4-2.1
		c0.6-0.1,1.1-0.7,1.8-0.1c-1.6,2.1-3.4,4-4.8,6.2c-0.9,0.1-2.3-0.4-2.3,1.1c0,1.3,1.5,0.9,2.3,1c1.6,0.1,3.2,0.1,4.7,0
		c1.5,0,2.5,0.8,3.1,2c0.7,1.4,1.1,3,1.1,4.6c0,4.2,0,8.3,0,12.5c0,1.2-0.4,2.1-1.2,2.9c-1.2,1.3-1.8,1.3-3.2,0.2
		c-1.2-1.1-2.6-1.9-4-2.8c-2.9-1.8-4.7-4.2-4.5-7.8c0.1-2.3,0-4.5,0-6.8c0-0.7,0.1-1.5-0.9-1.5c-1,0-1,0.7-1,1.4c0,2.8,0,5.6,0,8.4
		c0,1.2,0.4,2.2,0.9,3.2c0.4,0.9,0.1,1.1-0.7,0.9c-2.7-0.7-5.5-0.5-8.2,0c-0.3,0-0.6,0.2-0.8-0.1c-0.2-0.3,0-0.5,0.1-0.7
		c0.7-1.3,0.9-2.6,0.9-4.1c0-2.5,0-5.1,0-7.6c0-0.7,0.1-1.5-0.9-1.5c-1,0-1,0.7-1,1.4c0,2.4-0.1,4.8,0,7.2c0.1,3-1.2,5.1-3.5,6.8
		c-1.8,1.3-3.7,2.6-5.5,3.9c-1,0.7-1.7,0.3-2.4-0.3c-0.9-0.9-1.4-1.9-1.4-3.3c0-4.1,0-8.2,0-12.4c0-1.3,0.3-2.5,0.7-3.7
		c0.9-2.4,1.9-3.1,4.4-3c1.8,0.1,3.5,0.1,5.3-0.2c0.5-0.1,0.9-0.2,1-0.7c0.1-0.6-0.3-1.1-0.8-1.1c-2.9,0-5.8-0.6-8.6,0.5
		c-1.6,0.6-2.4,1.9-3,3.5c-0.3,0.9-0.6,1.1-1.4,0.2c-1.2-1.4-2.4-2.9-4.3-3.3C369.6,447.5,369.6,444,369.6,440.5z"/>
	<path class="st11" d="M369.6,464c3.3,0.9,4.7,2.7,4.7,6.2c0,2.6,0.6,4.7,2.9,6.2c0.6,0.4,0.2,0.7-0.1,1.1c-2.4,2.7-4.4,5.6-6.1,8.8
		c-0.5,0.9-0.9,1.8-1.4,2.8C369.6,480.7,369.6,472.3,369.6,464z"/>
	<path class="st11" d="M369.6,453.1c3.1,1.8,4.8,4.5,4.7,8.2c0,0.8,0.4,2.1-0.2,2.5c-0.7,0.5-1.4-0.7-2.2-0.9
		c-0.8-0.3-1.6-0.7-2.5-0.6C369.6,459.1,369.6,456.1,369.6,453.1z"/>
	<path class="st11" d="M369.6,462.7c0.2,0.2,0.2,0.5,0,0.7C369.6,463.2,369.6,463,369.6,462.7z"/>
	<path class="st11" d="M369.6,451.6L369.6,451.6c0.1,0.1,0,0.1,0,0.1C369.5,451.7,369.5,451.7,369.6,451.6z"/>
	<path class="st3" d="M495.4,482.7c-0.4-0.1-0.7-0.4-0.6-0.8c0-0.3,0.3-0.6,0.7-0.6c5.3,0.2,10.6,0.4,15.9,0.7
		c0.4,0,0.7,0.4,0.7,0.7c0,0.4-0.3,0.6-0.7,0.6C506,483.1,500.7,482.9,495.4,482.7z"/>
	<path class="st3" d="M495.4,486.8c-0.4-0.1-0.7-0.4-0.6-0.8c0-0.3,0.3-0.6,0.7-0.6c5.3,0.2,10.6,0.4,15.9,0.7
		c0.4,0,0.7,0.4,0.7,0.7c0,0.4-0.3,0.6-0.7,0.6C506,487.2,500.7,487,495.4,486.8z"/>
	<path class="st9" d="M515.6,482.4c0.2,0.4,0.3,0.7,0.5,1.1c0.2,0.4,0.3,0.1,0.4-0.1c0,0,0.1,0,0.1,0l0.1,0c0,0.2,0,0.3,0,0.5
		c-0.3,0.9,0.4,1.5,0.7,2.3c-1.9,1.3-4,2.1-6.1,3c-0.3-0.6-0.6-1.2-0.8-1.8c-0.1-0.5-0.2-0.9-0.6-1.3c-0.3-0.9-0.5-1.7-0.8-2.6
		c0-0.4,0.1-0.8,0.1-1.2c0.8-1.1,1.8-1.9,3.2-2.2C513.7,480.4,514.8,481.1,515.6,482.4z"/>
	<path class="st3" d="M495.4,470.8c-0.4-0.1-0.6-0.5-0.6-0.8c0.1-0.3,0.3-0.6,0.7-0.6c5.3,0.5,10.6,0.9,15.9,1.4
		c0.4,0,0.7,0.4,0.7,0.8c0,0.3-0.4,0.6-0.7,0.6C506.1,471.7,500.7,471.2,495.4,470.8z"/>
	<path class="st5" d="M516.6,466.5c0,0-0.1-0.3-0.3-0.4c-0.2-0.1-0.3-0.2-0.5-0.2c-0.1,0-0.2,0-0.3,0c-7.2-0.8-14.4-1.5-21.6-2.3
		c-0.1,0-0.1,0-0.2,0c-0.2,0-0.8-0.1-1-0.3c-0.2-0.2-0.1-0.6,0-1.1c2.7-14.5,2.9-28.9-0.4-43.3c-2.8-12.1-7.8-23.2-16.2-32.6
		c-5.9-6.6-13-11.5-21.7-13.8c-0.2,0-0.3-0.2-0.5-0.3c-0.3,0-0.6,0-0.8-0.2c-0.6,0.1-1.1-0.2-1.7-0.3c-5.6-0.8-11.2-0.6-16.8,0
		c-9.5,1.2-18.6,4.2-27.9,6c-2.8,0.5-2.8,0.6-2.8-2.3c0-2.8,0.2-2.1-2.2-2.9c-8.3-2.6-16.5-5.3-24.8-7.9c-1-0.3-1.1,0.1-1.1,0.8
		c0,1.1,0.1,2.2,0,3.2c0,0.9,0.7,0.9,1.3,1.1c7.7,2.4,15.4,4.9,23.1,7.3c1,0.3,2,0.6,2.9,1.2c-0.8,0.1-1.6,0.3-2.4,0.4
		c-9,0.9-17.8-0.2-26.5-2.4c-1.4-0.4-2.8-0.6-4.2-1c-0.5,0.5-0.3,1.1-0.3,1.7c0,8.8,0,17.6,0,26.4c5.1,0.8,10.2,2,15.2,3.4
		c6.6,1.8,13.1,1.4,19.6-0.3c8-2.1,16.1-4.1,24.5-3.9c9.5,0.3,17.1,4.1,22.9,11.7c3.4,4.6,4.8,10,6.2,15.3
		c1.2,5.1,1.7,10.2,1.7,15.4c-0.1,7.9-1.3,15.7-3.3,23.4c-2.2,8.6-5.2,16.9-8.2,25.2c-1.4,3.9-2.9,7.9-4.2,11.9
		c-1.4,4.5-1.8,9-1,13.6c0.4,2.9,0.6,5.8,0.7,8.8c0.4,8.8,0.4,17.6,0.3,26.5c-0.1,5.1-0.2,10.1-0.6,15.2c-0.6,9.4-1.4,18.8-2.8,28.1
		c-1.1,6.9-2.4,13.8-4.5,20.5c-0.6,1.8-1.2,3.7-2.2,5.4c-0.5,0.8-1.3,1.2-1.8,2c-0.4,3.6,0,7.2,1.2,10.6c2.7-0.8,4.7-1.9,6-2.8
		c4.2-2.8,6.4-6.6,7-8c0.1-0.2,0.3-1.2,1-2.3c0.4-0.6,0.7-1.3,1-1.9c3.5-7.6,5.8-15.7,7.6-23.8c4-17.6,6.1-35.5,8.7-53.3
		c0.4-2.6,0.8-5.2,1.2-8.2c0.7,0.9,1.2,1.5,1.7,2.2c3.8,5,7.6,10,11.4,15c0.2,0.3,0.3,0.8,0.9,0.6c0.3-0.1,0.6-0.3,0.7-0.6
		c0.2-0.5-0.3-0.8-0.6-1.1c-4.3-5.7-8.7-11.5-13.1-17.2c-0.5-0.7-0.7-1.4-0.5-2.2c0.4-1.7,0.6-3.5,1-5.2c1-5.2,2-10.5,4.3-15.4
		c0.5-1.1,1.2-2.2,2.2-3.4c0,1.6,0,2.9,0,4.2c0,2.2-0.5,4.6,0.2,6.6c0.7,1.9,2.8,3.4,4.2,5.1c0.5,0.7,1.1,0.9,2,0.8
		c4.1-0.4,8.2-0.8,12.3-1.1c1.2-0.1,1.5-0.6,1.5-1.7c-0.1-5.8,0-11.6,0-17.4c0-0.6,0-1.3,0.3-2.2c0.9,0.9,1.6,1.7,2.3,2.4
		c0.1-0.5,0-1.1,0.5-1.4c0-0.2,0.1-0.4,0.1-0.6c0-1.5-0.1-3.1-0.1-4.6c0-0.2-0.1-0.4-0.1-0.5c0,0,0,0,0,0c-0.8,0-1.6,0.2-2.4-0.1
		c-0.1,0-0.2-0.1-0.4-0.1c-0.1-2.7-0.1-2.7,2.6-2.7c0.3,0,0.6,0,0.9,0c2.5,0,5.1,0,7.6,0c0.5,0,1.1,0.2,1.1-0.6
		c0-0.9-0.6-0.7-1.1-0.7c-0.4,0-0.7,0-1.1,0c-3.4,0-6.8-0.1-10.2-0.1l0,0c-0.1-2-0.1-2-2-2.1c-0.5,0-0.6-0.1-0.8-0.3
		c-0.3-0.3-0.2-0.8-0.2-1.1c0-6.4,0-12.8,0-19.3c0.5-2.9,0.9-5,0.9-5.6c0-0.1,0-0.5,0.3-0.7c0.1-0.1,0.4-0.1,0.5-0.1
		c0.1,0,0.1,0,0.2,0c7.1,0.7,14.2,1.5,21.3,2.2c0,0,0.1,0,0.2,0c0.3,0.1,0.6,0.1,0.8,0.4c0.2,0.2,0.2,0.6,0.2,0.9c0,0.1,0,0.1,0,0.2
		c0,4.7,0,9.5,0,14.2c0.2,0.4,0.3,0.7,0.5,1.1c0,0.1,0.1,0.2,0.2,0.2c0,0,0.1,0,0.2,0c0.1-0.1,0.1-0.2,0-0.2c0-5.5,0.1-11,0.1-16.5
		C516.6,466.8,516.7,466.7,516.6,466.5z M403.2,375.4c-0.1,0.8-0.1,1.2-0.3,1.4c-0.4,0.3-1-0.1-1.3-0.2c-0.9-0.5-2.6-1.1-5.8-1.9
		c-6.1-1.9-12.1-3.8-18.2-5.7c-0.3-0.2-1-0.9-1.1-2c0-0.3-0.1-1.2,0.4-1.5c0.4-0.2,0.9,0,1,0c6.1,2,12.3,4,18.4,5.9
		c1.7,0.5,3.3,1.2,5.1,1.5C402.8,373.3,403.3,373.9,403.2,375.4z M443.3,376c-5.9,1-11.5,2.9-17,4.8c-4.6,1.6-9.2,3.1-13.7,4.6
		c-3.8,1.3-7.6,2.6-11.6,3.3c-2.5,0.5-5,1.2-7.6,0.8c-2.6-0.4-3.8-2.4-3.8-4.1c0.1-2,2-3.8,4.2-3.9c3.6-0.1,7.1-0.3,10.6-0.8
		c4.2-0.6,8.4-1.4,12.5-2.4c5.9-1.4,11.7-2.9,17.7-3.8c4-0.6,7.9-0.4,12,0.7C445.5,375.9,444.3,375.8,443.3,376z M483.6,490.5
		c2.6-5.6,4.6-11.3,6.4-17.1c0-0.1,0.1-0.1,0.2-0.2c0,5.8,0,11.6,0,17.4c0,0.7-0.3,0.9-1,0.9c-1.7-0.1-3.3-0.1-5-0.1
		C483.7,491.3,483.3,491.2,483.6,490.5z M481.6,494.8c0,0,0-0.1,0.1-0.1c0.5-1,0.8-1.9,1.5-2.3c0.2-0.1,0.5-0.3,1-0.3
		c2.7,0.1,4.6,0.1,5.3,0.1c0.1,0,0.5,0,0.7,0.2c0.2,0.1,0.2,0.4,0.2,0.7c0.1,2.7,0.1,2.7-2.6,2.7c-0.7,0-1.4,0-2,0c0,0,0,0,0,0
		c-1.2,0-2.4,0-3.5,0C481.3,495.8,481.2,495.5,481.6,494.8z M493.6,492.3c0.4,0.4,0.4,0.9,0.1,1.3c0,0.3,0,0.5,0,0.8
		c0,1.1,0,2.2-0.1,3.3c-2.4,0.3-2.4,0.3-2.4-2.1c0-0.4,0-0.7,0-1.1C491.2,492.2,491.2,492.2,493.6,492.3z M491.7,499.6
		c1.4,1.2,2.4,2.6,1.9,4.6c0,6,0,11.9,0.1,17.9c0,0.7-0.2,1-1,1.1c-4,0.3-7.9,0.7-11.9,1.1c-1,0.1-1.4-0.2-1.3-1.2
		c0.1-1-0.1-2.1,0-3.1c0.1-1-0.3-1.3-1.2-1.1c-0.3,0.1-0.6,0-0.9,0.1c-2.5,0.2-2.5,0.2-2.5-2.4c0-2.6,0-5.2,0-7.9
		c0-1.3,0.2-2.4,1.1-3.3c0.5-1.4,1.2-2,2.9-1.9c3.7,0.1,7.4-0.1,11.1-0.2c0.4,0,1,0.2,1-0.5c0-0.8-0.7-0.6-1.1-0.6c-2,0-4,0.1-6,0.1
		c-2,0-4,0-5.9,0c0.4-1.8,0.6-2,2.4-2.1c1.3,0,2.5,0,3.8,0c0.1,0,0.2,0,0.3,0c0.6,0,1.2,0,1.9,0c0.2-0.2,0.4-0.2,0.6,0
		c1.3-0.1,2.7-0.1,4-0.2c0-0.4,0-0.7,0-1.1l-0.1,0l-0.1,0c-1.1,0-2.2,0.1-3.3,0.1c-0.4,0.2-0.8,0.2-1.1,0c-0.7,0-1.4,0-2.2,0
		c-0.1,0-0.2,0-0.3,0c-0.7,0-1.4,0-2.1,0c-0.2,0-0.4,0-0.6,0c-0.4,0-0.7,0-1.1,0c-0.2,0-0.4,0.2-0.4-0.2c0.4-1.5,1.3-2.1,2.9-2
		c2.2,0.1,4.4,0.1,6.6,0c0.9,0,1.3,0.2,1.2,1.2c0.1,0.1,0.1,0.2,0.2,0.3l0.1,0.1c0.2,0.1,0.3,0.2,0.3,0.4
		C491.2,499,491.5,499.2,491.7,499.6z"/>
	<g id="keys">
		<path class="st12" d="M554.1,640.8c-0.1,0.7-0.1,1.5-0.2,2.2c-3,0-6.1,0-9.1,0c1.2-0.4,2.5-0.7,3.8-1c1.3-0.3,2.6-0.6,3.8-0.9
			c0.3-0.1,0.6-0.2,1-0.2C553.6,640.8,553.9,640.8,554.1,640.8z"/>
		<path class="st12" d="M624.6,644.7c-2.7,0.1-5.2,1-7.8,1.5c-7.2,1.5-14.4,3.1-21.7,4.7c-0.3-1.4-0.3-2.9-0.3-4.3
			c1.7,0,3.4-0.6,5-0.9c3.5-0.6,6.8-1.9,10.4-1.9c4.6,0,9.2,0,13.8,0c0.5,0,1-0.2,1.4,0.2C625.4,644.4,625.1,644.7,624.6,644.7z"/>
		<path class="st12" d="M627.2,643.2c-0.5-0.3-1.1-0.2-1.6-0.2c-4.3,0-8.6,0-12.9-0.1c3.3-0.7,6.6-1.9,10-2.1c2.2-0.1,4.3,0,6.5,0
			c0.4,0,0.9-0.2,1.3,0.3C629.5,642,628.3,642.5,627.2,643.2z"/>
		<path class="st12" d="M560.6,654.1c2.3-0.2,4.5-0.8,6.7-1.3c6.6-1.4,13.3-2.9,19.9-4.4c0.4,1.3,0.6,2.7,0.8,4.1
			c-3.4,0.7-6.8,1.5-10.2,2.2c-0.7,0.2-1.3,0.2-2,0.2c-5.1,0-10.3,0-15.4,0C560.4,654.7,560.5,654.4,560.6,654.1z"/>
		<path class="st12" d="M587.2,647.7c-7.8,2.4-15.8,0.9-23.7,1.4c0-0.1,0-0.2,0-0.3c2.4-0.5,4.8-1,7.2-1.6c1.9-0.5,3.9-0.3,5.8-0.3
			c3.5,0,7,0,10.6,0C587.1,647.1,587.1,647.4,587.2,647.7z"/>
		<path class="st12" d="M594.6,641.7c7-1.5,14-0.6,21.1-0.8c0.4,0,0.9,0,1.4,0.1c-3.4,0.7-6.6,2-10.1,2.1c-4.1,0.1-8.2,0-12.3,0
			C594.6,642.6,594.6,642.1,594.6,641.7z"/>
		<path class="st12" d="M586.3,642.9c-6.2,0-12.3,0-18.5,0c5.9-2.2,12-2.3,18.1-2.1C586.2,641.5,586.2,642.2,586.3,642.9z"/>
		<path class="st12" d="M586.8,645.9c-3.3,0-6.7,0-10,0c3.2-0.9,6.3-1.8,9.6-2.1C586.7,644.5,586.8,645.2,586.8,645.9z"/>
		<path class="st12" d="M594.6,643.3c0.4,0.6,1,0.5,1.6,0.5c2.5,0,5,0,7.6,0.2c-3,0.7-6,1.3-8.9,2
			C594.8,645.1,594.7,644.2,594.6,643.3z"/>
		<path class="st12" d="M553.8,650.1c-8.8,2.8-17.8,1.6-26.8,1.8c1.2-0.6,2.6-0.7,3.9-1c3.9-1.1,7.8-1.4,11.8-1.3
			c3.7,0.1,7.4,0,11.1,0C553.8,649.7,553.8,649.9,553.8,650.1z"/>
		<path class="st12" d="M553.9,645.2c-7.4,1.6-15,0.4-22.4,0.8c2.3-0.9,4.8-1.2,7.2-1.8c3.3-0.9,6.6-0.4,9.9-0.5
			c1.8-0.1,3.6-0.1,5.4-0.1C554.1,644.1,554,644.6,553.9,645.2z"/>
		<path class="st12" d="M553.6,660.1c-2.1,0.6-4.1,0.8-6.3,0.8c-5.1-0.1-10.2,0-15.4-0.3c1.5-0.3,3.1-0.6,4.6-1.1
			c4.9-1.5,9.8-1,14.8-1.1c0.8,0,1.5,0,2.3,0C553.8,659,553.7,659.6,553.6,660.1z"/>
		<path class="st12" d="M553.8,655c-5.4,0-10.7,0-16.1-0.1c-0.4,0-0.9,0-1.3-0.1c5.6-1.7,11.2-2.8,17.1-2.4
			c-1.2-0.7-2.5-0.3-4.1-0.6c1.7-0.4,3-0.9,4.5-1C553.8,652.2,553.8,653.6,553.8,655z"/>
		<path class="st12" d="M562.1,643.8c6.3,0,12.6,0,18.9,0c-4.3,1.1-8.6,2.5-13.1,2.2c-2-0.1-4.1,0-6.1,0
			C561.9,645.3,562,644.5,562.1,643.8z"/>
		<path class="st12" d="M561.3,649.8c3.7-0.4,7.5-0.1,11.2-0.2c1.5,0,3.1,0,4.7,0.3c-2.7,0.6-5.3,1.2-8,1.8
			c-2.7,0.6-5.5,0.1-8.2,0.3C560.9,651.2,561.1,650.5,561.3,649.8z"/>
		<path class="st12" d="M560.4,655.5c4.3,0,8.6,0,12.8,0c-4.3,1.1-8.6,2.7-13.2,2.4C560.1,657.1,560.3,656.3,560.4,655.5z"/>
		<path class="st12" d="M553.8,649c-4.5,0-8.9,0-13.4,0c4.4-1.2,8.8-2.7,13.4-2.2C553.8,647.5,553.8,648.3,553.8,649z"/>
		<path class="st12" d="M562.6,640.8c3,0,6.1,0,9.1,0c-3.1,0.8-6.2,1.9-9.5,2.2C562.3,642.2,562.2,641.5,562.6,640.8z"/>
		<path class="st12" d="M553.7,657.9c-2.3-0.1-4.6,0.1-6.8-0.3c2.2-1,4.7-1,6.9-1.9C553.8,656.5,553.8,657.2,553.7,657.9z"/>
		<path class="st12" d="M561.7,646.8c1.9,0,3.8,0,5.7,0c-1.9,0.7-3.8,1.3-5.9,1.4C561.5,647.7,561.4,647.2,561.7,646.8z"/>
		<path class="st12" d="M527.7,655.8c-2.6,0.6-5.2,1.2-7.7,1.8c-4.5,1-8.9,1.9-13.4,2.9c-1.1,0.2-2.2,0.4-3.4,0.4
			c-5.5,0-11,0-16.6-0.2c1.9-0.4,3.8-0.9,5.6-1.3c5.2-1.2,10.5-2.3,15.7-3.5c1.1-0.2,2.1-0.4,3.2-0.4c5.5,0,10.9,0,16.4,0
			C527.7,655.6,527.7,655.7,527.7,655.8z"/>
		<path class="st12" d="M505.8,655.5c-5.6,2.1-16.5,2.9-28.6,2.3c1.8-0.7,3.4-0.8,5-1.2c2.7-0.7,5.3-1.2,8.1-1.1
			C495.3,655.6,500.4,655.5,505.8,655.5z"/>
		<path class="st12" d="M490.8,655c9.3-3.6,18.7-2.1,28.2-2.5C509.7,656.1,500.3,654.6,490.8,655z"/>
		<path class="st12" d="M550.8,655.5c-9.3,3.6-18.7,2.1-28.2,2.5C531.8,654.4,541.2,655.8,550.8,655.5z"/>
		<path class="st12" d="M537.3,658.5c-9.1,3.4-18.4,2.1-27.7,2.1c1.8-0.4,3.6-0.8,5.4-1.3c2.7-0.7,5.4-0.9,8.2-0.8
			C527.9,658.6,532.5,658.5,537.3,658.5z"/>
		<path class="st12" d="M464.4,660.8c8.9-3.5,18.2-2,27.7-2.4C482.9,662,473.6,660.6,464.4,660.8z"/>
		<path class="st12" d="M532.4,649.5c-4.3,2-17.3,3.1-28,2.4C513.3,648.5,522.7,649.8,532.4,649.5z"/>
		<path class="st12" d="M513.8,654.8c5.1-2.1,16.2-2.9,27.6-2.2C532.3,656,523,654.6,513.8,654.8z"/>
		<path class="st12" d="M544.7,646.9c-8.8,3.3-17.9,1.7-27.1,2.2C521.6,647.1,534.9,646,544.7,646.9z"/>
		<path class="st12" d="M479.6,667.5c8.8-3.3,17.9-1.9,27.2-2.2C497.7,668.7,488.6,667.1,479.6,667.5z"/>
		<path class="st12" d="M426,674.3c9.2-3.4,18.3-1.9,27.6-2.3C444.5,675.5,435.3,673.8,426,674.3z"/>
		<path class="st12" d="M443,670.5c9.2-3.4,18.5-1.9,27.7-2.3C461.7,671.6,452.4,670.1,443,670.5z"/>
		<path class="st12" d="M502.4,667.4c8.8-3.3,17.9-1.8,27.2-2.2C520.5,668.6,511.4,667.2,502.4,667.4z"/>
		<path class="st12" d="M498.9,672c-9.1,3.4-18.4,1.9-27.7,2.3C480.3,670.9,489.5,672.4,498.9,672z"/>
		<path class="st12" d="M420.5,670.5c9.1-3.4,18.4-1.9,27.7-2.3C439.2,671.6,429.8,670.1,420.5,670.5z"/>
		<path class="st12" d="M447.4,664.5c9.1-3.4,18.3-1.9,27.6-2.3C465.9,665.7,456.7,664.1,447.4,664.5z"/>
		<path class="st12" d="M461.2,665.3c-8.7,3.3-17.8,1.8-26.7,2.1C443.2,664.1,452.2,665.6,461.2,665.3z"/>
		<path class="st12" d="M470.1,664.5c9.2-3.4,18.4-1.9,27.7-2.3C488.7,665.6,479.5,664.1,470.1,664.5z"/>
		<path class="st12" d="M476.3,672c-9.1,3.4-18.3,1.9-27.6,2.3C457.7,670.9,467,672.4,476.3,672z"/>
		<path class="st12" d="M456.6,667.5c9.1-3.4,18.1-1.9,27.1-2.2C475,668.6,465.9,667.1,456.6,667.5z"/>
		<path class="st12" d="M516,668.2c-9,3.4-18.2,1.9-27.5,2.3C497.6,667.1,506.7,668.6,516,668.2z"/>
		<path class="st12" d="M543,662.2c-9.2,3.4-18.3,1.9-27.6,2.3C524.5,661.1,533.6,662.6,543,662.2z"/>
		<path class="st12" d="M430.9,672c-9.1,3.4-18.3,1.9-27.5,2.3C412.4,670.9,421.6,672.4,430.9,672z"/>
	</g>
	<path class="st13" d="M446.6,375.1c-1.2,0.8-2.3,0.7-3.3,0.8c-5.9,1-11.5,2.9-17,4.8c-4.6,1.6-9.2,3.1-13.7,4.6
		c-3.8,1.3-7.6,2.6-11.6,3.3c-2.5,0.5-5,1.2-7.6,0.8c-2.6-0.4-3.8-2.4-3.8-4.1c0.1-2,2-3.8,4.2-3.9c3.6-0.1,7.1-0.3,10.6-0.8
		c4.2-0.6,8.4-1.4,12.5-2.4c5.9-1.4,11.7-2.9,17.7-3.8C438.6,373.9,442.5,374,446.6,375.1z"/>
	<path class="st11" d="M412.6,442.2c3.2-0.6,6.3-1.7,9.5-2.2c2.7-0.4,5.4-0.8,8.1-0.4c5.3,0.8,8,4.3,9.3,9.2
		c1.3,4.9,1.3,9.8,0.7,14.8c-1.2,10.6-4,20.9-6.3,31.3c-1.1,5.1-2.1,10.2-2,15.4c0,3.5,1,6.8,1.4,10.2c0.6,5.1,1.1,10.2,1.5,15.4
		c0.9,11.5,1.3,23,1.6,34.5c0.2,9.4,0,18.8-0.5,28.2c-0.4,7.4-1.3,14.8-3,22c0,0.2-0.2,0.4-0.3,0.6c-0.2-3.2,0.5-6.3,0.6-9.5
		c0.1-2.6,0.5-5.1,0.7-7.7c0.5-8.8,0.6-17.6,0.2-26.4c-0.3-7.9-1-15.8-1.7-23.7c-0.9-9.3-2.1-18.6-3.4-27.8
		c-0.9-6.6-1.9-13.1-3.2-19.6c-0.4-1.9-1-3.7-1.2-5.6c-0.4-3.1,0.1-6,2.6-8c4.3-3.5,6-7.9,5.4-13.3c-0.2-2,0-4,0-6
		c0-0.7,0.2-1.7-0.9-1.8c-1.2,0-0.9,1-0.9,1.7c0,1.8,0,3.5,0,5.3c0,1-0.3,1.3-1.3,0.9c-4.5-1.6-7.4-3.6-7.4-9.7c0-0.7-0.1-1.5-1-1.4
		c-0.8,0-0.9,0.7-0.9,1.4c0.1,5.4,2,9.1,7.3,11c3.2,1.1,4,1.5,2.4,5.6c-0.4,1.1-1.3,2-2.1,2.8c-1.7,1.9-3.8,3.5-4.8,6.4
		c-0.7-1.8-1.4-3.2-1.9-4.6c-2-5.1-4.8-9.6-8.4-13.7c-0.7-0.8-0.6-1.1,0.2-1.6c1.6-1,2.2-2.6,2.3-4.4c0.1-0.9,0.1-1.7,0.2-2.6
		c0.6-3.4,2.8-5.4,6.3-5.4c4.3,0,8.5,0,12.8,0c0.4,0,0.7,0,1.1,0c0.6,0,0.9-0.4,0.9-1c0-0.5-0.3-0.9-0.8-0.9
		c-5.2,0-10.3-0.2-15.5,0.1c-1.4,0.1-2.6,0.7-3.7,1.5c-0.3,0.2-0.6,0.6-1,0.3c-0.3-0.2-0.2-0.6-0.2-0.9c-0.3-4,0.8-7.3,4.3-9.6
		c1.7-1.2,3.7-1.8,5.7-1.8c2.8-0.1,5.7,0,8.6,0c0.5,0,1-0.1,1.5-0.2c0.5-0.1,0.6-0.5,0.6-0.9c0-0.4-0.2-0.7-0.6-0.8
		c-0.3-0.1-0.5-0.2-0.8-0.2c-3.2,0.1-6.4-0.1-9.6,0.1c-3.8,0.3-6.9,1.9-9.3,4.9c-0.5,0.6-0.8,0.8-1.1-0.1c-1.1-3.2-3.4-4.6-6.8-4.4
		c-0.5,0-1,0-1.5,0c1.1-1.4,2.1-2.8,3.2-4.1C410.5,444.6,411.3,443.2,412.6,442.2z"/>
	<path class="st3" d="M412.6,442.2c-1.3,0.9-2.1,2.3-3.1,3.5c-1.1,1.3-2.1,2.8-3.2,4.1c-0.6,1-1.2,0.6-1.9,0
		c1.4-2.2,3.2-4.2,4.8-6.2c3.7-5,7.6-9.7,11.4-14.6c1.6-2,3.2-4,4.7-6.1c0.4-0.5,0.7-1.2,1.5-0.5c0.7,0.6,0.2,1.1-0.1,1.6
		c-2.9,3.6-5.8,7.2-8.7,10.9C416.2,437.4,414.2,439.7,412.6,442.2z"/>
	<path class="st5" d="M452,419.7c0,2.2-0.1,2.2-2,1.6c-9.2-2.8-18.5-5.6-27.7-8.4c-1.6-0.5-2.3-1.9-1.7-3.5c0.2-0.6,0.7-0.4,1.1-0.3
		c2.2,0.6,4.4,1.3,6.6,2c7.4,2.2,14.8,4.5,22.2,6.7C451.7,418.1,452.4,418.6,452,419.7z"/>
	<path class="st5" d="M437.6,421c0,2,0,2-1.7,1.5c-4.8-1.4-9.6-2.9-14.4-4.3c-1-0.3-0.9-0.9-0.9-1.7c0-2.2,0-2.3,2.1-1.7
		c4.5,1.3,8.9,2.7,13.4,4C437.3,419.3,438,419.8,437.6,421z"/>
	<path class="st2" d="M515.6,406c0,0.9-0.6,0.5-0.9,0.4c-3.1-0.9-6.2-1.9-9.2-2.8c-2-0.6-4-1.2-6-1.8c-0.2-0.1-0.4-0.2-0.6-0.2
		c-0.6-0.1-0.7-0.6-0.5-1c0.2-0.6,0.6-0.2,0.9-0.1c3.2,1,6.5,2,9.7,2.9c1.9,0.6,3.9,1.2,5.8,1.8C515.2,405.4,515.7,405.4,515.6,406z
		"/>
	<path class="st3" d="M498.8,415.8c1.2,0.4,2.6,0.8,3.9,1.2c3.8,1.2,7.7,2.3,11.5,3.5c0.3,0.1,0.6,0.2,0.9,0.3
		c0.4,0.2,0.4,0.5,0.3,0.8c-0.1,0.5-0.4,0.3-0.7,0.2c-5.3-1.6-10.6-3.2-16-4.8c-0.4-0.1-0.7-0.4-0.7-0.9
		C498.1,415.8,498.3,415.6,498.8,415.8z"/>
	<path class="st3" d="M498.7,407c0.6,0.2,1.1,0.3,1.6,0.5c4.7,1.4,9.4,2.9,14.1,4.3c0.2,0.1,0.3,0.1,0.5,0.2
		c0.5,0.1,0.7,0.4,0.6,0.9c-0.2,0.7-0.6,0.3-1,0.2c-4.7-1.4-9.5-2.8-14.2-4.3c-0.6-0.2-1.2-0.4-1.8-0.6c-0.5-0.2-0.4-0.6-0.3-0.9
		C498.3,407,498.5,407,498.7,407z"/>
	<path class="st3" d="M515.5,414.7c-0.1,0.9-0.7,0.4-1.1,0.3c-3.7-1.1-7.4-2.2-11.1-3.4c-1.5-0.4-2.9-0.9-4.4-1.3
		c-0.5-0.1-0.8-0.4-0.7-0.9c0.1-0.7,0.6-0.3,0.9-0.2c5.2,1.6,10.3,3.1,15.5,4.7C515,414,515.6,414,515.5,414.7z"/>
	<path class="st3" d="M498.8,402.4c1.5,0.5,3.1,1,4.7,1.5c3.5,1.1,7,2.1,10.4,3.2c0.3,0.1,0.7,0.3,1,0.3c0.5,0.1,0.6,0.5,0.5,0.9
		c-0.2,0.6-0.6,0.2-0.9,0.1c-3.4-1-6.7-2-10.1-3.1c-1.9-0.6-3.8-1.1-5.7-1.7c-0.4-0.1-0.7-0.3-0.7-0.9
		C498.3,402.5,498.4,402.4,498.8,402.4z"/>
	<path class="st17" d="M517.2,411.9C517.2,411.9,517.1,411.9,517.2,411.9C517.2,411.9,517.2,411.9,517.2,411.9
		C517.2,411.9,517.2,411.9,517.2,411.9z"/>
	<path class="st3" d="M398.8,363.5c0,0.8-0.5,0.7-1.1,0.5c-2.4-0.8-4.8-1.7-7.2-2.2c-4.4-1.1-8.6-3-13-4.1c-0.3-0.1-0.5-0.2-0.8-0.3
		c-0.5-0.1-0.6-0.5-0.5-1c0.1-0.6,0.6-0.4,1-0.3c3.2,1,6.4,2,9.6,3c3.6,1.1,7.1,2.3,10.7,3.4C398,362.7,398.8,362.6,398.8,363.5z"/>
	<path class="st3" d="M398.8,359.6c0,1-0.6,0.5-1.1,0.4c-3.3-1-6.6-2.1-9.9-3.1c-3.5-1.1-6.9-2.2-10.4-3.3c-0.2-0.1-0.3-0.1-0.5-0.2
		c-0.5-0.2-0.7-0.6-0.5-1.1c0.2-0.6,0.6-0.3,1-0.2c1.8,0.6,3.5,1.1,5.3,1.7c5,1.6,10,3.2,15.1,4.8
		C398.2,358.7,398.8,358.8,398.8,359.6z"/>
	<path class="st3" d="M390.7,365c0,0.9-0.5,0.6-1,0.5c-3.6-1.1-7.2-2.3-10.8-3.4c-0.6-0.2-1.3-0.4-1.9-0.6c-0.6-0.2-0.8-0.5-0.6-1.1
		c0.2-0.6,0.7-0.3,1-0.2c2,0.6,4,1.3,6.1,1.9c2.1,0.7,4.3,1.4,6.4,2C390.2,364.3,390.7,364.3,390.7,365z"/>
	<path class="st5" d="M389.7,365.5c-3.6-1.1-7.2-2.3-10.8-3.4c-0.6-0.2-1.3-0.4-1.9-0.6c-0.6-0.2-0.8-0.5-0.6-1.1
		c0.2-0.6,0.7-0.3,1-0.2c2,0.6,4,1.3,6.1,1.9c2.1,0.7,4.3,1.4,6.4,2c0.4,0.1,0.9,0.2,0.9,0.8C390.7,365.9,390.2,365.6,389.7,365.5z"
		/>
	<path class="st5" d="M397.8,364c-2.4-0.8-4.8-1.7-7.2-2.2c-4.4-1.1-8.6-3-13-4.1c-0.3-0.1-0.5-0.2-0.8-0.3c-0.5-0.1-0.6-0.5-0.5-1
		c0.1-0.6,0.6-0.4,1-0.3c3.2,1,6.4,2,9.6,3c3.6,1.1,7.1,2.3,10.7,3.4c0.5,0.2,1.2,0.1,1.3,0.9C398.8,364.3,398.3,364.1,397.8,364z"
		/>
	<path class="st5" d="M397.7,359.9c-3.3-1-6.6-2.1-9.9-3.1c-3.5-1.1-6.9-2.2-10.4-3.3c-0.2-0.1-0.3-0.1-0.5-0.2
		c-0.5-0.2-0.7-0.6-0.5-1.1c0.2-0.6,0.6-0.3,1-0.2c1.8,0.6,3.5,1.1,5.3,1.7c5,1.6,10,3.2,15.1,4.8c0.5,0.2,1.1,0.2,1.1,1
		C398.8,360.5,398.2,360.1,397.7,359.9z"/>
	<path class="st2" d="M484,513c-1.9,0.1-3.8,0.2-5.7,0.3c-0.4,0-1,0.2-1-0.5c0-0.7,0.5-0.7,0.9-0.7c3.9-0.2,7.7-0.4,11.6-0.6
		c0.4,0,1.1-0.3,1.1,0.6c0,0.7-0.6,0.5-1,0.6C488,512.8,486,512.9,484,513C484,513,484,513,484,513z"/>
	<path class="st3" d="M484.4,508.7c1.9-0.1,3.8-0.2,5.7-0.3c0.4,0,0.9-0.1,0.9,0.5c0,0.6-0.4,0.6-0.8,0.6c-4,0.2-8,0.4-11.9,0.6
		c-0.4,0-0.8,0.1-0.8-0.5c0-0.5,0.3-0.7,0.8-0.7c2.1,0,4.2,0,6.2,0C484.4,508.8,484.4,508.7,484.4,508.7z"/>
	<path class="st3" d="M477.4,505.7c0.5-0.1,1-0.1,1.5-0.2c0.8,0,1.6,0,2.4,0c0.2,0,0.4,0,0.5,0c2.6-0.1,5.2-0.2,7.8-0.2
		c0.4,0,1.2-0.4,1.2,0.5c0,0.8-0.7,0.5-1.1,0.5c-3.8,0.1-7.6,0.2-11.4,0.4C477.7,506.8,477.2,506.6,477.4,505.7z"/>
	<path class="st2" d="M478.4,516.6c-0.3-0.1-1,0.3-1.1-0.4c-0.1-0.8,0.6-0.7,1.1-0.8c2.3-0.2,4.7-0.3,7-0.4c0.4,0,1.1-0.3,1.1,0.5
		c0,0.7-0.6,0.6-1,0.6C483.2,516.3,480.9,516.5,478.4,516.6z"/>
	<path class="st3" d="M396.4,371.9c0.2,0.8,0.7,1.7-0.3,2.3c-3.2-1-6.3-2.1-9.5-3.1c-2.7-0.9-5.3-1.7-8-2.5
		c-0.9-0.3-1.4-1.5-0.9-2.3c0.4-0.6,0.8-0.1,1.2,0c5.4,1.7,10.8,3.5,16.3,5.2C395.5,371.7,395.9,371.8,396.4,371.9z"/>
	<g id="text_area">
		<path class="st5" d="M515.4,421.5c-0.1,0.5-0.4,0.3-0.7,0.2c-5.3-1.6-10.6-3.2-16-4.8c-0.4-0.1-0.7-0.4-0.7-0.9
			c0.1-0.3,0.3-0.5,0.7-0.3c1.2,0.4,2.6,0.8,3.9,1.2c3.8,1.2,7.7,2.3,11.5,3.5c0.3,0.1,0.6,0.2,0.9,0.3
			C515.5,420.9,515.5,421.2,515.4,421.5z"/>
		<path class="st5" d="M514.6,419.7c-5.3-1.6-10.5-3.2-15.8-4.8c-0.6-0.2-0.7-0.5-0.6-1c0.2-0.6,0.6-0.2,0.9-0.1
			c5.5,1.7,11,3.4,16.5,5v0l0,0.1l0.1,0.1C515.5,419.6,515.4,420,514.6,419.7z"/>
		<path class="st5" d="M514.4,415c-3.7-1.1-7.4-2.2-11.1-3.4c-1.5-0.4-2.9-0.9-4.4-1.3c-0.5-0.1-0.8-0.4-0.7-0.9
			c0.1-0.7,0.6-0.3,0.9-0.2c5.2,1.6,10.3,3.1,15.5,4.7c0.4,0.1,1,0.1,0.9,0.8C515.4,415.6,514.8,415.1,514.4,415z"/>
		<path class="st5" d="M515.5,412.9c-0.2,0.7-0.6,0.3-1,0.2c-4.7-1.4-9.5-2.8-14.2-4.3c-0.6-0.2-1.2-0.4-1.8-0.6
			c-0.5-0.2-0.4-0.6-0.3-0.9c0-0.3,0.3-0.3,0.5-0.2c0.6,0.2,1.1,0.3,1.6,0.5c4.7,1.4,9.4,2.9,14.1,4.3c0.2,0.1,0.3,0.1,0.5,0.2
			C515.4,412.1,515.7,412.4,515.5,412.9z"/>
		<path class="st3" d="M515.5,408.3c-0.2,0.6-0.6,0.2-0.9,0.1c-3.4-1-6.7-2-10.1-3.1c-1.9-0.6-3.8-1.1-5.7-1.7
			c-0.4-0.1-0.7-0.3-0.7-0.9c0-0.3,0.2-0.5,0.6-0.4c1.5,0.5,3.1,1,4.7,1.5c3.5,1.1,7,2.1,10.4,3.2c0.3,0.1,0.7,0.3,1,0.3
			C515.5,407.5,515.7,407.9,515.5,408.3z"/>
		<path class="st3" d="M514.7,406.5c-3.1-0.9-6.2-1.9-9.2-2.8c-2-0.6-4-1.2-6-1.8c-0.2-0.1-0.4-0.2-0.6-0.2c-0.6-0.1-0.7-0.6-0.5-1
			c0.2-0.6,0.6-0.2,0.9-0.1c3.2,1,6.5,2,9.7,2.9c1.9,0.6,3.9,1.2,5.8,1.8c0.4,0.1,0.9,0.2,0.9,0.8
			C515.6,406.9,515,406.6,514.7,406.5z"/>
		<path class="st5" d="M520.6,397.5c0,1.8,0,3.5,0,5.3c0,0,0,0.4-0.3,0.6c-0.2,0.2-0.5,0.2-0.7,0.1c-1.6-0.5-3.2-1-4.8-1.5
			c-0.1,0-0.4-0.1-0.7-0.4c-0.2-0.3-0.2-0.7-0.2-0.7c0-1.6,0-3.2,0-4.7c0-0.1,0-0.4,0.3-0.7c0.4-0.3,0.8-0.2,0.8-0.2
			c1.7,0.5,3.4,1,5.1,1.5c0.1,0,0.2,0.1,0.3,0.3C520.7,397.2,520.6,397.5,520.6,397.5z"/>
		<path class="st5" d="M516.7,415.9c-0.4-0.5-0.5-1-0.5-1.3c-0.1-0.3-0.1-0.6,0-1c0-0.2,0.1-0.5,0.4-0.7c0.4-0.4,1.1-0.3,1.4-0.2
			c0.9,0.1,1.6,0.8,2,1.5c0.2,0.5,0.2,1,0.2,1.1c0,0.3,0,0.7-0.3,1.1c-0.1,0.1-0.3,0.3-0.6,0.5c-0.8,0.4-1.6-0.1-1.8-0.2
			C517.1,416.4,516.9,416.1,516.7,415.9z M516.8,414.1c0.1,1.2,1.2,2.4,2.1,2.3c0.7-0.1,0.9-0.6,0.9-1.3c-0.1-1-1.1-2-2-1.9
			C517,413.2,516.7,413.7,516.8,414.1z"/>
		<path class="st5" d="M516.7,422.5c-0.4-0.5-0.5-1-0.5-1.3c-0.1-0.3-0.1-0.6,0-1c0-0.2,0.1-0.5,0.4-0.7c0.4-0.4,1.1-0.3,1.4-0.2
			c0.9,0.1,1.6,0.8,2,1.5c0.2,0.5,0.2,1,0.2,1.1c0,0.3,0,0.7-0.3,1.1c-0.1,0.1-0.3,0.3-0.6,0.5c-0.8,0.4-1.6-0.1-1.8-0.2
			C517,423,516.8,422.7,516.7,422.5z M516.7,420.7c0.1,1.2,1.2,2.4,2.1,2.3c0.7-0.1,0.9-0.6,0.9-1.3c-0.1-1-1.1-2-2-1.9
			C516.9,419.8,516.7,420.2,516.7,420.7z"/>
		<path class="st5" d="M516.8,409.1c-0.4-0.5-0.5-1-0.5-1.3c-0.1-0.3-0.1-0.6,0-1c0-0.2,0.1-0.5,0.4-0.7c0.4-0.4,1.1-0.3,1.4-0.2
			c0.9,0.1,1.6,0.8,2,1.5c0.2,0.5,0.2,1,0.2,1.1c0,0.3,0,0.7-0.3,1.1c-0.1,0.1-0.3,0.3-0.6,0.5c-0.8,0.4-1.6-0.1-1.8-0.2
			C517.2,409.6,516.9,409.3,516.8,409.1z M516.8,407.3c0.1,1.2,1.2,2.4,2.1,2.3c0.7-0.1,0.9-0.6,0.9-1.3c-0.1-1-1.1-2-2-1.9
			C517.1,406.4,516.8,406.9,516.8,407.3z"/>
		<path class="st3" d="M503.9,398.6c-1.6-0.5-3.2-1-4.8-1.5c-0.1,0-0.4-0.1-0.7-0.4c-0.2-0.3-0.2-0.7-0.2-0.7c0-1.6,0-3.2,0-4.7
			c0,0,0-0.5,0.4-0.7c0.3-0.2,0.7-0.1,0.8-0.1c1.7,0.5,3.4,1,5.1,1.5c0.1,0,0.2,0.1,0.3,0.3c0.2,0.3,0.2,0.5,0.1,0.6
			c0,1.8,0,3.5,0,5.3c0,0,0,0.4-0.3,0.6C504.4,398.7,504.2,398.7,503.9,398.6z"/>
		<path class="st3" d="M511.8,401c-1.6-0.5-3.2-1-4.8-1.5c-0.1,0-0.4-0.1-0.7-0.4c-0.2-0.3-0.2-0.7-0.2-0.7c0-1.6,0-3.2,0-4.7
			c0,0,0-0.5,0.4-0.7c0.3-0.2,0.7-0.1,0.8-0.1c1.7,0.5,3.4,1,5.1,1.5c0.1,0,0.2,0.1,0.3,0.3c0.2,0.3,0.2,0.5,0.1,0.6
			c0,1.8,0,3.5,0,5.3c0,0,0,0.4-0.3,0.6C512.3,401.1,512,401.1,511.8,401z"/>
	</g>
	<g>
		<g id="old_man_skin">
			<path class="st18" d="M646.9,477.4c0.1-3.2,0.1-3.2-3-3.1c-4,0.1-4.9-0.8-4.7-4.7c0.1-1.8,0-3.6,0-5.5c0-0.9-0.3-1.2-1.2-1.1
				c-0.2,0-0.4,0-0.6,0c-1.1,0.2-1.1-0.3-0.8-1.1c0.3-0.7,0.5-1.5,0.8-2.3c1.2,0,2.2-0.3,2.8-1.3c0.8-1.2,0.7-1.2,1.4-0.1
				c0.7,1.1,1.9,1.6,3.2,1.2c1.1-0.3,2-1.4,2-2.6c0.1-1.2-0.7-2.3-1.8-2.7c-1.4-0.5-2.8,0.1-3.6,1.6c-0.1,0.2-0.1,0.6-0.5,0.6
				c-0.4,0-0.4-0.4-0.5-0.6c-0.2-0.6-0.8-1-1.2-1.5c0.6-1.5,1.2-2.9,1.7-4.4c0.7-2,2-3.1,4.2-3.1c3,0,6.1,0,9.1,0
				c1.8,0,2.6,1,2.8,3.2c-2,0-4,0.1-6.1,0c-0.6,0-1,0.2-1.2,0.8c-1.2,3.4-2.4,6.8-3.6,10.1c-0.1,0.3-0.2,0.7,0.3,0.9
				c1.1,0.5,2.7-0.1,3.1-1.3c0.2-0.5,0.3-0.9,0.5-1.4c0.1-0.3,0.2-0.5,0.5-0.6c1.2-0.5,3.1,0.2,3.6,1.3c0.6,1.3,0.2,2.5-1.2,3.2
				c-0.6,0.3-0.8,0.7-0.8,1.3c0,1.6,0,3.2,0,4.7c0,0.8,0.3,1.1,1.1,1c1.9,0,3.9,0,5.8,0c0.2,2.6,0.4,5.3,0.8,7.9c0,0,0,0,0,0
				c0,0.2,0,0.4-0.1,0.6c0,0.5,0.1,1,0.1,1.4c-0.1,0.2-0.1,0.4-0.2,0.6c-1.4,0-2.8-0.2-4.1,0.2c-0.1,0-0.2,0-0.2,0
				c-2.8,0-5.7,0-8.5,0c0-0.7,0-1.5,0-2.2C647,478.1,647.1,477.7,646.9,477.4z"/>
			<path class="st18" d="M583,463.7c-1.1-0.9-2.3-1.7-3.4-2.7c-1.3-1.1-1.4-2.8-0.4-4.1c0.9-1.2,2.6-1.5,4-0.7c1,0.6,2,1.3,3,2
				c-0.8,0.2-0.8,1-1.1,1.6C584.4,461,584.1,462.6,583,463.7z"/>
			<path class="st18" d="M632.1,512.3c0.3,0,0.7,0,1,0c0.8,0.4,1.6,0.1,2.4,0.3c0,1.9-0.3,3.9-0.7,5.8c-0.4,0.1-1.1-0.6-1.3,0.4
				c-0.2-0.5-0.6-0.7-1.1-0.7c-0.8-0.1-1.7-0.2-2.5-0.4c-1.4-0.3-2.2-1.4-2.2-2.8c0.1-1.4,1.1-2.4,2.5-2.5
				C630.9,512.3,631.5,512.3,632.1,512.3z"/>
			<path class="st18" d="M646.2,456.6c0,1.1-0.9,2-2,2c-1.1,0-2-0.8-2.1-1.9c0-1.1,0.9-2.1,2-2.1
				C645.1,454.6,646.1,455.6,646.2,456.6z"/>
			<path class="st18" d="M637.9,458.6c0.4-1.2,0.8-2.3,1.2-3.5c1,0.4,1,1.3,0.8,2.1C639.6,458.2,638.9,458.7,637.9,458.6z"/>
		</g>
		<path class="st19" d="M682.1,491.7c-0.4-2-1.2-3.4-1.4-3.9c-0.5-0.9-1-1.5-1.2-1.8c-0.2-0.3-0.9-1.1-2-1.9c-1.4-1.1-2.6-1.6-3.4-2
			c-0.6-0.2-1.5-0.6-2.8-1c-1.8-0.4-3.2-0.5-4-0.6c-0.8,0-0.9,0-4.5,0c-0.4,0-0.7,0-0.9,0c-0.8-0.4-1.4-0.5-1.8-0.5
			c-0.3,0-0.6,0-1.2,0.1c-0.5,0.1-0.5,0.1-1,0.1c-0.6,0-1.3,0-2.1,0.3c-0.1,0.1-0.2,0.1-0.3,0.1c1.8,2.2,3.6,4.4,5.3,6.6
			c-0.1,0.4-0.2,0.7-0.4,1.1c-0.6,1.8-1.2,3.6-1.8,5.4c0.8,0.4,1.7,0.8,2.5,1.2c0.6,0.2,1,0.5,1.4,0.9c0.9,0.9,0.7,2-0.5,2.7
			c-1.1,1.9-1.9,3.5-2.3,4.7c-1,2.5-1.2,3.9-2.5,7.5c-0.4,1.2-0.8,2.1-1.1,2.7c0,0,0,0,0,0c-0.6,0.7-1-0.1-1.5-0.2
			c-0.6,0-1.1,0-1.7,0c-0.4,0-0.9,0-1.5,0c-0.4,0-1,0-2.1-0.1c-2.3-0.1-3.4-0.4-5.6-0.5c-1.6-0.1-1.9,0-5.9-0.2c-0.2,0-0.3,0-0.4,0
			c0,0.3,0,0.6,0,1c-0.2,1.6-0.5,3.2-0.5,4.9c-0.5,0.9-1.4,0.9-2.2,0c-0.4,0.1-1.1-0.6-1.3,0.4c0.2,0.9,0.3,1.8,0.5,2.7
			c0.2,0.9-0.1,1.3-0.9,1.4c0,0.8,0,1.5,0,2.3c0,4.1,0,8.3,0,12.4c0,1.7,0,3.4,0,5.1c0,3.3,0,6.5,0,9.8c0,7.9,0,15.8,0,23.7
			c0.1,0.3-0.4,1,0.4,1c0.6,0,1.3,0.1,1.9,0.1c2.8,0,5.7-0.1,8.5-0.1c0.3,0.1,0.6,0.1,0.8,0c0.3-0.2,0.4-0.7,0.2-1.1c0-15,0-30,0-45
			c3.5,0.3,7,0.5,10.5,0.8c0,8.4,0,16.8,0,25.2c0,6.4,0,12.7,0,19.1c0,0.1,0,0.5,0.4,0.8c0.2,0.2,0.4,0.2,0.5,0.2c1,0,16.1,0,16.5,0
			c0.3,0,0.4-0.2,0.4-0.2c0-0.1,0.1-0.1,0.1-0.2c0-16.5,0-32.9,0-49.4c0-0.2-0.1-0.7,0.2-1.2c0.1-0.2,0.3-0.3,0.3-0.4
			c0.4-0.3,0.8-0.4,0.9-0.4c0.7-0.2,1.2-1.1,1.6-1.7c2.1-3.9,5.8-26.3,5.8-26.3C682.3,496.6,682.7,494.4,682.1,491.7z M638.9,541
			c0,0.1,0,0.3-0.1,0.4C638.9,541.3,638.9,541.1,638.9,541c-1.1,0-2.1,0-3.2,0c-0.6,0-1.1,0-1.7,0c-0.1-1,0.4-1.2,1.3-1.2
			c1.2,0,2.4,0,3.6,0C639.7,540.2,639.6,540.6,638.9,541z M655.5,523.8C655.5,523.8,655.5,523.8,655.5,523.8"/>
		<path class="st20" d="M662.6,490.5c0.2-0.2,0.4-0.4,0.6-0.5c0.1-0.1,0.2-0.2,0.2-0.3c0-0.2-0.1-0.3-0.3-0.5
			c-0.2-0.2-0.4-0.4-0.6-0.7c-0.6-0.5-1.4-1.4-2.4-2.5c-0.3-0.3-0.7-0.7-2-2.4c-0.6-0.7-1.4-1.6-2.4-2.8c0,0,0,0-0.1,0
			c-0.1,0-0.1,0-0.2,0c0,10.5,0,21,0,31.5c0,0.6-0.1,1-0.8,1.1c0.5,0.1,0.9,0.9,1.5,0.2c0.4-0.9,0.7-1.8,1.1-2.7
			c0.8-2.1,2.1-4.1,2.5-6.4c0.8-1.7,1.6-3.3,2.3-5c0.3-0.5,0.7-1.3,0.9-2.3c0.1-0.5,0.2-1,0.2-1.4c0,0,0.1-0.1,0-0.2
			c-0.1-0.1-0.2-0.2-0.3-0.1c-0.6-0.1-1.2-0.2-1.8-0.4c-0.1-0.1-0.2-0.1-0.3-0.2c-0.6-0.4-1.3-0.7-1.9-1c0.6-0.6,1.2-1.3,1.8-1.9
			C661.6,491.3,662.3,490.7,662.6,490.5z"/>
		<path id="right_arm_old_man" class="st21" d="M587.4,458.7c0.4-0.9,0.9-0.2,1.2,0c4.8,3.1,9.6,6.2,14.3,9.3c2.5,1.6,5,3.3,7.5,4.9
			c0.7,0.5,1.6,0.6,2.4,0.8c9.1,2.1,18.1,4.4,27.2,6.3c1.1,0.2,2.2,0.3,3.4,0.4c-0.7,1.3-1.3,2.7-1.7,4.1c-1.7,1.3-2.9,3.2-4.4,4.7
			c-0.3,0.3-0.1,0.6,0.2,0.8c1.3,0.8,2.5,1.8,4,2.5c0,0.2,0,0.3,0,0.5c-1.4,0.3-2.1,1.6-3.1,2.4c-1.4,1-1.4,1.2-0.7,2.8
			c0.8,1.9,1.8,3.8,2.4,5.8c-0.5,0.5-1,1-1.3,1.7c-0.7,2,0.8,4.9,4.1,4.3c0.9,2.7,0.9,2.6-1.8,2.2c-1.2-0.2-2.5-0.4-3.8,0.2
			c-0.6,0-1.3,0-1.9,0c-0.8-0.2-1.7,0.1-2.4-0.3c0-5.5,0-11,0-16.5c0-0.5,0.1-0.9-0.5-1.2c-1.5-0.6-3-1.2-4.5-1.7
			c-0.4-1.2-0.3-2.6-1-3.7c-0.1-0.1-0.2-0.1-0.2,0c-1.7,0-3.4,0-5.1,0c-0.2-0.5-0.6-0.4-1-0.4c-0.7,0-1.4,0-2,0
			c-0.5,0-0.8-0.1-1.1-0.6c-0.2-0.5-1-1.8-1.7-2c-0.2-0.1-0.8-0.2-2.1,1c-5-2.2-8.9-4.5-11.8-6.4c-1.9-1.2-9.1-6.2-16.6-14.7
			c-0.4-0.4-0.7-0.8-0.9-1.1C585.6,463,586.5,460.9,587.4,458.7z"/>
		<path class="st7" d="M639.9,644.2c0,1.1-0.7,1.3-1.7,1.3c-4.3,0-8.5,0-12.8,0c-0.4,0-0.9,0.1-1.4-0.2c0.4-0.3,0.8-0.7,1.2-1
			c2.5-1.1,4.7-2.7,7-4c0.1,0,0.1-0.1,0.2-0.1c1.6-0.6,2-1.7,2-3.4c0.1-8.9,0.3-17.8,0.4-26.6c0.2-8.5,0.3-17,0.5-25.4
			c0-2.5,0.1-4.9,0.2-7.4c2.8,0,5.7-0.1,8.5-0.1c1.1,0.3,0.9-0.5,0.9-1.1c0-15,0-30,0-45c0-0.5,0-1,0.1-1.5c1.3,0,2.6,0,3.9,0
			c0.6,0.7,1.2,1.1,1.8,0c1.6,0,3.2,0,4.8,0c0,0.8,0,1.5,0.1,2.3c0.2,8.5,0.2,16.9,0,25.2c-0.8-2.8-1.1-5.7-1.7-8.5
			c-0.1-0.4-0.1-0.8-0.4-1.3c-0.6,4.2-1.2,8.2-1.8,12.2c-1.2,8.2-2.3,16.3-3.5,24.5c-1.2,8.3-2.4,16.6-3.6,24.9
			c-1.1,7.8-2.2,15.5-3.3,23.3C640.6,636.1,639.9,640.1,639.9,644.2z"/>
		<path class="st7" d="M676.4,644.9c-0.1,0.5-0.4,0.5-0.8,0.5c-4.9,0-9.8,0-14.7,0c-0.2-0.5,0.4-0.5,0.5-0.8
			c2.8-1.8,5.7-3.6,8.6-5.3c0.6-0.3,0.6-0.7,0.5-1.3c-1.6-8.6-3-17.2-4.8-25.8c0,0-0.6-3.2-1.8-9.5c-0.5-2.5-1.8-9.5-1.8-9.9
			c-0.7-3.7-1.7-9-2.9-15.7c4.6,0,9.2,0,13.9,0c0.1,1.1,0.1,2.7,0.3,4.8c0.3,5.8,0.5,9.3,0.8,14.7c0.4,7,0.4,6.6,0.6,10.5
			c0.5,9.7,1.1,19.3,1.6,29C676.4,639.1,676.3,642,676.4,644.9z"/>
		<path class="st21" d="M659.1,470.1c-1.9,0-3.9-0.1-5.8,0c-0.8,0-1.1-0.3-1.1-1c0-1.6,0-3.2,0-4.7c0-0.6,0.2-1,0.8-1.3
			c1.4-0.7,1.8-1.9,1.2-3.2c-0.5-1.1-2.4-1.8-3.6-1.3c-0.3,0.1-0.4,0.4-0.5,0.6c-0.2,0.5-0.3,0.9-0.5,1.4c-0.5,1.2-2,1.8-3.1,1.3
			c-0.5-0.2-0.4-0.6-0.3-0.9c1.2-3.4,2.4-6.8,3.6-10.1c0.2-0.6,0.6-0.8,1.2-0.8c2,0,4,0,6.1,0c2.5,0.3,3.6,1.6,3.6,4
			c0,0.6,0.1,0.8,0.7,0.9c1.9,0.4,3,1.7,2.9,3.7c0,0.7,0.1,0.9,0.8,1c1.6,0.3,2.6,1.4,2.9,3c0.1,0.5,0.3,0.7,0.6,0.9
			c1.6,1,2.2,2.5,1.8,4.1c-0.4,1.6-1.8,2.5-3.7,2.5C664.2,470.1,661.7,470.1,659.1,470.1z"/>
		<path class="st7" d="M646.9,477.4c0.1,0.4,0.1,0.8,0,1.2c-0.9,0.5-1.6,1-2,1.9c-1.6,1.4-2.2,3.3-2.3,5.3
			c-0.1,5.7-0.1,11.5-0.1,17.2c0,0.4,0,0.7,0.5,0.8c0.8,0.2,1.3,0.8,1.9,1.3c0.6,1.3,0.6,2.5,0,3.8c-0.6,0.5-1.2,1.1-1.9,1.4
			c-3.3,0.6-4.8-2.3-4.1-4.3c0.3-0.7,0.8-1.2,1.3-1.7c0.4-0.4,1.5-0.1,1.5-1.1c0-3.3,0-6.6-0.1-9.9c0-0.2,0-0.3,0-0.5
			c0.1-2.7,0.1-5.3,0.2-8c0.4-1.4,0.9-2.8,1.7-4.1C644.5,479.3,645.5,478.1,646.9,477.4z M639.9,507c0,1.4,0.9,2.3,2.3,2.2
			c1.2,0,2.2-1,2.1-2.3c0-1.3-1-2.2-2.3-2.1C640.7,504.8,639.9,505.7,639.9,507z"/>
		<path class="st22" d="M639.4,454.1c0.4,0.5,1,0.9,1.2,1.5c0.1,0.2,0.1,0.6,0.5,0.6c0.4,0,0.3-0.4,0.5-0.6c0.8-1.5,2.1-2.1,3.6-1.6
			c1.2,0.4,1.9,1.5,1.8,2.7c-0.1,1.2-0.9,2.3-2,2.6c-1.2,0.3-2.5-0.2-3.2-1.2c-0.7-1.1-0.7-1.1-1.4,0.1c-0.7,1-1.7,1.3-2.8,1.3
			c-1.8-0.6-2.7-2.1-2.2-3.7C635.7,454.1,637.3,453.5,639.4,454.1z M639,455.1c-0.7-0.8-1.4-0.6-2.2-0.1c-0.8,0.5-1.1,1.2-0.9,2.1
			c0.2,1,0.9,1.5,1.9,1.6c1,0.1,1.7-0.5,2-1.4C640.1,456.4,640,455.6,639,455.1z M646.2,456.6c0-1-1-2-2-2c-1.1,0-2.1,1-2,2.1
			c0,1.1,1,1.9,2.1,1.9C645.3,458.6,646.2,457.7,646.2,456.6z"/>
		<g id="hardboard_00000086689706814216437650000007808307668475012745_">
			<path id="hardboard" class="st7" d="M627,489.2c0.7,1.1,0.6,2.5,1,3.7c0,0.2,0,0.4,0,0.6c1.3,6.3,2.7,12.5,4,18.8
				c-0.6,0-1.2,0-1.8,0c-1.4,0.1-2.4,1.1-2.5,2.5c-0.1,1.3,0.8,2.5,2.2,2.8c0.8,0.2,1.7,0.3,2.5,0.4c0.5,0.1,0.9,0.2,1.1,0.7
				c0.2,0.9,0.3,1.8,0.5,2.7c0.2,0.9-0.1,1.3-0.9,1.4c-6.9,0-13.7-0.1-20.6-0.1c-1,0-1.4-0.3-1.7-1.3c-2.1-10.3-4.3-20.5-6.5-30.8
				c-0.2-1.2,0.1-1.5,1.2-1.4c1.6,0,3.1,0,4.7-0.1c3.8,0,7.6,0,11.4,0c1.7,0,3.4,0,5.1,0C626.9,489.2,626.9,489.2,627,489.2z"/>
			<path id="hardboard_clip" class="st23" d="M621.7,489.2c-3.8,0-7.6,0-11.4,0c0-0.4,0.2-0.5,0.6-0.5c0.5,0,1,0,1.4,0
				c0.7,0,1.2,0,1.4-0.2c0.3-0.4-0.1-0.8,0.1-1.4c0.3-0.6,1.2-1.1,2-0.9c1,0.2,1.4,1.3,1.5,1.3c0.2,0.4,0.2,0.8,0.5,1.1
				c0.2,0.1,0.4,0.2,0.8,0.2c0.7,0,1.4,0,2,0C621.1,488.8,621.5,488.7,621.7,489.2z M614.9,488.1c0.1,0.3,0.4,0.4,0.7,0.4
				c0.3,0,0.6-0.1,0.7-0.5c0.1-0.3-0.2-0.6-0.5-0.7c-0.3-0.1-0.7,0-0.8,0.2C614.8,487.9,614.9,488.1,614.9,488.1z"/>
		</g>
		<path class="st24" d="M583,463.7c1.1-1.1,1.4-2.6,2.1-3.9c0.3-0.6,0.2-1.4,1.1-1.6c0.4,0.2,0.8,0.4,1.2,0.6
			c-0.9,2.1-1.8,4.2-2.9,6.2C584,464.6,583.4,464.2,583,463.7z"/>
		<path class="st7" d="M662.4,481.6c0.3,0.7,0.8,1.7,1,3c0.1,0.5,0.2,1.1,0.2,1.9c-0.3,0-0.6,0-0.9,0c-0.1-1.5-0.4-3.8-2-5.8
			c-0.2-0.3-0.5-0.5-0.7-0.8c0-0.5-0.1-1-0.1-1.4c0.2,0.2,0.5,0.4,0.8,0.7c0.3,0.2,0.7,0.7,1.1,1.2
			C661.9,480.7,662.1,481,662.4,481.6z"/>
		<path class="st25" d="M645.5,521.3c2.9,0.7,5.8,1.3,8.7,2c0.4,1.1-0.1,2-0.8,2.8c-1,1.1-1.9,2.3-2.8,3.4c-0.6,1.1-1.2,0.7-1.8,0
			c-0.4-0.5-0.7-1-1.1-1.4c-1.7-1.9-3.3-3.8-2.3-6.6C645.5,521.5,645.5,521.4,645.5,521.3z"/>
		<path class="st7" d="M659.8,504.5c-0.2,0-0.7,0.1-0.9-0.2c-0.2-0.2-0.1-0.5-0.1-0.6c0-0.3,0.1-0.5,0.2-0.5
			c0.2-0.1,0.4-0.1,0.9-0.1c0.6,0,0.4,0,1.1,0c0.4,0,0.9,0.1,1.6,0.2c-0.7-3.3-1.5-5.8-2-7.5c-0.3-0.9-0.5-1.6-0.5-2.6
			c0-2.6,1.8-4.8,2.2-5.3c0.2-0.3,0.4-0.5,0.5-0.6c0,0.3,0,0.7,0,1c-0.1,0.1-0.2,0.2-0.3,0.3c-0.2,0.2-0.4,0.5-0.7,1
			c-0.1,0.2-0.4,0.7-0.7,1.6c-0.3,0.7-0.4,1.1-0.4,1.5c-0.1,0.8,0.1,1.5,0.2,1.8c0.1,0.4,0.1,0.3,0.4,1.2c0.1,0.3,0.3,1,0.5,1.8
			c0.1,0.3,0.2,0.7,0.3,1.2c0.1,0.4,0.2,0.9,0.3,1.3c0.1,0.2,0.1,0.4,0.1,0.5c0.3,0.9,0.7,2.2,0.9,2.6c0.1-0.1,0.1-0.3,0.2-0.5
			c0.3-0.7,0.4-1.2,0.5-1.7c0.2-1.1,0.3-1.5,0.4-2.1c0.2-0.8,0.2-0.8,0.4-1.9c0.1-0.6,0.3-1.4,0.5-2.4c0.2,0,0.4,0,0.6,0.1
			c-1,4.3-1.7,7.5-1.9,8.1c0,0.1-0.1,0.5,0,0.6c0.1,0.1,0.4,0,0.5,0c0.7-0.2,2.2-0.7,2.7-0.3c0.3,0.2,0.4,0.7,0.3,1
			c0,0.1-0.1,0.4-0.4,0.5c-0.1,0.1-0.3,0-0.4,0c-1.6-0.6-2.7-0.6-3.5-0.5C661.6,504.4,661,504.4,659.8,504.5z"/>
		<path class="st24" d="M637,518.4c-0.5,0.9-1.4,0.9-2.2,0c0.4-1.9,0.7-3.8,0.7-5.8c0.6,0,1.3,0,1.9,0c0,0,0,0,0,0c0,0.3,0,0.6,0,1
			C637.2,515.2,637,516.8,637,518.4z"/>
		<path class="st20" d="M672.2,539.9c0,0.4,0,0.7,0,1.1c-3.4,0-6.8,0-10.2,0c-0.4,0-0.7-0.3-0.7-0.7c0-0.3,0.3-0.6,0.7-0.5
			C665.4,539.8,668.8,539.8,672.2,539.9z"/>
		<path class="st20" d="M634.1,541c-0.1-1,0.4-1.2,1.3-1.2c1.2,0,2.4,0,3.6,0c0.8,0.4,0.7,0.8,0,1.2c-1.1,0-2.1,0-3.2,0
			C635.2,541,634.6,541,634.1,541z"/>
		<path class="st7" d="M666.2,492c0.1,0.4,0.1,0.8,0.1,1.4c-0.1,0-0.2,0-0.3-0.1c-0.1,0-0.2,0-0.3,0c0-0.3-0.1-0.6-0.1-1
			c-0.1-0.5-0.2-1-0.4-1.7c-0.2-0.5-0.2-0.8-0.5-1.2c-0.3-0.6-0.7-0.9-1-1.1c0-0.3,0-0.6,0-0.9c0.1,0.1,0.2,0.1,0.3,0.2
			c0.2,0.2,0.3,0.3,0.4,0.4c0.5,0.6,0.7,0.9,0.9,1.2c0.2,0.3,0.3,0.6,0.4,1.1C665.8,490.4,666,491.1,666.2,492z"/>
		<path class="st20" d="M666.9,504.5c-0.1,1.5-0.2,3-0.2,4.6c-0.1,1.7-0.1,3.3-0.1,4.9c-0.2,0-0.5,0-0.8,0c-0.9-0.1-1.2-0.1-2.1-0.2
			c-0.2,0-0.5,0-0.9,0c-0.8,0-1.1,0-1.6-0.1c-0.5,0-1.1-0.1-2.3-0.2c-0.5,0-1.1-0.1-1.9-0.2c-0.2,0.1-0.4,0.3-0.6,0.4
			c0.4,0,1,0.1,1.7,0.1c1.5,0.1,2.2,0.1,3,0.2c0.3,0,0.7,0,2.8,0.1c0.8,0,1.8,0.1,3.1,0.1c0-3.3,0.1-6.5,0.1-9.8
			C667,504.5,666.9,504.5,666.9,504.5z"/>
		<path class="st24" d="M655.5,523.8c0,1.9-0.1,3.9-0.1,5.8c-1.6,0-3.2,0-4.8,0c0.9-1.1,1.8-2.3,2.8-3.4c0.7-0.8,1.2-1.7,0.8-2.8
			C654.6,523.5,655.1,523.6,655.5,523.8z"/>
		<path class="st24" d="M645.5,521.3c0,0.1,0,0.2,0,0.2c-1,2.8,0.7,4.7,2.3,6.6c0.4,0.4,0.7,0.9,1.1,1.4c-1.3,0-2.6,0-3.9,0
			c0-2.5,0-5.1,0-7.6C645,521.7,644.8,521.1,645.5,521.3z"/>
		<path class="st20" d="M641.6,493.2c0,3.3,0.1,6.6,0.1,9.9c0,1-1,0.7-1.5,1.1c-0.6-2-1.6-3.9-2.4-5.8c-0.7-1.6-0.7-1.8,0.7-2.8
			C639.5,494.8,640.2,493.5,641.6,493.2z"/>
		<path class="st20" d="M641.8,484.7c-0.1,2.7-0.1,5.3-0.2,8c-1.4-0.7-2.6-1.7-4-2.5c-0.3-0.2-0.5-0.5-0.2-0.8
			C638.9,487.8,640,486,641.8,484.7z"/>
		<path class="st24" d="M654.7,513.4c-0.6,0-1.1,0-1.7,0c0-0.1,0-0.1,0-0.2c0.5-0.7,0.2-1.4,0.2-2.1c-0.4-3.7-0.7-7.4-1.1-11.1
			c-0.3-3.3-0.7-6.7-0.9-10c-0.1-1.5-0.7-3,0.1-4.5c0.4-0.7,0.8-1.5,1.2-2.2c0.5-1,0.4-1.2-0.7-1.2c-1.2,0-2.4,0.1-3.6,0.1
			c-1.5,0-1.6,0.1-0.8,1.4c1,1.6,1.6,3.2,1.3,5.1c-0.3,2.3-0.5,4.6-0.7,7c-0.3,3.2-0.7,6.5-0.9,9.7c-0.2,2.4-0.7,4.9-0.5,7.4
			c-1.3,0.2-1.6-0.3-1.5-1.5c0.1-0.8,0-1.6,0-2.4c0.6-1.3,0.6-2.5,0-3.8c0-2.5,0-4.9,0-7.4c0-5.6,0-11.3,0-16.9c0.6,0,1.3,0,1.9,0
			c2.8,0,5.7,0,8.5,0c0,10.5,0,21,0,31.5C655.5,512.9,655.4,513.3,654.7,513.4z"/>
		<path class="st20" d="M644.9,480.5c0,0.1,0.1,0.2,0.1,0.3c0,5.6,0,11.3,0,16.9c0,2.5,0,4.9,0,7.4c-0.6-0.5-1.1-1.1-1.9-1.3
			c-0.5-0.1-0.5-0.5-0.5-0.8c0-5.7-0.1-11.5,0.1-17.2C642.7,483.8,643.3,481.9,644.9,480.5z"/>
		<path class="st1" d="M639.9,507c0-1.3,0.8-2.2,2.2-2.2c1.3,0,2.2,0.8,2.3,2.1c0,1.3-0.9,2.3-2.1,2.3
			C640.8,509.3,639.9,508.4,639.9,507z M642,508.3c0.8,0,1.4-0.5,1.4-1.2c0-0.8-0.5-1.3-1.3-1.4c-0.8,0-1.3,0.4-1.3,1.2
			C640.8,507.7,641.2,508.2,642,508.3z"/>
		<path class="st1" d="M662.7,487.3c0-0.2,0-0.5,0-0.7c0.3,0,0.5,0,0.8,0c0.1,0,0.1,0,0.2,0c0,0.3,0,0.5,0,0.8c0,0.3,0,0.6,0,0.9
			c-0.3,0.1-0.7,0.1-1,0C662.7,488,662.7,487.6,662.7,487.3z"/>
		<path class="st25" d="M646.5,512.8c-0.1-2.5,0.3-4.9,0.5-7.4c0.3-3.3,0.6-6.5,0.9-9.7c0.2-2.3,0.4-4.7,0.7-7
			c0.3-1.9-0.3-3.5-1.3-5.1c-0.8-1.3-0.7-1.4,0.8-1.4c1.2,0,2.4-0.1,3.6-0.1c1.1,0,1.2,0.2,0.7,1.2c-0.4,0.7-0.8,1.5-1.2,2.2
			c-0.8,1.5-0.2,3-0.1,4.5c0.2,3.3,0.6,6.7,0.9,10c0.4,3.7,0.7,7.4,1.1,11.1c0.1,0.7,0.3,1.4-0.2,2.1c-0.2,0-0.5,0-0.7,0
			c-0.4,0-0.8,0-1.2-0.1C649.5,513,648,512.9,646.5,512.8z"/>
		<path class="st20" d="M653,513.1c-0.2,0-0.5,0-0.7,0c-0.3,0-0.8,0-1.5-0.1c-0.7,0-1.2-0.1-1.9-0.1c-0.6,0-1.4-0.1-2.4-0.2
			c-1.3,0.2-1.6-0.3-1.5-1.5c0.1-0.8,0-1.6,0-2.4c-0.6,0.5-1.2,1.1-1.9,1.4c0.9,2.7,0.9,2.6-1.8,2.2c-1.2-0.2-2.5-0.4-3.7,0.1
			c0.1,0,0.2,0,0.4,0c3.8,0.2,4.5,0.4,5.8,0.4c1.1,0,1.4,0,2.1,0.1c0.3,0,0.5,0,1.4,0.1c2.5,0.2,3,0.2,3.6,0.2c0.4,0,0.9,0,1.5,0
			c0,0,0,0,0,0c0.1,0,0.2,0,0.3,0c0.2,0,0.3,0,0.4,0C653,513.3,653,513.2,653,513.1z"/>
		<path class="st7" d="M642,508.3c-0.8-0.1-1.2-0.5-1.2-1.3c0-0.8,0.6-1.3,1.3-1.2c0.8,0,1.3,0.6,1.3,1.4
			C643.4,507.8,642.9,508.3,642,508.3z"/>
		<circle class="st1" cx="665.7" cy="494" r="0.8"/>
	</g>
	<path class="st3" d="M495.3,474.7c-0.4-0.1-0.6-0.5-0.6-0.8c0.1-0.3,0.3-0.6,0.7-0.6c5.3,0.5,10.6,0.9,15.9,1.4
		c0.4,0,0.7,0.4,0.7,0.8c0,0.3-0.4,0.6-0.7,0.6C506,475.6,500.7,475.1,495.3,474.7z"/>
	<path class="st3" d="M495.3,478.6c-0.4-0.1-0.6-0.5-0.6-0.8c0.1-0.3,0.3-0.6,0.7-0.6c5.3,0.5,10.6,0.9,15.9,1.4
		c0.4,0,0.7,0.4,0.7,0.8c0,0.3-0.4,0.6-0.7,0.6C506,479.5,500.7,479,495.3,478.6z"/>
</g>
</svg>
