<?xml version="1.0" encoding="utf-8"?>
<!-- Generator: Adobe Illustrator 26.0.1, SVG Export Plug-In . SVG Version: 6.00 Build 0)  -->
<svg version="1.1" id="Layer_1" xmlns="http://www.w3.org/2000/svg" xmlns:xlink="http://www.w3.org/1999/xlink" x="0px" y="0px"
	 viewBox="0 0 1920 1000" style="enable-background:new 0 0 1920 1000;" xml:space="preserve">
<style type="text/css">
	
		.st0{clip-path:url(#SVGID_00000111882634773865004420000013644051299739519616_);fill:url(#SVGID_00000011732434154974438560000012717681431968636551_);}
	
		.st1{clip-path:url(#SVGID_00000068637497584397668250000013015934954791314835_);fill:url(#SVGID_00000132070170894077587260000009229395557558458302_);}
</style>
<g>
	<g>
		<defs>
			<rect id="SVGID_1_" x="-82.2" width="2002.3" height="1000"/>
		</defs>
		<clipPath id="SVGID_00000142146311634218558770000007974809740015083419_">
			<use xlink:href="#SVGID_1_"  style="overflow:visible;"/>
		</clipPath>
		
			<linearGradient id="SVGID_00000072958571075895549680000002727543193849025679_" gradientUnits="userSpaceOnUse" x1="374.2386" y1="492.1779" x2="2021.5" y2="492.1779">
			<stop  offset="0" style="stop-color:#494EBE;stop-opacity:0.8"/>
			<stop  offset="1" style="stop-color:#9BA9F2"/>
		</linearGradient>
		
			<path style="clip-path:url(#SVGID_00000142146311634218558770000007974809740015083419_);fill:url(#SVGID_00000072958571075895549680000002727543193849025679_);" d="
			M1920,0.1v58.8h-678.8c-14,119.5-55.4,305.5-183.6,488.4c-209.1,298.1-518.1,401.2-683.4,437c220.2-33.7,401.6-39.1,533.5-36.8
			c0,0,472.3,7.7,864.6-57.9c20.5-3.4,67.2-11.9,116.3-43.5c79.6-51.3,116-131.6,132.9-180.4C1987.7,443.8,1953.8,222,1920,0.1z"/>
	</g>
</g>
<g>
	<g>
		<defs>
			<rect id="SVGID_00000052098802612989364190000008410942442892676024_" x="-82.2" width="2002.3" height="1000"/>
		</defs>
		<clipPath id="SVGID_00000135680160682237697240000017009490244827252379_">
			<use xlink:href="#SVGID_00000052098802612989364190000008410942442892676024_"  style="overflow:visible;"/>
		</clipPath>
		
			<linearGradient id="SVGID_00000039128578297786037320000009760069082177459848_" gradientUnits="userSpaceOnUse" x1="-212.6879" y1="774.4891" x2="2117.8999" y2="774.4891" gradientTransform="matrix(1 0 0 1 0 -22)">
			<stop  offset="0" style="stop-color:#6268DD"/>
			<stop  offset="1" style="stop-color:#CDD5FF"/>
		</linearGradient>
		
			<path style="clip-path:url(#SVGID_00000135680160682237697240000017009490244827252379_);fill:url(#SVGID_00000039128578297786037320000009760069082177459848_);" d="
			M1822.6,527.1c137.2-82.7,234.1-176.2,295.3-244C1965,593.6,1954.2,702.8,1978,741.5c4.2,6.9,29.3,51.4,48.8,113.8
			c4.3,13.8,7.3,29.8,8,50c1.7,48.8-14,81.9-28.1,120.9c-26,71.7-26.8,111.1-33.7,130.1c-47,129.3-1008.9,27.5-1008.9,27.5
			c-277.4-30.3-677.6-53.3-1176.8-9.2c25-46.6,65.9-111.3,130.5-174.6C85.5,835.5,293.2,797.4,444.9,771.6
			c160.1-27.2,161.6-17.3,524.5-29.1c83-2.7,182.8-11.1,310.1-31.9C1596.5,658.8,1773.2,556.8,1822.6,527.1z"/>
	</g>
</g>
</svg>
