<svg xmlns="http://www.w3.org/2000/svg" width="100" height="100" viewBox="0 0 100 100">
  <defs>
    <style>
      .cls-1 {
        fill: #ebeff2;
      }

      .cls-2 {
        fill: #6268dd;
      }

      .cls-3 {
        fill: #9ba9f2;
        stroke: rgba(0,0,0,0);
        stroke-miterlimit: 10;
      }

      .cls-4 {
        fill: #8dced6;
      }
    </style>
  </defs>
  <g id="Group_431" data-name="Group 431" transform="translate(-1750 -609)">
    <rect id="Rectangle_128" data-name="Rectangle 128" class="cls-1" width="100" height="100" transform="translate(1750 609)"/>
    <g id="Group_376" data-name="Group 376" transform="translate(1750 609)">
      <g id="Group_374" data-name="Group 374">
        <path id="Path_627" data-name="Path 627" class="cls-2" d="M70.143,33.161a8,8,0,0,1-.758,2.334,28.8,28.8,0,0,1-3.941,6.594,12.536,12.536,0,0,0-1.926,4.9,12.789,12.789,0,0,0,0,6.063c.637,3.032,1.364,5.972,1.986,8.988a35.7,35.7,0,0,1,.667,5.821,20.8,20.8,0,0,1-.516,5.9A24.031,24.031,0,0,1,60.79,83.13c-.076.091-.122.227-.258.167s-.076-.2-.091-.319c-.227-1.834-.424-3.7-.682-5.533-.348-2.41-.773-4.79-1.3-7.17a45.457,45.457,0,0,0-2.232-7.463,13.481,13.481,0,0,0-3.032-4.865,4.093,4.093,0,0,0-5.578-.2A14.322,14.322,0,0,0,43.4,63.068a63.138,63.138,0,0,0-5,13.4c-.561,2.047-1.047,4.092-1.516,6.154a2.368,2.368,0,0,1-.242.713c-.319-.622-.652-1.243-.941-1.88a29.743,29.743,0,0,1-2.228-7.276A22.947,22.947,0,0,1,33,68.828c.106-1.652.227-3.3.469-4.941.334-2.213.8-4.411,1.289-6.594s.879-4,1.2-6.063a16.537,16.537,0,0,0-.243-5.457c-.136-.758-.333-1.516-.439-2.258a7.578,7.578,0,0,0-1.516-3.29,25.194,25.194,0,0,1-2.623-4.82h.092a21.81,21.81,0,0,0,2.531,2.5,25.885,25.885,0,0,0,4,2.926,33.738,33.738,0,0,0,3.986,1.956A20.837,20.837,0,0,0,48.4,44.56a20,20,0,0,0,9.5-1.516,29.582,29.582,0,0,0,4.381-2.319A27.356,27.356,0,0,0,67.4,36.4C68.384,35.42,69.232,34.268,70.143,33.161Z"/>
        <path id="Union_19" data-name="Union 19" class="cls-3" d="M1384,5974.892a20.825,20.825,0,0,1-6.652-1.774,33.7,33.7,0,0,1-4-1.985,26.108,26.108,0,0,1-4-2.926,21.782,21.782,0,0,1-2.53-2.5h-.093a19.468,19.468,0,0,1-1.227-3.032,33.2,33.2,0,0,1-1.2-4.7,16.253,16.253,0,0,1,0-6.231,3.173,3.173,0,0,1,.772-1.516h.006a3.742,3.742,0,0,1,2.012-1.677,16.1,16.1,0,0,1,8.155-.985,37.053,37.053,0,0,1,5.184.744,38.514,38.514,0,0,1,5.337,1.516,1.317,1.317,0,0,0,1.014,0,42.755,42.755,0,0,1,8.671-2.473,15.185,15.185,0,0,1,6.5,0,5.707,5.707,0,0,1,3.671,2.626h0a7.352,7.352,0,0,1,1.362,3.648c.063.626.2,1.312.217,1.8a21.5,21.5,0,0,1-1.123,7.263c-.09.258-.015.591-.333.757-.909,1.108-1.759,2.26-2.743,3.29a27.393,27.393,0,0,1-5.13,4.317,29.566,29.566,0,0,1-4.382,2.32,20.011,20.011,0,0,1-7.809,1.587Q1384.844,5974.962,1384,5974.892Z" transform="translate(-1335.604 -5930.338)"/>
      </g>
      <g id="Group_375" data-name="Group 375">
        <path id="Path_636" data-name="Path 636" class="cls-4" d="M50.089,43.452c.011.011.034.025.032.032a.568.568,0,0,1-.039.078c-.011-.011-.033-.026-.031-.033A.368.368,0,0,1,50.089,43.452Z"/>
        <path id="Path_637" data-name="Path 637" class="cls-4" d="M43.7,43.709a.159.159,0,0,1,.041.021c.006.005,0,.021,0,.032l-.043-.055Z"/>
        <path id="Path_638" data-name="Path 638" class="cls-4" d="M56.269,43.725l-.067.039.042-.063Z"/>
      </g>
    </g>
    <g id="Group_428" data-name="Group 428" transform="translate(1750 609)">
      <path id="Path_1453" data-name="Path 1453" class="cls-1" d="M83.019,19.344q-5.978-3.018-11.956-6.033a1.944,1.944,0,0,0-1.885.018Q63.271,16.323,57.35,19.29a1.048,1.048,0,0,0-.7.928,1.031,1.031,0,0,0,.688.97q2.046,1.027,4.09,2.062v.087c0,1.651-.02,3.3.016,4.952a2.327,2.327,0,0,0,.336,1.118,6.447,6.447,0,0,0,2.9,2.424,12.883,12.883,0,0,0,10.351.257A6.92,6.92,0,0,0,78.524,29.4a2.277,2.277,0,0,0,.341-1.116c.037-1.65.017-3.3.017-4.952v-.1l1.008-.507V21.46c-.262.128-.472.228-.68.333q-4.15,2.091-8.3,4.188a1.551,1.551,0,0,1-1.5.027q-4.919-2.485-9.84-4.961a.848.848,0,0,1-.568-.8.865.865,0,0,1,.575-.766q4.884-2.451,9.76-4.918a1.6,1.6,0,0,1,1.555-.016q4.929,2.5,9.866,4.979a.8.8,0,0,1,.136,1.422.4.4,0,0,0-.128.278v1.059l.382-.192c.141-.071.285-.141.439-.216h0c.119-.058.244-.118.381-.186h0l1.159-.557a.365.365,0,0,1,.059-.065.971.971,0,0,0-.167-1.725ZM62.926,24.1v-.3c.727.365,1.4.7,2.063,1.035q2,1.005,3.986,2.014a2.407,2.407,0,0,0,2.3,0q2.842-1.442,5.691-2.87c.106-.053.216-.1.356-.161.006.123.013.2.013.28,0,1.305.016,2.61-.014,3.914a1.743,1.743,0,0,1-.282.882,5.685,5.685,0,0,1-2.878,2.123,11.08,11.08,0,0,1-8.549-.2,5.262,5.262,0,0,1-2.4-1.915,1.778,1.778,0,0,1-.278-.883C62.91,26.707,62.926,25.4,62.926,24.1Z"/>
      <g id="Group_427" data-name="Group 427">
        <path id="Path_1451" data-name="Path 1451" class="cls-2" d="M80.922,25.773a.46.46,0,0,1-.144-.307q-.014-2.109,0-4.221a.406.406,0,0,1,.129-.277.8.8,0,0,0-.137-1.423L70.9,14.567a1.6,1.6,0,0,0-1.555.016q-4.875,2.469-9.76,4.918a.866.866,0,0,0-.575.766.848.848,0,0,0,.568.8q4.923,2.474,9.84,4.961a1.551,1.551,0,0,0,1.5-.027q4.146-2.1,8.3-4.188c.208-.1.418-.2.681-.334,0,1.405,0,2.739-.007,4.073,0,.081-.1.157-.148.242a2.152,2.152,0,0,0-.336.723c-.045.747-.022,1.5-.016,2.248,0,.328.165.481.5.491.288.009.575.007.863,0,.38-.007.539-.166.541-.55v-2.1A1.048,1.048,0,0,0,80.922,25.773Z"/>
        <path id="Path_1452" data-name="Path 1452" class="cls-2" d="M77.34,23.837c-.14.063-.25.107-.356.161q-2.846,1.432-5.691,2.87a2.407,2.407,0,0,1-2.3,0Q67,25.854,65,24.852c-.668-.337-1.337-.67-2.064-1.035v.3c0,1.305-.016,2.61.014,3.914a1.78,1.78,0,0,0,.277.884,5.273,5.273,0,0,0,2.4,1.915,11.084,11.084,0,0,0,8.549.2,5.685,5.685,0,0,0,2.878-2.123,1.743,1.743,0,0,0,.282-.882c.031-1.3.014-2.609.014-3.914C77.353,24.039,77.346,23.96,77.34,23.837Z"/>
      </g>
    </g>
  </g>
</svg>
