<svg id="Layer_1" data-name="Layer 1" xmlns="http://www.w3.org/2000/svg" viewBox="0 0 401.1 253.17">
  <defs>
    <style>
      .cls-1 {
        fill: #cdd5ff;
      }

      .cls-2 {
        fill: #1f8ed9;
      }

      .cls-3 {
        fill: #b4ebfd;
      }

      .cls-4 {
        fill: #f8c599;
      }

      .cls-5 {
        fill: #7bc7ef;
      }

      .cls-6 {
        fill: #a0e1f7;
      }

      .cls-7 {
        fill: #beeffd;
      }

      .cls-8 {
        fill: #c2effd;
      }

      .cls-9 {
        fill: #122685;
      }

      .cls-10 {
        fill: #e1a46a;
      }

      .cls-11 {
        fill: #ebeff2;
      }

      .cls-12 {
        fill: #1e77c4;
      }

      .cls-13 {
        fill: #fefefe;
      }

      .cls-14 {
        fill: #cbf1fe;
      }

      .cls-15 {
        fill: #faa0c9;
      }

      .cls-16 {
        fill: #f871af;
      }

      .cls-17 {
        fill: #d9f5fe;
      }

      .cls-18 {
        fill: none;
        stroke: #122685;
        stroke-miterlimit: 10;
      }
    </style>
  </defs>
  <circle class="cls-1" cx="241.66" cy="120.61" r="120.61"/>
  <path class="cls-2" d="M388.25,619.83a6,6,0,0,1-3.92-5.48q-.06-8,0-15.93c0-2.83,1.61-4.56,4.12-5.58l1.43-.21,5,0,.51,0c.64,0,1.28.06,1.91.06h58.22c.79,0,1.59,0,2.38-.07.4,0,.8.07,1.19.07h40.07c1.24,0,2.47,0,3.71,0a6.72,6.72,0,0,0-2.72,2.1,8.35,8.35,0,0,0-1.39,5.32c0,3.72,0,8.27,0,13.72a6.13,6.13,0,0,0,1.08,3.61,6.4,6.4,0,0,0,4.81,2.55l-51.71,0c-.46,0-1.14,0-2,0-2.63,0-5.26,0-7.89,0l-15.1,0c-.64,0-1.28,0-1.92,0h-33.2A20,20,0,0,1,388.25,619.83Zm50.18-6.68c10,0,19.91,0,29.86,0,.95,0,1.22-.26,1.2-1.2-.05-3.76,0-7.52,0-11.27,0-.91-.27-1.15-1.16-1.15q-29.79,0-59.6,0c-.86,0-1.08.27-1.07,1.09,0,3.72.06,7.43,0,11.15,0,1.12.31,1.39,1.4,1.39C418.85,613.14,428.64,613.16,438.43,613.15Zm52-6.8c0-2,0-3.92,0-5.88,0-.74-.22-1-1-1-1.88,0-3.76,0-5.63,0-.66,0-.92.17-.91.87q0,5.94,0,11.88c0,.66.18.91.88.9,1.88,0,3.76,0,5.64,0,.82,0,1-.32,1-1.07C490.39,610.19,490.42,608.27,490.42,606.35Zm-99.06-.13v4.67c0,2.29,0,2.24,2.26,2.29.94,0,1.13-.31,1.12-1.17,0-3.39,0-6.78,0-10.17,0-2.39,0-2.36-2.44-2.33-.73,0-1,.23-.94,1C391.39,602.39,391.36,604.31,391.36,606.22Z" transform="translate(-311.21 -393.33)"/>
  <path class="cls-3" d="M389.88,592.63l-1.43.21c0-1.35-.92-2.35-1.41-3.52-.11-.25-.31-.39-.57-.23-1.07.63-2.32.88-3.12,2.08a31.51,31.51,0,0,1-7.94,8.18,8.53,8.53,0,0,1-5.69,1.83c-2.43-.18-3.77-1.89-3-4.41s2.92-3.94,5.24-4.9a29.28,29.28,0,0,1,11-2.23c1.09,0,2-.8,2.93-1.29.4-.21.32-.59.13-1-.86-1.62-1.71-3.24-2.57-4.85a1.2,1.2,0,0,0-1.23-.57c-1.36,0-2.73-.1-4.08,0-1.69.16-3.13,1.15-4.63,1.83a55.94,55.94,0,0,1-11.71,4,15.7,15.7,0,0,1-7.82-.07c-2-.6-3.5-1.65-3.71-3.83a4.75,4.75,0,0,1,2.29-4.34,12.73,12.73,0,0,1,7.47-2.14,43.45,43.45,0,0,1,17,3.1,6.56,6.56,0,0,0,2.36.22,9,9,0,0,1,2.14.2.57.57,0,0,0,.66-.15c.16-.23,0-.44-.11-.65-1.72-2.82-3.51-5.6-5.44-8.27-.5-.7-1.35-.56-2.07-.75-3.36-.88-6.41.61-9.55,1.26A48.18,48.18,0,0,1,352,573.8c-2.55-.17-5.07-.63-7-2.67a3.2,3.2,0,0,1,.14-4.39,8.15,8.15,0,0,1,5.41-2.22c4.52-.35,8.84.73,13.13,2.07a55.08,55.08,0,0,1,7.94,3.29,8.36,8.36,0,0,0,3.15.59c.57,0,.74-.15.35-.69a101,101,0,0,0-6.46-8A3.76,3.76,0,0,0,367,561a15.52,15.52,0,0,0-6.33-.73,57.81,57.81,0,0,1-9.21.29,33.44,33.44,0,0,1-8.66-1.48,6.56,6.56,0,0,1-3.89-2.94,2,2,0,0,1,.66-2.78,7.77,7.77,0,0,1,4.37-1.4,21.86,21.86,0,0,1,9.21,1.7,47,47,0,0,1,10.8,5.55,9.53,9.53,0,0,0,3.08,1,7.81,7.81,0,0,0-1.38-1.85c-.85-.85-1.73-1.66-2.53-2.55a20.84,20.84,0,0,0-8.17-5.82,68.15,68.15,0,0,1-11-5.25c-2.66-1.6-5.38-3.14-7.22-5.75a3.1,3.1,0,0,1,2.45-5.26c4.33-.36,7.93,1.31,11.23,3.9a32.16,32.16,0,0,1,6.87,8.06A30.46,30.46,0,0,1,360,551c.34.86,1.18,1.26,1.76,1.9,1.84,2,4,3.79,5.71,5.94a1.77,1.77,0,0,0,.39.27c.56-1.95-.39-3.43-1.25-5-2-3.51-3.75-7.13-4.3-11.18-.52-3.82,1.47-6.37,4.75-6.22a6.65,6.65,0,0,1,5.32,3.23c2.26,3.42,1.52,6.94.23,10.42a31.24,31.24,0,0,1-3.21,5.83c-.67,1.05-.75,3.81.06,4.75q3.48,4,6.68,8.26c.56.75.83.45,1.17-.14a7.72,7.72,0,0,0,.72-4.88c-.35-3.71-.57-7.44.36-11.06.72-2.84,2-5.41,5.16-6.55,2.63-.94,6.66.38,8.07,3,1.69,3.15.91,6-1.06,8.69a28.42,28.42,0,0,1-9.22,7.66,8.18,8.18,0,0,0-3.68,4.37,1.4,1.4,0,0,0,.29,1.35c1.77,2.74,3.55,5.46,5.31,8.21.45.71.74.72,1.47.21A8.78,8.78,0,0,0,388,575c1.46-4.6,3.4-9,7.26-12.23a9.61,9.61,0,0,1,10.05-1.7c.74.28,1.16.68,1.06,1.5a5.75,5.75,0,0,1-.8.18c-1.88.15-2.19.72-1.27,2.42-2.68,0-5.35,0-8,0a1.44,1.44,0,0,0-1.61,1.63c.07,1,.68,1.46,1.68,1.44.39,0,.79,0,1.19,0,0,2.36,0,4.71,0,7.07a1.27,1.27,0,0,1-1.06,1.45c-1.46.39-2.94.68-4.39,1.09-2,.57-4.32.45-5.82,2.36a3.83,3.83,0,0,1-1.21,1.12c-.53.28-.5.72-.22,1.22.53.93,1,1.87,1.54,2.82,1.53,2.89,1.53,2.9,4.72,2.29a3.1,3.1,0,0,0,1-.43,44.39,44.39,0,0,1,4.65-2.4c.54-.24.81-.2.8.48,0,1.42,0,2.84,0,4.27l-2.1.05a8.94,8.94,0,0,0-6.5-1c-.62.15-.84.35-.53,1C388.92,590.64,389.39,591.64,389.88,592.63Z" transform="translate(-311.21 -393.33)"/>
  <path class="cls-4" d="M404.3,565.2c-.92-1.7-.61-2.27,1.27-2.42a5.75,5.75,0,0,0,.8-.18h50.48a2.52,2.52,0,0,0,2.62-2.72V538.54a3.52,3.52,0,0,0-.79-2.52,3.57,3.57,0,0,0-2.58-.84c-2.61,0-22.44,0-49.72,0l-1.36,0a1.32,1.32,0,0,1,0-2.64l65.6.11,2.72.94L495.43,552c-.06.28-.16.72-.26,1.28s-.16,1.08-.18,1.18a10.67,10.67,0,0,1-1.43,3.5,11.47,11.47,0,0,1-2.23,2.28,1.84,1.84,0,0,0-.66.93,2.2,2.2,0,0,0,.19,1.49,3.72,3.72,0,0,0,1.31,1.49l.36.22a5.08,5.08,0,0,0,.57.28,3.79,3.79,0,0,0,.76.18,4,4,0,0,1,1.06.36H457.34c-.64,0-1.28,0-1.92,0Z" transform="translate(-311.21 -393.33)"/>
  <path class="cls-5" d="M443.11,620.18l9.86-.06a7,7,0,0,1,2.77,2.51,6.9,6.9,0,0,1,1.05,3.76q0,6.24,0,12.48a5.49,5.49,0,0,1-.94,3.35,8.65,8.65,0,0,1-1.31,1.41,10.71,10.71,0,0,1-1.74,1.26l116.16,0,5.44-5.46q0-6.76,0-13.55a5.69,5.69,0,0,0-4.26-5.88l10,.18a5.9,5.9,0,0,1,4.29,5.69c.11,4.43.07,8.87,0,13.31a5.83,5.83,0,0,1-1.3,3.63c-.62.77-1.52,1.17-2.37,2.06,2.79.07,5.33-.06,7.86.2,28.77-.33,57.54,0,86.31-.13,1.2,0,2.39.16,3.58.24l.21.44c.09.58-.27.8-.75.86a7.79,7.79,0,0,1-1.08,0H325.14c-1.11,0-2.23-.1-3.34-.16-.46,0-.79-.2-.79-.71s.34-.6.71-.67a3.45,3.45,0,0,1,.72,0h44.87l61.41-.06h12.95a1.86,1.86,0,0,0,.82-.09c2.78-1.4,4.14-2.55,4.21-6,.1-4.31,0-8.63,0-12.94a6.06,6.06,0,0,0-1.44-3.7C444.67,621.3,443.58,621.1,443.11,620.18Z" transform="translate(-311.21 -393.33)"/>
  <path class="cls-3" d="M346.58,611.22a28.27,28.27,0,0,0-6.57-4.44,54.75,54.75,0,0,0-6.69-1.76,26.93,26.93,0,0,1-8.46-3.73,4.29,4.29,0,0,1-1.64-2.42,2,2,0,0,1,1.55-2.24,7.35,7.35,0,0,1,4.59.14,20.9,20.9,0,0,1,8.49,5.78,38.79,38.79,0,0,0,3.14,3.59c1.8,1.49,3.82,2.71,5.84,4.1a2.48,2.48,0,0,0-.76-2.1c-2.37-2.74-4.81-5.42-6.13-8.88a5.06,5.06,0,0,1-.39-2.44c.23-2,2.21-2.8,4.26-1.84,2.58,1.22,3.55,3.51,4,6.11a20.36,20.36,0,0,1-.36,6.74,3.94,3.94,0,0,0,1.54,4.1c1.64,1.18,3.13,2.58,4.68,3.88.24.21.44.54.8.46s.26-.51.33-.8c.44-1.76-.67-3.12-1.2-4.62a22.68,22.68,0,0,1-1.7-9.2,4.29,4.29,0,0,1,2.33-3.46c2.19-1,5,.87,5.86,3a9.07,9.07,0,0,1-.43,6.75,20.2,20.2,0,0,1-3.36,5.6,6,6,0,0,0-1,3.24c-.06.4.25.65.5.9,1.61,1.61,3.23,3.21,4.83,4.82.43.44.62.64,1.07-.13a7,7,0,0,0,1-3.72c-.05-2.94-.18-5.89.68-8.78a7.91,7.91,0,0,1,3.06-4.53,4.26,4.26,0,0,1,4.53-.23,4.84,4.84,0,0,1,2.74,4,6.54,6.54,0,0,1-1.4,4.7,25,25,0,0,1-7.52,6.36,8.18,8.18,0,0,0-2.68,3.14.65.65,0,0,0,.11.86c.68.78,1.31,1.6,2,2.33a2.25,2.25,0,0,0,3.48-.3c.4-.5.84-1,1.28-1.42.18-.19.36-.52.68-.36s.16.5.17.76,0,.8,0,1.2c0,.73-.3,1-1,1a4.93,4.93,0,0,0-2.34.36c-.66.29-.84.55-.3,1.22,1.16,1.42,2.2,2.93,3.29,4.4.24.33.59.78.21,1s-.61-.3-.84-.6c-1-1.31-1.93-2.63-2.95-3.91-.35-.45-.66-1.17-1.35-1a2.27,2.27,0,0,0-1.66,1.58A18.34,18.34,0,0,1,358.7,638a4.88,4.88,0,0,1-3.75,1.79,1.93,1.93,0,0,1-2.07-2.08c-.15-1.93.87-3.24,2.2-4.4a19.1,19.1,0,0,1,7-3.67,4.68,4.68,0,0,0,1.91-1.59.51.51,0,0,0-.12-.83c-.68-.41-1-1.17-1.55-1.65s-.76-1.45-1.56-1.33c-1.11.18-2.34.16-3.27,1a54.65,54.65,0,0,1-7,5.25,15.94,15.94,0,0,1-6.22,2.33,3.79,3.79,0,0,1-3-.79c-1.44-1.19-1.55-2.26-.7-3.9,1.38-2.68,4-3.35,6.66-3.86a26.52,26.52,0,0,1,9.73-.13,5.36,5.36,0,0,0,2.78-.55c.53-.21.36-.51.06-.81a54.31,54.31,0,0,0-4.54-4.44c-1.17-.91-2.69-.47-3.95.2a70.06,70.06,0,0,1-7.45,3.74,13.65,13.65,0,0,1-6.32,1,3.89,3.89,0,0,1-2.66-1.21c-1.28-1.47-.26-3.94,1.77-4.8,3.7-1.56,7.45-1.06,11.25-.6,1.74.21,3.36,1.05,5.16.86.26,0,.62.12.73-.22s-.21-.48-.41-.67a46.52,46.52,0,0,0-5.17-4.23,4.56,4.56,0,0,0-3.93-.22,49.47,49.47,0,0,1-9.29,2.14,7.52,7.52,0,0,1-5.16-1c-1.4-1-1.59-2.38-.31-3.48a4.48,4.48,0,0,1,2.71-1.16,23.26,23.26,0,0,1,7.69.8,31.89,31.89,0,0,1,4.05,1.43A4.54,4.54,0,0,0,346.58,611.22Z" transform="translate(-311.21 -393.33)"/>
  <path class="cls-3" d="M428.72,644.85l-61.41.06c0-.6-.66-1-.37-1.7a1.85,1.85,0,0,1,1.95-1.23q14.22,0,28.43,0h27.95c.75,0,2.42-.18,3.13-1.32a2.6,2.6,0,0,0,.33-1.57V626a3.12,3.12,0,0,0-.66-2.1,3.37,3.37,0,0,0-2.51-.89q-28.24,0-56.5,0c-1.63,0-2.14-.45-2-1.77a1.3,1.3,0,0,1,1.4-1.32c5.44,0,10.88,0,16.31,0a17.62,17.62,0,0,0,3.48-.1,20,20,0,0,0,4.64.27h33.2c.64,0,1.28,0,1.92,0a6.15,6.15,0,0,1,3.85,6V639a7.81,7.81,0,0,1-3.13,5.82Z" transform="translate(-311.21 -393.33)"/>
  <path class="cls-6" d="M588.63,645c-2.53-.26-5.07-.13-7.86-.2.85-.89,1.75-1.29,2.37-2.06a5.83,5.83,0,0,0,1.3-3.63c.07-4.44.11-8.88,0-13.31a5.9,5.9,0,0,0-4.29-5.69c1.48-.5,3-.14,4.49-.22a8.37,8.37,0,0,1,4.09.63,5.34,5.34,0,0,1,3.42,5c0,1.24,0,2.47,0,3.71,0,3.23-.08,6.47,0,9.7a5.57,5.57,0,0,1-3.06,5.36C588.83,644.5,588.53,644.63,588.63,645Z" transform="translate(-311.21 -393.33)"/>
  <path class="cls-3" d="M394.86,474c-2.64,0-5.28,0-7.91,0-1,0-1.45-.24-1.42-1.35a14.69,14.69,0,0,0-3.44-9.66,19.12,19.12,0,0,1-3.75-7.27,17.08,17.08,0,0,1,4.82-16.35,16.58,16.58,0,0,1,13.78-4.56,16.89,16.89,0,0,1,9.91,4.77,15,15,0,0,1,3.45,4.83c.26.59.19,1.05-.32,1.33s-.92-.15-1.15-.65a15.13,15.13,0,0,0-5.59-6.39,14.75,14.75,0,0,0-11.42-2.08,15.43,15.43,0,0,0-9,24.59c2.4,3,4.2,6.3,4.16,10.3,0,.63.28.75.86.84a39.72,39.72,0,0,0,6,.19c2.6,0,5.2,0,7.8,0,.7,0,.95-.19,1-.94a18.11,18.11,0,0,1,4.17-10.17,14.35,14.35,0,0,0,3.49-9.2c0-.6-.1-1.29.82-1.29s.84.68.82,1.28a17.55,17.55,0,0,1-4.2,10.68,14.82,14.82,0,0,0-3.47,9.43c0,1.62,0,1.63-1.7,1.63Z" transform="translate(-311.21 -393.33)"/>
  <path class="cls-3" d="M394.88,476.18c2.64,0,5.28,0,7.92,0,1,0,1.48.37,1.44,1.41s0,2.32,0,3.48a3,3,0,0,1-2.41,3,1.07,1.07,0,0,0-.94,1.25,3.07,3.07,0,0,1-3.43,3.33c-1.84,0-3.68,0-5.52,0a2.84,2.84,0,0,1-3-3,1.31,1.31,0,0,0-1.25-1.6,2.89,2.89,0,0,1-2.12-2.86c0-1.2,0-2.4,0-3.6,0-1,.41-1.43,1.43-1.42C389.6,476.2,392.24,476.18,394.88,476.18Zm0,1.44h-6.71c-.46,0-1.08-.11-1.13.56a10.23,10.23,0,0,0,.07,3.22,1.54,1.54,0,0,0,1.64,1.27c1.48,0,1.58.19,1.59,1.71,0,.36,0,.71,0,1.07a1.51,1.51,0,0,0,1.49,1.69c2.07.1,4.15.09,6.23,0,.91,0,1.44-1.05,1.41-2.16s-.9-.89-1.56-.91c-1.43,0-2.87,0-4.31,0-.55,0-1.1,0-1.07-.77s.57-.66,1.06-.66c1.87,0,3.75,0,5.63,0,3.41,0,3.78-.41,3.6-3.87-.05-.83-.34-1.21-1.23-1.19C399.34,477.65,397.1,477.62,394.87,477.62Z" transform="translate(-311.21 -393.33)"/>
  <path class="cls-3" d="M394.17,465.19c0-1.48,0-3,0-4.44,0-.86-.36-1.31-1.14-1.36-1.72-.11-2.89-1.2-4.13-2.18-.5-.39-.76-1-.35-1.46s1-.12,1.43.29a7,7,0,0,0,8.13,1.4,16.09,16.09,0,0,0,1.85-1.28c.35-.23.77-.61,1.17-.17a.93.93,0,0,1-.09,1.39,7.82,7.82,0,0,1-4.33,2.14c-1,.16-1.13.59-1.12,1.42,0,2.88,0,5.75,0,8.63,0,.63-.08,1.17-.81,1.19s-.62-.67-.63-1.14C394.16,468.14,394.17,466.66,394.17,465.19Z" transform="translate(-311.21 -393.33)"/>
  <path class="cls-5" d="M693.91,644.9h7.18c.57,0,1.18,0,1.18.8s-.62.78-1.19.78h-14.6c-.58,0-1.19,0-1.18-.79s.61-.78,1.19-.78Z" transform="translate(-311.21 -393.33)"/>
  <path class="cls-7" d="M395.61,420.55c0,1.76,0,3.51,0,5.27,0,.54-.07.94-.77.92s-.67-.42-.67-.89V415.06c0-.5,0-1,.71-1s.73.48.73,1Z" transform="translate(-311.21 -393.33)"/>
  <path class="cls-7" d="M425,451.21h-5.16c-.53,0-1.13.05-1.13-.72s.6-.71,1.13-.72h10.43c.56,0,1.2.05,1.23.66s-.63.79-1.22.78Z" transform="translate(-311.21 -393.33)"/>
  <path class="cls-7" d="M364.65,451.21h-5.14c-.49,0-1,0-1.07-.66s.52-.78,1.07-.78H370c.55,0,1.1,0,1.06.79s-.57.65-1.07.65Z" transform="translate(-311.21 -393.33)"/>
  <path class="cls-7" d="M412.19,467.07a1.11,1.11,0,0,1,.81.46c1,1,2,2,3,3,.47.46.79,1,.32,1.56s-.91,0-1.28-.34a32.76,32.76,0,0,1-3.32-3.24.91.91,0,0,1-.16-1A.61.61,0,0,1,412.19,467.07Z" transform="translate(-311.21 -393.33)"/>
  <path class="cls-7" d="M374.07,428.91a1,1,0,0,1,.71.4l3.12,3.12c.37.37.64.81.24,1.25a.89.89,0,0,1-1.38-.06,39.23,39.23,0,0,1-3.25-3.45.86.86,0,0,1-.13-.89A.66.66,0,0,1,374.07,428.91Z" transform="translate(-311.21 -393.33)"/>
  <path class="cls-7" d="M378.31,468.16c-.06.66-.84,1-1.32,1.44a21.29,21.29,0,0,0-2,2c-.44.53-1,.68-1.45.25s-.17-.93.23-1.33l3.14-3.13a.87.87,0,0,1,1.08-.25C378.31,467.33,378.33,467.66,378.31,468.16Z" transform="translate(-311.21 -393.33)"/>
  <path class="cls-7" d="M412.29,433.92a.7.7,0,0,1-.74-.35.74.74,0,0,1,.11-.89c1.17-1.19,2.35-2.39,3.55-3.55a.81.81,0,0,1,1.26.12c.42.46,0,.71-.26,1a37.14,37.14,0,0,0-2.84,3A1.69,1.69,0,0,1,412.29,433.92Z" transform="translate(-311.21 -393.33)"/>
  <path class="cls-5" d="M710.42,644.9h1.07c.44,0,.8.16.82.66a.79.79,0,0,1-.78.88c-.76.06-1.51,0-2.27,0-.57,0-.92-.2-.9-.82s.36-.75.86-.75Z" transform="translate(-311.21 -393.33)"/>
  <path class="cls-5" d="M313.26,646.5a11,11,0,0,1-1.42-.09.78.78,0,0,1-.63-.89.66.66,0,0,1,.75-.61c.75,0,1.51,0,2.26,0,.55,0,.95.16.94.79s-.4.8-1,.78h-.95Z" transform="translate(-311.21 -393.33)"/>
  <path class="cls-6" d="M678.73,645.59l-.21-.44C678.76,645.22,678.77,645.39,678.73,645.59Z" transform="translate(-311.21 -393.33)"/>
  <path class="cls-8" d="M618.81,413.28l-.26-.23Z" transform="translate(-311.21 -393.33)"/>
  <path class="cls-9" d="M570.32,493.52l14.22,0a3.48,3.48,0,0,1,2.5,1,3.43,3.43,0,0,1,.89,1.6c0,2.56,0,5.13,0,7.69a3.57,3.57,0,0,1-1,2.23,3.62,3.62,0,0,1-2.69,1.09l-13.62,0a3.3,3.3,0,0,1-2.29-1,3.14,3.14,0,0,1-.83-1.83l0-7.94a3.18,3.18,0,0,1,2.72-2.89Zm14,12.71a3.06,3.06,0,0,0,2-.76,2.66,2.66,0,0,0,.76-2v-6.12a2.72,2.72,0,0,0-.79-2.2,2.76,2.76,0,0,0-2.1-.73l-13.79.06a2.2,2.2,0,0,0-2,2.17q0,3.31,0,6.64a2.72,2.72,0,0,0,.74,2.21,3.14,3.14,0,0,0,2.32.78C577.72,506.39,582.46,506.35,584.35,506.23Z" transform="translate(-311.21 -393.33)"/>
  <path class="cls-9" d="M557.84,421.51c3.55,0,7.1.06,10.65.07,2.56,0,5.11,0,7.67,0,.41,0,1-.16,1,.47s-.62.48-1,.48H560.34c-.35,0-.71.05-1.06.07l-3.21-.07c-.37,0-.8,0-.8-.49s.43-.47.79-.49C556.65,421.57,557.25,421.54,557.84,421.51Z" transform="translate(-311.21 -393.33)"/>
  <path class="cls-9" d="M535,454.1H537l10.26.07c.92,0,1.84,0,2.75,0,.44,0,1.14-.22,1.14.48s-.71.47-1.14.47c-3.22,0-6.45.06-9.67.08-2,0-4.07,0-6.1-.09-.3,0-.7,0-.81-.34-.16-.56.44-.44.66-.66Z" transform="translate(-311.21 -393.33)"/>
  <path class="cls-9" d="M560.24,424.58l.48.2c.53.47,0,.64-.27.72a3.17,3.17,0,0,1-1.07.07h-15l-.84,0c-.26,0-.47-.14-.45-.44a.46.46,0,0,1,.47-.45c.36,0,.72,0,1.08,0Z" transform="translate(-311.21 -393.33)"/>
  <path class="cls-9" d="M542.72,459.53l-7.76-.07a5.35,5.35,0,0,1-1.06-.07c-.87-.19-.59-.54-.1-.9h0l.73-.08h.24a48.29,48.29,0,0,0,5.77,0l7.3.09c.32,0,.64,0,1,0s.7,0,.69.47-.38.47-.7.47c-1.24,0-2.48,0-3.71,0C544.31,459.47,543.52,459.51,542.72,459.53Z" transform="translate(-311.21 -393.33)"/>
  <path class="cls-9" d="M556.41,429.94H554l-9.44-.05c-.24,0-.48,0-.71,0s-.7,0-.71-.45.36-.48.69-.48c1.08,0,2.15,0,3.23,0l3.82-.06,6.71,0c.49.46.53.82-.24.95C557,429.92,556.72,429.91,556.41,429.94Z" transform="translate(-311.21 -393.33)"/>
  <path class="cls-9" d="M534.79,443.74h13.45l1,0c.44.33.49.66,0,1l-1,0H534.31l-.46,0-.07-.05h-.08c0-.22-.09-.45-.13-.67l.27-.25Z" transform="translate(-311.21 -393.33)"/>
  <path class="cls-9" d="M536.48,452.16c-.68,0-1.36,0-2-.08-.41,0-1,.17-1-.46s.6-.34.91-.51h.95l9.08.05h.71c.34,0,.67,0,.69.48s-.36.44-.68.44h-3.58Z" transform="translate(-311.21 -393.33)"/>
  <path class="cls-9" d="M538.76,447.77c-1.44,0-2.87,0-4.31,0-.33,0-.81.11-.84-.41s.5-.49.86-.49h8.37c.34,0,.82-.11.86.4s-.5.51-.87.51Z" transform="translate(-311.21 -393.33)"/>
  <path class="cls-9" d="M547.86,422.62h-4c-.36,0-.8,0-.83-.48s.4-.61.82-.61h7.91c.38,0,.75.07.76.55s-.39.54-.76.55Z" transform="translate(-311.21 -393.33)"/>
  <path class="cls-9" d="M553.06,452.09h-3.83c-.32,0-.7,0-.73-.43s.43-.48.77-.49h7.78c.33,0,.81-.1.79.46s-.48.44-.83.45h-4Z" transform="translate(-311.21 -393.33)"/>
  <path class="cls-9" d="M547.16,432.92c-1.12,0-2.24,0-3.35,0-.27,0-.76.22-.78-.37s.47-.52.83-.53c1.39,0,2.79,0,4.18,0,.8,0,1.6,0,2.39,0,.4,0,1-.22,1.06.42s-.7.47-1.11.49c-1.07,0-2.15,0-3.22,0Z" transform="translate(-311.21 -393.33)"/>
  <path class="cls-9" d="M555.17,458.5c.72,0,1.43,0,2.15,0,.3,0,.56.14.52.51a.44.44,0,0,1-.5.41h-4.55c-.3,0-.55-.15-.51-.51s.32-.42.61-.42h2.28Z" transform="translate(-311.21 -393.33)"/>
  <path class="cls-9" d="M555,444.73h-2c-.33,0-.68,0-.68-.48s.28-.46.59-.46c1.47,0,2.94,0,4.42,0,.28,0,.57.11.55.48s-.28.46-.58.46Z" transform="translate(-311.21 -393.33)"/>
  <path class="cls-3" d="M534.79,443.74l-.95,0A.6.6,0,0,1,534.79,443.74Z" transform="translate(-311.21 -393.33)"/>
  <path class="cls-3" d="M533.57,444c0,.22.09.45.13.67C533.26,444.54,533.29,444.3,533.57,444Z" transform="translate(-311.21 -393.33)"/>
  <path class="cls-6" d="M533.85,444.73l.46,0C534.13,445,534,445,533.85,444.73Z" transform="translate(-311.21 -393.33)"/>
  <path class="cls-6" d="M570.12,620a5.68,5.68,0,0,1,4.26,5.88q0,6.78,0,13.55a5.12,5.12,0,0,1-1.07,3.63,5.34,5.34,0,0,1-4.37,1.83l-116.16,0a10.71,10.71,0,0,0,1.74-1.26,7.05,7.05,0,0,0,1.31-1.41,5.76,5.76,0,0,0,.94-3.35q0-6.24,0-12.48a6.9,6.9,0,0,0-1.05-3.76,7,7,0,0,0-2.77-2.51l47.79,0c.47,0,.94-.07,1.42-.11a10.46,10.46,0,0,0,2.5.1H561c.67,0,1.35,0,2,0l.38-.25h-.05ZM544.4,637.68c.09.13.17.12.24,0a5.16,5.16,0,0,0,0-3.36c-.08-.16-.16-.17-.24,0H471.5c-.49,0-1-.2-1.49.23-.25.15-.25.31,0,.47v.72l-.09.07a1.4,1.4,0,0,0,.09.17v1c-.24.16-.24.32,0,.47.25.35.63.2,1,.26.15.23.31.23.47,0l24.68,0Zm-8.65-7h24.71c.44,0,1,.22,1.27-.39a3.65,3.65,0,0,0-.16-2.68c-.19-.56-.93-.27-1.41-.27H511.83c-1.61,0-2.08.52-2,2.13.06.82.27,1.26,1.3,1.25C519.36,630.68,527.56,630.7,535.75,630.7Zm-49.43,0h14.51c2.07,0,2.07,0,2-2.11a.48.48,0,0,1,0-.12c.08-.82-.27-1.13-1.11-1.13q-15.3,0-30.59,0c-.91,0-1.23.35-1.15,1.21a4.4,4.4,0,0,1,0,1c-.14,1,.24,1.22,1.19,1.21C476.24,630.68,481.28,630.7,486.32,630.7Z" transform="translate(-311.21 -393.33)"/>
  <path class="cls-10" d="M501.78,565.21h-2.49l-1-5.71a8.22,8.22,0,0,0,.83-.84,150,150,0,0,0,10.69-16c1.25-2.21,2.42-4.47,3.62-6.7a12.93,12.93,0,0,1,1.22.49,57.58,57.58,0,0,0,6.64,3,14.88,14.88,0,0,0,5,1.19c.83,0,1-.37.71-1.05-1-2.63-2.4-4.86-5.45-5.47a4,4,0,0,1-1.14-.64,1.65,1.65,0,0,1-.5-.57,3.23,3.23,0,0,1-.24-.4l27.93.25a3.42,3.42,0,0,1,2.17,1,3.53,3.53,0,0,1,.75,2.39c0,2.39,0,11.9,0,24.89a4.63,4.63,0,0,1-1.08,2.63,4,4,0,0,1-2.82,1.43Q524.17,565.17,501.78,565.21Z" transform="translate(-311.21 -393.33)"/>
  <path class="cls-11" d="M561,595.7q0,10.66,0,21.32c-.44,0-.88.06-1.32.06H510.49c-1.88,0-3.76,0-5.63,0a2.81,2.81,0,0,1-3-3c0-5.12,0-10.23,0-15.35a2.65,2.65,0,0,1,1.39-2.58l.34-.18.57-.16a.28.28,0,0,0,.39-.08c.35,0,.71-.06,1.07-.06h54.13C560.16,595.63,560.55,595.67,561,595.7Z" transform="translate(-311.21 -393.33)"/>
  <path class="cls-9" d="M513.44,536c-1.2,2.23-2.37,4.49-3.62,6.7a150,150,0,0,1-10.69,16,8.22,8.22,0,0,1-.83.84,9.32,9.32,0,0,1-4.74-1.51c.31-1.65,1.1-3.14,1.56-4.74.14-.49.25-1,.38-1.49,1.75-5.18,3-10.51,4.38-15.79.35-1.36.3-1.41-1.13-1.31a115.29,115.29,0,0,1-15.44.09c-3.35-.22-6.65-.73-10-1.2l-2.66-.92a9.39,9.39,0,0,1-2.32-1.22l-1.08-.85c-.8-.64-.95-.77-1.12-.93a10.29,10.29,0,0,1-1-1.11,7.42,7.42,0,0,1-1.35-2,5.72,5.72,0,0,1-.32-1.35,5.34,5.34,0,0,1,1.44-3.7s1.59-1.68,6.56-2.33l.75-.11.33,0,.27-.05c.23,0,.58,0,1,0a21.52,21.52,0,0,1,8.11,1.78,91.56,91.56,0,0,0,12.65,3.71c4.14,0,7.16,0,8,0a1.33,1.33,0,0,0,.95-.28,1.09,1.09,0,0,0,.33-.67,12.25,12.25,0,0,1,5.05-3.8l.94-.06c4.31-.15,6.39,1.83,6.45,6.14v2.13c-.59,1.84-1.11,3.71-1.87,5.5A8.09,8.09,0,0,0,513.44,536Z" transform="translate(-311.21 -393.33)"/>
  <path class="cls-9" d="M494.43,453.92l.13.1.13.1a1.52,1.52,0,0,0,.74.28c.29,0,.26-.19.72-.33a1.22,1.22,0,0,1,1,0,1.52,1.52,0,0,0,.26.14,1.07,1.07,0,0,0,.45,0c.93-.16,3,2,3,2a28.66,28.66,0,0,1,2.55,2.84,33.4,33.4,0,0,1,1.93,3,38.5,38.5,0,0,1,2.13,3.83,16.06,16.06,0,0,1,.93,2.24,13.38,13.38,0,0,1,.57,3.22,11.54,11.54,0,0,1-.36,4.06,12.94,12.94,0,0,1-3,4.84,9.5,9.5,0,0,1-1.72,1.75,6.58,6.58,0,0,0-.6.48,4.16,4.16,0,0,0-1,1.14,2.68,2.68,0,0,0-.26,1.24c0,.38.07,1.12,1.19,2.83a18.56,18.56,0,0,0,1.68,2.18c-.22-.07-.58-.17-1-.28a18.93,18.93,0,0,0-5.95-.61,13.53,13.53,0,0,0-1.42.16l-.33-.93c-.15-1.3-1-2.43-.93-3.8a15.79,15.79,0,0,0,4.13-4.6c2.24-3.54.85-7.49-3.08-8.95a16.39,16.39,0,0,0-5.41-.87c-2.65,0-5.29-.05-7.69-1.42-.45-.26-.75,0-1.06.27a4.34,4.34,0,0,0-1.41,2.83c0,.36.1.84-.53.86-.83,0-.84.64-.76,1.21a4.45,4.45,0,0,0,1.89,3.21,2.08,2.08,0,0,1,.85.79,20.55,20.55,0,0,0,5.59,7.09c-.13.47-.25,1-.38,1.43l-1,2.88-1.39-.16c-2-.4-3.87.14-5.79.46.17-.7.77-1.09,1.2-1.59,1.12-1.3,1.26-2.24.17-3.61-1.43-1.81-3-3.5-4.45-5.31-4-5-4.05-10.29-.22-15.49a34,34,0,0,1,5.91-5.89,16.57,16.57,0,0,1,5.57-3.38,13.74,13.74,0,0,1,1.36-.38S492.87,452.76,494.43,453.92Z" transform="translate(-311.21 -393.33)"/>
  <path class="cls-12" d="M473.84,518.89h-1a41.61,41.61,0,0,0-1.16-5.84c-.74-3.45-1.56-6.88-2.34-10.33-.1-1.07-.58-2.24.7-3l.47-.08,42.21.14a1.14,1.14,0,0,1,.4.31,1.52,1.52,0,0,1,.3,1.17q-1.74,8.7-3.47,17.42l-.17.91-.38,0-.47,0q1.09-5.49,2.21-11a.63.63,0,0,0-.66-.66l-13,3.2a.64.64,0,0,0-.51.3.51.51,0,0,0-.05.32,2.83,2.83,0,0,1-.28,1.62,2.28,2.28,0,0,1-.73.9,2.23,2.23,0,0,1-1.06.4l-6.27,0a4.31,4.31,0,0,1-2.17-.94l-.47.13c-6.89,1.81-10.35,2.62-10.86,2.75C473.25,517.15,473.46,517.09,473.84,518.89Zm17.49-5.08c1,0,1.92,0,2.87,0A1.67,1.67,0,0,0,496,512a1.62,1.62,0,0,0-1.79-1.67c-1.87,0-3.74,0-5.61,0a1.75,1.75,0,1,0,0,3.5C489.5,513.84,490.42,513.81,491.33,513.81Z" transform="translate(-311.21 -393.33)"/>
  <path class="cls-12" d="M561,595.7H504.56l-.39.08-.57.16-.34.18a2.56,2.56,0,0,0-.9.78,3.21,3.21,0,0,0-.49,1.8c0,1.39,0,7.4,0,15.64a2.75,2.75,0,0,0,2.5,2.72L561,617l1.95,0a1.52,1.52,0,0,1,0,3l-1.75.07-56.44,0a6,6,0,0,1-5.88-5.77l-.06-15.69a5.9,5.9,0,0,1,1.17-3.82,5.8,5.8,0,0,1,3-2l58,0,2.26,0a1.65,1.65,0,0,1,.93,1.55,1.62,1.62,0,0,1-1,1.39Z" transform="translate(-311.21 -393.33)"/>
  <path class="cls-4" d="M479.12,489.39c1.92-.32,3.82-.86,5.79-.46a8.31,8.31,0,0,0,1.82,4.83c2.34,3,5.74,3.48,8.32,1.07a8.42,8.42,0,0,0,2.8-5.9,11.85,11.85,0,0,1,5.48.5c.45.14.91.22,1.37.33a7.65,7.65,0,0,1,2.08,1.28,8.23,8.23,0,0,1,1.92,2.58c1.08,2,2,3.65,2.69,5.07l-39.95-.21a31.76,31.76,0,0,1,4.37-7.3A6.71,6.71,0,0,1,479.12,489.39Z" transform="translate(-311.21 -393.33)"/>
  <path class="cls-13" d="M513.44,536a8.09,8.09,0,0,1,1-2.65c.76-1.79,1.28-3.66,1.87-5.5,0,.2,0,.48.2.52,2,.43,2.46,2.32,2.92,3.65a3.33,3.33,0,0,0,.47,1,2.67,2.67,0,0,0,.5.57,4,4,0,0,0,1.14.64c3.05.61,4.45,2.84,5.45,5.47.26.68.12,1.05-.71,1.05a14.88,14.88,0,0,1-5-1.19,57.58,57.58,0,0,1-6.64-3A12.93,12.93,0,0,0,513.44,536Z" transform="translate(-311.21 -393.33)"/>
  <path class="cls-4" d="M509.93,518.69q1.49-7,3-14a6,6,0,0,1,.53-1.95,7.52,7.52,0,0,1,1.44,2.59,62.39,62.39,0,0,1,2.5,6.32,1.74,1.74,0,0,1-.25,1.47c-1.54,2.62-3.5,4.73-6.69,5.29A1.93,1.93,0,0,0,509.93,518.69Z" transform="translate(-311.21 -393.33)"/>
  <path class="cls-9" d="M569.35,429.92c-2.48-.08-5-.11-7.44,0-.46-.22-1.6.28-1-1l7.76,0a2.46,2.46,0,0,1,1.39.21l0,.44s-.07,0,0,.09Z" transform="translate(-311.21 -393.33)"/>
  <path class="cls-6" d="M605.87,461.06l-.23.27Z" transform="translate(-311.21 -393.33)"/>
  <path class="cls-6" d="M605.63,461.49l.15.28Z" transform="translate(-311.21 -393.33)"/>
  <path class="cls-6" d="M619.57,461.53l-.05-.24a1,1,0,0,1,.12.16Z" transform="translate(-311.21 -393.33)"/>
  <path class="cls-9" d="M533.61,462.42c-.59-.69,0-.76.47-.92h.23l8,.05H543c.29,0,.6.05.63.4s-.3.51-.64.51h-4.66l-4.06,0Z" transform="translate(-311.21 -393.33)"/>
  <path class="cls-6" d="M533.61,462.42l.7.1C534,462.8,533.8,462.8,533.61,462.42Z" transform="translate(-311.21 -393.33)"/>
  <path class="cls-3" d="M569.48,493.73l-.37.22Z" transform="translate(-311.21 -393.33)"/>
  <path class="cls-14" d="M534.8,458.41h-.24C534.64,458.24,534.72,458.25,534.8,458.41Z" transform="translate(-311.21 -393.33)"/>
  <path class="cls-6" d="M534.31,461.5h-.23C534.16,461.37,534.24,461.37,534.31,461.5Z" transform="translate(-311.21 -393.33)"/>
  <path class="cls-4" d="M469.32,502.73c.78,3.45,1.6,6.88,2.34,10.33a41.61,41.61,0,0,1,1.16,5.84l-.06,0c-1-.48-2-1-3-1.42a9.55,9.55,0,0,1-4-4,3.12,3.12,0,0,1,0-2.88,63.73,63.73,0,0,1,3.1-7.32A3,3,0,0,1,469.32,502.73Z" transform="translate(-311.21 -393.33)"/>
  <path class="cls-11" d="M438.43,613.15c-9.79,0-19.58,0-29.38,0-1.09,0-1.42-.27-1.4-1.39.07-3.72.05-7.43,0-11.15,0-.82.21-1.09,1.07-1.09q29.81,0,59.6,0c.89,0,1.17.24,1.16,1.15,0,3.75-.05,7.51,0,11.27,0,.94-.25,1.21-1.2,1.2C458.34,613.14,448.39,613.15,438.43,613.15Z" transform="translate(-311.21 -393.33)"/>
  <path class="cls-15" d="M457.34,565.25l.24.14a3,3,0,0,0,.83.33,5.45,5.45,0,0,1,2.39,2.66,6.41,6.41,0,0,1,.58,2.59l0,15.23a8.62,8.62,0,0,1-.1,1.59,5.91,5.91,0,0,1-.93,2.4,4.55,4.55,0,0,1-.35.4c-.13.12-.23.21-.38.33s-.24.21-.61.47-.47.34-.6.43c-.35.24-.34.22-.6.41s-.23.17-.4.27l-.32.2-1.59,0c-29.34.77-50.44,0-58.22,0-.63,0-1.27,0-1.91-.06l-.28-.17a1.91,1.91,0,0,1,.32-2.81l2.1-.05.84,0H455c.2,0,.4,0,.6,0a2.94,2.94,0,0,0,2.93-3.2V571.72c0-2.39-1-3.42-3.42-3.42H443.33l-45.8,0c-.4,0-.8,0-1.19,0-1,0-1.61-.4-1.68-1.44a1.44,1.44,0,0,1,1.61-1.63c2.68,0,5.35,0,8,0h51.12C456.06,565.2,456.7,565.23,457.34,565.25Z" transform="translate(-311.21 -393.33)"/>
  <path class="cls-6" d="M428.17,644.85a6.53,6.53,0,0,0,3.68-5.82v-12.9a6.12,6.12,0,0,0-3.85-6l15.1,0a5.33,5.33,0,0,1,2.42,1.64,5.6,5.6,0,0,1,1.19,4q0,6.46,0,12.94a6.12,6.12,0,0,1-1.29,4.08,5.22,5.22,0,0,1-2.92,1.93,4.12,4.12,0,0,1-.82.09C440,644.88,434.93,644.88,428.17,644.85Z" transform="translate(-311.21 -393.33)"/>
  <path class="cls-11" d="M490.42,606.35c0,1.92,0,3.84,0,5.75,0,.75-.16,1.09-1,1.07-1.88,0-3.76,0-5.64,0-.7,0-.89-.24-.88-.9q0-5.94,0-11.88c0-.7.25-.88.91-.87,1.87,0,3.75,0,5.63,0,.74,0,1,.21,1,1C490.39,602.43,490.42,604.39,490.42,606.35Z" transform="translate(-311.21 -393.33)"/>
  <path class="cls-11" d="M391.36,606.22c0-1.91,0-3.83,0-5.74,0-.74.21-1,.94-1,2.44,0,2.44-.06,2.44,2.33,0,3.39,0,6.78,0,10.17,0,.86-.18,1.19-1.12,1.17-2.26,0-2.26,0-2.26-2.29v-4.67Z" transform="translate(-311.21 -393.33)"/>
  <path class="cls-13" d="M395.44,589.7a1.91,1.91,0,0,0-.32,2.81l-.23.15-5,0c-.49-1-1-2-1.47-3-.31-.61-.09-.81.53-1A8.94,8.94,0,0,1,395.44,589.7Z" transform="translate(-311.21 -393.33)"/>
  <path class="cls-3" d="M394.89,592.66l.23-.15.28.17Z" transform="translate(-311.21 -393.33)"/>
  <path class="cls-13" d="M397.53,568.31l45.8,0h11.75c2.4,0,3.42,1,3.42,3.42v14.75a2.94,2.94,0,0,1-2.93,3.2c-.2,0-.4,0-.6,0H398.38l-.84,0c0-1.43,0-2.85,0-4.27,0-.68-.26-.72-.8-.48a44.39,44.39,0,0,0-4.65,2.4,3.1,3.1,0,0,1-1,.43c-3.19.61-3.19.6-4.72-2.29-.5-1-1-1.89-1.54-2.82-.28-.5-.31-.94.22-1.22a3.83,3.83,0,0,0,1.21-1.12c1.5-1.91,3.8-1.79,5.82-2.36,1.45-.41,2.93-.7,4.39-1.09a1.27,1.27,0,0,0,1.06-1.45C397.49,573,397.53,570.67,397.53,568.31Z" transform="translate(-311.21 -393.33)"/>
  <path class="cls-10" d="M473.34,533.56c3.32.47,6.62,1,10,1.2a115.29,115.29,0,0,0,15.44-.09c.21,0,.95-.24,1.24.11s.07.8-.11,1.2c-.59,2.42-1.22,4.89-1.91,7.41-.82,3-1.67,5.87-2.54,8.65Z" transform="translate(-311.21 -393.33)"/>
  <path class="cls-15" d="M458.26,565.24a.3.3,0,0,1-.51,0Z" transform="translate(-311.21 -393.33)"/>
  <path class="cls-11" d="M537.91,573.84c8.12,0,16.23,0,24.35,0,1.06,0,1.48.23,1.42,1.38-.12,2.25.25,2-2,2q-24,0-48,0c-.5,0-1.29.34-1.45-.39a4.93,4.93,0,0,1,.08-2.72c.15-.39.72-.2,1.11-.2Z" transform="translate(-311.21 -393.33)"/>
  <path class="cls-11" d="M527.6,584.13c-5.76,0-11.51,0-17.27,0-1.28,0-1.54-.38-1.48-1.55.1-2.13-.17-1.81,1.9-1.81h34.41c.47,0,1.21-.26,1.3.47a4.86,4.86,0,0,1-.11,2.7c-.14.32-.66.15-1,.15Z" transform="translate(-311.21 -393.33)"/>
  <path class="cls-11" d="M486.8,584.13c-4.47,0-8.95,0-13.43,0-1,0-1.32-.26-1.28-1.27.09-2.46-.26-2.08,2.13-2.08,8.59,0,17.19,0,25.79,0,1.15,0,1.62.3,1.43,1.46a3.29,3.29,0,0,0,0,.83c.12.85-.25,1.09-1.08,1.08C495.84,584.11,491.32,584.13,486.8,584.13Z" transform="translate(-311.21 -393.33)"/>
  <path class="cls-11" d="M499.88,577.17c-1.87,0-3.75,0-5.63,0-.85,0-1.22-.21-1.2-1.14.06-2.56-.18-2.19,2.16-2.2,3.35,0,6.71,0,10.06,0,1.19,0,1.6.39,1.43,1.51a2.16,2.16,0,0,0,0,.36c.16,1.11-.23,1.58-1.43,1.51C503.48,577.09,501.68,577.17,499.88,577.17Z" transform="translate(-311.21 -393.33)"/>
  <path class="cls-13" d="M501.77,570.8c-.82-.76-2-1.21-2.22-2.51a13.18,13.18,0,0,1-.26-3.07l-1-5.71a9.32,9.32,0,0,1-4.74-1.51,11.47,11.47,0,0,1-2.23,2.28,1.82,1.82,0,0,0-.47,2.42,4,4,0,0,0,2.24,2c2.75.57,3.16,1.12,3,4.12h0a1.85,1.85,0,0,0,0,.23,4.62,4.62,0,0,0,5.45,3.29c.37-.13.79-.28.84-.75S502,571,501.77,570.8Z" transform="translate(-311.21 -393.33)"/>
  <path class="cls-16" d="M571.2,570.35a4.79,4.79,0,0,0-2-3.79,6.88,6.88,0,0,0-5-1.36l-64.9,0a13.18,13.18,0,0,0,.26,3.07c.19,1.3,1.4,1.75,2.22,2.51.26.24.68.35.64.78s-.47.62-.84.75a4.62,4.62,0,0,1-5.45-3.29v-.23a3.43,3.43,0,0,0-.47-3,2.36,2.36,0,0,0-.74-.56l-3.27,0q-17.28-.15-34.31,0a2.71,2.71,0,0,1,.36.24,3.82,3.82,0,0,1,.41.34c.64.61,2.13,1.46,2.69,2.55a5.59,5.59,0,0,1,.58,2.59c0,5.08-.09,10.16,0,15.23a6.61,6.61,0,0,1-1,4,11.69,11.69,0,0,1-2.54,2l-.72.47c28.7-.05,40.33,0,42.05,0,.23,0,1.71.09,3.71,0,.68,0,1.36,0,2,0h56l4.13,0a6.51,6.51,0,0,0,2.89-.62,5.88,5.88,0,0,0,2.68-2.45,5.11,5.11,0,0,0,.58-2.34C571.32,581.69,571.25,576,571.2,570.35Zm-69.76,12.71c.12.85-.25,1.09-1.08,1.08-4.52,0-9,0-13.56,0s-8.95,0-13.43,0c-1,0-1.32-.26-1.28-1.27.09-2.46-.26-2.08,2.13-2.08,8.59,0,17.19,0,25.79,0,1.15,0,1.62.3,1.43,1.46A3.29,3.29,0,0,0,501.44,583.06Zm3.83-5.87c-1.79-.1-3.59,0-5.39,0s-3.75,0-5.63,0c-.85,0-1.22-.21-1.2-1.14.06-2.56-.18-2.19,2.16-2.2,3.35,0,6.71,0,10.06,0,1.19,0,1.6.39,1.43,1.51a2.16,2.16,0,0,0,0,.36C506.86,576.79,506.47,577.26,505.27,577.19ZM546.35,584c-.14.32-.66.15-1,.15H527.6c-5.76,0-11.51,0-17.27,0-1.28,0-1.54-.38-1.48-1.55.1-2.13-.17-1.81,1.9-1.81h34.41c.47,0,1.21-.26,1.3.47A4.86,4.86,0,0,1,546.35,584Zm15.33-6.81q-24,0-48,0c-.5,0-1.29.34-1.45-.39a4.93,4.93,0,0,1,.08-2.72c.15-.39.72-.2,1.11-.2h24.46c8.12,0,16.23,0,24.35,0,1.06,0,1.48.23,1.42,1.38C563.56,577.44,563.93,577.16,561.68,577.16Z" transform="translate(-311.21 -393.33)"/>
  <path class="cls-11" d="M471,637.68c-.33-.06-.71.09-1-.26,0-.16,0-.32,0-.47v-1a1,1,0,0,0,0-.24v-1.19c.45-.43,1-.23,1.49-.23h73.14a5.16,5.16,0,0,1,0,3.36,1,1,0,0,0-.24,0l-48.28,0-24.68,0Z" transform="translate(-311.21 -393.33)"/>
  <path class="cls-11" d="M535.75,630.7c-8.19,0-16.39,0-24.58,0-1,0-1.24-.43-1.3-1.25-.12-1.61.35-2.13,2-2.13h48.33c.48,0,1.22-.29,1.41.27a3.65,3.65,0,0,1,.16,2.68c-.27.61-.83.38-1.27.39Z" transform="translate(-311.21 -393.33)"/>
  <path class="cls-11" d="M486.32,630.7c-5,0-10.08,0-15.12,0-.95,0-1.33-.26-1.19-1.21a4.4,4.4,0,0,0,0-1c-.08-.86.24-1.21,1.15-1.21q15.3,0,30.59,0c.84,0,1.19.31,1.11,1.13a.48.48,0,0,0,0,.12c0,2.11,0,2.11-2,2.11Z" transform="translate(-311.21 -393.33)"/>
  <path class="cls-3" d="M470,634.55V635C469.76,634.86,469.76,634.7,470,634.55Z" transform="translate(-311.21 -393.33)"/>
  <path class="cls-3" d="M470,637c0,.15,0,.31,0,.47C469.76,637.27,469.76,637.11,470,637Z" transform="translate(-311.21 -393.33)"/>
  <path class="cls-3" d="M471,637.68h.47C471.28,637.91,471.12,637.91,471,637.68Z" transform="translate(-311.21 -393.33)"/>
  <path class="cls-3" d="M470,635.74a1,1,0,0,1,0,.24,1.4,1.4,0,0,1-.09-.17Z" transform="translate(-311.21 -393.33)"/>
  <path class="cls-3" d="M544.4,637.68a1,1,0,0,1,.24,0C544.57,637.8,544.49,637.81,544.4,637.68Z" transform="translate(-311.21 -393.33)"/>
  <path class="cls-3" d="M544.64,634.3h-.24C544.48,634.13,544.56,634.14,544.64,634.3Z" transform="translate(-311.21 -393.33)"/>
  <path class="cls-17" d="M504.17,595.77l.39-.08A.28.28,0,0,1,504.17,595.77Z" transform="translate(-311.21 -393.33)"/>
  <path class="cls-17" d="M503.26,596.11l.34-.18Z" transform="translate(-311.21 -393.33)"/>
  <path class="cls-2" d="M473.81,518.88l-.22-1.18a.65.65,0,0,1,.05-.43.66.66,0,0,1,.4-.34l12.34-3.12a4.37,4.37,0,0,0,.47.34,4.3,4.3,0,0,0,1.7.6l6.27,0a2.24,2.24,0,0,0,1.26-.56,2.66,2.66,0,0,0,.71-1.44,3.85,3.85,0,0,0,.1-.92.54.54,0,0,1,.05-.32.75.75,0,0,1,.51-.3c.46-.09,5.73-1.4,13-3.2a.63.63,0,0,1,.66.66q-1.11,5.5-2.21,11a12.35,12.35,0,0,0-5.05,3.81l-12.79.06-2-.53c-3.46-1-5.68-1.75-7.12-2.21A52.76,52.76,0,0,0,473.81,518.88Z" transform="translate(-311.21 -393.33)"/>
  <path class="cls-12" d="M491.14,523.51l12.72-.06c-.13.72-.59.95-1.28.95-2.38,0-3.7.76-8,0A29.34,29.34,0,0,1,491.14,523.51Z" transform="translate(-311.21 -393.33)"/>
  <path class="cls-15" d="M487.69,484.78a20.55,20.55,0,0,1-5.59-7.09,2.08,2.08,0,0,0-.85-.79,4.45,4.45,0,0,1-1.89-3.21c-.08-.57-.07-1.18.76-1.21.63,0,.48-.5.53-.86a4.34,4.34,0,0,1,1.41-2.83c.31-.27.61-.53,1.06-.27,2.4,1.37,5,1.39,7.69,1.42a16.39,16.39,0,0,1,5.41.87c3.93,1.46,5.32,5.41,3.08,8.95a15.79,15.79,0,0,1-4.13,4.6,10.49,10.49,0,0,1-.85.64c-1.68,1.07-3.39,1.72-5.31.53C488.58,485.27,488.28,484.75,487.69,484.78Z" transform="translate(-311.21 -393.33)"/>
  <path class="cls-15" d="M496.1,488.16l.33.93a8.48,8.48,0,0,1-2.47,4.29,3.48,3.48,0,0,1-4.58.39c-1.77-1.09-2.47-2.85-3.08-4.68l1-2.88a.82.82,0,0,1,1.15.17A7.34,7.34,0,0,0,492,488.2C493.39,488.62,494.73,488.08,496.1,488.16Z" transform="translate(-311.21 -393.33)"/>
  <path class="cls-13" d="M486.3,489.09c.61,1.83,1.31,3.59,3.08,4.68a3.48,3.48,0,0,0,4.58-.39,8.48,8.48,0,0,0,2.47-4.29l1.42-.16a8.42,8.42,0,0,1-2.8,5.9c-2.58,2.41-6,1.94-8.32-1.07a8.31,8.31,0,0,1-1.82-4.83Z" transform="translate(-311.21 -393.33)"/>
  <path class="cls-16" d="M496.1,488.16c-1.37-.08-2.71.46-4.11,0a7.34,7.34,0,0,1-3.53-1.82.82.82,0,0,0-1.15-.17c.13-.48.25-1,.38-1.43.59,0,.89.49,1.32.75,1.92,1.19,3.63.54,5.31-.53a10.49,10.49,0,0,0,.85-.64C495.07,485.73,496,486.86,496.1,488.16Z" transform="translate(-311.21 -393.33)"/>
  <path class="cls-13" d="M491.33,513.81c-.91,0-1.83,0-2.74,0a1.75,1.75,0,1,1,0-3.5c1.87-.05,3.74-.05,5.61,0A1.62,1.62,0,0,1,496,512a1.67,1.67,0,0,1-1.75,1.84C493.25,513.85,492.29,513.81,491.33,513.81Z" transform="translate(-311.21 -393.33)"/>
  <path class="cls-14" d="M511.39,498.69l-39.95-.21c-.88-.05-1.48.23-1.42,1.25l.47-.08,42.21.14a1.07,1.07,0,0,0-.21-.82,1,1,0,0,0-.41-.28Z" transform="translate(-311.21 -393.33)"/>
  <path class="cls-3" d="M574.49,528.53l.09-.29Z" transform="translate(-311.21 -393.33)"/>
  <path class="cls-9" d="M575.24,500.27v-2.4c0-.77.3-.92,1-.53,1.41.83,2.84,1.63,4.26,2.45.59.33.64.67,0,1-1.45.84-2.9,1.69-4.36,2.52-.62.36-.88.11-.88-.55,0-.84,0-1.68,0-2.52Z" transform="translate(-311.21 -393.33)"/>
  <path class="cls-11" d="M95.17,141.85h50.89a2.2,2.2,0,0,1,2.2,2.2v23.47a1.7,1.7,0,0,1-1.7,1.7H95.17a0,0,0,0,1,0,0V141.85A0,0,0,0,1,95.17,141.85Z"/>
  <path class="cls-11" d="M86.33,175h58.24a2.72,2.72,0,0,1,2.72,2.72V193.5a2.86,2.86,0,0,1-2.86,2.86H86.33a0,0,0,0,1,0,0V175a0,0,0,0,1,0,0Z"/>
  <path class="cls-11" d="M58.77,229.69h56.38a2.37,2.37,0,0,1,2.37,2.37v14a2.6,2.6,0,0,1-2.6,2.6H58.77a0,0,0,0,1,0,0v-19A0,0,0,0,1,58.77,229.69Z"/>
  <path class="cls-11" d="M618.23,547.26a10.45,10.45,0,0,0-1.49.12L613.41,536a6.21,6.21,0,1,0-2.85.69l.57,0L614.45,548a10.43,10.43,0,0,0-5.2,15.11l-9,6.32a6,6,0,1,0,1.48,4,6.17,6.17,0,0,0-.3-1.88l9.28-6.5a10.47,10.47,0,1,0,7.55-17.72Z" transform="translate(-311.21 -393.33)"/>
  <path class="cls-11" d="M644.55,510.25a3.43,3.43,0,0,0-3.43,3.44,3.38,3.38,0,0,0,.37,1.52l-4.75,4.07a5.75,5.75,0,1,0-3.53,10.28,5.82,5.82,0,0,0,1.78-.28l3.22,5.57a3.49,3.49,0,0,0,2.09,6.28,3.5,3.5,0,1,0,0-7,2.88,2.88,0,0,0-.59.06l-3.26-5.64a5.74,5.74,0,0,0,1.42-8.11l4.66-4a3.38,3.38,0,0,0,2,.67,3.44,3.44,0,0,0,0-6.87Z" transform="translate(-311.21 -393.33)"/>
  <g>
    <rect class="cls-2" x="304.52" y="67.78" width="4.07" height="1.04" rx="0.52"/>
    <rect class="cls-2" x="294.34" y="67.78" width="4.07" height="1.04" rx="0.52"/>
    <rect class="cls-2" x="608.63" y="467.88" width="7.82" height="1.04" rx="0.52" transform="translate(769.73 -537.47) rotate(90)"/>
    <rect class="cls-2" x="608.63" y="454.1" width="7.82" height="1.04" rx="0.52" transform="translate(755.95 -551.24) rotate(90)"/>
  </g>
  <g>
    <rect class="cls-2" x="263.88" y="140.53" width="2.14" height="0.55" rx="0.27"/>
    <rect class="cls-2" x="258.52" y="140.53" width="2.14" height="0.55" rx="0.27"/>
    <rect class="cls-2" x="571.35" y="537.43" width="4.12" height="0.55" rx="0.27" transform="translate(799.9 -429.04) rotate(90)"/>
    <rect class="cls-2" x="571.35" y="530.16" width="4.12" height="0.55" rx="0.27" transform="translate(792.64 -436.3) rotate(90)"/>
  </g>
  <g>
    <rect class="cls-2" x="372.45" y="220.49" width="4.07" height="1.04" rx="0.52"/>
    <rect class="cls-2" x="362.27" y="220.49" width="4.07" height="1.04" rx="0.52"/>
    <rect class="cls-2" x="676.55" y="620.58" width="7.82" height="1.04" rx="0.52" transform="translate(990.36 -452.69) rotate(90)"/>
    <rect class="cls-2" x="676.55" y="606.81" width="7.82" height="1.04" rx="0.52" transform="translate(976.59 -466.47) rotate(90)"/>
  </g>
  <g>
    <rect class="cls-2" x="122.45" y="14.4" width="2.91" height="0.74" rx="0.37"/>
    <rect class="cls-2" x="115.17" y="14.4" width="2.91" height="0.74" rx="0.37"/>
    <rect class="cls-2" x="428.58" y="412.56" width="5.59" height="0.74" rx="0.37" transform="translate(533.11 -411.77) rotate(90)"/>
    <rect class="cls-2" x="428.58" y="402.72" width="5.59" height="0.74" rx="0.37" transform="translate(523.27 -421.61) rotate(90)"/>
  </g>
  <g>
    <rect class="cls-2" x="47.27" y="108.45" width="2.25" height="0.58" rx="0.29"/>
    <rect class="cls-2" x="41.63" y="108.45" width="2.25" height="0.58" rx="0.29"/>
    <rect class="cls-2" x="354.54" y="505.52" width="4.33" height="0.58" rx="0.29" transform="translate(551.31 -244.23) rotate(90)"/>
    <rect class="cls-2" x="354.54" y="497.9" width="4.33" height="0.58" rx="0.29" transform="translate(543.69 -251.85) rotate(90)"/>
  </g>
  <rect class="cls-18" x="223.01" y="28.56" width="4.2" height="4.2" rx="0.55"/>
  <rect class="cls-18" x="223.01" y="35.76" width="4.2" height="4.2" rx="0.55"/>
  <rect class="cls-18" x="213.64" y="50.62" width="4.2" height="4.2" rx="0.55"/>
  <rect class="cls-18" x="213.64" y="58.02" width="4.2" height="4.2" rx="0.55"/>
  <rect class="cls-18" x="213.64" y="65.31" width="4.2" height="4.2" rx="0.55"/>
</svg>
